<svg version="1.2" xmlns="http://www.w3.org/2000/svg" viewBox="0 0 70 70" width="70" height="70"><style>.a{fill:#fff2b4}.b{fill:#fbc56d}.c{fill:#f8bb5e}.d{fill:#73d37a}.e{fill:#49cb5c}.f{fill:#fff5f5}.g{fill:#495959}.h{fill:#607882}.i{fill:#0cabb9}.j{fill:#2abbc7}.k{fill:#75ccd4}.l{fill:#d73131}.m{fill:#e84444}.n{fill:#a62b2b}.o{fill:#925b44}.p{fill:#fc9302}.q{fill:#fc6930}.r{fill:#fd7d43}.s{fill:#ee4424}</style><path class="a" d="m59.8 59.8c-13.7 13.6-35.9 13.6-49.5 0-13.7-13.7-13.7-35.9 0-49.5 13.6-13.7 35.8-13.7 49.5 0 13.6 13.6 13.6 35.8 0 49.5z"/><path class="b" d="m29.2 23.6v45.9c-6.9-1.1-13.6-4.4-18.9-9.7-10-10-12.7-24.5-8.1-36.9h26.3c0.4 0 0.7 0.3 0.7 0.7zm38.7-0.7h-32.8c-0.4 0-0.7 0.3-0.7 0.7v46.4c9.2 0.2 18.4-3.3 25.4-10.2 9.9-10 12.6-24.5 8.1-36.9z"/><path class="c" d="m12.3 30.1c0 0.7-0.6 1.3-1.3 1.3h-4.1c-0.8 0-1.4-0.6-1.4-1.3 0-0.8 0.6-1.4 1.4-1.4h4.1c0.7 0 1.3 0.6 1.3 1.4zm-5.4 17.8h-4.1q-0.2 0-0.3 0 0.5 1.4 1.2 2.7h3.2c0.7 0 1.3-0.6 1.3-1.4 0-0.7-0.6-1.3-1.3-1.3zm51.9 2.7h-2.7c-0.8 0-1.4 0.6-1.4 1.4 0 0.7 0.6 1.3 1.4 1.3h2.7c0.8 0 1.4-0.6 1.4-1.3 0-0.8-0.6-1.4-1.4-1.4zm-9.6 15h-2.7c-0.8 0-1.4 0.6-1.4 1.4 0 0.6 0.4 1 0.9 1.3q2.3-0.8 4.5-1.9c-0.2-0.4-0.7-0.8-1.3-0.8zm-6.8-25.9v-0.1c0-0.7 0.6-1.3 1.3-1.3 0.7 0 1.4-0.6 1.4-1.3 0.1-0.8-0.5-1.4-1.3-1.4h-2.8c-0.7 0-1.3 0.6-1.3 1.3 0 0.7-0.6 1.4-1.4 1.4q0 0 0 0v-5.5c0-0.7 0.6-1.4 1.4-1.4h1.3c0.7 0 1.4-0.5 1.4-1.2 0-0.8-0.6-1.5-1.4-1.5h-1.3c-0.8 0-1.4-0.6-1.4-1.4v-3.7c0-0.4 0.3-0.7 0.7-0.7h-3.9c-0.4 0-0.7 0.3-0.7 0.7v46.4q2 0 3.9-0.2v-27.4c0-0.8 0.6-1.4 1.4-1.4h1.3c0.8 0 1.4-0.6 1.4-1.3zm1.4 16.4h-2.8c-0.7 0-1.3 0.6-1.3 1.3 0 0.8 0.6 1.4 1.3 1.4h2.8c0.7 0 1.3-0.6 1.3-1.4 0-0.7-0.6-1.3-1.3-1.3zm21.8-24.7h-4.1c-0.7 0-1.3 0.7-1.3 1.4 0 0.8 0.6 1.4 1.3 1.4h4.1c0.8 0 1.4-0.6 1.4-1.4 0-0.7-0.6-1.4-1.4-1.4z"/><path class="d" d="m65.5 17.7h-30.4c-0.4 0-0.7-0.3-0.7-0.7v-17c9.2-0.1 18.4 3.3 25.4 10.3 2.2 2.2 4.1 4.7 5.7 7.4zm-60.9 0h23.9c0.4 0 0.7-0.3 0.7-0.7v-16.5c-6.9 1.1-13.6 4.4-18.9 9.8-2.3 2.2-4.2 4.7-5.7 7.4z"/><path class="e" d="m39 17.7h-3.9c-0.4 0-0.7-0.3-0.7-0.7v-17q2 0 3.9 0.2v16.8c0 0.4 0.3 0.7 0.7 0.7zm-14.4-5.4h-2.7c-0.8 0-1.4 0.6-1.4 1.4 0 0.7 0.6 1.3 1.4 1.3h2.7c0.8 0 1.4-0.6 1.4-1.3 0-0.8-0.6-1.4-1.4-1.4zm1.4-8.2h-2.7c-0.8 0-1.4 0.6-1.4 1.4 0 0.7 0.6 1.3 1.4 1.3h2.7c0.7 0 1.4-0.6 1.4-1.3 0-0.8-0.7-1.4-1.4-1.4zm-6.8 4.1h-2.8c-0.7 0-1.3 0.6-1.3 1.4 0 0.8-0.6 1.3-1.4 1.3-0.7 0-1.3 0.6-1.4 1.3 0 0.8 0.6 1.5 1.4 1.5h2.7c0.8 0 1.4-0.6 1.4-1.4 0-0.8 0.6-1.4 1.3-1.4 0.7 0 1.4-0.5 1.4-1.2 0.1-0.8-0.6-1.5-1.3-1.5z"/><path class="f" d="m64.3 42c0 2.5-2 4.5-4.5 4.5h-13c-1.3 0-2.3 1.1-2.3 2.4 0 1.3 1 2.4 2.3 2.4h6.2c2.4 0 4.4 2 4.4 4.4 0 2.5-2 4.5-4.4 4.5h-19.1c-0.6 0-1.1-0.5-1.1-1.1 0-0.5 0.5-1 1.1-1h19.1c1.3 0 2.4-1.1 2.4-2.4 0-1.3-1.1-2.4-2.4-2.4h-6.2c-2.4 0-4.4-2-4.4-4.4 0-2.5 2-4.5 4.4-4.5h13c1.4 0 2.4-1 2.4-2.4 0-1.3-1-2.3-2.4-2.3h-8.2c-0.5 0-1-0.5-1-1.1 0-0.5 0.5-1 1-1h8.2c2.5 0 4.5 2 4.5 4.4z"/><path class="g" d="m34.2 65.6h-23.2c-0.8 0-1.4-0.6-1.4-1.3v-41.1c0-0.7 0.6-1.3 1.4-1.3h23.2c0.8 0 1.4 0.6 1.4 1.3v41.1c0 0.7-0.6 1.3-1.4 1.3z"/><path class="h" d="m34.2 65.6h-20.6c-0.8 0-1.4-0.6-1.4-1.3v-41.1c0-0.7 0.6-1.3 1.4-1.3h20.6c0.8 0 1.4 0.6 1.4 1.3v41.1c0 0.7-0.6 1.3-1.4 1.3z"/><path fill-rule="evenodd" class="i" d="m35.6 26v34.2h-26v-34.2z"/><path fill-rule="evenodd" class="j" d="m35.6 26v34.2h-23.4v-34.2z"/><path class="g" d="m23.9 62.9c0 0.8-0.6 1.4-1.3 1.4-0.8 0-1.4-0.6-1.4-1.4 0-0.8 0.6-1.4 1.4-1.4 0.7 0 1.3 0.6 1.3 1.4zm2.1-39.7h-6.8c-0.4 0-0.7 0.4-0.7 0.7 0 0.4 0.3 0.7 0.7 0.7h6.8c0.4 0 0.7-0.3 0.7-0.7 0-0.3-0.3-0.7-0.7-0.7z"/><path class="k" d="m32.8 29.4v6.8c0 0.4-0.3 0.7-0.7 0.7h-20.5c-0.3 0-0.6-0.3-0.6-0.7v-6.8c0-0.4 0.3-0.7 0.6-0.7h20.5c0.4 0 0.7 0.3 0.7 0.7zm-0.7 8.9h-20.5c-0.3 0-0.6 0.3-0.6 0.7v6.8c0 0.4 0.3 0.7 0.6 0.7h20.5c0.4 0 0.7-0.3 0.7-0.7v-6.8c0-0.4-0.3-0.7-0.7-0.7zm0 9.6h-20.5c-0.3 0-0.6 0.3-0.6 0.6v6.9c0 0.4 0.3 0.7 0.6 0.7h20.5c0.4 0 0.7-0.3 0.7-0.7v-6.9c0-0.3-0.3-0.6-0.7-0.6z"/><path class="j" d="m31.5 53.7c0 0.5-0.5 1-1.1 1-0.5 0-1-0.5-1-1 0-0.6 0.5-1.1 1-1.1 0.6 0 1.1 0.5 1.1 1.1zm-15.8-4.5c-1.5 0-2.7 1.2-2.7 2.8 0 1.5 1.2 2.7 2.7 2.7 1.6 0 2.8-1.2 2.8-2.7 0-1.6-1.2-2.8-2.8-2.8zm13.7 0.3c0-0.2-0.1-0.3-0.3-0.3h-9c-0.1 0-0.3 0.1-0.3 0.3v1.5c0 0.2 0.2 0.3 0.3 0.3h9c0.2 0 0.3-0.1 0.3-0.3zm-3 3.1h-6.3c-0.1 0-0.3 0.2-0.3 0.3v1.5c0 0.2 0.2 0.3 0.3 0.3h6.3c0.2 0 0.3-0.1 0.3-0.3v-1.5c0-0.1-0.1-0.3-0.3-0.3zm4-17c0.6 0 1.1-0.5 1.1-1.1 0-0.5-0.5-1-1.1-1-0.5 0-1 0.5-1 1 0 0.6 0.5 1.1 1 1.1zm-14.7-5.5c-1.5 0-2.7 1.2-2.7 2.7 0 1.5 1.2 2.8 2.7 2.8 1.6 0 2.8-1.3 2.8-2.8 0-1.5-1.2-2.7-2.8-2.7zm4.4 2h9c0.2 0 0.3-0.1 0.3-0.2v-1.5c0-0.2-0.1-0.3-0.3-0.3h-9c-0.1 0-0.3 0.1-0.3 0.3v1.5c0 0.1 0.2 0.2 0.3 0.2zm0 3.5h6.3c0.2 0 0.3-0.2 0.3-0.3v-1.5c0-0.2-0.1-0.3-0.3-0.3h-6.3c-0.1 0-0.3 0.1-0.3 0.3v1.5c0 0.1 0.2 0.3 0.3 0.3z"/><path class="l" d="m29.4 45.1h-24.6c-0.4 0-0.7-0.3-0.7-0.7v-10.9c0-0.4 0.3-0.7 0.7-0.7h24.6c0.4 0 0.7 0.3 0.7 0.7v10.9c0 0.4-0.3 0.7-0.7 0.7z"/><path class="m" d="m29.4 45.1h-21.9c-0.3 0-0.6-0.3-0.6-0.7v-10.9c0-0.4 0.3-0.7 0.6-0.7h21.9c0.4 0 0.7 0.3 0.7 0.7v10.9c0 0.4-0.3 0.7-0.7 0.7z"/><path class="n" d="m27.4 34.8v1.5c0 0.2-0.2 0.3-0.3 0.3h-9c-0.2 0-0.3-0.1-0.3-0.3v-1.5c0-0.2 0.1-0.3 0.3-0.3h9c0.1 0 0.3 0.1 0.3 0.3zm-3 3.1h-6.3c-0.2 0-0.3 0.2-0.3 0.3v1.5c0 0.2 0.1 0.3 0.3 0.3h6.3c0.1 0 0.2-0.1 0.2-0.3v-1.5c0-0.1-0.1-0.3-0.2-0.3zm1.9 3.5c-0.5 0-1 0.4-1 1 0 0.6 0.5 1 1 1 0.6 0 1.1-0.4 1.1-1 0-0.6-0.5-1-1.1-1z"/><path fill-rule="evenodd" class="f" d="m10.3 43.8c-2.7 0-4.8-2.2-4.8-4.8 0-2.7 2.1-4.8 4.8-4.8 2.6 0 4.8 2.1 4.8 4.8 0 2.6-2.2 4.8-4.8 4.8z"/><path class="c" d="m13 39.2c0.4 0 0.7 0.3 0.7 0.7 0 0.4-0.3 0.7-0.7 0.7 0.4 0 0.7 0.3 0.7 0.7 0 0.4-0.3 0.7-0.7 0.7h-5.5c-0.3 0-0.6-0.3-0.6-0.7 0-0.4 0.3-0.7 0.6-0.7-0.3 0-0.6-0.3-0.6-0.7 0-0.4 0.3-0.7 0.6-0.7-0.3 0-0.6-0.3-0.6-0.6 0-1.9 1.5-3.5 3.4-3.5 1.9 0 3.4 1.6 3.4 3.5 0 0.3-0.3 0.6-0.7 0.6z"/><path class="o" d="m13 40.6h-5.5c-0.3 0-0.6-0.3-0.6-0.7 0-0.4 0.3-0.7 0.6-0.7h5.5c0.4 0 0.7 0.3 0.7 0.7 0 0.4-0.3 0.7-0.7 0.7z"/><path class="p" d="m11.3 39.2q0 0.3-0.2 0.4l-1.1 1.2c-0.2 0.2-0.6 0.2-0.8 0l-1.2-1.2q-0.1-0.1-0.1-0.4z"/><path class="q" d="m62 24c-3.9 4.4-7.3 9.3-9.7 14.6l-0.3 0.6c-0.3 0.6-1.2 0.6-1.6 0-2.5-5.6-5.9-10.7-10-15.3-2-2.4-3.4-5.4-3.5-8.8-0.4-8.5 6.6-15.5 15.1-15.1 7.6 0.4 13.6 6.7 13.6 14.4 0 3.7-1.3 7-3.6 9.6z"/><path class="r" d="m62 24c-3.6 4-6.7 8.5-9.1 13.3-2.4-4.8-5.5-9.3-9.1-13.4-2.1-2.4-3.4-5.4-3.6-8.8-0.4-7.7 5.4-14.1 12.7-15 7.2 0.8 12.7 6.9 12.7 14.3 0 3.7-1.3 7-3.6 9.6z"/><path class="s" d="m59.7 6c4.7 4.6 4.7 12.2 0 16.8-4.7 4.7-12.2 4.7-16.9 0-4.7-4.6-4.7-12.2 0-16.8 4.7-4.7 12.2-4.7 16.9 0z"/><path class="f" d="m57.8 13.7h-3l-0.7-2.2c-0.2-0.6-0.7-1-1.3-1h-3.1c-0.6 0-1.1 0.4-1.3 1l-0.7 2.2h-3c-0.4 0-0.8 0.3-0.8 0.8v6.7c0 0.5 0.4 0.8 0.8 0.8h13.1c0.4 0 0.8-0.3 0.8-0.8v-6.7c0-0.5-0.4-0.8-0.8-0.8zm-5.4-0.6h-2.3c-0.3 0-0.6-0.3-0.6-0.6 0-0.4 0.3-0.6 0.6-0.6h2.3c0.3 0 0.6 0.2 0.6 0.6 0 0.3-0.3 0.6-0.6 0.6zm-8-3.4c0-1.4 1.2-2.6 2.6-2.6h5.1c0.6 0 1.1-0.5 1.1-1.1 0-0.6-0.5-1.1-1.1-1.1-0.4 0-0.7-0.3-0.7-0.7 0-0.4 0.3-0.7 0.7-0.7 1.4 0 2.6 1.1 2.6 2.5 0 1.4-1.2 2.6-2.6 2.6h-5.1c-0.6 0-1.1 0.5-1.1 1.1 0 0.6 0.5 1.1 1.1 1.1 0.4 0 0.7 0.3 0.7 0.7 0 0.4-0.3 0.8-0.7 0.8-1.4 0-2.6-1.2-2.6-2.6z"/><path class="a" d="m53.3 14.4c0 0.4-0.3 0.6-0.7 0.6h-5.2c-0.7 0-1.3 0.6-1.3 1.4v4.8c0 0.5 0.3 0.8 0.8 0.8h-2.2c-0.4 0-0.8-0.3-0.8-0.8v-6.7c0-0.5 0.4-0.8 0.8-0.8h8c0.4 0 0.7 0.3 0.6 0.7z"/></svg>