<svg version="1.2" xmlns="http://www.w3.org/2000/svg" viewBox="0 0 68 70" width="68" height="70"><style>.a{fill:#7f7f7f}.b{fill:#ededed}.c{fill:#f9b5a7}.d{fill:#f9c7bd}.e{fill:#ffdbd4}.f{fill:#3581ef}.g{fill:#6b6b6b}.h{fill:#e3e3e3}.i{fill:#ea3232}.j{fill:#c92b2b}.k{fill:#fff}</style><path fill-rule="evenodd" class="a" d="m25.4 0h37.2c2.6 0 4.6 2.1 4.6 4.7v60.6c0 2.6-2 4.7-4.6 4.7h-37.2c-2.6 0-4.7-2.1-4.7-4.7v-60.6c0-2.6 2.1-4.7 4.7-4.7z"/><path fill-rule="evenodd" class="b" d="m62.6 7v53.7h-37.2v-53.7z"/><path class="c" d="m18.4 23.3l-3.4 0.5q-0.6 0.2-1.1 0.5-0.5 0.3-0.9 0.8-0.4 0.4-0.7 0.9-0.3 0.6-0.5 1.1l-1 4.1-6.4 6.1 8.3 8.3 5.8-5.7z"/><path class="d" d="m23.6 40.2q0.4-0.2 0.9-0.4 0.4-0.2 0.8-0.4 0.4-0.2 0.8-0.4 0.4-0.3 0.8-0.5 0.3-0.2 0.6-0.6 0.3-0.3 0.4-0.7 0.1-0.4 0.1-0.8 0-0.4-0.2-0.8l-3.8-9.2-2.7 1.3 2.7-1.3 5-4.9c0.5-0.4 0.7-1 0.7-1.7 0-0.6-0.2-1.2-0.6-1.6-0.5-0.5-1.1-0.7-1.7-0.7-0.6 0-1.2 0.2-1.6 0.7l-5.1 4.9 0.6 4.4c0.1 0.5 0.1 1-0.1 1.5-0.3 0.4-0.6 0.8-1 1-0.5 0.3-1 0.4-1.5 0.3-0.5-0.1-0.9-0.3-1.3-0.6q-0.4 0.2-0.7 0.5-0.4 0.4-0.7 0.7-0.2 0.4-0.4 0.9-0.2 0.4-0.3 0.8-0.1 1.1 0.1 2.1 0.2 1 0.6 2 0.4 0.9 1.1 1.8 0.6 0.8 1.4 1.4 0.6 0.4 1.2 0.6 0.7 0.2 1.3 0.2 0.7 0 1.4-0.1 0.6-0.1 1.2-0.4z"/><path class="e" d="m19.5 30.3q0.5-0.1 0.9-0.4 0.3-0.2 0.6-0.6 0.2-0.4 0.3-0.9 0.1-0.4 0-0.9l-0.6-4.4-5.7 0.7 1.8 4.7q0 0.2 0.1 0.3 0 0.2 0.1 0.3 0.1 0.2 0.2 0.3 0.1 0.2 0.2 0.3 0.2 0.2 0.5 0.3 0.2 0.2 0.5 0.2 0.3 0.1 0.6 0.1 0.2 0 0.5 0z"/><path fill-rule="evenodd" class="f" d="m0.6 38.9l1.9-1.9c0.4-0.5 1.2-0.5 1.6 0l8.8 8.8c0.5 0.5 0.5 1.2 0 1.7l-1.8 1.8c-0.5 0.5-1.2 0.5-1.7 0l-8.8-8.8c-0.4-0.5-0.4-1.2 0-1.6z"/><path class="g" d="m62.6 67.7h-37.2q-0.9 0-1.8-0.4-0.8-0.3-1.5-1-0.7-0.7-1-1.5-0.4-0.9-0.4-1.8v2.3q0 1 0.4 1.8 0.3 0.9 1 1.5 0.7 0.7 1.5 1 0.9 0.4 1.8 0.4h37.2q0.9 0 1.8-0.4 0.8-0.3 1.5-1 0.6-0.6 1-1.5 0.3-0.8 0.3-1.8v-2.3q0 0.9-0.3 1.8-0.4 0.8-1 1.5-0.7 0.7-1.5 1-0.9 0.4-1.8 0.4z"/><path class="h" d="m41.7 58.3q-0.6 0-1.1-0.2-0.6-0.1-1-0.5-0.5-0.3-0.8-0.8-0.3-0.5-0.5-1-0.5 0.3-1.1 0.4-0.5 0.1-1.1 0-0.5-0.1-1.1-0.3-0.5-0.3-0.9-0.7l-3.3-3.3q-0.4-0.4-0.6-0.9-0.3-0.5-0.4-1.1 0-0.6 0.1-1.1 0.1-0.6 0.4-1.1-0.6-0.2-1.1-0.5-0.4-0.3-0.8-0.8-0.3-0.4-0.5-1-0.2-0.5-0.2-1.1v-4.6q0-0.6 0.2-1.1 0.2-0.6 0.5-1 0.4-0.5 0.8-0.8 0.5-0.3 1.1-0.5-0.3-0.5-0.4-1.1-0.1-0.5-0.1-1.1 0.1-0.6 0.4-1.1 0.2-0.5 0.6-0.9l3.3-3.3q0.4-0.4 0.9-0.7 0.6-0.2 1.1-0.3 0.6-0.1 1.1 0 0.6 0.1 1.1 0.4 0.2-0.5 0.5-1 0.3-0.5 0.8-0.8 0.4-0.4 1-0.5 0.5-0.2 1.1-0.2h4.6q0.6 0 1.1 0.2 0.6 0.1 1 0.5 0.5 0.3 0.8 0.8 0.3 0.5 0.5 1 0.5-0.3 1-0.4 0.6-0.1 1.2 0 0.5 0.1 1 0.3 0.6 0.3 1 0.7l3.2 3.3q0.4 0.4 0.7 0.9 0.3 0.5 0.3 1.1 0.1 0.6 0 1.1-0.1 0.6-0.4 1.1 0.6 0.2 1 0.5 0.5 0.3 0.9 0.8 0.3 0.4 0.5 1 0.2 0.5 0.2 1.1v4.6q0 0.6-0.2 1.1-0.2 0.6-0.5 1-0.4 0.5-0.9 0.8-0.4 0.3-1 0.5 0.3 0.5 0.4 1.1 0.1 0.5 0 1.1 0 0.6-0.3 1.1-0.3 0.5-0.7 0.9l-3.2 3.3q-0.4 0.4-1 0.7-0.5 0.2-1 0.3-0.6 0.1-1.2 0-0.5-0.1-1-0.4-0.2 0.5-0.5 1-0.3 0.5-0.8 0.8-0.4 0.4-1 0.5-0.5 0.2-1.1 0.2zm2.3-21c-1.8 0-3.5 1.2-4.3 2.9-0.7 1.8-0.3 3.8 1.1 5.1 1.3 1.3 3.3 1.7 5 1 1.8-0.7 2.9-2.4 2.9-4.3q0-0.9-0.4-1.8-0.3-0.8-1-1.5-0.6-0.7-1.5-1-0.8-0.4-1.8-0.4z"/><path class="f" d="m32.8 38.5h-1.6q-0.2 0-0.4 0.1-0.3 0.1-0.4 0.2-0.2 0.2-0.3 0.4-0.1 0.2-0.1 0.5v4.6q0 0.3 0.1 0.5 0.1 0.2 0.3 0.4 0.1 0.1 0.4 0.2 0.2 0.1 0.4 0.1h1.6q0.3 0 0.6 0.2 0.3 0.2 0.4 0.5 0.2 0.3 0.1 0.7-0.1 0.3-0.3 0.6l-1.1 1.1q-0.2 0.2-0.3 0.4-0.1 0.2-0.1 0.4 0 0.3 0.1 0.5 0.1 0.2 0.3 0.3l3.3 3.4q0.1 0.1 0.3 0.2 0.3 0.1 0.5 0.1 0.2 0 0.4-0.1 0.2-0.1 0.4-0.2l1.1-1.2q0.3-0.2 0.6-0.3 0.4 0 0.7 0.1 0.3 0.1 0.5 0.4 0.2 0.3 0.2 0.7v1.5q0 0.3 0.1 0.5 0.1 0.2 0.2 0.4 0.2 0.1 0.4 0.2 0.2 0.1 0.5 0.1h4.6q0.2 0 0.5-0.1 0.2-0.1 0.3-0.2 0.2-0.2 0.3-0.4 0.1-0.2 0.1-0.5v-1.5q0-0.4 0.2-0.7 0.2-0.3 0.5-0.4 0.3-0.1 0.7-0.1 0.3 0.1 0.6 0.3l1.1 1.1q0.1 0.2 0.3 0.3 0.3 0.1 0.5 0.1 0.2 0 0.4-0.1 0.2-0.1 0.4-0.3l3.3-3.3q0.2-0.1 0.3-0.3 0-0.2 0-0.5 0-0.2 0-0.4-0.1-0.2-0.3-0.4l-1.1-1.1q-0.3-0.3-0.3-0.6-0.1-0.4 0-0.7 0.2-0.3 0.5-0.5 0.3-0.2 0.6-0.2h1.6q0.2 0 0.4-0.1 0.2-0.1 0.4-0.2 0.2-0.2 0.3-0.4 0-0.2 0-0.5v-4.6q0-0.3 0-0.5-0.1-0.2-0.3-0.4-0.2-0.1-0.4-0.2-0.2-0.1-0.4-0.1h-1.6q-0.3 0-0.6-0.2-0.3-0.2-0.5-0.5-0.1-0.3 0-0.7 0-0.3 0.3-0.6l1.1-1.1q0.2-0.2 0.3-0.4 0-0.2 0-0.4 0-0.3 0-0.5-0.1-0.2-0.3-0.3l-3.3-3.3q-0.2-0.2-0.4-0.3-0.2-0.1-0.4-0.1-0.2 0-0.5 0.1-0.2 0.1-0.3 0.3l-1.1 1.1q-0.3 0.2-0.6 0.3-0.4 0-0.7-0.1-0.3-0.1-0.5-0.4-0.2-0.3-0.2-0.7v-1.5q0-0.3-0.1-0.5-0.1-0.2-0.3-0.4-0.1-0.1-0.3-0.2-0.3-0.1-0.5-0.1h-4.6q-0.3 0-0.5 0.1-0.2 0.1-0.4 0.2-0.1 0.2-0.2 0.4-0.1 0.2-0.1 0.5v1.5q0 0.4-0.2 0.7-0.2 0.3-0.5 0.4-0.3 0.1-0.7 0.1-0.3-0.1-0.6-0.3l-1.1-1.1q-0.2-0.2-0.4-0.3-0.2-0.1-0.4-0.1-0.2 0-0.5 0.1-0.2 0.1-0.3 0.3l-3.3 3.3q-0.2 0.1-0.3 0.3-0.1 0.2-0.1 0.5 0 0.2 0.1 0.4 0.1 0.2 0.3 0.4l1.1 1.1q0.2 0.3 0.3 0.6 0.1 0.4-0.1 0.7-0.1 0.3-0.4 0.5-0.3 0.2-0.6 0.2zm11.2-3.5c2.8 0 5.4 1.7 6.4 4.3 1.1 2.6 0.5 5.6-1.5 7.6-2 2.1-5 2.7-7.6 1.6-2.6-1.1-4.3-3.7-4.3-6.5q0-1.4 0.5-2.7 0.6-1.3 1.6-2.2 0.9-1 2.2-1.6 1.3-0.5 2.7-0.5z"/><path class="i" d="m51 18.7l-11.7-4.7 2.4 4.7-2.4 4.6z"/><path class="j" d="m51 18.7h-9.3l-2.4 4.6z"/><path class="k" d="m45.2 4.7h-2.4c-0.3 0-0.6-0.2-0.8-0.4-0.2-0.2-0.3-0.5-0.3-0.8 0-0.3 0.1-0.6 0.3-0.8 0.2-0.2 0.5-0.4 0.8-0.4h2.4c0.3 0 0.6 0.2 0.8 0.4 0.2 0.2 0.3 0.5 0.3 0.8 0 0.3-0.1 0.6-0.3 0.8-0.2 0.2-0.5 0.4-0.8 0.4zm1.1 60.6q0-0.2-0.1-0.4-0.1-0.2-0.2-0.4-0.2-0.2-0.4-0.2-0.2-0.1-0.4-0.1h-2.4c-0.3 0-0.6 0.1-0.8 0.3-0.2 0.2-0.3 0.5-0.3 0.8 0 0.3 0.1 0.6 0.3 0.9 0.2 0.2 0.5 0.3 0.8 0.3h2.4q0.2 0 0.4-0.1 0.2-0.1 0.4-0.2 0.1-0.2 0.2-0.4 0.1-0.2 0.1-0.5zm15.1 0q0-0.2-0.1-0.4 0-0.2-0.2-0.4-0.2-0.2-0.4-0.2-0.2-0.1-0.4-0.1h-2.4c-0.3 0-0.6 0.1-0.8 0.3-0.2 0.2-0.3 0.5-0.3 0.8 0 0.3 0.1 0.6 0.3 0.9 0.2 0.2 0.5 0.3 0.8 0.3h2.4q0.2 0 0.4-0.1 0.2-0.1 0.4-0.2 0.2-0.2 0.2-0.4 0.1-0.2 0.1-0.5zm-30.2 0q0-0.2-0.1-0.4-0.1-0.2-0.2-0.4-0.2-0.2-0.4-0.2-0.2-0.1-0.5-0.1h-2.3c-0.3 0-0.6 0.1-0.8 0.3-0.2 0.2-0.4 0.5-0.4 0.8 0 0.3 0.2 0.6 0.4 0.9 0.2 0.2 0.5 0.3 0.8 0.3h2.3q0.3 0 0.5-0.1 0.2-0.1 0.4-0.2 0.1-0.2 0.2-0.4 0.1-0.2 0.1-0.5z"/><path class="j" d="m34.7 19.8h-1.2c-0.3 0-0.6-0.1-0.8-0.3-0.2-0.2-0.3-0.5-0.3-0.8 0-0.3 0.1-0.6 0.3-0.9 0.2-0.2 0.5-0.3 0.8-0.3h1.2c0.3 0 0.6 0.1 0.8 0.3 0.2 0.3 0.4 0.6 0.4 0.9 0 0.3-0.2 0.6-0.4 0.8-0.2 0.2-0.5 0.3-0.8 0.3z"/><path class="j" d="m56.8 19.8h-1.2c-0.3 0-0.6-0.1-0.8-0.3-0.2-0.2-0.3-0.5-0.3-0.8 0-0.3 0.1-0.6 0.3-0.9 0.2-0.2 0.5-0.3 0.8-0.3h1.2c0.3 0 0.6 0.1 0.8 0.3 0.2 0.3 0.3 0.6 0.3 0.9 0 0.3-0.1 0.6-0.3 0.8-0.2 0.2-0.5 0.3-0.8 0.3z"/></svg>