<svg id="Capa_1" enable-background="new 0 0 512 512" height="512" viewBox="0 0 512 512" width="512" xmlns="http://www.w3.org/2000/svg"><g><path d="m407.437 464.943v-425.796c0-21.62-17.527-39.147-39.147-39.147h-224.58c-21.62 0-39.147 17.527-39.147 39.147v425.796z" fill="#3b66c1"/><path d="m376.531 39.147v425.796h30.905v-425.796c.001-21.62-17.526-39.147-39.146-39.147h-30.905c21.62 0 39.146 17.527 39.146 39.147z" fill="#30579d"/><path d="m376.531 460.491h-241.062v-421.344c0-4.552 3.69-8.241 8.241-8.241h224.58c4.552 0 8.241 3.69 8.241 8.241z" fill="#f4fbff"/><path d="m368.29 30.905h-30.905c4.552 0 8.241 3.69 8.241 8.241v421.344h30.905v-421.343c0-4.552-3.69-8.242-8.241-8.242z" fill="#e4f6ff"/><path d="m368.29 512h-224.58c-21.62 0-39.147-17.527-39.147-39.147v-12.362h302.873v12.362c.001 21.62-17.526 39.147-39.146 39.147z" fill="#4073c8"/><path d="m376.531 460.491v12.362c0 21.62-17.527 39.147-39.147 39.147h30.905c21.62 0 39.147-17.527 39.147-39.147v-12.362z" fill="#3b66c1"/><path d="m288.277 411.443h-64.554c-9.542 0-17.872-6.462-20.245-15.704l-12.894-50.227h130.833l-12.894 50.227c-2.373 9.242-10.704 15.704-20.246 15.704z" fill="#dd4fb1"/><path d="m290.511 345.511-12.894 50.227c-2.373 9.242-10.703 15.704-20.245 15.704h30.905c9.542 0 17.872-6.462 20.245-15.704l12.894-50.227z" fill="#da2ea2"/><path d="m175.131 202.431h-164.829c-5.69 0-10.302-4.613-10.302-10.302v-103.018c0-5.69 4.612-10.302 10.302-10.302h164.829c5.69 0 10.302 4.612 10.302 10.302v103.018c0 5.689-4.613 10.302-10.302 10.302z" fill="#ffe07d"/><path d="m175.131 78.809h-30.905c5.69 0 10.302 4.612 10.302 10.302v103.018c0 5.69-4.612 10.302-10.302 10.302h30.905c5.69 0 10.302-4.612 10.302-10.302v-103.018c0-5.69-4.613-10.302-10.302-10.302z" fill="#ffd064"/><g fill="#4073c8"><path d="m201.75 258.812c-1.86-3.7-6.368-5.192-10.069-3.333-3.701 1.86-5.193 6.368-3.333 10.069l30.676 61.032c1.317 2.62 3.961 4.134 6.707 4.134 1.132 0 2.282-.258 3.362-.801 3.701-1.86 5.193-6.368 3.333-10.069z"/><path d="m320.319 255.479c-3.702-1.859-8.209-.367-10.069 3.333l-30.676 61.032c-1.86 3.701-.368 8.209 3.333 10.069 1.081.543 2.23.801 3.362.801 2.746 0 5.39-1.514 6.707-4.134l30.676-61.032c1.861-3.7.369-8.208-3.333-10.069z"/></g><path d="m501.698 202.431h-164.829c-5.69 0-10.302-4.612-10.302-10.302v-103.018c0-5.69 4.612-10.302 10.302-10.302h164.829c5.69 0 10.302 4.612 10.302 10.302v103.018c0 5.689-4.612 10.302-10.302 10.302z" fill="#6bbef6"/><path d="m501.698 78.809h-30.905c5.69 0 10.302 4.612 10.302 10.302v103.018c0 5.69-4.612 10.302-10.302 10.302h30.905c5.69 0 10.302-4.612 10.302-10.302v-103.018c0-5.69-4.612-10.302-10.302-10.302z" fill="#5ea5ec"/><path d="m285.532 218.437c-2.919-2.939-7.668-2.955-10.606-.038l-11.426 11.344v-86.503c0-4.143-3.358-7.5-7.5-7.5h-20.89c-4.142 0-7.5 3.357-7.5 7.5s3.358 7.5 7.5 7.5h13.39v79.002l-11.425-11.344c-2.939-2.919-7.688-2.902-10.606.038-2.918 2.939-2.901 7.688.038 10.606l24.209 24.038c1.462 1.452 3.374 2.178 5.285 2.178s3.822-.726 5.285-2.178l24.209-24.038c2.938-2.918 2.955-7.666.037-10.605z" fill="#bcd0df"/><path d="m324.85 345.511h-137.7c-4.646 0-8.413-3.767-8.413-8.413v-14.079c0-4.646 3.767-8.413 8.413-8.413h137.7c4.646 0 8.413 3.767 8.413 8.413v14.079c.001 4.647-3.766 8.413-8.413 8.413z" fill="#da2ea2"/><path d="m324.85 314.606h-30.905c4.646 0 8.413 3.767 8.413 8.413v14.079c0 4.646-3.767 8.413-8.413 8.413h30.905c4.646 0 8.413-3.767 8.413-8.413v-14.079c.001-4.647-3.766-8.413-8.413-8.413z" fill="#ce2995"/><g fill="#f4fbff"><g><path d="m39.944 118.251h35.088c4.142 0 7.5-3.357 7.5-7.5s-3.358-7.5-7.5-7.5h-35.088c-4.142 0-7.5 3.357-7.5 7.5s3.358 7.5 7.5 7.5z"/><path d="m39.944 147.584h100c4.142 0 7.5-3.357 7.5-7.5s-3.358-7.5-7.5-7.5h-100c-4.142 0-7.5 3.357-7.5 7.5s3.358 7.5 7.5 7.5z"/><path d="m139.944 163.251h-100c-4.142 0-7.5 3.357-7.5 7.5s3.358 7.5 7.5 7.5h100c4.142 0 7.5-3.357 7.5-7.5s-3.358-7.5-7.5-7.5z"/></g><g><path d="m366.722 118.12h35.088c4.142 0 7.5-3.357 7.5-7.5s-3.358-7.5-7.5-7.5h-35.088c-4.142 0-7.5 3.357-7.5 7.5s3.358 7.5 7.5 7.5z"/><path d="m366.722 147.453h100c4.142 0 7.5-3.357 7.5-7.5s-3.358-7.5-7.5-7.5h-100c-4.142 0-7.5 3.357-7.5 7.5s3.358 7.5 7.5 7.5z"/><path d="m466.722 163.12h-100c-4.142 0-7.5 3.357-7.5 7.5s3.358 7.5 7.5 7.5h100c4.142 0 7.5-3.357 7.5-7.5s-3.358-7.5-7.5-7.5z"/></g></g></g></svg>