<svg version="1.2" xmlns="http://www.w3.org/2000/svg" viewBox="0 0 58 69" width="58" height="69"><style>.a{fill:#4a5058}.b{fill:#f6f4f9}.c{fill:#cfdce5}.d{fill:#77cbcd}.e{fill:#f5d267}.f{fill:#404449}.g{fill:#e3e2e7}.h{fill:#bac5cb}.i{fill:#6dbbb9}</style><path class="a" d="m6.6 63.7q0 1.1 0.4 2 0.4 1 1.1 1.8 0.8 0.7 1.7 1.1 1 0.4 2.1 0.4h34.8q1 0 2-0.4 1-0.4 1.7-1.1 0.7-0.8 1.2-1.8 0.4-0.9 0.4-2v-6.2h-45.4z"/><path class="a" d="m46.7 0h-34.8q-1.1 0-2.1 0.4-0.9 0.4-1.7 1.1-0.7 0.8-1.1 1.8-0.4 0.9-0.4 2v3h45.3v-3q0-1.1-0.4-2-0.4-1-1.1-1.7-0.7-0.8-1.7-1.2-1-0.4-2-0.4z"/><path class="b" d="m33.4 47.9l-2.5 4.4q-0.3 0.5-0.7 0.7-0.4 0.3-0.9 0.3-0.5 0-1-0.3-0.4-0.2-0.6-0.7l-2.6-4.4q-0.2-0.4-0.6-0.8-0.3-0.3-0.7-0.5-0.4-0.3-0.9-0.4-0.5-0.1-0.9-0.1h-15.4v11.4h45.3v-11.4h-15.3q-0.5 0-1 0.1-0.4 0.1-0.8 0.4-0.5 0.2-0.8 0.5-0.3 0.4-0.6 0.8z"/><path fill-rule="evenodd" class="b" d="m51.9 8.3v8h-45.3v-8z"/><path fill-rule="evenodd" class="c" d="m24.3 61.4h10c1.2 0 2.2 1 2.2 2.3 0 1.2-1 2.2-2.2 2.2h-10c-1.3 0-2.3-1-2.3-2.2 0-1.3 1-2.3 2.3-2.3z"/><path class="d" d="m54 16.3h-49.5q-0.7 0-1.4 0.3-0.6 0.3-1.2 0.8-0.5 0.5-0.7 1.1-0.3 0.7-0.3 1.4v22.5q0 0.7 0.3 1.4 0.2 0.7 0.7 1.2 0.6 0.5 1.2 0.8 0.7 0.3 1.4 0.3h17.5q0.4 0 0.9 0.1 0.5 0.1 0.9 0.4 0.4 0.2 0.7 0.5 0.4 0.4 0.6 0.8l2.6 4.4q0.2 0.5 0.6 0.7 0.5 0.3 1 0.3 0.5 0 0.9-0.3 0.4-0.2 0.7-0.7l2.5-4.4q0.3-0.4 0.6-0.8 0.3-0.3 0.8-0.5 0.4-0.3 0.8-0.4 0.5-0.1 1-0.1h17.4q0.7 0 1.4-0.3 0.7-0.3 1.2-0.8 0.5-0.5 0.8-1.2 0.2-0.7 0.2-1.4v-22.5q0-0.7-0.2-1.4-0.3-0.6-0.8-1.1-0.5-0.5-1.2-0.8-0.7-0.3-1.4-0.3z"/><path class="e" d="m30.7 22.2l2 3.9q0 0.2 0.2 0.3 0.1 0.2 0.3 0.3 0.1 0.1 0.3 0.2 0.2 0 0.4 0.1l4.3 0.6q0.4 0.1 0.8 0.4 0.4 0.3 0.5 0.7 0.1 0.5 0 0.9-0.1 0.5-0.4 0.8l-3.1 3q-0.2 0.2-0.3 0.4-0.1 0.1-0.1 0.3-0.1 0.2-0.1 0.4 0 0.2 0 0.4l0.7 4.3q0.1 0.4 0 0.9-0.2 0.4-0.6 0.7-0.4 0.3-0.9 0.3-0.4 0-0.8-0.2l-3.9-2q-0.1-0.1-0.3-0.1-0.2-0.1-0.4-0.1-0.2 0-0.4 0.1-0.2 0-0.4 0.1l-3.8 2q-0.4 0.2-0.9 0.2-0.5 0-0.9-0.3-0.3-0.3-0.5-0.7-0.2-0.5-0.1-0.9l0.7-4.3q0.1-0.2 0-0.4 0-0.2 0-0.4-0.1-0.2-0.2-0.3-0.1-0.2-0.3-0.4l-3-3q-0.4-0.3-0.5-0.8-0.1-0.4 0-0.9 0.2-0.4 0.5-0.7 0.4-0.3 0.9-0.4l4.2-0.6q0.2 0 0.4-0.1 0.2-0.1 0.4-0.2 0.1-0.1 0.3-0.3 0.1-0.1 0.2-0.3l1.9-3.9q0.2-0.4 0.6-0.7 0.4-0.2 0.9-0.2 0.4 0 0.8 0.2 0.4 0.3 0.6 0.7z"/><path class="f" d="m37.8 69h-25.9q-1.1 0-2.1-0.4-0.9-0.4-1.7-1.1-0.7-0.8-1.1-1.8-0.4-0.9-0.4-2v-6.2h14.6q2.2 2 4.6 3.9h-1.5c-0.6 0-1.2 0.3-1.6 0.7-0.4 0.4-0.7 1-0.7 1.6 0 0.6 0.3 1.1 0.7 1.6 0.4 0.4 1 0.6 1.6 0.6h7.9q2.7 1.7 5.6 3.1z"/><path class="g" d="m21.2 57.5h-14.6v-11.4h4.7q1.1 1.5 2.2 3 1.2 1.5 2.4 2.9 1.3 1.5 2.6 2.8 1.3 1.4 2.7 2.7z"/><path class="h" d="m32.2 65.9h-7.9c-0.6 0-1.2-0.2-1.6-0.6-0.4-0.5-0.7-1-0.7-1.6 0-0.6 0.3-1.2 0.7-1.6 0.4-0.4 1-0.7 1.6-0.7h1.5q0.8 0.6 1.5 1.2 0.8 0.6 1.6 1.2 0.9 0.5 1.7 1.1 0.8 0.5 1.6 1z"/><path class="i" d="m11.3 46.1h-6.8q-0.7 0-1.4-0.3-0.6-0.3-1.2-0.8-0.5-0.5-0.7-1.2-0.3-0.7-0.3-1.4v-19.3q0.8 3 1.8 6 1 3 2.4 5.9 1.3 2.9 2.8 5.7 1.6 2.8 3.4 5.4z"/></svg>