<svg version="1.2" xmlns="http://www.w3.org/2000/svg" viewBox="0 0 70 70" width="70" height="70"><style>.a{fill:#008cc3}.b{fill:#0074a3}.c{fill:#fff}.d{fill:#e0e0e0}.e{fill:#f1333f}.f{fill:#ae283f}.g{fill:#ff9451}.h{fill:#f7674f}.i{fill:#333}.j{fill:#1a1a1a}</style><path fill-rule="evenodd" class="a" d="m35 70c-19.4 0-35-15.6-35-35 0-19.4 15.6-35 35-35 19.4 0 35 15.6 35 35 0 19.4-15.6 35-35 35z"/><path class="b" d="m70 35q0-1.5-0.1-3l-21.9-21.9-16.6-5.2-11.5 59 4.5 4.5c3.3 1 6.9 1.6 10.6 1.6 19.3 0 35-15.7 35-35z"/><path class="c" d="m48.8 10.9l-7-6.8c-0.9-1-2.2-1.5-3.6-1.5h-6.4c-1.4 0-2.7 0.5-3.6 1.5l-7 6.8c-1.4 1.4-2.2 3.3-2.2 5.2v45.3c0 2.1 1.7 3.8 3.8 3.8h24.4c2.1 0 3.8-1.7 3.8-3.8v-45.3c0-1.9-0.8-3.8-2.2-5.2zm-13.8 0.4c-1.2 0-2.2-1-2.2-2.2 0-1.3 1-2.3 2.2-2.3 1.2 0 2.2 1 2.2 2.3 0 1.2-1 2.2-2.2 2.2z"/><path class="d" d="m48.8 10.9l-7-6.8c-0.9-1-2.2-1.5-3.6-1.5h-3.2v4.2q0 0 0 0c1.2 0 2.2 1 2.2 2.3 0 1.2-1 2.2-2.2 2.2q0 0 0 0v53.9h12.2c2.1 0 3.8-1.7 3.8-3.8v-45.3c0-1.9-0.8-3.8-2.2-5.2z"/><path fill-rule="evenodd" class="e" d="m48.5 48.7v12.7h-27v-12.7z"/><path fill-rule="evenodd" class="f" d="m48.5 48.7v12.7h-13.5v-12.7z"/><path fill-rule="evenodd" class="g" d="m37.1 51.7v1.6h-14v-1.6z"/><path fill-rule="evenodd" class="h" d="m37.1 51.7v1.6h-2.1v-1.6z"/><path fill-rule="evenodd" class="i" d="m46.9 16v1.6h-23.8v-1.6z"/><path fill-rule="evenodd" class="j" d="m46.9 16v1.6h-11.9v-1.6z"/><path fill-rule="evenodd" class="i" d="m46.9 38v1.6h-23.8v-1.6z"/><path fill-rule="evenodd" class="j" d="m46.9 38v1.6h-11.9v-1.6z"/><path fill-rule="evenodd" class="i" d="m42.9 19v1.6h-19.8v-1.6z"/><path fill-rule="evenodd" class="j" d="m42.9 19v1.6h-7.9v-1.6z"/><path fill-rule="evenodd" class="i" d="m42.9 22.4v1.7h-19.8v-1.7z"/><path fill-rule="evenodd" class="j" d="m42.9 22.4v1.7h-7.9v-1.7z"/><path fill-rule="evenodd" class="i" d="m42.9 25.4v1.7h-19.8v-1.7z"/><path fill-rule="evenodd" class="j" d="m42.9 25.4v1.7h-7.9v-1.7z"/><path fill-rule="evenodd" class="i" d="m42.9 28.6v1.6h-19.8v-1.6z"/><path fill-rule="evenodd" class="j" d="m42.9 28.6v1.6h-7.9v-1.6z"/><path fill-rule="evenodd" class="i" d="m42.9 32.1v1.7h-19.8v-1.7z"/><path fill-rule="evenodd" class="j" d="m42.9 32.1v1.7h-7.9v-1.7z"/><path fill-rule="evenodd" class="i" d="m42.9 34.9v1.6h-19.8v-1.6z"/><path fill-rule="evenodd" class="j" d="m42.9 34.9v1.6h-7.9v-1.6z"/><path fill-rule="evenodd" class="g" d="m46.9 54.8v1.7h-23.8v-1.7z"/><path fill-rule="evenodd" class="h" d="m46.9 54.8v1.7h-11.9v-1.7z"/></svg>