<svg version="1.2" xmlns="http://www.w3.org/2000/svg" viewBox="0 0 70 70" width="70" height="70"><style>.a{fill:#2c7e9b}.b{fill:#b9bfcc}.c{fill:#d6dbe3}.d{fill:#235f6d}.e{fill:#ccd0da}.f{fill:#8991a0}.g{fill:#f8536c}.h{fill:#a9dc62}.i{fill:#1e505b}.j{fill:#a7adb7}</style><path class="a" d="m55.2 10v49.9l-1.2 1.2h-38l-1.2-1.2v-49.9l1.2-1.2h38z"/><path class="b" d="m55.2 4.1v5.9h-40.4v-5.9q0-0.7 0.3-1.4 0.2-0.6 0.7-1.1 0.5-0.5 1.2-0.8 0.6-0.3 1.3-0.3h33.3q0.7 0 1.4 0.3 0.6 0.3 1.1 0.8 0.5 0.5 0.8 1.1 0.2 0.7 0.3 1.4z"/><path class="b" d="m14.8 59.9h40.4v5.9q-0.1 0.7-0.3 1.4-0.3 0.7-0.8 1.2-0.5 0.5-1.1 0.7-0.7 0.3-1.4 0.3h-33.3q-0.7 0-1.3-0.3-0.7-0.2-1.2-0.7-0.5-0.5-0.7-1.2-0.3-0.7-0.3-1.4z"/><path class="c" d="m69.4 24.3v24.9q0 0.7-0.3 1.4-0.2 0.6-0.7 1.1-0.5 0.5-1.2 0.8-0.7 0.3-1.4 0.3h-26.1q-0.7 0-1.3-0.3-0.7-0.3-1.2-0.8-0.5-0.5-0.8-1.1-0.2-0.7-0.2-1.4v-24.9z"/><path class="d" d="m69.4 18.3v6h-33.2v-6q0-0.7 0.2-1.3 0.3-0.7 0.8-1.2 0.5-0.5 1.2-0.7 0.6-0.3 1.3-0.3h26.1q0.7 0 1.4 0.3 0.7 0.2 1.2 0.7 0.5 0.5 0.7 1.2 0.3 0.6 0.3 1.3z"/><path class="e" d="m31.3 33.6q0-0.1 0-0.2-0.1-0.1-0.1-0.2-0.1-0.1-0.2-0.2-0.1-0.1-0.2-0.1l-2.5-1q-0.1-0.5-0.3-0.9-0.1-0.5-0.3-0.9-0.2-0.4-0.4-0.8-0.2-0.5-0.5-0.9l1.1-2.4q0.1-0.2 0.1-0.3 0-0.1 0-0.2 0-0.2-0.1-0.3 0-0.1-0.1-0.2-0.1-0.1-0.2-0.2-0.1-0.2-0.3-0.3-0.1-0.1-0.2-0.2-0.1-0.1-0.2-0.2-0.1-0.2-0.3-0.3-0.1-0.1-0.2-0.2-0.1-0.1-0.2-0.2-0.2-0.1-0.3-0.2-0.1-0.1-0.2-0.2-0.1 0-0.2 0-0.2-0.1-0.3 0-0.1 0-0.2 0l-2.5 1.1q-0.4-0.3-0.8-0.5-0.4-0.2-0.9-0.4-0.4-0.1-0.9-0.3-0.4-0.1-0.9-0.3l-1-2.4q0-0.2-0.1-0.3-0.1-0.1-0.2-0.1-0.1-0.1-0.2-0.2-0.1 0-0.2 0-0.7-0.1-1.3-0.1-0.7 0-1.3 0.1-0.2 0-0.3 0-0.1 0.1-0.2 0.2-0.1 0-0.2 0.1-0.1 0.1-0.1 0.3l-1 2.4q-0.5 0.2-0.9 0.3-0.5 0.2-0.9 0.3-0.4 0.2-0.8 0.4-0.5 0.2-0.9 0.5l-2.4-1.1q-0.2 0-0.3 0-0.1-0.1-0.2 0-0.1 0-0.3 0-0.1 0.1-0.2 0.2-0.1 0.1-0.2 0.2-0.1 0.1-0.3 0.2-0.1 0.1-0.2 0.2-0.1 0.1-0.2 0.3-0.2 0.1-0.3 0.2-0.1 0.1-0.2 0.2-0.1 0.1-0.2 0.3-0.1 0.1-0.2 0.2-0.1 0.1-0.2 0.2 0 0.1 0 0.3-0.1 0.1 0 0.2 0 0.1 0 0.3l1.1 2.4q-0.3 0.4-0.5 0.9-0.2 0.4-0.4 0.8-0.1 0.4-0.3 0.9-0.1 0.4-0.3 0.9l-2.4 1q-0.2 0-0.3 0.1-0.1 0.1-0.1 0.2-0.1 0.1-0.2 0.2 0 0.1 0 0.2-0.1 0.7-0.1 1.4 0 0.6 0.1 1.3 0 0.1 0 0.2 0.1 0.1 0.2 0.2 0 0.1 0.1 0.2 0.1 0.1 0.3 0.1l2.4 1q0.2 0.5 0.3 0.9 0.2 0.5 0.3 0.9 0.2 0.5 0.4 0.9 0.2 0.4 0.5 0.8l-1.1 2.5q0 0.1 0 0.2-0.1 0.1 0 0.3 0 0.1 0 0.2 0.1 0.1 0.2 0.2 0.1 0.1 0.2 0.3 0.1 0.1 0.2 0.2 0.1 0.1 0.2 0.2 0.1 0.2 0.3 0.3 0.1 0.1 0.2 0.2 0.1 0.1 0.2 0.2 0.2 0.2 0.3 0.3 0.1 0.1 0.2 0.2 0.1 0 0.2 0.1 0.2 0.1 0.3 0.1 0.1 0 0.2 0 0.1-0.1 0.3-0.1l2.4-1.1q0.4 0.3 0.9 0.5 0.4 0.2 0.8 0.4 0.4 0.2 0.9 0.3 0.4 0.2 0.9 0.3l1 2.5q0 0.1 0.1 0.2 0.1 0.1 0.2 0.2 0.1 0 0.2 0.1 0.1 0 0.3 0 0.6 0.1 1.3 0.1 0.6 0 1.3-0.1 0.1 0 0.2 0 0.1-0.1 0.2-0.1 0.1-0.1 0.2-0.2 0.1-0.1 0.1-0.2l1-2.5q0.5-0.1 0.9-0.3 0.5-0.1 0.9-0.3 0.5-0.2 0.9-0.4 0.4-0.2 0.8-0.5l2.5 1.1q0.1 0 0.2 0.1 0.1 0 0.3 0 0.1 0 0.2-0.1 0.1-0.1 0.2-0.1 0.1-0.1 0.3-0.2 0.1-0.1 0.2-0.3 0.1-0.1 0.2-0.2 0.2-0.1 0.3-0.2 0.1-0.1 0.2-0.3 0.1-0.1 0.2-0.2 0.2-0.1 0.3-0.2 0.1-0.2 0.2-0.3 0.1-0.1 0.1-0.2 0.1-0.1 0.1-0.2 0-0.2 0-0.3 0-0.1-0.1-0.2l-1.1-2.5q0.3-0.4 0.5-0.8 0.2-0.4 0.4-0.9 0.2-0.4 0.3-0.9 0.2-0.4 0.3-0.9l2.5-1q0.1 0 0.2-0.1 0.1-0.1 0.2-0.2 0-0.1 0.1-0.2 0-0.1 0-0.2 0.1-0.7 0.1-1.3 0-0.7-0.1-1.4zm-15.3 9.7c-3.4 0-6.4-2-7.7-5.2-1.3-3.1-0.6-6.6 1.8-9 2.4-2.4 5.9-3.1 9-1.8 3.2 1.3 5.2 4.3 5.2 7.7q0 1.6-0.7 3.1-0.6 1.6-1.8 2.7-1.1 1.2-2.6 1.8-1.6 0.7-3.2 0.7z"/><path class="b" d="m16 44.5c-3.9 0-7.3-2.3-8.8-5.9-1.5-3.5-0.7-7.6 2.1-10.4 2.7-2.7 6.8-3.5 10.3-2 3.6 1.5 5.9 4.9 5.9 8.8 0 1.2-0.3 2.4-0.8 3.6-0.4 1.2-1.1 2.2-2 3.1-0.9 0.9-1.9 1.6-3.1 2-1.1 0.5-2.4 0.8-3.6 0.8zm0-16.7c-2.9 0-5.5 1.8-6.6 4.4-1.1 2.7-0.5 5.8 1.5 7.8 2.1 2 5.1 2.7 7.8 1.5 2.7-1.1 4.4-3.7 4.4-6.5q0-1.4-0.6-2.8-0.5-1.3-1.5-2.3-1-1-2.3-1.5-1.3-0.6-2.7-0.6z"/><path fill-rule="evenodd" class="e" d="m16 38.5c-2 0-3.6-1.6-3.6-3.5 0-2 1.6-3.6 3.6-3.6 1.9 0 3.5 1.6 3.5 3.6 0 1.9-1.6 3.5-3.5 3.5z"/><path fill-rule="evenodd" class="b" d="m42.1 29h21.4c0.6 0 1.1 0.6 1.1 1.2v4.8c0 0.6-0.5 1.2-1.1 1.2h-21.4c-0.7 0-1.2-0.6-1.2-1.2v-4.8c0-0.6 0.5-1.2 1.2-1.2z"/><path class="f" d="m31.4 6.5h-1.2c-0.3 0-0.6-0.2-0.8-0.4-0.2-0.2-0.4-0.5-0.4-0.8 0-0.3 0.2-0.6 0.4-0.9 0.2-0.2 0.5-0.3 0.8-0.3h1.2c0.3 0 0.6 0.1 0.8 0.3 0.3 0.3 0.4 0.6 0.4 0.9 0 0.3-0.1 0.6-0.4 0.8-0.2 0.2-0.5 0.4-0.8 0.4z"/><path class="f" d="m39.7 6.5h-3.5c-0.4 0-0.7-0.2-0.9-0.4-0.2-0.2-0.3-0.5-0.3-0.8 0-0.3 0.1-0.6 0.3-0.9 0.2-0.2 0.5-0.3 0.9-0.3h3.5c0.3 0 0.6 0.1 0.9 0.3 0.2 0.3 0.3 0.6 0.3 0.9 0 0.3-0.1 0.6-0.3 0.8-0.3 0.2-0.6 0.4-0.9 0.4z"/><path class="f" d="m37.3 65.8h-4.7c-0.3 0-0.6-0.1-0.8-0.3-0.3-0.2-0.4-0.5-0.4-0.9 0-0.3 0.1-0.6 0.4-0.8 0.2-0.2 0.5-0.3 0.8-0.3h4.7c0.4 0 0.7 0.1 0.9 0.3 0.2 0.2 0.3 0.5 0.3 0.8 0 0.4-0.1 0.7-0.3 0.9-0.2 0.2-0.5 0.3-0.9 0.3z"/><path class="g" d="m42.1 20.7h-1.2c-0.3 0-0.6-0.1-0.8-0.3-0.3-0.3-0.4-0.6-0.4-0.9 0-0.3 0.1-0.6 0.4-0.8 0.2-0.2 0.5-0.4 0.8-0.4h1.2c0.3 0 0.6 0.2 0.8 0.4 0.3 0.2 0.4 0.5 0.4 0.8 0 0.3-0.1 0.6-0.4 0.9-0.2 0.2-0.5 0.3-0.8 0.3z"/><path class="h" d="m48 20.7h-1.2c-0.3 0-0.6-0.1-0.8-0.3-0.2-0.3-0.3-0.6-0.3-0.9 0-0.3 0.1-0.6 0.3-0.8 0.2-0.2 0.5-0.4 0.8-0.4h1.2c0.3 0 0.6 0.2 0.9 0.4 0.2 0.2 0.3 0.5 0.3 0.8 0 0.3-0.1 0.6-0.3 0.9-0.3 0.2-0.6 0.3-0.9 0.3z"/><path class="i" d="m64.6 20.7h-5.9c-0.3 0-0.6-0.1-0.8-0.3-0.2-0.3-0.4-0.6-0.4-0.9 0-0.3 0.2-0.6 0.4-0.8 0.2-0.2 0.5-0.4 0.8-0.4h5.9c0.4 0 0.7 0.2 0.9 0.4 0.2 0.2 0.3 0.5 0.3 0.8 0 0.3-0.1 0.6-0.3 0.9-0.2 0.2-0.5 0.3-0.9 0.3z"/><path class="j" d="m54 42.1h-10.7c-0.3 0-0.6-0.1-0.9-0.4-0.2-0.2-0.3-0.5-0.3-0.8 0-0.3 0.1-0.6 0.3-0.8 0.3-0.3 0.6-0.4 0.9-0.4h10.7c0.3 0 0.6 0.1 0.8 0.4 0.2 0.2 0.4 0.5 0.4 0.8 0 0.3-0.2 0.6-0.4 0.8-0.2 0.3-0.5 0.4-0.8 0.4z"/><path class="j" d="m51.6 46.8h-8.3c-0.3 0-0.6-0.1-0.9-0.3-0.2-0.2-0.3-0.5-0.3-0.8 0-0.4 0.1-0.7 0.3-0.9 0.3-0.2 0.6-0.3 0.9-0.3h8.3c0.3 0 0.6 0.1 0.8 0.3 0.3 0.2 0.4 0.5 0.4 0.9 0 0.3-0.1 0.6-0.4 0.8-0.2 0.2-0.5 0.3-0.8 0.3z"/><path class="j" d="m62.3 42.1h-3.6c-0.3 0-0.6-0.1-0.8-0.4-0.2-0.2-0.4-0.5-0.4-0.8 0-0.3 0.2-0.6 0.4-0.8 0.2-0.3 0.5-0.4 0.8-0.4h3.6c0.3 0 0.6 0.1 0.8 0.4 0.2 0.2 0.4 0.5 0.4 0.8 0 0.3-0.2 0.6-0.4 0.8-0.2 0.3-0.5 0.4-0.8 0.4z"/><path class="j" d="m59.9 46.8h-3.6c-0.3 0-0.6-0.1-0.8-0.3-0.2-0.2-0.3-0.5-0.3-0.8 0-0.4 0.1-0.7 0.3-0.9 0.2-0.2 0.5-0.3 0.8-0.3h3.6c0.3 0 0.6 0.1 0.8 0.3 0.3 0.2 0.4 0.5 0.4 0.9 0 0.3-0.1 0.6-0.4 0.8-0.2 0.2-0.5 0.3-0.8 0.3z"/></svg>