<svg width="70" height="70" viewBox="0 0 70 70" fill="none" xmlns="http://www.w3.org/2000/svg">
<path d="M46.0756 67.4142V8.34504C46.0756 6.91687 44.9178 5.75928 43.4897 5.75928H7.37678C5.94861 5.75928 4.79102 6.91701 4.79102 8.34504V67.4142C4.79102 68.8424 5.94875 70 7.37678 70H43.4898C44.9178 70 46.0756 68.8423 46.0756 67.4142V67.4142Z" fill="#FFC250"/>
<path d="M51.9679 5.75903H43.3137C44.7419 5.75903 45.8996 6.91677 45.8996 8.34479V67.414C45.8996 68.8422 44.7419 69.9998 43.3137 69.9998H51.9679C53.396 69.9998 54.5538 68.842 54.5538 67.414V8.34493C54.5538 6.91677 53.396 5.75903 51.9679 5.75903V5.75903Z" fill="#EAB14D"/>
<path d="M9.01733 64.8492V10.9098C9.01733 10.3993 9.43118 9.9856 9.94155 9.9856H49.403C49.9135 9.9856 50.3272 10.3994 50.3272 10.9098V64.8492C50.3272 65.3597 49.9133 65.7734 49.403 65.7734H9.94155C9.43104 65.7734 9.01733 65.3597 9.01733 64.8492V64.8492Z" fill="#F5F5F5"/>
<path d="M49.4029 9.9856H40.7488C41.2593 9.9856 41.673 10.3994 41.673 10.9098V64.8492C41.673 65.3597 41.2592 65.7734 40.7488 65.7734H49.4029C49.9134 65.7734 50.3272 65.3596 50.3272 64.8492V10.9098C50.3272 10.3994 49.9134 9.9856 49.4029 9.9856Z" fill="#EAEAEA"/>
<path d="M35.1655 3.21809V1.85678C35.1655 0.831387 34.3342 0 33.3087 0H26.0357C25.0102 0 24.1789 0.831387 24.1789 1.85678V3.21809C24.1789 3.6374 23.8389 3.97742 23.4196 3.97742H20.3926C19.3857 3.97742 18.5693 4.79377 18.5693 5.8007V9.98566H40.7751V5.8007C40.7751 4.79377 39.9587 3.97742 38.9518 3.97742H35.9248C35.5055 3.97742 35.1655 3.6374 35.1655 3.21809V3.21809Z" fill="#C2D0DA"/>
<path d="M14.3936 24.9912V16.8512C14.3936 15.9494 15.1247 15.2183 16.0265 15.2183H24.1665C25.0683 15.2183 25.7995 15.9494 25.7995 16.8512V24.9912C25.7995 25.893 25.0683 26.6242 24.1665 26.6242H16.0265C15.1246 26.6242 14.3936 25.893 14.3936 24.9912V24.9912Z" fill="#66B49D"/>
<path d="M14.3936 41.9497V33.8097C14.3936 32.9079 15.1247 32.1768 16.0265 32.1768H24.1665C25.0683 32.1768 25.7995 32.9079 25.7995 33.8097V41.9497C25.7995 42.8515 25.0683 43.5827 24.1665 43.5827H16.0265C15.1246 43.5827 14.3936 42.8515 14.3936 41.9497V41.9497Z" fill="#66B49D"/>
<path d="M14.3936 58.9082V50.7682C14.3936 49.8664 15.1247 49.1353 16.0265 49.1353H24.1665C25.0683 49.1353 25.7995 49.8664 25.7995 50.7682V58.9082C25.7995 59.81 25.0683 60.5412 24.1665 60.5412H16.0265C15.1246 60.5412 14.3936 59.8101 14.3936 58.9082V58.9082Z" fill="#66B49D"/>
<path d="M19.4075 23.8363C19.4063 23.8363 19.4052 23.8363 19.4039 23.8363C18.9376 23.8352 18.4953 23.6093 18.2206 23.2324L16.9872 21.5385C16.6437 21.0668 16.7476 20.406 17.2193 20.0626C17.691 19.7193 18.3518 19.8232 18.6951 20.2947L19.4102 21.277L21.5013 18.436C21.8472 17.9661 22.5084 17.8658 22.9782 18.2115C23.4481 18.5573 23.5486 19.2186 23.2027 19.6885L20.5897 23.2384C20.3142 23.6129 19.8723 23.8363 19.4075 23.8363V23.8363Z" fill="#F6F9F9"/>
<path d="M19.4074 41.1639C19.406 41.1639 19.4048 41.1639 19.4035 41.1639C18.9372 41.1627 18.4949 40.9369 18.2204 40.5597L16.9872 38.8661C16.6437 38.3944 16.7476 37.7336 17.2193 37.3902C17.691 37.0469 18.3518 37.1508 18.6951 37.6223L19.4102 38.6046L21.5013 35.7636C21.8472 35.2939 22.5084 35.1934 22.9782 35.5391C23.4481 35.8849 23.5486 36.5462 23.2027 37.0161L20.5897 40.566C20.3142 40.9408 19.8723 41.1639 19.4074 41.1639Z" fill="#F6F9F9"/>
<path d="M19.4073 57.7535C19.4061 57.7535 19.4049 57.7535 19.4038 57.7533C18.9375 57.7523 18.4951 57.5265 18.2206 57.1497L16.9871 55.4555C16.6437 54.9838 16.7477 54.3232 17.2194 53.9798C17.6914 53.6363 18.3518 53.7405 18.6951 54.2121L19.4102 55.1942L21.5014 52.3532C21.8473 51.8835 22.5085 51.783 22.9783 52.1287C23.4482 52.4745 23.5487 53.1358 23.2028 53.6057L20.5898 57.1556C20.314 57.5301 19.8723 57.7535 19.4073 57.7535V57.7535Z" fill="#F6F9F9"/>
<path d="M44.1182 19.7703H31.0595C30.4761 19.7703 30.0032 19.2974 30.0032 18.714C30.0032 18.1306 30.4761 17.6577 31.0595 17.6577H44.1182C44.7015 17.6577 45.1744 18.1306 45.1744 18.714C45.1744 19.2974 44.7015 19.7703 44.1182 19.7703Z" fill="#DDEAFB"/>
<path d="M37.589 24.1846H31.0597C30.4763 24.1846 30.0034 23.7117 30.0034 23.1283C30.0034 22.5449 30.4763 22.072 31.0597 22.072H37.589C38.1724 22.072 38.6453 22.5449 38.6453 23.1283C38.6453 23.7117 38.1724 24.1846 37.589 24.1846Z" fill="#DDEAFB"/>
<path d="M39.8215 36.7288H31.0597C30.4763 36.7288 30.0034 36.2559 30.0034 35.6725C30.0034 35.0891 30.4763 34.6162 31.0597 34.6162H39.8215C40.4048 34.6162 40.8778 35.0891 40.8778 35.6725C40.8778 36.2559 40.4048 36.7288 39.8215 36.7288Z" fill="#DDEAFB"/>
<path d="M37.589 41.1431H31.0597C30.4763 41.1431 30.0034 40.6702 30.0034 40.0868C30.0034 39.5034 30.4763 39.0305 31.0597 39.0305H37.589C38.1724 39.0305 38.6453 39.5034 38.6453 40.0868C38.6453 40.6702 38.1724 41.1431 37.589 41.1431Z" fill="#DDEAFB"/>
<path d="M61.1011 27.5784L60.0639 26.2121L56.1832 23.7545L54.6914 23.5195L34.8201 54.9201C34.3406 55.6773 33.9888 56.5081 33.7788 57.3793C36.1965 57.4092 38.391 58.7988 39.4518 60.9717C40.1496 60.4094 40.7502 59.7362 41.2297 58.979L61.1011 27.5784Z" fill="#FC8086"/>
<path d="M63.9066 17.909L62.2298 16.8471C60.9226 16.0192 59.1918 16.4082 58.3643 17.7156L56.8267 20.1455L57.3172 21.1344L61.9834 24.0893L63.2364 24.2044L64.7751 21.773C65.602 20.4663 65.2133 18.7364 63.9066 17.909V17.909Z" fill="#8C9BA6"/>
<path d="M54.6936 23.5107L56.8298 20.1368L63.2406 24.1957L61.1044 27.5697L54.6936 23.5107Z" fill="#C9E2E7"/>
<path d="M39.4518 60.9721L33.7937 65.5316C32.9955 66.1749 31.8359 65.4406 32.0761 64.444L33.7788 57.3796C36.1965 57.4094 38.3911 58.7992 39.4518 60.9721V60.9721Z" fill="#7C8B96"/>
<path d="M37.9677 59.0145L58.7981 26.1202L57.0132 24.99L36.1829 57.8842C36.8364 58.1596 37.4393 58.5415 37.9677 59.0145V59.0145Z" fill="#FB636F"/>
</svg>
