<svg width="70" height="70" viewBox="0 0 70 70" fill="none" xmlns="http://www.w3.org/2000/svg">
<path d="M33.1334 62.825L29.4818 65.1467C29.2957 65.2667 29.079 65.3305 28.8576 65.3305C28.6362 65.3305 28.4195 65.2667 28.2334 65.1467L23.9518 62.4167C23.7637 62.3022 23.5478 62.2416 23.3276 62.2416C23.1074 62.2416 22.8915 62.3022 22.7034 62.4167L18.4101 65.1467C18.224 65.2667 18.0073 65.3305 17.7859 65.3305C17.5645 65.3305 17.3478 65.2667 17.1617 65.1467L12.8684 62.4167C12.6803 62.3022 12.4644 62.2416 12.2442 62.2416C12.0241 62.2416 11.8082 62.3022 11.6201 62.4167L7.32675 65.1467C7.14069 65.2667 6.92398 65.3305 6.70258 65.3305C6.48118 65.3305 6.26447 65.2667 6.07842 65.1467L1.71508 62.37C1.54786 62.2639 1.40999 62.1175 1.31417 61.9442C1.21835 61.771 1.16765 61.5763 1.16675 61.3783V5.11932C1.16765 4.92131 1.21835 4.7267 1.31417 4.55341C1.40999 4.38012 1.54786 4.23371 1.71508 4.12766L6.07842 1.35099C6.26426 1.23042 6.48105 1.16626 6.70258 1.16626C6.92411 1.16626 7.1409 1.23042 7.32675 1.35099L11.6201 4.08332C11.8082 4.19779 12.0241 4.25834 12.2442 4.25834C12.4644 4.25834 12.6803 4.19779 12.8684 4.08332L17.1617 1.35332C17.3476 1.23275 17.5644 1.16859 17.7859 1.16859C18.0074 1.16859 18.2242 1.23275 18.4101 1.35332L22.7034 4.08332C22.8915 4.19779 23.1074 4.25834 23.3276 4.25834C23.5478 4.25834 23.7637 4.19779 23.9518 4.08332L28.2334 1.35332C28.4193 1.23275 28.6361 1.16859 28.8576 1.16859C29.0791 1.16859 29.2959 1.23275 29.4818 1.35332L33.7867 4.08332C33.9727 4.19779 34.1867 4.25839 34.4051 4.25839C34.6234 4.25839 34.8375 4.19779 35.0234 4.08332L39.3284 1.35332C39.5143 1.23275 39.7311 1.16859 39.9526 1.16859C40.1741 1.16859 40.3909 1.23275 40.5767 1.35332L44.9517 4.12999C45.119 4.23604 45.2568 4.38245 45.3527 4.55574C45.4485 4.72903 45.4992 4.92364 45.5001 5.12166V26.9605L33.1334 62.825Z" fill="#E2E7F2"/>
<path d="M47.8333 68.8333C59.4312 68.8333 68.8333 59.4312 68.8333 47.8333C68.8333 36.2353 59.4312 26.8333 47.8333 26.8333C36.2353 26.8333 26.8333 36.2353 26.8333 47.8333C26.8333 59.4312 36.2353 68.8333 47.8333 68.8333Z" fill="#1A4187"/>
<path d="M62.5333 42.245L58.1116 38.78C57.9259 38.6307 57.7026 38.5352 57.4663 38.5042C57.23 38.4732 56.9897 38.5078 56.7717 38.6041C56.5538 38.7004 56.3665 38.8549 56.2303 39.0505C56.0942 39.2462 56.0145 39.4754 55.9999 39.7133V40.8333H41.9999C41.6905 40.8333 41.3938 40.9562 41.175 41.175C40.9562 41.3938 40.8333 41.6906 40.8333 42V44.3333C40.8333 44.6428 40.9562 44.9395 41.175 45.1583C41.3938 45.3771 41.6905 45.5 41.9999 45.5H55.9999V46.62C56.0141 46.8581 56.0936 47.0877 56.2296 47.2835C56.3657 47.4794 56.553 47.6341 56.7712 47.7305C56.9893 47.8269 57.2298 47.8614 57.4663 47.8301C57.7027 47.7989 57.926 47.7031 58.1116 47.5533L62.5333 44.0883C62.6773 43.9817 62.7943 43.8427 62.875 43.6827C62.9556 43.5226 62.9976 43.3459 62.9976 43.1667C62.9976 42.9874 62.9556 42.8107 62.875 42.6506C62.7943 42.4906 62.6773 42.3517 62.5333 42.245V42.245Z" fill="#3560D8"/>
<path d="M33.1333 53.4218L37.555 56.8868C37.7407 57.0361 37.9639 57.1315 38.2002 57.1625C38.4365 57.1936 38.6768 57.159 38.8948 57.0627C39.1128 56.9663 39.3001 56.8119 39.4362 56.6162C39.5724 56.4206 39.6521 56.1913 39.6666 55.9534V54.8334H53.6667C53.9761 54.8334 54.2728 54.7105 54.4916 54.4917C54.7104 54.2729 54.8333 53.9762 54.8333 53.6668V51.3334C54.8333 51.024 54.7104 50.7273 54.4916 50.5085C54.2728 50.2897 53.9761 50.1668 53.6667 50.1668H39.6666V49.0468C39.6525 48.8087 39.573 48.5791 39.437 48.3832C39.3009 48.1873 39.1135 48.0327 38.8954 47.9363C38.6772 47.8399 38.4368 47.8054 38.2003 47.8366C37.9639 47.8679 37.7406 47.9637 37.555 48.1134L33.1333 51.5784C32.9893 51.6851 32.8722 51.824 32.7916 51.9841C32.711 52.1441 32.6689 52.3209 32.6689 52.5001C32.6689 52.6793 32.711 52.8561 32.7916 53.0161C32.8722 53.1762 32.9893 53.3151 33.1333 53.4218V53.4218Z" fill="#3560D8"/>
<path d="M14 22.2833V15.3813C14.68 15.6218 15.2692 16.0664 15.6869 16.6545C16.1046 17.2426 16.3303 17.9454 16.3333 18.6667C16.3333 18.9761 16.4562 19.2728 16.675 19.4916C16.8938 19.7104 17.1906 19.8333 17.5 19.8333C17.8094 19.8333 18.1062 19.7104 18.3249 19.4916C18.5437 19.2728 18.6667 18.9761 18.6667 18.6667C18.665 17.3224 18.1999 16.0199 17.3498 14.9785C16.4998 13.9372 15.3167 13.2208 14 12.95V11.6667C14 11.3572 13.8771 11.0605 13.6583 10.8417C13.4395 10.6229 13.1427 10.5 12.8333 10.5C12.5239 10.5 12.2272 10.6229 12.0084 10.8417C11.7896 11.0605 11.6667 11.3572 11.6667 11.6667V12.95C10.348 13.2178 9.16244 13.9332 8.31088 14.975C7.45933 16.0169 6.99414 17.3211 6.99414 18.6667C6.99414 20.0122 7.45933 21.3165 8.31088 22.3583C9.16244 23.4002 10.348 24.1156 11.6667 24.3833V31.2865C10.9864 31.046 10.3971 30.6012 9.97942 30.0128C9.56174 29.4245 9.33607 28.7215 9.33332 28C9.33332 27.6906 9.21041 27.3938 8.99161 27.175C8.77282 26.9562 8.47607 26.8333 8.16666 26.8333C7.85724 26.8333 7.56049 26.9562 7.3417 27.175C7.12291 27.3938 6.99999 27.6906 6.99999 28C7.00169 29.3442 7.46676 30.6468 8.31683 31.6881C9.16689 32.7295 10.35 33.4459 11.6667 33.7167V35C11.6667 35.3094 11.7896 35.6062 12.0084 35.825C12.2272 36.0438 12.5239 36.1667 12.8333 36.1667C13.1427 36.1667 13.4395 36.0438 13.6583 35.825C13.8771 35.6062 14 35.3094 14 35V33.7167C15.3187 33.4489 16.5042 32.7335 17.3558 31.6916C18.2073 30.6498 18.6725 29.3456 18.6725 28C18.6725 26.6544 18.2073 25.3502 17.3558 24.3084C16.5042 23.2665 15.3187 22.5511 14 22.2833V22.2833ZM9.33332 18.6667C9.33631 17.9454 9.56209 17.2426 9.97976 16.6545C10.3974 16.0664 10.9866 15.6218 11.6667 15.3813V21.952C10.9866 21.7116 10.3974 21.2669 9.97976 20.6788C9.56209 20.0907 9.33631 19.388 9.33332 18.6667V18.6667ZM14 31.2853V24.7147C14.682 24.9523 15.2731 25.3962 15.6914 25.9849C16.1097 26.5736 16.3344 27.2778 16.3344 28C16.3344 28.7222 16.1097 29.4264 15.6914 30.0151C15.2731 30.6038 14.682 31.0477 14 31.2853Z" fill="#E5A30E"/>
<path d="M39.6665 12.8333H23.3332C23.0238 12.8333 22.727 12.7104 22.5082 12.4916C22.2894 12.2728 22.1665 11.9761 22.1665 11.6667C22.1665 11.3572 22.2894 11.0605 22.5082 10.8417C22.727 10.6229 23.0238 10.5 23.3332 10.5H39.6665C39.9759 10.5 40.2727 10.6229 40.4915 10.8417C40.7103 11.0605 40.8332 11.3572 40.8332 11.6667C40.8332 11.9761 40.7103 12.2728 40.4915 12.4916C40.2727 12.7104 39.9759 12.8333 39.6665 12.8333Z" fill="#9EA9BA"/>
<path d="M39.6665 18.6666H23.3332C23.0238 18.6666 22.727 18.5437 22.5082 18.3249C22.2894 18.1061 22.1665 17.8093 22.1665 17.4999C22.1665 17.1905 22.2894 16.8938 22.5082 16.675C22.727 16.4562 23.0238 16.3333 23.3332 16.3333H39.6665C39.9759 16.3333 40.2727 16.4562 40.4915 16.675C40.7103 16.8938 40.8332 17.1905 40.8332 17.4999C40.8332 17.8093 40.7103 18.1061 40.4915 18.3249C40.2727 18.5437 39.9759 18.6666 39.6665 18.6666Z" fill="#9EA9BA"/>
<path d="M39.6665 24.5001H23.3332C23.0238 24.5001 22.727 24.3772 22.5082 24.1584C22.2894 23.9396 22.1665 23.6428 22.1665 23.3334C22.1665 23.024 22.2894 22.7272 22.5082 22.5085C22.727 22.2897 23.0238 22.1667 23.3332 22.1667H39.6665C39.9759 22.1667 40.2727 22.2897 40.4915 22.5085C40.7103 22.7272 40.8332 23.024 40.8332 23.3334C40.8332 23.6428 40.7103 23.9396 40.4915 24.1584C40.2727 24.3772 39.9759 24.5001 39.6665 24.5001Z" fill="#9EA9BA"/>
<path d="M30.3332 30.3333H23.3332C23.0238 30.3333 22.727 30.2104 22.5082 29.9916C22.2894 29.7728 22.1665 29.4761 22.1665 29.1667C22.1665 28.8572 22.2894 28.5605 22.5082 28.3417C22.727 28.1229 23.0238 28 23.3332 28H30.3332C30.6426 28 30.9393 28.1229 31.1581 28.3417C31.3769 28.5605 31.4998 28.8572 31.4998 29.1667C31.4998 29.4761 31.3769 29.7728 31.1581 29.9916C30.9393 30.2104 30.6426 30.3333 30.3332 30.3333Z" fill="#9EA9BA"/>
<path d="M25.6665 36.1666H23.3332C23.0238 36.1666 22.727 36.0437 22.5082 35.8249C22.2894 35.6061 22.1665 35.3093 22.1665 34.9999C22.1665 34.6905 22.2894 34.3938 22.5082 34.175C22.727 33.9562 23.0238 33.8333 23.3332 33.8333H25.6665C25.9759 33.8333 26.2727 33.9562 26.4915 34.175C26.7103 34.3938 26.8332 34.6905 26.8332 34.9999C26.8332 35.3093 26.7103 35.6061 26.4915 35.8249C26.2727 36.0437 25.9759 36.1666 25.6665 36.1666Z" fill="#9EA9BA"/>
<path d="M20.9999 43.1666H6.99992C6.6905 43.1666 6.39375 43.0437 6.17496 42.8249C5.95617 42.6061 5.83325 42.3093 5.83325 41.9999C5.83325 41.6905 5.95617 41.3938 6.17496 41.175C6.39375 40.9562 6.6905 40.8333 6.99992 40.8333H20.9999C21.3093 40.8333 21.6061 40.9562 21.8249 41.175C22.0437 41.3938 22.1666 41.6905 22.1666 41.9999C22.1666 42.3093 22.0437 42.6061 21.8249 42.8249C21.6061 43.0437 21.3093 43.1666 20.9999 43.1666Z" fill="#9EA9BA"/>
<path d="M20.9999 49.0001H6.99992C6.6905 49.0001 6.39375 48.8772 6.17496 48.6584C5.95617 48.4396 5.83325 48.1428 5.83325 47.8334C5.83325 47.524 5.95617 47.2272 6.17496 47.0085C6.39375 46.7897 6.6905 46.6667 6.99992 46.6667H20.9999C21.3093 46.6667 21.6061 46.7897 21.8249 47.0085C22.0437 47.2272 22.1666 47.524 22.1666 47.8334C22.1666 48.1428 22.0437 48.4396 21.8249 48.6584C21.6061 48.8772 21.3093 49.0001 20.9999 49.0001Z" fill="#9EA9BA"/>
<path d="M20.9999 54.8333H6.99992C6.6905 54.8333 6.39375 54.7104 6.17496 54.4916C5.95617 54.2728 5.83325 53.9761 5.83325 53.6667C5.83325 53.3572 5.95617 53.0605 6.17496 52.8417C6.39375 52.6229 6.6905 52.5 6.99992 52.5H20.9999C21.3093 52.5 21.6061 52.6229 21.8249 52.8417C22.0437 53.0605 22.1666 53.3572 22.1666 53.6667C22.1666 53.9761 22.0437 54.2728 21.8249 54.4916C21.6061 54.7104 21.3093 54.8333 20.9999 54.8333Z" fill="#9EA9BA"/>
</svg>
