<svg width="70" height="70" viewBox="0 0 70 70" fill="none" xmlns="http://www.w3.org/2000/svg">
<g clip-path="url(#clip0_85_627)">
<path d="M41.3135 23.6277V17.6858L35.3663 17.0561C34.9953 15.5354 34.3946 14.1047 33.6031 12.8029L37.3641 8.15117L33.1625 3.94953L28.5106 7.71053C27.2088 6.91906 25.778 6.31846 24.2573 5.9474L23.6277 0H17.6858L17.0561 5.94727C15.5354 6.31818 14.1047 6.91893 12.8029 7.71039L8.15104 3.94939L3.94939 8.15104L7.71039 12.8028C6.91893 14.1046 6.31832 15.5354 5.94727 17.0559L0 17.6858V23.6277L5.94727 24.2575C6.31818 25.7782 6.91893 27.2088 7.71039 28.5106L3.94939 33.1625L8.15104 37.3641L12.8028 33.6031C14.1046 34.3946 15.5354 34.9952 17.0559 35.3663L17.6857 41.3135H23.6276L24.2573 35.3663C25.778 34.9953 27.2087 34.3946 28.5106 33.6031L33.1625 37.3641L37.3641 33.1625L33.6031 28.5108C34.3946 27.2089 34.9952 25.7782 35.3663 24.2576L41.3135 23.6277ZM20.6568 27.6176C16.8124 27.6176 13.6961 24.5011 13.6961 20.6568C13.6961 16.8126 16.8126 13.6961 20.6568 13.6961C24.5011 13.6961 27.6176 16.8126 27.6176 20.6568C27.6176 24.5011 24.5011 27.6176 20.6568 27.6176Z" fill="#FE7858"/>
<path d="M41.3136 23.6277V17.6858L35.3663 17.0561C34.9954 15.5354 34.3946 14.1047 33.6032 12.8029L37.3642 8.15117L33.1625 3.94939L28.5107 7.71039C27.2088 6.91893 25.7781 6.31832 24.2575 5.94727L23.6278 0H20.6569V13.6961C24.5013 13.6961 27.6176 16.8126 27.6176 20.6568C27.6176 24.5011 24.5011 27.6176 20.6569 27.6176V41.3135H23.6279L24.2576 35.3663C25.7783 34.9953 27.209 34.3946 28.5108 33.6031L33.1627 37.3641L37.3643 33.1625L33.6033 28.5108C34.3948 27.2089 34.9955 25.7782 35.3664 24.2576L41.3136 23.6277Z" fill="#FD4E26"/>
<path d="M70 48.5204V41.3038L62.7769 40.539C62.3264 38.6921 61.5969 36.9545 60.6356 35.3734L65.2034 29.7238L60.1005 24.6209L54.4508 29.1886C52.8697 28.2274 51.1321 27.4978 49.2852 27.0473L48.5204 19.8242H41.3038L40.539 27.0473C38.6921 27.4978 36.9545 28.2274 35.3734 29.1886L29.7238 24.6209L24.6209 29.7238L29.1886 35.3734C28.2274 36.9545 27.4978 38.6921 27.0473 40.539L19.8242 41.3038V48.5204L27.0473 49.2852C27.4978 51.1321 28.2274 52.8697 29.1886 54.4508L24.6209 60.1005L29.7238 65.2034L35.3734 60.6356C36.9545 61.5969 38.6921 62.3264 40.539 62.7769L41.3038 70H48.5204L49.2852 62.7769C51.1321 62.3264 52.8697 61.5969 54.4508 60.6356L60.1005 65.2034L65.2034 60.1005L60.6356 54.4508C61.5969 52.8697 62.3264 51.1321 62.7769 49.2852L70 48.5204ZM44.9121 53.3661C40.2432 53.3661 36.4581 49.5812 36.4581 44.9121C36.4581 40.243 40.243 36.4581 44.9121 36.4581C49.5812 36.4581 53.3661 40.243 53.3661 44.9121C53.3661 49.5812 49.5811 53.3661 44.9121 53.3661Z" fill="#81C8EE"/>
<path d="M70 48.5204V41.3038L62.777 40.539C62.3265 38.6921 61.597 36.9545 60.6357 35.3734L65.2035 29.7238L60.1006 24.6209L54.451 29.1886C52.8698 28.2274 51.1323 27.4978 49.2853 27.0473L48.5204 19.8242H44.9121V36.4581C49.5811 36.4581 53.3661 40.243 53.3661 44.9121C53.3661 49.5812 49.5812 53.3661 44.9121 53.3661V70H48.5204L49.2852 62.7769C51.1321 62.3264 52.8697 61.5969 54.4508 60.6356L60.1005 65.2034L65.2034 60.1005L60.6356 54.4508C61.5969 52.8697 62.3264 51.1321 62.7769 49.2852L70 48.5204Z" fill="#159CE4"/>
</g>
<defs>
<clipPath id="clip0_85_627">
<rect width="70" height="70" fill="white"/>
</clipPath>
</defs>
</svg>
