<svg width="70" height="70" viewBox="0 0 70 70" fill="none" xmlns="http://www.w3.org/2000/svg">
<path d="M63.9845 5.46875C63.6343 5.11861 63.1594 4.92188 62.6642 4.92188H56.2344C55.9443 4.92188 55.6662 5.03713 55.461 5.24221C55.0339 5.66932 55.0339 6.3618 55.461 6.78891L57.5159 8.84379L48.1251 18.2346L40.9218 11.0314C40.0676 10.1771 38.6825 10.1771 37.8283 11.0314L22.5158 26.3439C21.6614 27.1981 21.6614 28.5832 22.5158 29.4375C22.943 29.8646 23.5027 30.0781 24.0626 30.0781C24.6225 30.0781 25.1822 29.8646 25.6093 29.4373L39.3751 15.6717L46.5784 22.8748C47.4326 23.7292 48.8177 23.7292 49.6719 22.8748L60.6094 11.9373L62.6643 13.9922C63.0914 14.4193 63.784 14.4193 64.2112 13.9922C64.4162 13.7871 64.5315 13.5089 64.5315 13.2188V6.78891C64.5314 6.29385 64.3346 5.81889 63.9845 5.46875V5.46875Z" fill="#555A6E"/>
<path d="M22.9688 35.5469H18.5938C11.3451 35.5469 5.46875 29.6706 5.46875 22.4219C5.46875 15.1732 11.3451 9.29688 18.5938 9.29688H22.9688C30.2174 9.29688 36.0938 15.1732 36.0938 22.4219C36.0938 29.6706 30.2174 35.5469 22.9688 35.5469Z" fill="#3CB44B"/>
<path d="M18.5938 35.5469C25.8425 35.5469 31.7188 29.6706 31.7188 22.4219C31.7188 15.1731 25.8425 9.29688 18.5938 9.29688C11.345 9.29688 5.46875 15.1731 5.46875 22.4219C5.46875 29.6706 11.345 35.5469 18.5938 35.5469Z" fill="#D7E123"/>
<path d="M22.9688 20.2344C23.5728 20.2344 24.0625 19.7446 24.0625 19.1406V18.9304C24.0625 16.6339 22.1942 14.7656 19.8978 14.7656H19.6875V12.5781C19.6875 11.9741 19.1978 11.4844 18.5938 11.4844C17.9897 11.4844 17.5 11.9741 17.5 12.5781V14.7656H17.2897C14.9933 14.7656 13.125 16.6339 13.125 18.9304C13.125 20.845 14.4222 22.5065 16.2796 22.9708L20.3774 23.9952C21.2592 24.2156 21.875 25.0045 21.875 25.9134C21.875 27.0036 20.988 27.8906 19.8978 27.8906H17.2897C16.1995 27.8906 15.3125 27.0036 15.3125 25.9134V25.7031C15.3125 25.0991 14.8228 24.6094 14.2188 24.6094C13.6147 24.6094 13.125 25.0991 13.125 25.7031V25.9134C13.125 28.2099 14.9933 30.0781 17.2897 30.0781H17.5V32.2656C17.5 32.8696 17.9897 33.3594 18.5938 33.3594C19.1978 33.3594 19.6875 32.8696 19.6875 32.2656V30.0781H19.8978C22.1942 30.0781 24.0625 28.2099 24.0625 25.9134C24.0625 23.9988 22.7653 22.3372 20.9079 21.8729L16.8101 20.8485C15.9283 20.6281 15.3125 19.8393 15.3125 18.9304C15.3125 17.8402 16.1995 16.9531 17.2897 16.9531H19.8978C20.988 16.9531 21.875 17.8402 21.875 18.9304V19.1406C21.875 19.7446 22.3647 20.2344 22.9688 20.2344Z" fill="#3CB44B"/>
<path d="M14.2188 42.1094H31.7188C32.9269 42.1094 33.9062 43.0887 33.9062 44.2969V62.8906C33.9062 64.0988 32.9269 65.0781 31.7188 65.0781H14.2188C13.0106 65.0781 12.0312 64.0988 12.0312 62.8906V44.2969C12.0312 43.0887 13.0106 42.1094 14.2188 42.1094Z" fill="#3CB44B"/>
<path d="M14.2188 42.1094H20.7812C21.9894 42.1094 22.9688 43.0887 22.9688 44.2969V62.8906C22.9688 64.0988 21.9894 65.0781 20.7812 65.0781H14.2188C13.0106 65.0781 12.0312 64.0988 12.0312 62.8906V44.2969C12.0312 43.0887 13.0106 42.1094 14.2188 42.1094Z" fill="#D7E123"/>
<path d="M29.5312 33.3594H47.0312C48.2394 33.3594 49.2188 34.3387 49.2188 35.5469V62.8906C49.2188 64.0988 48.2394 65.0781 47.0312 65.0781H29.5312C28.3231 65.0781 27.3438 64.0988 27.3438 62.8906V35.5469C27.3438 34.3387 28.3231 33.3594 29.5312 33.3594Z" fill="#2387C3"/>
<path d="M29.5312 33.3594H36.0938C37.3019 33.3594 38.2812 34.3387 38.2812 35.5469V62.8906C38.2812 64.0988 37.3019 65.0781 36.0938 65.0781H29.5312C28.3231 65.0781 27.3438 64.0988 27.3438 62.8906V35.5469C27.3438 34.3387 28.3231 33.3594 29.5312 33.3594Z" fill="#5AD7FF"/>
<path d="M44.8438 24.6094H62.3438C63.5519 24.6094 64.5312 25.5887 64.5312 26.7969V62.8906C64.5312 64.0988 63.5519 65.0781 62.3438 65.0781H44.8438C43.6356 65.0781 42.6562 64.0988 42.6562 62.8906V26.7969C42.6562 25.5887 43.6356 24.6094 44.8438 24.6094Z" fill="#3CB44B"/>
<path d="M44.8438 24.6094H51.4062C52.6144 24.6094 53.5938 25.5887 53.5938 26.7969V62.8906C53.5938 64.0988 52.6144 65.0781 51.4062 65.0781H44.8438C43.6356 65.0781 42.6562 64.0988 42.6562 62.8906V26.7969C42.6562 25.5887 43.6356 24.6094 44.8438 24.6094Z" fill="#D7E123"/>
</svg>
