<svg width="70" height="70" viewBox="0 0 70 70" fill="none" xmlns="http://www.w3.org/2000/svg">
<path d="M35 48.8186C46.7257 48.8186 56.2313 39.313 56.2313 27.5873C56.2313 15.8615 46.7257 6.35596 35 6.35596C23.2743 6.35596 13.7687 15.8615 13.7687 27.5873C13.7687 39.313 23.2743 48.8186 35 48.8186Z" fill="#478CF7"/>
<path d="M41.6511 7.41846C47.1584 11.2542 50.7626 17.6324 50.7626 24.8526C50.7626 36.5784 41.2571 46.0839 29.5312 46.0839C27.2081 46.0839 24.9722 45.7106 22.8799 45.021C26.3164 47.4147 30.4943 48.8183 35 48.8183C46.7258 48.8183 56.2313 39.3128 56.2313 27.5869C56.2313 18.1845 50.1192 10.2094 41.6511 7.41846Z" fill="#377DE2"/>
<path d="M35 6.35596V27.5873H56.2313C56.2313 15.8615 46.7258 6.35596 35 6.35596V6.35596Z" fill="#58595B"/>
<path d="M41.6796 7.42773C42.551 8.18352 43.5064 8.82691 44.3409 9.63957C45.1588 10.4358 45.9129 11.2977 46.593 12.2145C49.2937 15.8545 50.7626 20.3209 50.7626 24.8525C50.7626 25.7789 50.7033 26.6917 50.5882 27.5869H55.9019H56.0159H56.2316C56.2314 18.1949 50.1329 10.2272 41.6796 7.42773V7.42773Z" fill="#414042"/>
<path d="M51.0475 41.4888C54.2771 37.764 56.2313 32.9039 56.2313 27.5869H35L51.0475 41.4888Z" fill="#FFA91A"/>
<path d="M50.5881 27.5874C50.1104 31.3031 48.6719 34.7184 46.53 37.5755C46.53 37.5755 46.5303 37.5758 46.5306 37.5761L46.5314 37.5769C46.5492 37.5922 46.728 37.7472 47.0053 37.9876L47.0247 38.0043C48.1972 39.0201 51.0475 41.489 51.0475 41.489C54.2768 37.7642 56.231 32.9041 56.231 27.5874H50.5881Z" fill="#F79219"/>
<path d="M47.1696 22.6333C51.5573 22.6333 55.1143 19.0764 55.1143 14.6886C55.1143 10.3009 51.5573 6.7439 47.1696 6.7439C42.7818 6.7439 39.2249 10.3009 39.2249 14.6886C39.2249 19.0764 42.7818 22.6333 47.1696 22.6333Z" fill="#FFA91A"/>
<path d="M52.0625 8.42871C53.1182 9.77758 53.7474 11.4759 53.7474 13.3216C53.7474 17.7095 50.1902 21.2663 45.8027 21.2663C43.9572 21.2663 42.2586 20.6369 40.91 19.5814C42.3642 21.4394 44.6277 22.6335 47.1698 22.6335C51.5577 22.6335 55.1146 19.0764 55.1146 14.6888C55.1146 12.1461 53.9202 9.88285 52.0625 8.42871V8.42871Z" fill="#F79219"/>
<path d="M47.8925 19.401H46.4466C45.1483 19.401 44.092 18.3447 44.092 17.0464C44.092 16.7445 44.337 16.4995 44.6389 16.4995C44.9408 16.4995 45.1858 16.7445 45.1858 17.0464C45.1858 17.7418 45.7513 18.3072 46.4466 18.3072H47.8925C48.5879 18.3072 49.1534 17.7418 49.1534 17.0464V16.3232C49.1534 15.6281 48.5879 15.0626 47.8925 15.0626H46.4466C45.1483 15.0626 44.092 14.0063 44.092 12.7081C44.092 11.4098 45.1483 10.3538 46.4466 10.3538H47.8925C49.1908 10.3538 50.2471 11.4098 50.2471 12.7081C50.2471 13.0099 50.0021 13.2549 49.7002 13.2549C49.3984 13.2549 49.1534 13.0099 49.1534 12.7081C49.1534 12.013 48.5879 11.4475 47.8925 11.4475H46.4466C45.7513 11.4475 45.1858 12.013 45.1858 12.7081C45.1858 13.4034 45.7513 13.9689 46.4466 13.9689H47.8925C49.1908 13.9689 50.2471 15.0249 50.2471 16.3232V17.0464C50.2474 18.3447 49.1908 19.401 47.8925 19.401Z" fill="white"/>
<path d="M47.1698 20.1243C46.8679 20.1243 46.6229 19.8793 46.6229 19.5775V10.1775C46.6229 9.87562 46.8679 9.63062 47.1698 9.63062C47.4717 9.63062 47.7167 9.87562 47.7167 10.1775V19.5775C47.7167 19.8793 47.4717 20.1243 47.1698 20.1243Z" fill="white"/>
<path d="M64.7008 44.774C61.9281 46.9724 52.3797 54.399 45.8363 57.7185C38.1062 61.6424 30.6551 57.7185 24.6011 56.9775C21.0011 56.4369 17.3646 58.6594 15.4082 60.8275L15.3644 60.8357L14.5414 60.9506V45.9498C18.1696 40.5423 23.657 41.2631 29.5668 40.6919C33.7271 40.1592 37.7756 38.9211 41.4722 36.9291C42.207 36.3863 42.9975 36.8099 43.1511 37.6592C43.6939 40.661 41.8879 43.949 39.0578 44.5553L37.5676 44.8943C37.048 45.0187 37.1022 45.751 37.6195 45.8404C42.8148 47.6342 48.0976 46.4502 53.1644 44.2435C56.514 42.7861 61.8734 39.0701 64.8949 43.1006C65.2777 43.6119 65.1875 44.3885 64.7008 44.774V44.774Z" fill="#FCC4AE"/>
<path d="M19.0067 44.5621C18.4489 44.5709 18.249 43.7782 18.7579 43.5285C21.1668 42.301 24.0352 42.1425 26.8079 41.9863C28.6801 41.9026 30.4848 41.7397 32.3283 41.3492C33.0338 41.2273 33.2484 42.2578 32.5443 42.4211C30.6592 42.8239 28.8138 42.9825 26.92 43.0749C23.9154 43.1957 21.3038 43.5014 19.0067 44.5621V44.5621ZM34.568 41.9371C33.9326 41.9344 33.8152 41.0197 34.4313 40.8598C35.2267 40.6992 35.3771 41.8977 34.568 41.9371Z" fill="#FFD2C0"/>
<path d="M64.8949 43.1006C64.1667 42.1293 63.3027 41.6079 62.364 41.3962C62.3049 41.6473 62.1706 41.8778 61.9664 42.0396C59.1937 44.2381 49.6453 51.6646 43.1019 54.9842C35.3719 58.908 27.9207 54.9842 21.8668 54.2432C19.2163 53.8453 16.5462 54.9448 14.5414 56.4178V60.9506L15.3644 60.8357L15.4082 60.8275C17.3646 58.6594 21.0011 56.4369 24.6011 56.9775C30.6551 57.7185 38.1062 61.6424 45.8363 57.7185C52.3797 54.399 61.9281 46.9725 64.7008 44.774C65.1875 44.3885 65.2777 43.6119 64.8949 43.1006Z" fill="#F2AD97"/>
<path d="M64.8949 43.1005C64.5118 42.5895 64.091 42.2031 63.6417 41.9209C63.8843 42.4194 63.764 43.0661 63.3336 43.407C60.5609 45.6055 51.0125 53.032 44.4691 56.3516C36.739 60.2754 29.2879 56.3516 23.234 55.6105C19.9215 55.1132 16.5785 56.955 14.5414 58.9413V60.9508L15.3644 60.8359L15.4082 60.8277C17.3646 58.6596 21.0011 56.4371 24.6011 56.9777C30.6551 57.7188 38.1062 61.6426 45.8363 57.7187C52.3797 54.3992 61.9281 46.9727 64.7008 44.7742C65.1875 44.3884 65.2777 43.6118 64.8949 43.1005Z" fill="#E59076"/>
<path d="M18.5371 60.3909L15.4087 60.8287L15.3647 60.8349L14.5419 60.9506L13.4864 61.0977C12.8059 61.1934 12.1783 60.7179 12.0826 60.0373L9.72394 43.1698C9.62824 42.4892 10.1027 41.8617 10.7832 41.766L15.8339 41.0589C16.156 41.0148 16.468 41.0966 16.7157 41.2716C16.99 41.4603 17.1863 41.761 17.2377 42.1195L17.3736 43.0957L19.1247 55.6134L19.4367 57.8474L19.5964 58.9884C19.6921 59.6676 19.2166 60.2952 18.5371 60.3909V60.3909Z" fill="#F1F2F2"/>
<path d="M19.5965 58.9881L19.4368 57.847L19.1248 55.6131L17.3737 43.0954L17.2378 42.1192C17.1861 41.7607 16.99 41.4599 16.7158 41.2713C16.4886 41.1108 16.2064 41.0339 15.913 41.0553L16.0065 41.7279L17.7576 54.2456L18.0696 56.4796L18.2293 57.6206C18.325 58.2999 17.8495 58.9277 17.17 59.0234L14.0416 59.4611L13.9975 59.4674L13.1748 59.5831L12.1193 59.7302C12.0925 59.734 12.0668 59.7313 12.0403 59.7332L12.0827 60.037C12.1784 60.7176 12.8059 61.1931 13.4865 61.0974L14.542 60.9503L15.3647 60.8346L15.4088 60.8283L18.5372 60.3906C19.2166 60.2951 19.6922 59.6676 19.5965 58.9881V58.9881Z" fill="#E6E7E8"/>
<path d="M6.55539 62.2095H12.1562C13.0886 62.2095 13.8444 61.4538 13.8444 60.5213V40.8008C13.8444 39.8683 13.0886 39.1125 12.1562 39.1125H6.55539C5.62297 39.1125 4.86719 39.8683 4.86719 40.8008V60.5213C4.86691 61.4535 5.62297 62.2095 6.55539 62.2095Z" fill="#8C3F0A"/>
<path d="M12.4502 39.1394C12.4669 39.2351 12.4775 39.3327 12.4775 39.4333V59.1539C12.4775 60.0864 11.7217 60.8421 10.7893 60.8421H5.18823C5.08788 60.8421 4.98999 60.8317 4.89429 60.8148C5.03347 61.6069 5.72335 62.2093 6.55542 62.2093H12.1562C13.0887 62.2093 13.8444 61.4535 13.8444 60.5211V40.8005C13.8444 39.9687 13.2421 39.2789 12.4502 39.1394V39.1394Z" fill="#7C3108"/>
<path d="M11.0979 56.2118C11.3269 55.2432 10.7273 54.2723 9.75864 54.0434C8.79003 53.8144 7.8192 54.414 7.59023 55.3826C7.36127 56.3513 7.96088 57.3221 8.92949 57.551C9.89811 57.78 10.8689 57.1804 11.0979 56.2118Z" fill="white"/>
<path d="M10.3261 54.2637C10.5058 54.5439 10.6113 54.8764 10.6113 55.2341C10.6113 56.2297 9.80439 57.0366 8.80881 57.0366C8.45115 57.0366 8.11865 56.9311 7.83838 56.7514C8.15885 57.2513 8.71775 57.5835 9.35568 57.5835C10.3513 57.5835 11.1582 56.7766 11.1582 55.781C11.1582 55.1433 10.826 54.5841 10.3261 54.2637Z" fill="#E6E7E8"/>
</svg>
