<svg width="70" height="70" viewBox="0 0 70 70" fill="none" xmlns="http://www.w3.org/2000/svg">
<path d="M59.4999 50.1667C59.1905 50.1667 58.8938 50.0438 58.675 49.825C58.4562 49.6062 58.3333 49.3094 58.3333 49V45.5C58.3333 45.1906 58.2103 44.8938 57.9915 44.675C57.7728 44.4562 57.476 44.3333 57.1666 44.3333H12.8333C12.5238 44.3333 12.2271 44.4562 12.0083 44.675C11.7895 44.8938 11.6666 45.1906 11.6666 45.5V49C11.6666 49.3094 11.5437 49.6062 11.3249 49.825C11.1061 50.0438 10.8093 50.1667 10.4999 50.1667C10.1905 50.1667 9.89375 50.0438 9.67496 49.825C9.45617 49.6062 9.33325 49.3094 9.33325 49V45.5C9.33325 44.5717 9.702 43.6815 10.3584 43.0251C11.0148 42.3688 11.905 42 12.8333 42H57.1666C58.0948 42 58.9851 42.3688 59.6415 43.0251C60.2978 43.6815 60.6666 44.5717 60.6666 45.5V49C60.6666 49.3094 60.5437 49.6062 60.3249 49.825C60.1061 50.0438 59.8093 50.1667 59.4999 50.1667Z" fill="#3F5C6C"/>
<path d="M34.9999 50.1666C34.6905 50.1666 34.3938 50.0437 34.175 49.8249C33.9562 49.6061 33.8333 49.3093 33.8333 48.9999V38.4999C33.8333 38.1905 33.9562 37.8938 34.175 37.675C34.3938 37.4562 34.6905 37.3333 34.9999 37.3333C35.3093 37.3333 35.6061 37.4562 35.8249 37.675C36.0437 37.8938 36.1666 38.1905 36.1666 38.4999V48.9999C36.1666 49.3093 36.0437 49.6061 35.8249 49.8249C35.6061 50.0437 35.3093 50.1666 34.9999 50.1666Z" fill="#3F5C6C"/>
<path d="M16.3334 49H4.66675C2.73375 49 1.16675 50.567 1.16675 52.5V65.3333C1.16675 67.2663 2.73375 68.8333 4.66675 68.8333H16.3334C18.2664 68.8333 19.8334 67.2663 19.8334 65.3333V52.5C19.8334 50.567 18.2664 49 16.3334 49Z" fill="#B0D3F0"/>
<path d="M5.83341 60.6668C6.47775 60.6668 7.00008 60.1445 7.00008 59.5002C7.00008 58.8558 6.47775 58.3335 5.83341 58.3335C5.18908 58.3335 4.66675 58.8558 4.66675 59.5002C4.66675 60.1445 5.18908 60.6668 5.83341 60.6668Z" fill="#FB7B76"/>
<path d="M15.1666 60.6668H10.4999C10.1905 60.6668 9.89375 60.5439 9.67496 60.3251C9.45617 60.1063 9.33325 59.8096 9.33325 59.5002C9.33325 59.1907 9.45617 58.894 9.67496 58.6752C9.89375 58.4564 10.1905 58.3335 10.4999 58.3335H15.1666C15.476 58.3335 15.7728 58.4564 15.9915 58.6752C16.2103 58.894 16.3333 59.1907 16.3333 59.5002C16.3333 59.8096 16.2103 60.1063 15.9915 60.3251C15.7728 60.5439 15.476 60.6668 15.1666 60.6668Z" fill="#90BAE1"/>
<path d="M5.83341 65.3333C6.47775 65.3333 7.00008 64.811 7.00008 64.1667C7.00008 63.5223 6.47775 63 5.83341 63C5.18908 63 4.66675 63.5223 4.66675 64.1667C4.66675 64.811 5.18908 65.3333 5.83341 65.3333Z" fill="#FB7B76"/>
<path d="M12.8333 65.3333H10.4999C10.1905 65.3333 9.89375 65.2104 9.67496 64.9916C9.45617 64.7728 9.33325 64.4761 9.33325 64.1667C9.33325 63.8572 9.45617 63.5605 9.67496 63.3417C9.89375 63.1229 10.1905 63 10.4999 63H12.8333C13.1427 63 13.4394 63.1229 13.6582 63.3417C13.877 63.5605 13.9999 63.8572 13.9999 64.1667C13.9999 64.4761 13.877 64.7728 13.6582 64.9916C13.4394 65.2104 13.1427 65.3333 12.8333 65.3333Z" fill="#90BAE1"/>
<path d="M53.6666 19.8334C53.6652 20.418 53.6341 21.0021 53.5733 21.5834C53.5391 21.8305 53.4266 22.0602 53.2523 22.2386C53.078 22.4171 52.8512 22.535 52.6049 22.5751L49.8283 23.0301C49.4381 24.8139 48.7308 26.5131 47.7399 28.0468L49.3849 30.3451C49.5338 30.5465 49.6131 30.7908 49.611 31.0412C49.6089 31.2916 49.5255 31.5346 49.3733 31.7334C49.0025 32.1846 48.6092 32.6168 48.1949 33.0284C47.7749 33.4484 47.3433 33.8334 46.8999 34.2068C46.7011 34.359 46.4581 34.4424 46.2077 34.4445C45.9573 34.4466 45.713 34.3673 45.5116 34.2184L43.2133 32.5734C41.6796 33.5643 39.9804 34.2716 38.1966 34.6618L37.7416 37.4384C37.704 37.6857 37.5869 37.914 37.408 38.0887C37.229 38.2635 36.998 38.3751 36.7499 38.4068C35.5866 38.5312 34.4133 38.5312 33.2499 38.4068C33.0018 38.3751 32.7708 38.2635 32.5919 38.0887C32.4129 37.914 32.2958 37.6857 32.2583 37.4384L31.8033 34.6618C30.0195 34.2716 28.3203 33.5643 26.7866 32.5734L24.4883 34.2184C24.2869 34.3673 24.0426 34.4466 23.7922 34.4445C23.5417 34.4424 23.2988 34.359 23.0999 34.2068C22.6566 33.8334 22.2249 33.4484 21.8049 33.0284C21.3906 32.6168 20.9974 32.1846 20.6266 31.7334C20.4744 31.5346 20.391 31.2916 20.3889 31.0412C20.3868 30.7908 20.4661 30.5465 20.6149 30.3451L22.2599 28.0468C21.2691 26.5131 20.5618 24.8139 20.1716 23.0301L17.3949 22.5751C17.1487 22.535 16.9218 22.4171 16.7475 22.2386C16.5733 22.0602 16.4608 21.8305 16.4266 21.5834C16.3021 20.4201 16.3021 19.2468 16.4266 18.0834C16.4583 17.8353 16.5699 17.6043 16.7446 17.4254C16.9194 17.2464 17.1477 17.1293 17.3949 17.0918L20.1716 16.6368C20.5618 14.853 21.2691 13.1538 22.2599 11.6201L20.6149 9.32177C20.4661 9.12037 20.3868 8.87606 20.3889 8.62565C20.391 8.37524 20.4744 8.1323 20.6266 7.93343C20.9944 7.47967 21.3878 7.0473 21.8049 6.63843C22.2165 6.22414 22.6487 5.83086 23.0999 5.4601C23.2988 5.30791 23.5417 5.22448 23.7922 5.22238C24.0426 5.22027 24.2869 5.29961 24.4883 5.44843L26.7866 7.09343C28.3203 6.10259 30.0195 5.39525 31.8033 5.0051L32.2583 2.22843C32.2958 1.98116 32.4129 1.75287 32.5919 1.57814C32.7708 1.40341 33.0018 1.29176 33.2499 1.2601C34.4133 1.13563 35.5866 1.13563 36.7499 1.2601C36.998 1.29176 37.229 1.40341 37.408 1.57814C37.5869 1.75287 37.704 1.98116 37.7416 2.22843L38.1966 5.0051C39.9804 5.39525 41.6796 6.10259 43.2133 7.09343L45.5116 5.44843C45.713 5.29961 45.9573 5.22027 46.2077 5.22238C46.4581 5.22448 46.7011 5.30791 46.8999 5.4601C47.3511 5.83086 47.7833 6.22414 48.1949 6.63843C48.6121 7.0473 49.0055 7.47967 49.3733 7.93343C49.5255 8.1323 49.6089 8.37524 49.611 8.62565C49.6131 8.87606 49.5338 9.12037 49.3849 9.32177L47.7399 11.6201C48.7308 13.1538 49.4381 14.853 49.8283 16.6368L52.6049 17.0918C52.8522 17.1293 53.0805 17.2464 53.2552 17.4254C53.43 17.6043 53.5416 17.8353 53.5733 18.0834C53.6341 18.6648 53.6652 19.2489 53.6666 19.8334V19.8334Z" fill="#95A5A5"/>
<path d="M35 30.3333C40.799 30.3333 45.5 25.6322 45.5 19.8333C45.5 14.0343 40.799 9.33325 35 9.33325C29.201 9.33325 24.5 14.0343 24.5 19.8333C24.5 25.6322 29.201 30.3333 35 30.3333Z" fill="#7F8C8D"/>
<path d="M35.0001 25.6667C38.2217 25.6667 40.8334 23.055 40.8334 19.8333C40.8334 16.6117 38.2217 14 35.0001 14C31.7784 14 29.1667 16.6117 29.1667 19.8333C29.1667 23.055 31.7784 25.6667 35.0001 25.6667Z" fill="#56595E"/>
<path d="M19.8334 52.5V54.8333H1.16675V52.5C1.16675 51.5717 1.5355 50.6815 2.19187 50.0251C2.84825 49.3688 3.73849 49 4.66675 49H16.3334C17.2617 49 18.1519 49.3688 18.8083 50.0251C19.4647 50.6815 19.8334 51.5717 19.8334 52.5V52.5Z" fill="#4482C3"/>
<path d="M40.8334 49H29.1667C27.2338 49 25.6667 50.567 25.6667 52.5V65.3333C25.6667 67.2663 27.2338 68.8333 29.1667 68.8333H40.8334C42.7664 68.8333 44.3334 67.2663 44.3334 65.3333V52.5C44.3334 50.567 42.7664 49 40.8334 49Z" fill="#B0D3F0"/>
<path d="M30.3334 60.6668C30.9777 60.6668 31.5001 60.1445 31.5001 59.5002C31.5001 58.8558 30.9777 58.3335 30.3334 58.3335C29.6891 58.3335 29.1667 58.8558 29.1667 59.5002C29.1667 60.1445 29.6891 60.6668 30.3334 60.6668Z" fill="#FB7B76"/>
<path d="M39.6666 60.6668H34.9999C34.6905 60.6668 34.3938 60.5439 34.175 60.3251C33.9562 60.1063 33.8333 59.8096 33.8333 59.5002C33.8333 59.1907 33.9562 58.894 34.175 58.6752C34.3938 58.4564 34.6905 58.3335 34.9999 58.3335H39.6666C39.976 58.3335 40.2728 58.4564 40.4915 58.6752C40.7103 58.894 40.8333 59.1907 40.8333 59.5002C40.8333 59.8096 40.7103 60.1063 40.4915 60.3251C40.2728 60.5439 39.976 60.6668 39.6666 60.6668Z" fill="#90BAE1"/>
<path d="M30.3334 65.3333C30.9777 65.3333 31.5001 64.811 31.5001 64.1667C31.5001 63.5223 30.9777 63 30.3334 63C29.6891 63 29.1667 63.5223 29.1667 64.1667C29.1667 64.811 29.6891 65.3333 30.3334 65.3333Z" fill="#FB7B76"/>
<path d="M37.3333 65.3333H34.9999C34.6905 65.3333 34.3938 65.2104 34.175 64.9916C33.9562 64.7728 33.8333 64.4761 33.8333 64.1667C33.8333 63.8572 33.9562 63.5605 34.175 63.3417C34.3938 63.1229 34.6905 63 34.9999 63H37.3333C37.6427 63 37.9394 63.1229 38.1582 63.3417C38.377 63.5605 38.4999 63.8572 38.4999 64.1667C38.4999 64.4761 38.377 64.7728 38.1582 64.9916C37.9394 65.2104 37.6427 65.3333 37.3333 65.3333Z" fill="#90BAE1"/>
<path d="M44.3334 52.5V54.8333H25.6667V52.5C25.6667 51.5717 26.0355 50.6815 26.6919 50.0251C27.3483 49.3688 28.2385 49 29.1667 49H40.8334C41.7617 49 42.6519 49.3688 43.3083 50.0251C43.9647 50.6815 44.3334 51.5717 44.3334 52.5Z" fill="#4482C3"/>
<path d="M65.3334 49H53.6667C51.7338 49 50.1667 50.567 50.1667 52.5V65.3333C50.1667 67.2663 51.7338 68.8333 53.6667 68.8333H65.3334C67.2664 68.8333 68.8334 67.2663 68.8334 65.3333V52.5C68.8334 50.567 67.2664 49 65.3334 49Z" fill="#B0D3F0"/>
<path d="M54.8334 60.6668C55.4777 60.6668 56.0001 60.1445 56.0001 59.5002C56.0001 58.8558 55.4777 58.3335 54.8334 58.3335C54.1891 58.3335 53.6667 58.8558 53.6667 59.5002C53.6667 60.1445 54.1891 60.6668 54.8334 60.6668Z" fill="#FB7B76"/>
<path d="M64.1666 60.6668H59.4999C59.1905 60.6668 58.8938 60.5439 58.675 60.3251C58.4562 60.1063 58.3333 59.8096 58.3333 59.5002C58.3333 59.1907 58.4562 58.894 58.675 58.6752C58.8938 58.4564 59.1905 58.3335 59.4999 58.3335H64.1666C64.476 58.3335 64.7728 58.4564 64.9915 58.6752C65.2103 58.894 65.3333 59.1907 65.3333 59.5002C65.3333 59.8096 65.2103 60.1063 64.9915 60.3251C64.7728 60.5439 64.476 60.6668 64.1666 60.6668Z" fill="#90BAE1"/>
<path d="M54.8334 65.3333C55.4777 65.3333 56.0001 64.811 56.0001 64.1667C56.0001 63.5223 55.4777 63 54.8334 63C54.1891 63 53.6667 63.5223 53.6667 64.1667C53.6667 64.811 54.1891 65.3333 54.8334 65.3333Z" fill="#FB7B76"/>
<path d="M61.8333 65.3333H59.4999C59.1905 65.3333 58.8938 65.2104 58.675 64.9916C58.4562 64.7728 58.3333 64.4761 58.3333 64.1667C58.3333 63.8572 58.4562 63.5605 58.675 63.3417C58.8938 63.1229 59.1905 63 59.4999 63H61.8333C62.1427 63 62.4394 63.1229 62.6582 63.3417C62.877 63.5605 62.9999 63.8572 62.9999 64.1667C62.9999 64.4761 62.877 64.7728 62.6582 64.9916C62.4394 65.2104 62.1427 65.3333 61.8333 65.3333Z" fill="#90BAE1"/>
<path d="M68.8334 52.5V54.8333H50.1667V52.5C50.1667 51.5717 50.5355 50.6815 51.1919 50.0251C51.8483 49.3688 52.7385 49 53.6667 49H65.3334C66.2617 49 67.1519 49.3688 67.8083 50.0251C68.4647 50.6815 68.8334 51.5717 68.8334 52.5V52.5Z" fill="#4482C3"/>
</svg>
