<svg version="1.2" xmlns="http://www.w3.org/2000/svg" viewBox="0 0 64 70" width="64" height="70"><style>.a{fill:#eaf6ff}.b{fill:#b5d2e2}.c{fill:#d9ecfd}.d{fill:#fb9927}.e{fill:#f98824}.f{fill:#fee7c9}.g{fill:#7a6e79}.h{fill:#685e67}.i{fill:#433f43}.j{fill:#d2f0a2}.k{fill:#a3e440}.l{fill:#27d1b3}.m{fill:#8bbbd3}.n{fill:#20b69f}</style><path class="a" d="m31.7 4.6l22.2 6.8v40c0 0.8-0.6 1.5-1.4 1.5h-50.1c-0.8 0-1.4-0.7-1.4-1.5v-40z"/><path class="b" d="m33 65.7v-42.4"/><path class="b" d="m19 47.1h-2.2c-0.6 0-1.1-0.4-1.1-1 0-0.6 0.5-1.1 1.1-1.1h2.2c0.6 0 1.1 0.5 1.1 1.1 0 0.6-0.5 1-1.1 1z"/><path class="b" d="m26 47.1h-2.2c-0.6 0-1.1-0.4-1.1-1 0-0.6 0.5-1.1 1.1-1.1h2.2c0.6 0 1.1 0.5 1.1 1.1 0 0.6-0.5 1-1.1 1z"/><path class="b" d="m33 47.1h-2.2c-0.6 0-1.1-0.4-1.1-1 0-0.6 0.5-1.1 1.1-1.1h2.2c0.6 0 1.1 0.5 1.1 1.1 0 0.6-0.5 1-1.1 1z"/><path class="b" d="m42.9 26.6h-31.2c-0.8 0-1.4-0.6-1.4-1.4v-4.8c0-0.8 0.6-1.4 1.4-1.4h31.2c0.8 0 1.5 0.6 1.5 1.4v4.8c0 0.8-0.7 1.4-1.5 1.4z"/><path class="c" d="m53.9 1.4v50c0 0.8-0.6 1.5-1.4 1.5h-4.9c0.8 0 1.5-0.7 1.5-1.5v-50c0-0.8-0.7-1.4-1.5-1.4h4.9c0.8 0 1.4 0.6 1.4 1.4z"/><path class="d" d="m53.9 1.4v10h-52.9v-10c0-0.8 0.6-1.4 1.4-1.4h50.1c0.8 0 1.4 0.6 1.4 1.4z"/><path class="e" d="m53.9 1.4v10h-4.8v-10c0-0.7-0.6-1.4-1.4-1.4h4.8c0.8 0 1.4 0.6 1.4 1.4z"/><path class="f" d="m6.8 6.6c-0.6 0-1.1-0.5-1.1-1v-0.1c0-0.5 0.5-1 1.1-1 0.6 0 1 0.5 1 1v0.1c0 0.5-0.4 1-1 1z"/><path class="f" d="m10.3 6.6c-0.6 0-1.1-0.5-1.1-1v-0.1c0-0.5 0.5-1 1.1-1 0.5 0 1 0.5 1 1v0.1c0 0.5-0.5 1-1 1z"/><path class="f" d="m13.7 6.6c-0.6 0-1-0.5-1-1v-0.1c0-0.5 0.4-1 1-1 0.6 0 1.1 0.5 1.1 1v0.1c0 0.5-0.5 1-1.1 1z"/><path class="a" d="m47 7.5h-28c-0.4 0-0.7-0.3-0.7-0.7v-2.2c0-0.4 0.3-0.8 0.7-0.8h28c0.4 0 0.7 0.4 0.7 0.8v2.2c0 0.4-0.3 0.7-0.7 0.7z"/><path class="g" d="m33 23.3c0-2.4 1.9-4.3 4.3-4.3h22.1c2.4 0 4.3 1.9 4.3 4.3v42.4c0 2.4-1.9 4.3-4.3 4.3h-22.1c-2.4 0-4.3-1.9-4.3-4.3"/><path class="h" d="m63.7 23.3v42.4c0 2.4-1.9 4.3-4.3 4.3h-4.9c2.4 0 4.3-1.9 4.3-4.3v-42.4c0-2.4-1.9-4.3-4.3-4.3h4.9c2.4 0 4.3 1.9 4.3 4.3z"/><path class="a" d="m60.1 23.3v42.4c0 0.4-0.3 0.7-0.7 0.7h-22.1c-0.4 0-0.7-0.3-0.7-0.7v-42.4c0-0.4 0.3-0.8 0.7-0.8h4.7c0.3 0 0.6 0.2 0.7 0.5l0.8 2.1c0.2 0.5 0.8 0.9 1.4 0.9h6.9c0.6 0 1.2-0.4 1.4-0.9l0.8-2.1c0.1-0.3 0.4-0.5 0.7-0.5h4.7c0.4 0 0.7 0.4 0.7 0.8z"/><path class="c" d="m60.1 23.3v42.4c0 0.4-0.3 0.7-0.7 0.7h-3.7c0.4 0 0.7-0.3 0.7-0.7v-42.4c0-0.4-0.3-0.8-0.7-0.8h3.7c0.4 0 0.7 0.4 0.7 0.8z"/><path class="d" d="m53.9 62.8h-11.1c-0.5 0-1-0.4-1-1 0-0.6 0.5-1.1 1-1.1h11.1c0.6 0 1 0.5 1 1.1 0 0.6-0.4 1-1 1z"/><path class="i" d="m49.2 23.5h-1.7c-0.6 0-1-0.4-1-1 0-0.6 0.4-1.1 1-1.1h1.7c0.6 0 1 0.5 1 1.1 0 0.6-0.4 1-1 1z"/><path class="j" d="m52.5 52.1h-8.1c-0.4 0-0.8-0.4-0.8-0.9v-8c0-0.5 0.4-0.9 0.8-0.9h8.1c0.5 0 0.8 0.4 0.8 0.9v8c0 0.5-0.3 0.9-0.8 0.9z"/><path class="k" d="m53.3 43.2v8c0 0.5-0.3 0.9-0.8 0.9h-2.9c0.5 0 0.9-0.4 0.9-0.9v-8c0-0.5-0.4-0.9-0.9-0.9h2.9c0.5 0 0.8 0.4 0.8 0.9z"/><path class="a" d="m53.3 43.2v2.3l-3.4 3.5c-0.2 0.2-0.5 0.3-0.8 0.3-0.3 0-0.5-0.1-0.7-0.3l-1.6-1.6c-0.4-0.4-0.4-1 0-1.5 0.4-0.4 1.1-0.4 1.5 0l0.8 0.9 4.1-4.1q0.1 0.2 0.1 0.5z"/><path class="c" d="m53.3 43.2v2.3l-2.8 2.9v-3l2.7-2.7q0.1 0.2 0.1 0.5z"/><path class="l" d="m49.7 57h-2.7c-0.6 0-1.1-0.5-1.1-1.1 0-0.6 0.5-1 1.1-1h2.7c0.6 0 1.1 0.4 1.1 1 0 0.6-0.5 1.1-1.1 1.1z"/><path class="l" d="m53.3 39c-0.6 0-1.1-0.5-1.1-1.1 0-0.6 0.5-1.1 1.1-1.1 0.6 0 1 0.5 1 1.1 0 0.6-0.4 1.1-1 1.1z"/><path class="m" d="m53.4 31.5h-1.1c-0.6 0-1.1-0.4-1.1-1 0-0.6 0.5-1.1 1.1-1.1h1.1c0.6 0 1 0.5 1 1.1 0 0.6-0.4 1-1 1z"/><path class="m" d="m53.4 35.3h-4.2c-0.6 0-1.1-0.5-1.1-1.1 0-0.6 0.5-1.1 1.1-1.1h4.2c0.6 0 1 0.5 1 1.1 0 0.6-0.4 1.1-1 1.1z"/><path class="d" d="m45.4 33.5l-1.7-1.8c-0.4-0.4-1.1-0.4-1.5 0-0.4 0.4-0.4 1 0 1.4h-13.9c0.4-0.4 0.3-1 0-1.4-0.5-0.4-1.1-0.4-1.5 0l-1.8 1.8c-0.4 0.4-0.4 1 0 1.4l1.8 1.8c0.2 0.2 0.4 0.3 0.7 0.3 0.3 0 0.6-0.1 0.8-0.3 0.3-0.4 0.4-1 0-1.4h13.9c-0.4 0.4-0.4 1 0 1.4 0.2 0.2 0.5 0.3 0.8 0.3 0.3 0 0.5-0.1 0.7-0.3l1.7-1.8c0.5-0.4 0.5-1 0-1.4z"/><path fill-rule="evenodd" class="l" d="m13.3 37.2c-1.7 0-3-1.4-3-3 0-1.6 1.3-3 3-3 1.6 0 2.9 1.4 2.9 3 0 1.6-1.3 3-2.9 3z"/><path class="n" d="m16.2 34.2c0 1.6-1.3 3-2.9 3q-0.7-0.1-1.3-0.3c1-0.5 1.7-1.5 1.7-2.7 0-1.2-0.7-2.2-1.7-2.7q0.6-0.2 1.3-0.3c1.6 0 2.9 1.4 2.9 3z"/></svg>