<svg version="1.2" xmlns="http://www.w3.org/2000/svg" viewBox="0 0 64 70" width="64" height="70"><style>.a{fill:#9ea9c9}.b{fill:#4c5c75}.c{fill:#fff}.d{fill:#1d2943}.e{fill:#111d33}.f{fill:#5094ff}.g{fill:#57b3fe}.h{fill:#566df9}.i{fill:#8fabfe}.j{fill:#e93565}.k{fill:#f45170}.l{fill:#7e5af2}.m{fill:#b28afd}.n{fill:#dedffb}.o{fill:#f3f1fc}.p{fill:#febc1f}.q{fill:#ffd06c}.r{fill:#5ec363}.s{fill:#72d561}.t{fill:#78e75a}.u{fill:#bf7d5a}.v{fill:#dba660}.w{fill:#e3e7f0}.x{fill:#df3260}.y{fill:#986ff9}.z{fill:#aa6256}.A{fill:#d4d6d6}</style><path class="a" d="m41.4 2.5l-25.4 67.5-3.8-2.2c-0.3-0.2-0.5-0.7-0.5-1.2l-0.2-49.8c0-1.2 0.9-2.7 1.9-3.3q6-3.9 11.8-7.2 5.6-3.2 11-5.9c0.6-0.3 1.1-0.3 1.4-0.1z"/><path class="b" d="m29 8.5q5.6-3.3 11.1-5.9c1-0.6 1.9-0.1 1.9 1.1l0.1 49.7c0 1.2-0.8 2.7-1.9 3.3q-5.8 3.8-11.5 7.1-5.7 3.3-11.3 6c-1.1 0.6-1.9 0.2-1.9-1.1l-0.2-49.7c0-1.2 0.9-2.7 1.9-3.3q6-3.9 11.8-7.2z"/><path class="c" d="m41.2 53.8c0 0.7-0.5 1.6-1.1 1.9l-22.9 13.2q-0.2 0.1-0.4 0.1c-0.4 0-0.4-0.4-0.4-0.6v-4.8l-0.1-15.4-0.1-29.5c0-0.7 0.6-1.6 1.2-2l3.8-2.2 0.1 0.3c0.2 0.4 0.6 0.7 1.1 0.7q0.4 0 0.8-0.2l11.2-6.5c0.7-0.4 1.3-1.2 1.5-2.1l0.2-0.8 4.1-2.3q0.2-0.2 0.4-0.2c0.4 0 0.4 0.5 0.4 0.6l0.1 29.9 0.1 15.5z"/><path fill-rule="evenodd" class="b" d="m24.2 13.5c-0.2 0.4-0.5 0.6-0.7 0.4-0.2-0.1-0.2-0.5 0-0.8 0.2-0.4 0.5-0.6 0.7-0.4 0.2 0.1 0.2 0.5 0 0.8z"/><path class="a" d="m26.2 11.4c0.3-0.2 0.5 0 0.5 0.3 0 0.3-0.2 0.7-0.5 0.9-0.3 0.2-0.6 0-0.6-0.3 0-0.3 0.3-0.7 0.6-0.9z"/><path class="a" d="m33.7 7.2v1l-6 3.4v-1z"/><path class="c" d="m37.5 2.9q-0.1 0.1-0.3 0.2c-0.5 0.4-1.4 0.4-2 0q-0.2-0.1-0.3-0.2c-0.2-0.3-0.2-0.7 0.3-0.9 0.5-0.4 1.5-0.4 2 0 0.5 0.2 0.6 0.6 0.3 0.9z"/><path class="d" d="m37.5 2.9q-0.1 0.1-0.3 0.2c-0.5 0.4-1.4 0.4-2 0q-0.2-0.1-0.3-0.2 0.1-0.1 0.3-0.2c0.5-0.3 1.5-0.3 2 0q0.2 0.1 0.3 0.2z"/><path class="e" d="m14.6 23.7l-0.1 4.2q0 0.4-0.2 0.5l-0.6 0.4q0.2-0.2 0.2-0.6v-4.1c0-0.5-0.3-1.2-0.8-1.4q-0.3-0.2-0.6-0.1l0.7-0.3q0.2-0.2 0.5 0c0.5 0.3 0.9 0.9 0.9 1.4z"/><path class="b" d="m13.1 22.7q-0.3-0.2-0.6-0.1-0.2 0.2-0.2 0.6v4.1c0 0.5 0.3 1.1 0.8 1.4q0.3 0.2 0.6 0.1 0.2-0.2 0.2-0.6v-4.1c0-0.5-0.3-1.2-0.8-1.4z"/><path class="e" d="m14.5 31.3v4.1q0 0.4-0.2 0.6l-0.6 0.3q0.2-0.1 0.2-0.5v-4.1c0-0.6-0.4-1.2-0.8-1.5q-0.4-0.1-0.6 0l0.6-0.4q0.3-0.1 0.6 0.1c0.5 0.2 0.8 0.9 0.8 1.4z"/><path class="b" d="m13.1 30.2q-0.4-0.1-0.6 0-0.2 0.1-0.2 0.5v4.1c0 0.6 0.3 1.2 0.8 1.5q0.3 0.2 0.6 0 0.2-0.1 0.2-0.5v-4.1c0-0.6-0.4-1.2-0.8-1.5z"/><path class="f" d="m39.6 24.8l-7.5 12.8-1-0.6c-0.3-0.2-0.4-0.5-0.4-0.9v-6.4c0-0.9 0.5-1.8 1.2-2.2l5.7-3.3q0.6-0.3 0.9-0.1z"/><path class="g" d="m38.7 24.8c0.7-0.4 1.3 0 1.3 0.8v6.4c0 0.8-0.6 1.8-1.3 2.2l-5.7 3.3c-0.7 0.4-1.2 0.1-1.2-0.7v-6.5c0-0.8 0.5-1.8 1.2-2.2z"/><path class="c" d="m38.6 30.2c0 0.7-0.5 1.6-1.1 1.9l-3 1.7c-0.6 0.4-1.1 0.1-1.1-0.6 0-0.5 0.3-1.1 0.7-1.5 0-0.6 0.4-1.4 1-1.7q0.1 0 0.2-0.1c0.2-0.5 0.6-1 1-1.2 0.8-0.4 1.3-0.1 1.3 0.7v0.2c0.6-0.3 1 0 1 0.6z"/><path class="h" d="m27.6 44.9l-7.4 12.9-1.1-0.7c-0.2-0.1-0.4-0.4-0.4-0.8v-6.5c0-0.8 0.5-1.7 1.2-2.1l5.7-3.3q0.6-0.3 0.9-0.1z"/><path class="i" d="m21.1 57.7c-0.7 0.4-1.3 0.1-1.3-0.7v-6.5c0-0.8 0.5-1.8 1.2-2.2l5.7-3.3c0.7-0.4 1.3 0 1.3 0.8v6.4c0 0.8-0.6 1.8-1.3 2.2z"/><path class="j" d="m27.6 31.7l-7.5 12.8-1.1-0.6q-0.3-0.2-0.3-0.8v-6.5c-0.1-0.8 0.5-1.8 1.2-2.2l5.7-3.3c0.3-0.2 0.7-0.2 0.9 0z"/><path class="k" d="m26.7 31.8c0.7-0.4 1.2-0.1 1.2 0.7v6.5c0 0.8-0.5 1.7-1.2 2.1l-5.7 3.3c-0.7 0.4-1.2 0.1-1.2-0.7l-0.1-6.5c0-0.8 0.6-1.8 1.3-2.2z"/><path class="l" d="m27.5 18.4l-7.4 12.8-1.1-0.6c-0.2-0.1-0.4-0.4-0.4-0.8v-6.5c0-0.8 0.6-1.8 1.3-2.2l5.7-3.2q0.5-0.3 0.8-0.1z"/><path class="m" d="m26.6 18.5c0.7-0.4 1.3-0.1 1.3 0.7v6.5c0 0.8-0.5 1.8-1.2 2.2l-5.7 3.2c-0.7 0.4-1.3 0.1-1.3-0.7v-6.5c0-0.8 0.6-1.8 1.3-2.2z"/><path class="n" d="m39.6 38l-7.4 12.8-1.1-0.6q-0.3-0.2-0.4-0.8v-6.5c0-0.8 0.6-1.7 1.3-2.1l5.7-3.3c0.3-0.2 0.6-0.2 0.8-0.1z"/><path class="o" d="m38.7 38.1c0.7-0.4 1.3-0.1 1.3 0.7v6.5c0 0.8-0.5 1.8-1.2 2.2l-5.7 3.3c-0.7 0.4-1.3 0-1.3-0.8v-6.5c0-0.7 0.6-1.7 1.3-2.1z"/><path class="p" d="m39.6 11.5l-7.5 12.8-1.1-0.6q-0.3-0.2-0.3-0.8l-0.1-6.5c0-0.8 0.6-1.8 1.3-2.2l5.7-3.3c0.3-0.2 0.7-0.2 0.9 0z"/><path class="q" d="m38.7 11.6c0.7-0.4 1.2-0.1 1.2 0.7v6.5c0 0.8-0.5 1.7-1.2 2.1l-5.7 3.3c-0.7 0.4-1.3 0.1-1.3-0.7v-6.5c0-0.8 0.6-1.8 1.3-2.2z"/><path class="k" d="m35.9 41.7c1.3-0.8 2.4-0.2 2.4 1.4 0 1.5-1.1 3.3-2.4 4.1-1.3 0.7-2.4 0.1-2.4-1.4 0-1.5 1.1-3.4 2.4-4.1z"/><path class="c" d="m35.1 43.5l2.1 0.2-2.1 2.6z"/><path class="c" d="m22.4 37.2q0.2-0.1 0.2 0c0.2 0.1 0.1 0.3 0 0.5l-1.1 1.7 1.1 0.5c0.1 0 0.2 0.2 0.1 0.4q-0.1 0.2-0.3 0.3-0.1 0-0.2 0l-1.3-0.6q-0.1 0-0.1-0.2 0-0.1 0.1-0.3l1.3-2.1q0.1-0.1 0.2-0.2z"/><path class="c" d="m24.8 34.7q0.1 0 0.1 0c0.2 0 0.2 0.2 0.2 0.4l-2 6q-0.1 0.2-0.2 0.3l-0.2 0.1c-0.1 0-0.2-0.2-0.1-0.4l1.9-6c0.1-0.2 0.2-0.3 0.3-0.4z"/><path class="c" d="m25.2 35.6q0.2-0.1 0.2 0l1.4 0.5q0.1 0.1 0.1 0.2 0 0.2-0.1 0.3l-1.4 2.2q0 0.1-0.1 0.2-0.2 0-0.3 0c-0.1-0.1-0.1-0.3 0.1-0.5l1.1-1.8-1.1-0.4c-0.2-0.1-0.2-0.3-0.1-0.5q0.1-0.1 0.2-0.2z"/><path class="b" d="m41.4 53.8c0 0.7-0.5 1.6-1.1 2l-23.3 13.4c-0.2 0.1-0.3 0.1-0.4 0.1-0.4 0-0.5-0.4-0.5-0.6v-4l25.3-14.5z"/><path class="a" d="m30 58.5c0.7-0.4 1.3-0.1 1.3 0.7 0 0.9-0.6 1.8-1.3 2.3l-2.6 1.5c-0.7 0.4-1.3 0.1-1.3-0.8 0-0.8 0.6-1.8 1.3-2.2z"/><path class="c" d="m26.3 23.8l-0.5 0.4q-0.1 0.4-0.2 0.8l0.2 0.3-0.4 0.8-0.1 0.2-0.4-0.1q-0.3 0.3-0.6 0.6l-0.1 0.6-0.8 0.5-0.1-0.5q-0.3 0-0.6 0l-0.2 0.3-0.1 0.2-0.1 0.1-0.5-0.3 0.3-0.7q-0.1-0.1-0.2-0.2 0-0.1 0-0.2-0.1 0-0.1-0.1l-0.5 0.2v-0.8-0.1l0.1-0.1 0.4-0.3q0.1-0.4 0.3-0.8l-0.3-0.3 0.5-1 0.2 0.1h0.1 0.1q0.3-0.3 0.6-0.6l0.1-0.6 0.8-0.5 0.1 0.6q0.3-0.1 0.6-0.1l0.4-0.6 0.1 0.1 0.4 0.2-0.3 0.7q0.2 0.2 0.3 0.5h0.1l0.1-0.1 0.3-0.1zm-2.5 2.3c0.6-0.4 1.1-1.2 1.1-1.9 0-0.7-0.5-1-1.1-0.7-0.6 0.4-1.1 1.3-1.1 1.9 0 0.7 0.5 1 1.1 0.7z"/><path class="r" d="m7.8 17.6l-1.9-1.2-1.5-1.8 2.7-0.1z"/><path class="s" d="m13.4 1.5l-10.3 15.6-1.4-0.8q-0.2-0.1-0.3-0.5c-0.5-2.7-0.8-5.5-0.9-7.6-0.1-0.6 0.3-1.4 0.9-1.8 3.2-2.1 6.5-4 9.9-5.7q0.4-0.2 0.6 0z"/><path class="t" d="m7.8 4.2q2.4-1.4 4.9-2.7c0.6-0.3 1 0.1 1 0.7q-0.3 4.4-1 8.8c-0.1 0.6-0.4 1.2-0.9 1.5q-1.3 0.8-2.6 1.6l-1.4 3.5-1.4-1.9q-1.3 0.7-2.6 1.4c-0.5 0.2-0.8 0.1-0.9-0.4q-0.7-3.8-1-7.7c-0.1-0.6 0.4-1.4 0.9-1.8q2.5-1.6 5-3z"/><path class="c" d="m10.1 8.7q-0.3-0.3-0.9 0-0.5 0.3-0.8 0.9-0.3 0.6-0.3 1.2 0 0.7 0.3 0.9 0.3 0.3 0.8-0.1 0.6-0.3 0.9-0.9 0.3-0.5 0.3-1.2 0-0.6-0.3-0.8zm-1.3 2.4q-0.2-0.2-0.2-0.6 0-0.3 0.1-0.7 0.2-0.3 0.5-0.5 0.3-0.2 0.5 0 0.1 0.1 0.1 0.5 0 0.4-0.1 0.8-0.2 0.3-0.5 0.5-0.3 0.2-0.4 0z"/><path class="c" d="m9.5 5.9q0 0.1-0.1 0.2l-2.8 6.8q-0.1 0.1-0.1 0.2-0.1 0.1-0.1 0.1-0.1 0.1-0.2 0-0.1 0-0.1-0.1 0-0.1 0-0.2l2.9-6.9q0.1-0.2 0.2-0.2 0.1-0.1 0.2-0.1 0.1 0.1 0.1 0.2z"/><path class="c" d="m7.2 7.3q-0.3-0.3-0.9 0-0.5 0.4-0.8 1-0.3 0.5-0.3 1.2 0 0.6 0.3 0.8 0.3 0.3 0.8 0 0.6-0.3 0.9-0.9 0.3-0.6 0.3-1.3 0-0.6-0.3-0.8zm-1.3 2.4q-0.2-0.1-0.2-0.5 0-0.4 0.2-0.8 0.1-0.3 0.4-0.5 0.3-0.2 0.5 0 0.2 0.1 0.2 0.5 0 0.4-0.2 0.8-0.2 0.3-0.5 0.5-0.3 0.2-0.4 0z"/><path class="u" d="m62.8 2.4l-16.5 21.8-1.7-1c-0.3-0.2-0.5-0.6-0.5-1.1v-9.6c0-1 0.7-2.2 1.6-2.7l14.3-8.2c0.4-0.3 0.8-0.3 1.1-0.2z"/><path class="v" d="m61.7 2.5c0.9-0.5 1.6-0.1 1.6 0.9v9.7c0 1-0.7 2.2-1.6 2.7l-14.3 8.2c-0.8 0.6-1.6 0.1-1.6-0.9v-9.6c0-1 0.7-2.2 1.6-2.8z"/><path class="c" d="m46.7 23.6c-0.2 0-0.2-0.3-0.2-0.5v-9.6c0-0.8 0.6-1.8 1.2-2.2l14.3-8.2c0.2-0.1 0.3-0.1 0.4-0.1 0.2 0 0.2 0.3 0.2 0.5l0.1 9.6c0 0.7-0.6 1.8-1.3 2.2l-14.3 8.2c-0.2 0.1-0.3 0.1-0.4 0.1z"/><path class="w" d="m54.4 10.3l7.3-4.2v-1l-7.3 4.2z"/><path class="w" d="m54.4 12.6l7.3-4.3v-1l-7.3 4.3z"/><path class="w" d="m54.4 17l4.1-2.4v-0.9l-4.1 2.3z"/><path class="w" d="m54.4 14.8l7.3-4.3v-0.9l-7.3 4.2z"/><path class="t" d="m50.6 15.8l2.7-1.6c0 1.8-1.3 3.8-2.8 4.7-0.7 0.4-1.3 0.5-1.9 0.2z"/><path class="x" d="m50.6 12.4c0.7-0.3 1.4-0.4 1.9-0.1 0.5 0.3 0.8 0.9 0.8 1.6l-2.7 1.6z"/><path class="y" d="m50.4 12.6v3.1l-1.9 3.3c-0.5-0.3-0.8-0.9-0.8-1.7 0-1.7 1.2-3.8 2.7-4.7z"/><path class="n" d="m62.5 60.8v2.1c0 0.5-0.3 0.9-0.9 1.3l-9.3 5.4c-1.2 0.7-3.1 0.7-4.3 0l-9.5-5.4c-0.6-0.4-0.9-0.8-0.9-1.3l0.1-2.1z"/><path class="o" d="m61.6 59.6c1.2 0.6 1.2 1.7 0 2.4l-9.4 5.4c-1.1 0.7-3 0.7-4.2 0l-9.5-5.4c-1.1-0.7-1.2-1.8 0-2.4l9.4-5.5c1.2-0.7 3.1-0.7 4.3 0z"/><path class="v" d="m57.3 59.2l-1.3-0.1v-1.7l-1.8-1.1-1.8 0.8q-0.5-0.2-1.2-0.3l-0.2-1.2h-2.6l-0.2 1.1q-0.8 0.1-1.4 0.3l-1.6-0.7-1.8 1.1v1.7h0.1l-1.4 0.1v1.5 1.2l2 0.1-0.7 0.5v1.2l1.8 1.1 1.9-0.9q0.5 0.2 1 0.2l0.3 1.4h2.5l0.3-1.4q0.5-0.1 0.9-0.3l2 1 1.8-1.1v-1.2l-0.6-0.5 2-0.1zm-5.3 2c-1.3 0.8-3.4 0.8-4.6 0q-0.5-0.2-0.7-0.6 0.2-0.3 0.7-0.6c1.3-0.7 3.3-0.7 4.6 0q0.5 0.3 0.7 0.6-0.2 0.4-0.7 0.6z"/><path class="z" d="m43.4 57.4v1.7l1.3 0.9v-1.7z"/><path class="z" d="m54.5 58.4v1.8l1.5-1.1v-1.7z"/><path class="u" d="m46.4 59.9v1.5c0-0.4 0.3-0.9 1-1.3 1.3-0.8 3.3-0.7 4.6 0 0.7 0.4 1 0.8 1 1.3v-1.5c0-0.5-0.3-0.9-1-1.3-1.3-0.7-3.3-0.7-4.6 0-0.7 0.4-1 0.9-1 1.3z"/><path class="A" d="m57.3 60.7v1.2-0.9-1.8z"/><path class="z" d="m42.1 60.7v1.2l2.1 0.1v-1.2z"/><path class="z" d="m54.8 60.8v1.2l2.5-0.1v-1.2z"/><path class="u" d="m54.4 61.4v1.7q0.2-0.2 0.4-0.5v-1.8q-0.2 0.3-0.4 0.6z"/><path class="u" d="m44.2 60.8v1.8q0.2 0.3 0.6 0.7v-1.8q-0.4-0.3-0.6-0.7z"/><path class="u" d="m51.2 62.9v1.2q0.5-0.1 0.9-0.3v-1.2q-0.4 0.2-0.9 0.3z"/><path class="u" d="m47 62.7l0.1 1.2q0.5 0.2 1 0.2v-1.2q-0.5 0-1.1-0.2z"/><path class="u" d="m43.4 62.5v1.2l1.8 1.1v-1.2z"/><path class="z" d="m45.2 63.6v1.2l1.9-0.9-0.1-1.2z"/><path class="u" d="m54.1 63.6v1.2l1.8-1.1v-1.2z"/><path class="z" d="m52.1 62.6v1.2l2 1v-1.2z"/><path class="z" d="m48.1 62.9v1.2l0.3 1.4v-1.2z"/><path class="z" d="m50.9 64.3v1.2l0.3-1.4v-1.2z"/><path class="v" d="m43.4 62.5l1.4-1q-0.4-0.3-0.6-0.7l-2.1-0.1v-1.5l2-0.1q0.2-0.5 0.6-0.8l-1.3-0.9 1.8-1.1 1.6 0.7q0.7-0.2 1.4-0.3l0.2-1.1h2.6l0.2 1.2q0.7 0.1 1.2 0.3l1.8-0.8 1.8 1.1-1.5 1q0.3 0.3 0.4 0.6l2.4 0.2v1.5l-2.5 0.1q-0.2 0.3-0.4 0.6l1.5 1.1-1.8 1.1-2-1q-0.4 0.2-0.9 0.3l-0.3 1.4h-2.5l-0.3-1.4q-0.5 0-1.1-0.2l-1.8 0.9zm8.6-1.3c1.3-0.7 1.3-1.9 0-2.7-1.3-0.7-3.4-0.7-4.6 0-1.3 0.8-1.3 2-0.1 2.7 1.3 0.8 3.4 0.8 4.7 0z"/><path class="u" d="m48.4 64.3v1.2h2.5v-1.2z"/></svg>