<svg version="1.2" xmlns="http://www.w3.org/2000/svg" viewBox="0 0 70 68" width="70" height="68"><style>.a{fill:#e4d62a}.b{fill:#378b4e}.c{fill:#87c5fe}.d{fill:#df5a49}.e{fill:#b3bacb}.f{fill:#fff}</style><path fill-rule="evenodd" class="a" d="m10.4 26c-2.2 0-4.1-1.8-4.1-4 0-0.4 0.1-0.8 0.1-1.1h-5.3c-0.7 0-1.1-0.5-1.1-1.1v-18.8c0-0.6 0.4-1 1.1-1h18.6c0.7 0 1.1 0.4 1.1 1v7.1c0 0.4-0.3 0.8-0.7 1-0.3 0.1-0.7 0.1-1-0.2-0.4-0.4-0.9-0.5-1.5-0.5-1.2 0-2 0.8-2 2.1 0 1.1 0.9 2 2 2 0.6 0 1.1-0.2 1.5-0.5 0.3-0.3 0.6-0.3 1-0.2 0.4 0.2 0.7 0.5 0.7 0.9v7.1c0 0.6-0.6 1-1.1 1h-5.3c0 0.4 0.1 0.8 0.1 1.1 0 2.3-1.9 4.1-4.1 4.1z"/><path fill-rule="evenodd" class="b" d="m19.7 68h-18.6c-0.7 0-1.1-0.4-1.1-1v-18.8c0-0.6 0.4-1 1.1-1h7.1c0.4 0 0.7 0.2 0.8 0.6 0.3 0.2 0.2 0.8-0.1 1.1-0.3 0.2-0.6 0.8-0.6 1.3 0 1.1 1 2.1 2.1 2.1 1.2 0 2.2-1 2.2-2.1 0-0.5-0.3-0.9-0.7-1.3-0.3-0.3-0.3-0.9-0.1-1.1 0.1-0.4 0.5-0.6 0.9-0.6h7c0.7 0 1.1 0.4 1.1 1v5.5c0.3-0.2 0.7-0.3 0.9-0.3 2.4 0 4.1 1.9 4.1 4.1 0 2.4-1.7 4.2-4.1 4.2-0.2 0-0.6 0-0.9-0.2v5.4c0 0.7-0.6 1.1-1.1 1.1z"/><path fill-rule="evenodd" class="c" d="m69 68h-18.7c-0.5 0-1.1-0.4-1.1-1v-7.1c0-0.4 0.3-0.8 0.7-1 0.3-0.1 0.7-0.1 1 0.2 0.5 0.4 0.9 0.5 1.5 0.5 1.1 0 2-0.8 2-2.1 0-1.1-0.9-2-2-2-0.6 0-1 0.1-1.5 0.5-0.3 0.3-0.6 0.3-1 0.2-0.4-0.2-0.7-0.5-0.7-0.9v-7.1c0-0.6 0.6-1 1.1-1h5.3c0-0.4-0.1-0.8-0.1-1.1 0-2.2 1.9-4.1 4.1-4.1 2.2 0 4.1 1.9 4.1 4.1 0 0.4-0.1 0.7-0.1 1.1h5.3c0.7 0 1.1 0.4 1.1 1v18.8c0 0.6-0.4 1-1 1z"/><path fill-rule="evenodd" class="d" d="m69 20.8h-7.1c-0.4 0-0.6-0.2-0.8-0.6-0.3-0.2-0.1-0.8 0.2-1.1 0.2-0.4 0.5-0.8 0.5-1.3 0-1.1-1-2.1-2.1-2.1-1.2 0-2.1 1-2.1 2.1 0 0.5 0.1 0.9 0.5 1.3 0.3 0.3 0.3 0.7 0.3 1.1-0.3 0.4-0.6 0.6-1 0.6h-7.1c-0.5 0-1.1-0.4-1.1-1v-5.5c-0.3 0.2-0.7 0.3-0.9 0.3-2.4 0-4.1-1.9-4.1-4.1 0-2.4 1.7-4.2 4.1-4.2 0.2 0 0.6 0 0.9 0.2v-5.5c0-0.6 0.6-1 1.1-1h18.6c0.7 0 1.1 0.4 1.1 1v18.8c0 0.6-0.4 1-1 1z"/><path fill-rule="evenodd" class="e" d="m37.1 46.8h-2.9c-0.4 0-0.8-0.3-1-0.7l-0.8-3.3c-0.4-0.1-0.8-0.3-1.2-0.7l-2.8 1.8c-0.4 0.3-0.9 0.1-1.2-0.1l-2-2c-0.3-0.4-0.3-0.9-0.2-1.2l1.8-2.9c-0.3-0.5-0.4-0.9-0.6-1.4l-3-0.6c-0.4-0.2-0.8-0.6-0.8-1v-2.9c0-0.4 0.3-0.8 0.7-1l3.4-0.8c0.2-0.4 0.3-0.8 0.6-1.2l-1.7-2.8c-0.2-0.4-0.2-0.8 0.2-1.2l1.9-2.1c0.4-0.3 0.9-0.3 1.2-0.1l2.9 1.8c0.5-0.3 0.9-0.4 1.3-0.6l0.7-3c0.2-0.4 0.6-0.8 1.1-0.8h2.8c0.4 0 0.8 0.4 0.9 0.6l0.8 3.5c0.4 0.1 0.9 0.3 1.3 0.5l2.7-1.6c0.4-0.3 1-0.3 1.2 0.1l2.1 2.1c0.3 0.3 0.4 0.7 0.1 1.1l-1.8 2.9c0.3 0.5 0.5 0.9 0.6 1.4l3.1 0.6c0.4 0.2 0.7 0.6 0.7 1.1v2.8c0 0.4-0.3 0.8-0.7 1l-3.2 0.8c-0.2 0.4-0.5 0.8-0.7 1.2l1.7 2.8c0.2 0.4 0.2 0.9-0.1 1.2l-2 1.9c-0.5 0.5-0.9 0.5-1.3 0.2l-2.8-1.7c-0.6 0.3-1 0.4-1.4 0.6l-0.7 3c-0.1 0.4-0.5 0.7-0.9 0.7z"/><path fill-rule="evenodd" class="f" d="m35.8 38.8c-2.9 0-5.2-2.3-5.2-5.1 0-2.9 2.3-5.2 5.2-5.2 2.8 0 5.1 2.3 5.1 5.2 0 2.8-2.2 5.1-5.1 5.1z"/><path fill-rule="evenodd" class="d" d="m40.6 10.6h-12.7c-0.6 0-1-0.4-1-1.1 0-0.6 0.4-1 1-1h12.8c0.6 0 1 0.4 1 1 0 0.7-0.5 1.1-1.1 1.1z"/><path fill-rule="evenodd" class="d" d="m27.9 10.6c-0.3 0-0.6-0.1-0.7-0.3-0.4-0.4-0.4-1.1 0-1.5l2.7-2.7c0.5-0.5 1-0.5 1.4 0 0.4 0.4 0.4 1.1 0 1.5l-2.7 2.7c-0.2 0.2-0.4 0.3-0.7 0.3z"/><path fill-rule="evenodd" class="d" d="m30.6 13.2c-0.2 0-0.5 0-0.7-0.3l-2.7-2.6c-0.4-0.4-0.4-1.1 0-1.5 0.4-0.4 1-0.4 1.4 0l2.7 2.8c0.4 0.4 0.4 0.9 0 1.3-0.3 0.3-0.4 0.3-0.7 0.3z"/><path fill-rule="evenodd" class="a" d="m12.2 42.4c-0.6 0-1.1-0.4-1.1-1v-12.9c0-0.6 0.5-1 1.1-1 0.5 0 0.9 0.4 0.9 1v12.9c0 0.6-0.5 1-0.9 1z"/><path fill-rule="evenodd" class="a" d="m12.2 42.4c-0.3 0-0.6-0.1-0.7-0.3l-2.7-2.7c-0.5-0.4-0.5-1 0-1.4 0.4-0.4 1-0.4 1.5 0l2.6 2.7c0.4 0.5 0.4 1 0 1.4-0.3 0.2-0.6 0.3-0.7 0.3z"/><path fill-rule="evenodd" class="a" d="m12.2 42.4c-0.3 0-0.6-0.1-0.7-0.3-0.4-0.4-0.4-0.9 0-1.4l2.7-2.7c0.4-0.4 1-0.4 1.4 0 0.4 0.4 0.4 1 0 1.4l-2.7 2.7c-0.3 0.2-0.6 0.3-0.7 0.3z"/><path fill-rule="evenodd" class="b" d="m43.8 58.2h-12.9c-0.5 0-1-0.4-1-0.9 0-0.6 0.5-1.1 1-1.1h12.9c0.5 0 1 0.5 1 1.1 0 0.5-0.5 0.9-1 0.9z"/><path fill-rule="evenodd" class="b" d="m41.2 61c-0.3 0-0.6-0.2-0.7-0.3-0.4-0.4-0.4-1.1 0-1.5l2.6-2.6c0.4-0.4 1.1-0.4 1.5 0 0.4 0.3 0.4 0.9 0 1.4l-2.8 2.7c-0.2 0.1-0.5 0.3-0.6 0.3z"/><path fill-rule="evenodd" class="b" d="m43.8 58.2c-0.3 0-0.6 0-0.7-0.2l-2.8-2.8c-0.4-0.4-0.4-1 0-1.4 0.4-0.4 1.1-0.4 1.5 0l2.6 2.8c0.4 0.4 0.4 0.9 0 1.4-0.1 0.2-0.4 0.2-0.6 0.2z"/><path fill-rule="evenodd" class="c" d="m59.5 39.2c-0.6 0-1-0.4-1-0.9v-12.8c0-0.7 0.4-1.1 1-1.1 0.5 0 1.1 0.4 1.1 1.1v12.8c-0.2 0.5-0.6 0.9-1.1 0.9z"/><path fill-rule="evenodd" class="c" d="m62.2 29.2c-0.3 0-0.5-0.2-0.7-0.3l-2.7-2.7c-0.4-0.5-0.4-1.1 0-1.6 0.4-0.4 0.9-0.4 1.4 0l2.7 2.8c0.4 0.4 0.4 1.1 0 1.5-0.1 0.1-0.4 0.3-0.7 0.3z"/><path fill-rule="evenodd" class="c" d="m56.7 29.2c-0.1 0-0.4-0.2-0.6-0.3-0.5-0.4-0.5-1.1 0-1.5l2.7-2.8c0.4-0.4 1.1-0.4 1.5 0 0.4 0.5 0.4 1.1 0 1.6l-2.7 2.7c-0.3 0.1-0.6 0.3-0.9 0.3z"/></svg>