<svg version="1.2" xmlns="http://www.w3.org/2000/svg" viewBox="0 0 70 70" width="70" height="70"><style>.a{fill:#8a9bea}.b{fill:#3a3a3a}.c{fill:#51504f}.d{fill:#fff}.e{fill:#d1dafe}.f{fill:#b53016}.g{fill:#fa990e}.h{fill:#fbad3e}.i{fill:#4269c4}.j{fill:#255299}.k{fill:#912010}.l{fill:#3d5e2a}.m{fill:#aec46e}.n{fill:#617f4d}</style><path class="a" d="m46.2 2.5c1.6-0.2 3.3 0.1 4.8 0.7 1.5 0.7 2.8 1.8 3.9 3q1.6 1.9 2.6 4.1c0.7 1.4 1.2 3 1.4 4.6-0.9-1.4-1.7-2.7-2.5-4-0.9-1.3-1.7-2.5-2.7-3.6q-1.4-1.7-3.3-2.9-1.9-1.2-4.2-1.9z"/><path class="b" d="m53.4 9.9v52.8c0 4-3.2 7.2-7.1 7.2h-30.2c-3.9 0-7.1-3.2-7.1-7.2v-52.8c0-4 3.2-7.2 7.1-7.2h30.2c3.9 0 7.1 3.2 7.1 7.2z"/><path class="c" d="m49.5 9.9v52.8c0 4-3.2 7.2-7.2 7.2h-30.1c-4 0-7.2-3.2-7.2-7.2v-52.8c0-4 3.2-7.2 7.2-7.2h30.1c4 0 7.2 3.2 7.2 7.2z"/><path class="d" d="m46.2 9.1v51.5c0 1.8-1.5 3.3-3.4 3.3h-31.1c-1.9 0-3.4-1.5-3.4-3.3v-51.5c0-1.9 1.5-3.4 3.4-3.4h31.1c1.9 0 3.4 1.5 3.4 3.4z"/><path class="c" d="m33.6 9.9h-12.4c-0.7 0-1.2-0.6-1.2-1.3v-3.7h14.8v3.7c0 0.7-0.5 1.3-1.2 1.3z"/><path class="b" d="m21.4 67.2c1-0.4 2-0.6 3-0.8q1.6-0.2 3.1-0.2 1.5 0 3.1 0.2c1 0.1 2 0.4 3.1 0.8-1.1 0.4-2.1 0.6-3.1 0.8q-1.6 0.2-3.1 0.2-1.5 0-3.1-0.2c-1-0.2-2-0.4-3-0.8z"/><path class="b" d="m26.8 7.4c0.5-0.4 1-0.7 1.5-0.8q0.8-0.2 1.5-0.2 0.8 0 1.5 0.2c0.5 0.1 1.1 0.4 1.6 0.8-0.5 0.4-1.1 0.6-1.6 0.8q-0.7 0.2-1.5 0.2-0.7 0-1.5-0.2c-0.5-0.2-1-0.4-1.5-0.8z"/><path class="b" d="m21.9 7.4c0.3-0.4 0.6-0.7 0.8-0.8q0.4-0.2 0.8-0.2 0.4 0 0.8 0.2c0.3 0.1 0.5 0.4 0.8 0.8-0.3 0.4-0.5 0.6-0.8 0.8q-0.4 0.2-0.8 0.2-0.4 0-0.8-0.2c-0.2-0.2-0.5-0.4-0.8-0.8z"/><path class="e" d="m34.9 55.9v3.2c0 0.8-0.7 1.5-1.5 1.5h-9.9c-0.8 0-1.5-0.7-1.5-1.5v-3.2c0-0.9 0.7-1.5 1.5-1.5h9.9c0.8 0 1.5 0.6 1.5 1.5z"/><path class="f" d="m34.2 56.5v3.2c0 0.8-0.7 1.5-1.6 1.5h-9.8c-0.8 0-1.5-0.7-1.5-1.5v-3.2c0-0.9 0.7-1.5 1.5-1.5h9.8c0.9 0 1.6 0.6 1.6 1.5z"/><path class="g" d="m66 69.5h-17.7c-2.1 0-3.8-1.8-3.6-3.9l2-18.5c0.2-1.8 1.7-3.1 3.5-3.1h13.9c1.8 0 3.3 1.3 3.5 3.1l2 18.5c0.2 2.1-1.5 3.9-3.6 3.9z"/><path class="h" d="m64.1 69.5h-17.8c-2.1 0-3.7-1.8-3.5-3.9l2-18.5c0.2-1.8 1.7-3.1 3.5-3.1h13.9c1.8 0 3.3 1.3 3.5 3.1l1.9 18.5c0.3 2.1-1.4 3.9-3.5 3.9z"/><path fill-rule="evenodd" class="b" d="m50.3 48.8c-0.6 0-1.1-0.5-1.1-1.1 0-0.6 0.5-1 1.1-1 0.6 0 1.1 0.4 1.1 1 0 0.6-0.5 1.1-1.1 1.1z"/><path fill-rule="evenodd" class="b" d="m60.2 48.8c-0.6 0-1-0.5-1-1.1 0-0.6 0.4-1 1-1 0.6 0 1.1 0.4 1.1 1 0 0.6-0.5 1.1-1.1 1.1z"/><path class="g" d="m60.4 53.5c-0.4 1-1.2 1.9-2 2.5-1 0.6-2.1 0.9-3.2 1-1.1-0.1-2.2-0.4-3.1-1-0.9-0.6-1.6-1.5-2-2.5-0.4-1-0.4-2.2-0.3-3.1 0.1-0.9 0.3-1.8 0.5-2.8 0.1 1 0.2 1.9 0.4 2.8 0 1 0.2 1.8 0.6 2.5 0.8 1.5 2.4 2.4 3.9 2.3 1.6 0.1 3.1-0.8 3.9-2.3 0.5-0.7 0.6-1.5 0.7-2.5 0.1-0.9 0.2-1.8 0.4-2.8 0.2 1 0.3 1.9 0.4 2.8 0.2 0.9 0.2 2.1-0.2 3.1z"/><path class="e" d="m23.6 28.9h-10.1c-0.9 0-1.6-0.7-1.6-1.6v-10.9c0-0.9 0.7-1.6 1.6-1.6h10.1c0.9 0 1.6 0.7 1.6 1.6v10.9c0 0.9-0.7 1.6-1.6 1.6z"/><path class="e" d="m41 28.9h-10.1c-0.9 0-1.6-0.7-1.6-1.6v-10.9c0-0.9 0.7-1.6 1.6-1.6h10.1c0.9 0 1.6 0.7 1.6 1.6v10.9c0 0.9-0.7 1.6-1.6 1.6z"/><path class="e" d="m23.6 47h-10.1c-0.9 0-1.6-0.7-1.6-1.6v-10.9c0-0.9 0.7-1.6 1.6-1.6h10.1c0.9 0 1.6 0.7 1.6 1.6v10.9c0 0.9-0.7 1.6-1.6 1.6z"/><path class="e" d="m41 47h-10.1c-0.9 0-1.6-0.7-1.6-1.6v-10.9c0-0.9 0.7-1.6 1.6-1.6h10.1c0.9 0 1.6 0.7 1.6 1.6v10.9c0 0.9-0.7 1.6-1.6 1.6z"/><path class="i" d="m21.6 19.2c-0.2 0.3-0.5 0.5-0.6 0.6q-0.1 0-0.2-0.1l-0.2-0.1-0.4 2.3 1.1 4q0 0.1-0.1 0.1-0.1 0.1-0.3 0.1-0.2 0.1-0.4 0.1c-0.5 0.1-1 0.1-1.6 0.1-1.4 0.1-3-0.1-3-0.4l1-4-0.4-2.3-0.2 0.1q-0.1 0.1-0.1 0.1c-0.2-0.1-0.5-0.3-0.7-0.6q0-0.1 0-0.1l0.6-1.2q0 0 0 0 0-0.1 0.1-0.1l1.1-0.4c0 0 0.2 0.4 0.5 0.8 0.2 0.5 0.5 0.9 0.8 1.1q0 0 0-0.1 0.1 0 0.2-0.2 0.2-0.2 0.4-0.6 0.1-0.1 0.2-0.2c0.2-0.4 0.4-0.8 0.4-0.8l1.1 0.4q0.1 0 0.1 0.1l0.6 1.2q0 0 0 0.1z"/><path class="i" d="m41.1 19.5l-1.8 1.8-0.3-0.3 0.1 5.3-6.1 0.1-0.1-5.3-0.2 0.3-1.8-1.8 1.1-1.1q0.8-0.8 1.8-1.1c0.4 0.8 1.2 1.4 2.2 1.4 0.9 0 1.7-0.7 2.1-1.5 0.6 0.2 1.3 0.6 1.8 1.1z"/><path fill-rule="evenodd" class="j" d="m18.5 37.9c-0.8 0-1.3-0.6-1.3-1.3 0-0.8 0.5-1.3 1.3-1.3 0.7 0 1.2 0.5 1.2 1.3 0 0.7-0.5 1.3-1.2 1.3z"/><path class="i" d="m23.3 43.4c-0.2-3.8-2.2-6.8-4.7-6.8-2.6 0-4.6 3-4.8 6.8z"/><path class="j" d="m24 43.8c0 0.5-0.4 0.8-0.9 0.8h-9.1c-0.5 0-0.9-0.3-0.9-0.8 0-0.5 0.4-0.8 0.9-0.8h9.1c0.5 0 0.9 0.3 0.9 0.8z"/><path class="j" d="m30.7 41.5h10.6c0 0.5-0.4 0.9-0.9 0.9h-8.9c-0.4 0-0.8-0.4-0.8-0.9z"/><path class="a" d="m41.3 41.5h-10.6c-0.5-1.8 0.1-2.9 0.7-3.5 0.3-0.3 0.8-0.3 1.1 0 1.4 1.2 3 0.3 3.6-0.2 0.2-0.2 0.5-0.2 0.8-0.2 5.5 1.8 4.4 3.9 4.4 3.9z"/><path class="a" d="m40.6 18.4c-0.4-1.6-0.5-3.3-0.5-5q0-2.6 0.4-5.1c0.2-0.8 0.3-1.7 0.6-2.5 0.2-0.8 0.4-1.7 0.9-2.5q0.5-0.7 1.2-1 0.4-0.1 0.8-0.2 0.3 0 0.6 0.1c0.9 0 1.7 0.2 2.5 0.4-0.8 0.1-1.7 0.1-2.5 0.2q-0.3 0-0.5 0.1-0.3 0.1-0.5 0.2c-0.2 0.2-0.4 0.5-0.6 0.8-0.3 0.6-0.3 1.4-0.5 2.2l-0.4 2.5-0.7 4.9c-0.2 1.6-0.5 3.3-0.8 4.9z"/><path class="f" d="m64.9 23.2c0.1 1.1-0.6 2.1-1.6 2.5q-10.3 3.6-21.2 4.9c-1.1 0.2-2.2-0.5-2.5-1.6q-1.8-5.6-2.7-11.5c-0.2-1.2 0.6-2.3 1.7-2.6q10.3-3.2 21-4.9c1.1-0.2 2.2 0.5 2.6 1.5q1.9 5.8 2.7 11.7z"/><path class="k" d="m63.6 16.4q0.8 3.3 1.3 6.8c0.1 1.1-0.6 2.1-1.6 2.5q-10.3 3.6-21.2 4.9c-1.1 0.2-2.1-0.5-2.5-1.6q-0.5-1.5-0.9-3c3.3 1 7.4 1.2 11.6 0.2 6.6-1.5 11.6-5.5 13.3-9.8z"/><path class="d" d="m42.3 21.7q-0.1-0.1-0.2-0.2l-2.1-3.5q0 0 0-0.1-0.1-0.1 0-0.2 0-0.1 0.2-0.1 0.1 0 0.2 0 0 0.1 0.1 0.1l1.9 3.3 0.2-3.7q0-0.1 0.1-0.2 0.1-0.1 0.2-0.1 0.1-0.1 0.2 0 0.1 0 0.2 0.1l1.8 3.2 0.3-3.7q0-0.1 0-0.2 0.1-0.1 0.2-0.1 0.1 0 0.2 0.1 0.1 0 0.1 0.1 0 0.1 0 0.1l-0.3 4.1q0 0.1-0.1 0.2-0.1 0.1-0.2 0.2-0.1 0-0.3-0.1-0.1 0-0.1-0.1l-1.8-3-0.3 3.4q0 0.2-0.1 0.3 0 0.1-0.2 0.1-0.1 0-0.2 0z"/><path class="d" d="m47.7 20.4q-0.1-0.1-0.1-0.2l-0.9-3.8q0-0.1 0.1-0.2 0-0.1 0.1-0.2l2.5-0.5q0.2-0.1 0.3 0 0 0.1 0.1 0.2 0 0.1-0.1 0.2 0 0.1-0.1 0.1l-2.3 0.5 0.4 1.4 2-0.5q0.1 0 0.2 0.1 0.1 0 0.1 0.1 0 0.1 0 0.2-0.1 0.1-0.2 0.2l-2 0.4 0.3 1.4 2.2-0.5q0.1 0 0.2 0 0.1 0.1 0.2 0.2 0 0.1-0.1 0.2 0 0.1-0.1 0.1l-2.5 0.6q-0.2 0-0.3 0z"/><path class="d" d="m50.8 16.5q-0.1 0-0.1-0.1 0-0.1 0.1-0.2 0.1-0.1 0.2-0.2 0-0.2 0-0.4h-0.1q-0.1 0-0.2 0-0.2-0.1-0.2-0.3 0-0.2 0-0.3 0.1-0.1 0.3-0.1v-0.1q0.2 0 0.3 0.1 0.1 0.1 0.1 0.2l0.1 0.4q0.2 0.6-0.3 1 0 0.1-0.1 0.1 0 0-0.1-0.1z"/><path class="d" d="m53.2 19.1q-0.1 0-0.1-0.1l-0.9-3.9q0-0.1 0-0.2 0.1-0.1 0.2-0.1l1.5-0.4q0.8-0.2 1.3 0.1 0.5 0.2 0.7 0.8 0.1 0.4-0.1 0.7-0.1 0.4-0.5 0.6 0.5 0 0.8 0.4 0.2 0.4 0.3 0.9l0.1 0.3q0 0.1 0 0.2-0.1 0.1-0.2 0.1-0.2 0-0.2 0-0.1-0.1-0.2-0.2v-0.2q-0.1-0.3-0.2-0.6-0.1-0.2-0.4-0.4-0.3-0.1-0.7 0l-1.3 0.3 0.4 1.4q0 0.1-0.1 0.2 0 0.1-0.2 0.2-0.1 0-0.2-0.1zm1.1-2.5q0.6-0.2 0.8-0.4 0.3-0.3 0.2-0.7-0.1-0.4-0.4-0.5-0.3-0.2-1 0l-1.1 0.2 0.4 1.6z"/><path class="d" d="m57.7 18.1q-0.1-0.1-0.2-0.2l-0.8-3.8q-0.1-0.1 0-0.2 0.1-0.1 0.2-0.2l2.5-0.6q0.1 0 0.2 0.1 0.1 0 0.1 0.2 0 0.1 0 0.2-0.1 0.1-0.2 0.1l-2.2 0.5 0.3 1.4 2-0.5q0.1 0 0.2 0 0.1 0.1 0.1 0.2 0.1 0.1 0 0.2-0.1 0.1-0.2 0.1l-2 0.5 0.4 1.4 2.2-0.5q0.1 0 0.2 0 0.1 0.1 0.1 0.2 0 0.1 0 0.2-0.1 0.1-0.2 0.1l-2.5 0.6q-0.1 0-0.2 0z"/><path class="d" d="m44.4 27.2q-0.6-0.2-0.9-0.7-0.4-0.4-0.6-1.1-0.1-0.6 0-1.2 0.2-0.6 0.6-1 0.4-0.4 1.1-0.5 0.6-0.2 1.2 0 0.6 0.2 0.9 0.6 0.4 0.5 0.6 1.1 0.1 0.7 0 1.2-0.2 0.6-0.6 1-0.4 0.4-1.1 0.6-0.6 0.1-1.2 0zm1.9-1q0.3-0.3 0.4-0.7 0.1-0.5 0-0.9-0.1-0.5-0.4-0.9-0.3-0.3-0.7-0.5-0.4-0.1-0.9 0-0.5 0.1-0.8 0.4-0.3 0.4-0.4 0.8-0.1 0.4 0 0.9 0.1 0.5 0.4 0.8 0.3 0.4 0.7 0.5 0.4 0.2 0.9 0 0.5-0.1 0.8-0.4z"/><path class="d" d="m48.8 26.3q-0.1 0-0.1-0.2l-0.9-3.8q0-0.1 0-0.2 0.1-0.1 0.2-0.1l1.5-0.4q0.5-0.1 1 0 0.4 0.1 0.6 0.4 0.3 0.3 0.3 0.6 0.1 0.4 0 0.7-0.1 0.4-0.4 0.7-0.3 0.3-0.9 0.4l-1.1 0.3 0.3 1.3q0 0.1-0.1 0.2 0 0.1-0.2 0.1-0.1 0.1-0.2 0zm1.1-2.4q0.7-0.2 0.9-0.5 0.2-0.3 0.1-0.6-0.1-0.4-0.4-0.6-0.3-0.2-1 0l-1.1 0.2 0.4 1.7z"/><path class="d" d="m53 25.3q-0.1-0.1-0.1-0.2l-0.9-3.8q0-0.1 0-0.2 0.1-0.1 0.2-0.1l2.5-0.6q0.2 0 0.2 0 0.1 0.1 0.2 0.2 0 0.1-0.1 0.2 0 0.1-0.1 0.1l-2.3 0.5 0.4 1.4 2-0.4q0.1-0.1 0.2 0 0.1 0 0.1 0.2 0 0.1 0 0.2-0.1 0.1-0.2 0.1l-2 0.5 0.3 1.3 2.2-0.5q0.1 0 0.2 0.1 0.1 0 0.2 0.1 0 0.1-0.1 0.2 0 0.1-0.1 0.2l-2.6 0.5q-0.1 0.1-0.2 0z"/><path class="d" d="m57 24.4q-0.1-0.1-0.1-0.2l-0.9-3.7q0-0.2 0.1-0.3 0.1-0.2 0.2-0.2h0.1q0.2-0.1 0.4 0.1l3.2 2.9-0.8-3.4q0-0.1 0.1-0.2 0-0.1 0.2-0.1 0.1-0.1 0.2 0 0.1 0.1 0.1 0.2l0.9 3.7q0 0.2-0.1 0.3-0.1 0.2-0.2 0.2h-0.1q-0.1 0.1-0.2 0-0.1 0-0.2-0.1l-3.2-2.9 0.8 3.4q0 0.1-0.1 0.2 0 0.1-0.2 0.1-0.1 0.1-0.2 0z"/><path class="l" d="m18.6 11.7c-0.1 0.8-0.7 1.4-1.4 1.6q-0.5 0.1-1 0.1v1.5c0 0.6-0.8 1-1.2 0.5l-1.5-1.4q-0.2-0.2-0.5-0.2c-2.7 0.2-8.2-0.1-10.9-0.6-0.7-0.1-1.2-0.7-1.3-1.4-0.6-3.3-0.6-6.6-0.1-9.8 0.2-0.7 0.7-1.3 1.5-1.4 3.9-0.6 10.9-0.7 15 0 0.7 0.1 1.3 0.8 1.4 1.5q0.4 4.7 0 9.6z"/><path class="m" d="m20.1 11.8c-0.1 0.8-0.7 1.4-1.4 1.6q-0.5 0.1-1 0.2v1.4c0 0.7-0.8 1-1.3 0.6l-1.4-1.5q-0.2-0.2-0.6-0.2c-2.6 0.2-8.2 0-10.8-0.5-0.7-0.2-1.2-0.7-1.3-1.4-0.6-3.4-0.6-6.6-0.1-9.8 0.2-0.7 0.7-1.3 1.4-1.4 4-0.7 11-0.7 15.1-0.1 0.7 0.2 1.3 0.8 1.4 1.6q0.4 4.7 0 9.5z"/><path class="n" d="m20.3 7.1q0 2.4-0.2 4.7c-0.1 0.8-0.7 1.4-1.4 1.6q-0.5 0.1-1 0.2v1.4c0 0.7-0.8 1-1.3 0.6l-1.4-1.5q-0.2-0.2-0.6-0.2c-2.6 0.2-8.2 0-10.8-0.5-0.7-0.2-1.2-0.7-1.3-1.4q-0.2-0.9-0.3-1.6c1.7 0.7 6.5 1.1 8.6 1.1 4.2 0 7.9-1.8 9.7-4.4z"/><path class="d" d="m3.8 8.6q-0.1 0-0.1-0.1-0.1-0.1-0.1-0.2 0-0.1 0.1-0.1 0.1-0.1 0.2-0.1 0 0 0.1 0 0.5 0.3 1.2 0.3 1.1 0 1.1-0.7 0-0.2-0.2-0.4-0.1-0.1-0.3-0.1-0.2-0.1-0.6-0.2-0.5-0.1-0.8-0.3-0.3-0.1-0.5-0.3-0.2-0.3-0.2-0.7 0-0.3 0.1-0.6 0.2-0.3 0.6-0.4 0.3-0.2 0.8-0.2 0.7 0 1.3 0.2 0.1 0.1 0.1 0.2 0 0.1 0 0.2-0.1 0.1-0.2 0.1 0 0-0.1 0-0.5-0.2-1-0.2-0.5 0-0.8 0.2-0.3 0.2-0.3 0.5 0 0.2 0.2 0.4 0.1 0.1 0.3 0.2 0.2 0.1 0.6 0.1 0.5 0.2 0.8 0.3 0.3 0.1 0.5 0.3 0.2 0.3 0.2 0.7 0 0.3-0.2 0.6-0.2 0.3-0.5 0.4-0.4 0.2-0.9 0.2-0.7 0-1.4-0.3z"/><path class="d" d="m7.5 8.8q-0.1-0.1-0.1-0.2 0-0.1 0-0.1l1.6-3.7q0-0.1 0.1-0.2 0.1-0.1 0.2-0.1h0.1q0.1 0 0.2 0.1 0.1 0.1 0.2 0.2l1.5 3.7q0 0 0 0.1 0 0.1 0 0.2-0.1 0.1-0.2 0.1-0.1 0-0.2-0.1-0.1 0-0.1-0.1l-0.4-1h-2.1l-0.4 1q0 0.1-0.1 0.1-0.1 0.1-0.1 0.1-0.2 0-0.2-0.1zm1-1.6h1.7l-0.8-2z"/><path class="d" d="m12.1 8.7q-0.2-0.1-0.2-0.3v-3.6q0-0.1 0.1-0.2 0.1-0.1 0.2-0.1 0.1 0 0.2 0.1 0.1 0.1 0.1 0.2v3.5h2q0.1 0 0.2 0.1 0.1 0 0.1 0.2 0 0.1-0.1 0.1-0.1 0.1-0.2 0.1h-2.2q-0.1 0-0.2-0.1z"/><path class="d" d="m15.4 8.7q0 0 0-0.1v-3.8q0-0.1 0-0.2 0.1-0.1 0.2-0.1h2.5q0.1 0 0.2 0.1 0 0.1 0 0.2 0 0.1 0 0.2-0.1 0.1-0.2 0.1h-2.2v1.3h2q0.1 0 0.2 0.1 0 0.1 0 0.2 0 0.1 0 0.2-0.1 0-0.2 0h-2v1.4h2.2q0.1 0 0.2 0.1 0 0.1 0 0.2 0 0.1 0 0.2-0.1 0-0.2 0h-2.5q-0.1 0-0.2-0.1z"/></svg>