<svg version="1.2" xmlns="http://www.w3.org/2000/svg" viewBox="0 0 69 68" width="69" height="68"><style>.a{fill:#383736}.b{fill:#2d2c2b}.c{fill:#21201f}.d{fill:#494846}.e{fill:#4e5161}.f{fill:#989999}.g{fill:#a1a1a1}.h{fill:#eaf0f6}.i{fill:#d6d4d2}.j{fill:#fff}.k{fill:#e9e8e6}.l{fill:#555}.m{fill:#a0a8aa}.n{fill:#7e8a8c}.o{fill:#8d9799}.p{fill:#c4c2c0}.q{fill:#f25a5a}.r{fill:#ffd651}.s{fill:#6dcb60}.t{fill:#0074d1}.u{fill:#81d672}.v{fill:#b5e5f4}.w{fill:#dd4a4a}.x{fill:#00649b}.y{fill:#3f9ae0}.z{fill:#006cb5}.A{fill:#b2b0af}</style><path class="a" d="m42 54.5v2.9c0 0.6-0.3 1-0.9 1.4l-14.8 8.5c-1.3 0.8-3.3 0.7-4.6 0.1q-0.3-0.2-0.5-0.5l-8.6-9.3v-3l8.8 9.5c1.2 0.9 3.5 1 4.9 0.2l14.7-8.5c0.7-0.4 1-0.9 1-1.3z"/><path class="b" d="m41 55.8l-14.7 8.5c-1.4 0.8-3.7 0.7-4.9-0.2l-3-3.2v3l2.8 3q0.2 0.3 0.5 0.5c1.3 0.6 3.3 0.7 4.6-0.1l14.8-8.5c0.6-0.4 0.9-0.8 0.9-1.4v-2.9c0 0.4-0.3 0.9-1 1.3z"/><path class="a" d="m41 55.8l-12.8 7.4v3l12.9-7.4c0.6-0.4 0.9-0.8 0.9-1.4v-2.9c0 0.4-0.3 0.9-1 1.3z"/><path class="c" d="m41 55.8l-4.1 2.4v3l4.2-2.4c0.6-0.4 0.9-0.8 0.9-1.4v-2.9c0 0.4-0.3 0.9-1 1.3z"/><path class="d" d="m12.6 54.6l8.7 9.5q0.1 0.1 0.2 0.2c1.2 0.8 3.4 0.8 4.8 0l14.7-8.5c1.4-0.8 1.3-2.1-0.2-2.8l-16.5-5.2z"/><path class="e" d="m25.6 51.7l-3.3-1.9 7.7-5 3.3 1.9z"/><path class="f" d="m24.4 60.9l-2.8-1.6v-10.9l2.7 1.6z"/><path class="g" d="m33.4 44.8l0.1 10.9-9.1 5.2-0.1-10.9z"/><path class="h" d="m17.6 55.6l14.2-8.2 2.5 1.6-14.1 8.3z"/><path class="d" d="m49.1 4.2c-0.4-0.2-1-0.1-1.7 0.3l-39.6 22.8c-1.4 0.7-2.5 2.6-2.5 4.1l0.1 28.9v2.8c0.1 0.7 0.3 1.3 0.7 1.5l-3.8-2.3-0.7-0.3c-0.4-0.3-0.7-0.9-0.7-1.6v-2.8l-0.1-28.8c0-1.6 1.1-3.4 2.5-4.2l39.6-22.9c0.7-0.4 1.3-0.4 1.7-0.1z"/><path class="d" d="m3.3 24.6c-1.4 0.8-2.5 2.6-2.5 4.2l0.1 9.1 4.5 2.7-0.1-9.2c0-1.5 1.1-3.4 2.5-4.1l3.8-2.2-4.5-2.7z"/><path class="a" d="m0.9 50.4l4.5 2.7v-12.5l-4.5-2.7z"/><path class="d" d="m5.4 53.1l-4.5-2.7v7.2l4.5 2.7z"/><path class="i" d="m5.4 63.1v-2.8l-4.5-2.7v2.8c0 0.7 0.3 1.3 0.7 1.6l0.7 0.3 3.8 2.3c-0.4-0.2-0.6-0.8-0.7-1.5z"/><path class="a" d="m33.1 7.3l-13 7.6 4.6 2.7 13.1-7.5z"/><path class="d" d="m47.4 4.5c0.7-0.4 1.3-0.5 1.7-0.3l-4.5-2.6c-0.4-0.3-1-0.3-1.7 0.1l-9.8 5.6 4.7 2.8z"/><path class="b" d="m7.1 22.4l4.5 2.7 13.1-7.5-4.6-2.7z"/><path class="c" d="m49.9 34.6l-44.5 25.7v-28.8c0-1.6 1-3.5 2.4-4.2l39.6-22.9c1.3-0.8 2.4-0.2 2.4 1.4z"/><path class="j" d="m7.4 31.4c0-0.7 0.7-1.9 1.4-2.4l39-22.4v26.8l-40.3 23.3z"/><path class="k" d="m49.8 37.4c0 1.5-1 3.4-2.4 4.2l-39.6 22.8c-1.3 0.8-2.4 0.2-2.4-1.4v-2.7l44.4-25.7z"/><path class="l" d="m29.2 49.4c0 0.9-0.6 1.9-1.4 2.3-0.7 0.4-1.3 0.1-1.3-0.8 0-0.8 0.6-1.9 1.3-2.3 0.8-0.4 1.4 0 1.4 0.8z"/><path class="m" d="m48.2 65.1l-2.9-1.6q-0.2-0.2-0.2-0.5l2.9 1.7q0 0.3 0.2 0.4z"/><path class="m" d="m62.5 17.2l2.9 1.7q-0.2-0.1-0.5 0.1l-2.9-1.7q0.3-0.2 0.5-0.1z"/><path class="n" d="m48 64.7l-2.9-1.7-0.1-35.1 2.9 1.7z"/><path class="m" d="m48 64.7l-2.9-1.7v-1.3l2.9 1.7z"/><path class="m" d="m48.6 28.4l-2.9-1.7 16.3-9.4 2.9 1.7z"/><path class="o" d="m47.9 29.6l-2.9-1.7c0-0.4 0.3-1 0.7-1.2l2.9 1.7c-0.4 0.2-0.7 0.8-0.7 1.2z"/><path class="c" d="m65.2 51.1v-9h0.1v-6.7h0.1v-13.1h0.2v-2.9c0-0.5-0.3-0.7-0.7-0.4l-16.3 9.4c-0.4 0.2-0.7 0.8-0.7 1.2l0.1 35.1c0 0.4 0.3 0.6 0.7 0.4l16.3-9.5c0.4-0.2 0.7-0.7 0.7-1.2v-3.3z"/><path class="p" d="m65.7 51.9l-17.7 10.3-0.1-30.1 17.7-10.2z"/><path class="j" d="m48.9 32.7l15.7-9 0.1 27.6-15.7 9.1z"/><path class="p" d="m65.6 23.1l-17.7 10.3v-1.3l17.7-10.2z"/><path class="i" d="m65.7 51.9l-17.7 10.3v-1.2l17.7-10.3z"/><path class="m" d="m59.1 23.8q0 0 0 0.1 0 0.3-0.1 0.5-0.1 0.2-0.3 0.3l-4 2.3q-0.1 0.1-0.3 0c0.1 0.1 0.3 0.2 0.4 0.1l4-2.3q0.2-0.1 0.3-0.3 0.1-0.2 0.1-0.5 0-0.2-0.1-0.2z"/><path class="n" d="m54.7 27l4-2.3q0.2-0.1 0.3-0.3 0.1-0.2 0.1-0.5 0-0.1 0-0.1-0.1-0.1-0.3 0l-4 2.3q-0.2 0.1-0.3 0.3-0.1 0.2-0.1 0.4 0 0.1 0 0.2 0.2 0.1 0.3 0z"/><path class="j" d="m46.5 31.2q-0.2-0.1-0.4-0.1l-0.3 0.3q0.1-0.1 0.4 0c0.3 0.2 0.6 0.6 0.6 1l-0.1 4.6q0 0.3-0.1 0.4l0.3-0.2q0.2-0.1 0.2-0.4v-4.6c0-0.4-0.2-0.8-0.6-1z"/><path class="i" d="m46.2 31.4q-0.3-0.1-0.4 0-0.2 0-0.2 0.3v4.7c0 0.3 0.3 0.8 0.6 0.9q0.2 0.2 0.4 0.1 0.1-0.1 0.1-0.4l0.1-4.6c0-0.4-0.3-0.8-0.6-1z"/><path class="j" d="m46.5 38.5q-0.2-0.1-0.4-0.1l-0.3 0.3q0.1-0.1 0.4 0c0.3 0.2 0.5 0.6 0.5 1v4.6q0 0.3-0.1 0.4l0.3-0.2q0.2-0.1 0.2-0.4v-4.6c0-0.4-0.3-0.8-0.6-1z"/><path class="i" d="m46.2 38.7q-0.3-0.1-0.4 0-0.2 0-0.2 0.3v4.7c0 0.3 0.2 0.8 0.6 0.9q0.2 0.2 0.4 0.1 0.1-0.1 0.1-0.4v-4.6c0-0.4-0.2-0.8-0.5-1z"/><path class="q" d="m53.2 39.2c0 2.3 1.6 3.2 3.6 2.1v2.1c-3 1.7-5.5 0.3-5.5-3.1z"/><path class="r" d="m56.8 30.8c3-1.7 5.4-0.3 5.5 3.2l-1.9 1c0-2.3-1.6-3.2-3.6-2.1z"/><path class="k" d="m62.3 48.4v1.5l-10.9 6.3v-1.5z"/><path class="k" d="m62.3 42.1v1.5l-11 6.3v-1.5z"/><path class="s" d="m62.3 34c0 3.4-2.5 7.7-5.5 9.4v-2.1c2-1.2 3.6-4 3.6-6.3z"/><path class="t" d="m56.8 30.8v2.1c-2 1.2-3.7 4-3.6 6.3l-1.9 1.1c0-3.5 2.4-7.7 5.5-9.5z"/><path class="k" d="m62.3 45.3v1.4l-10.9 6.3-0.1-1.4z"/><path class="u" d="m10.9 42.4l8.3-4.8v9.5l-8.2 4.8z"/><path class="v" d="m23 35.5l8.2-4.8 0.1 9.5-8.3 4.7z"/><path class="w" d="m35 28.5l8.3-4.8v9.5l-8.2 4.8z"/><path class="k" d="m10.1 32.2l34.9-20.2 0.1 8-35 20.2z"/><path class="x" d="m44.9 22l-1.4-0.8v-7.3l1.4 0.8z"/><path class="y" d="m44.9 14.7l-1.4-0.8 24.2-13.9 1.3 0.8z"/><path class="z" d="m44.9 14.7l-1.4-0.8 19.3-11.1 1.4 0.7z"/><path class="y" d="m44.9 14.7l-1.4-0.8 14.5-8.4 1.4 0.8z"/><path class="z" d="m44.9 14.7l-1.4-0.8 9.6-5.5 1.3 0.8z"/><path class="y" d="m44.9 14.7l-1.4-0.8 4.9-2.8 1.4 0.8z"/><path class="t" d="m69 0.8v7.3l-24.1 13.9v-7.3z"/><path class="A" d="m49 17.4l-0.4-0.2q0.5-0.3 0.8-0.8l0.5 0.2q-0.3 0.5-0.9 0.8z"/><path class="A" d="m48.3 17.9l-0.4-0.3 0.7-0.4 0.4 0.2z"/><path class="A" d="m49.5 14.6l0.4 0.2q0.3 0.2 0.3 0.7 0 0.6-0.3 1.1l-0.5-0.2q0.3-0.5 0.3-1.1 0-0.6-0.2-0.7z"/><path class="A" d="m50.1 13.7l0.4 0.2q-0.2-0.1-0.4-0.1-0.5 0-1 0.4l-0.5-0.3q0.6-0.3 1-0.3 0.3 0 0.5 0.1z"/><path class="A" d="m47.5 15.1l-0.5-0.3 1.6-0.9 0.5 0.3z"/><path class="A" d="m47.5 19.1l-0.4-0.3-0.1-4 0.5 0.3z"/><path class="j" d="m50.8 14.1q0.2 0.4 0.2 1 0 0.6-0.2 1.2-0.3 0.6-0.7 1-0.5 0.6-1 0.9l-1.6 0.9v-4l1.6-0.9q0.5-0.4 1-0.4 0.4 0 0.7 0.3zm-0.9 2.5q0.3-0.5 0.3-1.1 0-0.5-0.3-0.7-0.3-0.2-0.9 0.1l-0.7 0.5v2.5l0.7-0.5q0.6-0.3 0.9-0.8z"/><path class="A" d="m56.3 12.2l0.4 0.2q0.1 0.1 0.1 0.2 0 0.2-0.2 0.4l-0.4-0.2q0.2-0.2 0.2-0.4 0-0.2-0.1-0.2z"/><path class="A" d="m55.5 13.7l-0.4-0.3q0.3 0 0.6-0.2 0.3-0.2 0.5-0.4l0.4 0.2q-0.1 0.2-0.5 0.4-0.3 0.2-0.6 0.3z"/><path class="A" d="m55 13.7l-0.5-0.3q0.3 0.1 0.6 0l0.4 0.3q-0.3 0-0.5 0z"/><path class="A" d="m54.7 14.5l-0.4-0.2 0.2-0.9 0.5 0.3z"/><path class="A" d="m56.9 11.3l0.5 0.2q-0.2-0.1-0.4 0-0.3 0-0.7 0.1-0.4 0.1-0.6 0.2l-0.4-0.3q0.2 0 0.6-0.1 0.4-0.2 0.6-0.2 0.3 0 0.4 0.1z"/><path class="A" d="m56.9 9.7l-0.5-0.3q0.4-0.1 0.6 0l0.4 0.2q-0.2 0-0.5 0.1z"/><path class="A" d="m55.6 11.7l-0.4-0.2q0 0 0.1 0l0.4 0.3q0 0-0.1-0.1z"/><path class="A" d="m55 12.6l-0.4-0.2q-0.1 0-0.1-0.1l0.4 0.3q0.1 0 0.1 0z"/><path class="A" d="m56.2 10l-0.4-0.3q0.3-0.2 0.6-0.3l0.5 0.3q-0.3 0.1-0.7 0.3z"/><path class="A" d="m54.9 12.6l-0.4-0.3q-0.2-0.1-0.2-0.5 0-0.3 0.2-0.7l0.4 0.2q-0.1 0.4-0.1 0.8 0 0.4 0.1 0.5z"/><path class="j" d="m56.2 10q0.4-0.2 0.7-0.3 0.3-0.1 0.5-0.1l-0.2 0.9q-0.5-0.1-1 0.2-0.3 0.2-0.5 0.4-0.1 0.2-0.1 0.5 0 0.2 0.1 0.2 0.2-0.1 0.6-0.2 0.4-0.1 0.7-0.1 0.2-0.1 0.4 0.1 0.2 0.1 0.2 0.5 0 0.3-0.2 0.7-0.1 0.4-0.5 0.8-0.3 0.3-0.8 0.6-0.4 0.2-0.8 0.3-0.4 0.1-0.6 0l0.3-0.8q0.2 0 0.5 0 0.3-0.1 0.6-0.3 0.4-0.2 0.5-0.4 0.2-0.2 0.2-0.4 0-0.1-0.1-0.2-0.1 0-0.3 0-0.1 0.1-0.4 0.1-0.4 0.2-0.6 0.2-0.3 0-0.5-0.1-0.1-0.1-0.1-0.5 0-0.4 0.1-0.8 0.2-0.3 0.5-0.7 0.3-0.4 0.8-0.6z"/><path class="A" d="m54.9 11.3l-0.4-0.2q0.1-0.4 0.5-0.8 0.3-0.3 0.8-0.6l0.4 0.3q-0.5 0.2-0.8 0.6-0.3 0.4-0.5 0.7z"/><path class="A" d="m52.4 15.5l-0.4-0.3 1.9-1 0.4 0.2z"/><path class="A" d="m52.4 13.8l-0.4-0.2 1.6-0.9 0.4 0.2z"/><path class="A" d="m51.6 16.7l-0.4-0.2v-4.1l0.4 0.3z"/><path class="A" d="m51.6 12.7l-0.4-0.3 2.6-1.5 0.4 0.3z"/><path class="j" d="m54.2 11.2l0.1 0.7-1.9 1.1v0.8l1.6-0.9v0.7l-1.6 1v0.9l1.9-1.1v0.8l-2.7 1.5v-4z"/><path class="A" d="m58.2 12.9l-0.5-0.2v-4l0.4 0.2z"/><path class="A" d="m58.1 8.9l-0.4-0.2 0.8-0.5 0.5 0.3z"/><path class="j" d="m59 8.5v4l-0.8 0.4-0.1-4z"/><path class="A" d="m62.2 9.7l-0.5-0.2v-1.2l0.4 0.3z"/><path class="A" d="m62.1 8.6l-0.4-0.3 0.8-0.4 0.4 0.2z"/><path class="A" d="m62 7.4l0.4 0.2q0 0 0 0l-0.4-0.2q0 0 0 0z"/><path class="A" d="m60.7 10.4l-0.4-0.3q0.1 0.1 0.2 0.1 0.3 0 0.6-0.2 0.3-0.2 0.6-0.5l0.5 0.2q-0.3 0.4-0.7 0.6-0.3 0.2-0.6 0.2-0.1-0.1-0.2-0.1z"/><path class="A" d="m62.4 6.5l0.5 0.2q-0.3-0.1-0.6-0.1-0.4 0.1-0.8 0.3l-0.5-0.2q0.5-0.3 0.9-0.3 0.3-0.1 0.5 0.1z"/><path class="A" d="m60.5 7.8l-0.4-0.3q0.4-0.5 0.9-0.8l0.5 0.2q-0.6 0.3-1 0.9z"/><path class="A" d="m60.1 11.3l-0.5-0.3q-0.1-0.1-0.2-0.2-0.3-0.3-0.3-0.9 0-0.6 0.3-1.3 0.2-0.6 0.7-1.1l0.4 0.3q-0.4 0.5-0.7 1.1-0.2 0.6-0.2 1.2 0 0.6 0.2 0.9 0.1 0.2 0.3 0.3z"/><path class="j" d="m61.5 6.9q0.4-0.2 0.8-0.3 0.4 0 0.6 0.2l-0.5 0.8q-0.3-0.2-0.9 0.1-0.3 0.2-0.6 0.5-0.2 0.3-0.4 0.7-0.1 0.4-0.1 0.7 0 0.4 0.1 0.6 0.2 0.2 0.4 0.3 0.3 0 0.6-0.2 0.4-0.2 0.7-0.6l-0.1-1.1 0.8-0.5v1.7q-0.3 0.4-0.7 0.7-0.3 0.4-0.7 0.6-0.6 0.3-1 0.3-0.4 0-0.7-0.4-0.2-0.3-0.2-0.9 0-0.6 0.2-1.2 0.3-0.6 0.7-1.1 0.4-0.6 1-0.9z"/><path class="A" d="m66 6.8l-0.4-0.2v-2.5l0.4 0.3z"/><path class="A" d="m66 4.4l-0.4-0.3 0.8-0.4 0.4 0.2z"/><path class="A" d="m66.2 8.3l-0.5-0.2-1.7-1.5 0.4 0.3z"/><path class="A" d="m63.6 5.8l-0.4-0.3 0.7-0.4 0.4 0.3z"/><path class="A" d="m63.6 9.8l-0.4-0.3v-4l0.4 0.3z"/><path class="j" d="m66.8 3.9v4l-0.6 0.4-1.8-1.4v2.4l-0.8 0.5v-4l0.7-0.4 1.7 1.4v-2.4z"/></svg>