<svg version="1.2" xmlns="http://www.w3.org/2000/svg" viewBox="0 0 60 68" width="60" height="68"><style>.a{fill:#ebebeb}.b{fill:#505d68}.c{fill:#488dd7}.d{fill:#2c353f}.e{fill:#c0c0c0}.f{fill:#ddaf08}.g{fill:#ec2827}.h{fill:#80a506}.i{fill:#4b5582}.j{fill:#e4c05c}.k{fill:#c61a1d}.l{fill:#bf4d90}.m{fill:#6c342a}.n{fill:#f76363}</style><path class="a" d="m22.8 58.7v-49.3c0-4.8 3.6-8.7 8.2-9.3q-0.6-0.1-1.1-0.1h-20.1c-5.3 0-9.5 4.2-9.5 9.4v45.7c0 5.2 4.2 9.4 9.5 9.4l16.5 2.4c0.4 0 4.3 1.1 4.7 1.1-4.6-0.6-8.2-4.6-8.2-9.3z"/><path class="b" d="m0.3 48.1v10.6c0 5.1 4.2 9.3 9.5 9.3h20.1q0.5 0 1.1 0c-4.6-0.6-8.2-4.6-8.2-9.3v-10.6z"/><path class="c" d="m53.4 64.5h-25.9c-3.3 0-5.9-2.6-5.9-5.9v-49c0-3.4 2.7-6.1 6.1-6.1h25.5c3.4 0 6.2 2.7 6.2 6.1v49c0 3.3-2.7 5.9-6 5.9z"/><path class="d" d="m59.4 9.4h-37.8c0-5.2 4.2-9.4 9.4-9.4h18.9c5.2 0 9.5 4.2 9.5 9.4z"/><path class="d" d="m49.9 68h-18.9c-5.2 0-9.4-4.2-9.4-9.3h37.8c0 5.1-4.3 9.3-9.5 9.3z"/><path fill-rule="evenodd" class="e" d="m40.5 68c-2.6 0-4.7-2.1-4.7-4.7 0-2.5 2.1-4.6 4.7-4.6 2.6 0 4.7 2.1 4.7 4.6 0 2.6-2.1 4.7-4.7 4.7z"/><path class="e" d="m44 5.9h-7.1c-0.6 0-1.1-0.6-1.1-1.2 0-0.7 0.5-1.2 1.1-1.2h7.1c0.7 0 1.2 0.5 1.2 1.2 0 0.6-0.5 1.2-1.2 1.2z"/><path class="b" d="m16.9 11.7c-0.7 0-1.2-0.5-1.2-1.1v-2.4c0-0.6 0.5-1.2 1.2-1.2 0.6 0 1.1 0.6 1.1 1.2v2.4c0 0.6-0.5 1.1-1.1 1.1z"/><path fill-rule="evenodd" class="f" d="m10.9 7v4.7h-4.7v-4.7z"/><path fill-rule="evenodd" class="g" d="m32.2 15.3v4.6h-4.7v-4.6z"/><path fill-rule="evenodd" class="h" d="m53.5 15.3v4.6h-4.8v-4.6z"/><path fill-rule="evenodd" class="f" d="m42.8 15.3v4.6h-4.7v-4.6z"/><path fill-rule="evenodd" class="i" d="m32.2 25.8v4.7h-4.7v-4.7z"/><path fill-rule="evenodd" class="j" d="m53.5 25.8v4.7h-4.8v-4.7z"/><path fill-rule="evenodd" class="k" d="m42.8 25.8v4.7h-4.7v-4.7z"/><path fill-rule="evenodd" class="l" d="m32.2 36.4v4.7h-4.7v-4.7z"/><path fill-rule="evenodd" class="m" d="m53.5 36.4v4.7h-4.8v-4.7z"/><path fill-rule="evenodd" class="n" d="m42.8 36.4v4.7h-4.7v-4.7z"/><path class="e" d="m16.9 62.2h-9.5c-0.7 0-1.2-0.6-1.2-1.2 0-0.6 0.5-1.2 1.2-1.2h9.5c0.6 0 1.1 0.6 1.1 1.2 0 0.6-0.5 1.2-1.1 1.2z"/><path class="e" d="m14.5 56.3h-4.7c-0.7 0-1.2-0.5-1.2-1.2 0-0.6 0.5-1.1 1.2-1.1h4.7c0.6 0 1.2 0.5 1.2 1.1 0 0.7-0.6 1.2-1.2 1.2z"/></svg>