<svg version="1.2" xmlns="http://www.w3.org/2000/svg" viewBox="0 0 70 70" width="70" height="70"><style>.a{fill:#01d0fb}.b{fill:#01c0fa}.c{fill:#528fd8}.d{fill:#0573ce}.e{fill:#99e6fc}.f{fill:#62dbfb}.g{fill:#c8effe}.h{fill:#ffd15b}.i{fill:#feb237}.j{fill:#ffe177}.k{fill:#fe99a0}</style><path class="a" d="m0 56.8c0-7 15.7-12.7 35-12.7 19.3 0 35 5.7 35 12.7v-31.2c0-7.1-15.7-12.8-35-12.8-19.3 0-35 5.7-35 12.8z"/><path class="b" d="m10.5 16.5v31.2c6.3-2.3 15-3.6 24.5-3.6 9.5 0 18.2 1.3 24.5 3.6v-31.2c-6.3-2.3-15-3.7-24.5-3.7-9.5 0-18.2 1.4-24.5 3.7z"/><path class="c" d="m50.4 69.9h-30.8c-2.5 0-4.5-2.1-4.5-4.6v-60.8c0-2.5 2-4.5 4.5-4.5h30.8c2.5 0 4.5 2 4.5 4.5v60.8c0 2.5-2 4.6-4.5 4.6z"/><path class="d" d="m50.4 0h-4.6c2.5 0 4.6 2 4.6 4.5v60.8c0 2.5-2.1 4.6-4.6 4.6h4.6c2.5 0 4.5-2.1 4.5-4.6v-60.8c0-2.5-2-4.5-4.5-4.5z"/><path class="e" d="m48.9 4.5h-5.6c-0.4 0-0.8 0.2-1 0.6l-1 1.6c-0.4 0.6-1 1-1.7 1h-9.2c-0.7 0-1.3-0.4-1.7-1l-1-1.6c-0.2-0.4-0.6-0.6-1-0.6h-5.6c-0.8 0-1.5 0.7-1.5 1.5v57.9c0 0.8 0.7 1.4 1.5 1.4h27.8c0.8 0 1.5-0.6 1.5-1.4v-57.9c0-0.8-0.7-1.5-1.5-1.5z"/><path class="f" d="m48.9 4.5h-4.5c0.8 0 1.4 0.7 1.4 1.5v57.9c0 0.8-0.6 1.4-1.4 1.4h4.5c0.8 0 1.5-0.6 1.5-1.4v-57.9c0-0.8-0.7-1.5-1.5-1.5z"/><path class="g" d="m10.5 36.3c0-0.9-0.5-1.8-1.4-2.1-5.6-2.3-9.1-5.3-9.1-8.6v31.2c0 3.2 3.2 6.2 8.5 8.4 1 0.4 2-0.3 2-1.3z"/><path class="g" d="m59.5 36.3c0-0.9 0.5-1.8 1.4-2.1 5.6-2.3 9.1-5.3 9.1-8.6v31.2c0 3.2-3.2 6.2-8.5 8.4-1 0.4-2-0.3-2-1.3z"/><path class="e" d="m65.7 31.7v31.3c2.8-1.9 4.3-3.9 4.3-6.2v-31.2c0 2.2-1.5 4.3-4.3 6.1z"/><path class="h" d="m26.1 29.9q-0.2 0.3-0.2 0.7v9.6c0 0.6 0.3 1.1 0.8 1.3l7.7 3.6q0.3 0.1 0.6 0.1v-11.3l-0.6-0.2z"/><path class="i" d="m35 33.9v11.3q0.3 0 0.6-0.1l7.7-3.6c0.5-0.2 0.8-0.7 0.8-1.3v-9.6q0-0.4-0.2-0.7l-8.3 3.8z"/><path class="j" d="m43.3 29.4l-7.7-3.6c-0.4-0.2-0.8-0.2-1.2 0l-7.7 3.6q-0.4 0.1-0.6 0.5l8.3 3.8c0.4 0.2 0.8 0.2 1.2 0l8.3-3.8q-0.2-0.4-0.6-0.5z"/><path class="c" d="m34 59.7c-0.4 0-0.8-0.2-1-0.6l-2.6-6.7-2.6 6.7c-0.3 0.5-0.8 0.8-1.4 0.6-0.5-0.2-0.8-0.8-0.6-1.4l3.6-9c0.2-0.4 0.6-0.7 1-0.7 0.4 0 0.8 0.3 0.9 0.7l3.6 9c0.3 0.6 0 1.2-0.5 1.4q-0.2 0-0.4 0z"/><path class="c" d="m32.9 57.5h-5c-0.6 0-1.1-0.4-1.1-1 0-0.6 0.5-1 1.1-1h5c0.6 0 1.1 0.4 1.1 1 0 0.6-0.5 1-1.1 1z"/><path class="c" d="m43.2 59.7c-0.3 0-0.6-0.1-0.8-0.3l-3.8-4.3c-0.4-0.5-0.3-1.1 0.1-1.5 0.4-0.4 1.1-0.3 1.4 0.1l3.9 4.3c0.3 0.5 0.3 1.1-0.1 1.5q-0.3 0.2-0.7 0.2z"/><path class="c" d="m38.3 59.7c-0.6 0-1.1-0.4-1.1-1v-4.3c0-0.6 0.5-1.1 1.1-1.1 0.5 0 1 0.5 1 1.1v4.3c0 0.6-0.5 1-1 1z"/><path class="c" d="m38.3 55.4q-0.5 0-0.8-0.3-0.3-0.3-0.3-0.7v-4.8c0-0.5 0.5-1 1.1-1h2.4c1.9 0 3.5 1.5 3.5 3.4 0 1.9-1.6 3.4-3.5 3.4-0.7 0-2.4 0-2.4 0q0 0 0 0zm1-4.7v2.6c0.5 0 1.1 0 1.4 0 0.8 0 1.5-0.6 1.5-1.3 0-0.7-0.7-1.3-1.5-1.3z"/><path class="k" d="m35 22c-0.6 0-1-0.5-1-1.1v-3.5c0-0.6 0.4-1.1 1-1.1 0.6 0 1 0.5 1 1.1v3.5c0 0.6-0.4 1.1-1 1.1z"/><path class="k" d="m39.6 23.4c-0.6 0-1.1-0.5-1.1-1v-2.8c0-0.5 0.5-1 1.1-1 0.5 0 1 0.5 1 1v2.8c0 0.5-0.5 1-1 1z"/><path class="k" d="m44.1 25.1c-0.6 0-1-0.5-1-1.1v-2.4c0-0.5 0.4-1 1-1 0.6 0 1 0.5 1 1v2.4c0 0.6-0.4 1.1-1 1.1z"/><path class="k" d="m30.4 23.4c-0.5 0-1-0.5-1-1v-2.8c0-0.5 0.5-1 1-1 0.6 0 1.1 0.5 1.1 1v2.8c0 0.5-0.5 1-1.1 1z"/><path class="k" d="m25.9 25.1c-0.6 0-1-0.5-1-1.1v-2.4c0-0.5 0.4-1 1-1 0.6 0 1 0.5 1 1v2.4c0 0.6-0.4 1.1-1 1.1z"/></svg>