<svg version="1.2" xmlns="http://www.w3.org/2000/svg" viewBox="0 0 65 70" width="65" height="70"><style>.a{fill:#666}.b{fill:#ccc}.c{fill:#808080}.d{fill:#e6e6e6}.e{fill:#ff8b00}.f{fill:#bc6200}.g{fill:#1a6dff}.h{fill:#083fba}.i{fill:#fff}.j{fill:#f2f2f2}.k{fill:#fff800}.l{fill:#ffc200}</style><path class="a" d="m49.9 70h-34.8q-0.2 0-0.5-0.1-0.2-0.1-0.3-0.2-0.2-0.2-0.3-0.4-0.1-0.2-0.1-0.5v-4.6c0-0.3 0.2-0.6 0.4-0.9 0.2-0.2 0.5-0.3 0.8-0.3 0.3 0 0.6 0.1 0.8 0.3 0.2 0.3 0.3 0.6 0.3 0.9v3.5h32.6v-4.7c0-0.3 0.1-0.6 0.3-0.8 0.2-0.2 0.5-0.4 0.8-0.4 0.3 0 0.6 0.2 0.8 0.4 0.2 0.2 0.4 0.5 0.4 0.8v5.8q0 0.3-0.1 0.5-0.1 0.2-0.3 0.4-0.1 0.1-0.3 0.2-0.3 0.1-0.5 0.1z"/><path class="b" d="m52.2 57.2h-4.6q-0.2 0-0.5 0.1-0.2 0-0.3 0.2-0.2 0.2-0.3 0.4-0.1 0.2-0.1 0.4v4.7q0 0.2 0.1 0.4 0.1 0.3 0.3 0.4 0.1 0.2 0.3 0.3 0.3 0.1 0.5 0.1h4.6q0.3 0 0.5-0.1 0.2-0.1 0.4-0.3 0.1-0.1 0.2-0.4 0.1-0.2 0.1-0.4v-4.7q0-0.2-0.1-0.4-0.1-0.2-0.2-0.4-0.2-0.2-0.4-0.2-0.2-0.1-0.5-0.1z"/><path class="c" d="m53.4 58.3v4.7q0 0.2-0.1 0.4-0.1 0.3-0.2 0.4-0.2 0.2-0.4 0.3-0.2 0.1-0.5 0.1h-2.3v-7h2.3q0.3 0 0.5 0.1 0.2 0 0.4 0.2 0.1 0.2 0.2 0.4 0.1 0.2 0.1 0.4z"/><path class="d" d="m54.6 50.2h-9.3q-0.3 0-0.5 0.1-0.2 0-0.4 0.2-0.1 0.2-0.2 0.4-0.1 0.2-0.1 0.4v7q0 0.3 0.1 0.5 0.1 0.2 0.2 0.4 0.2 0.1 0.4 0.2 0.2 0.1 0.5 0.1h9.3q0.2 0 0.4-0.1 0.2-0.1 0.4-0.2 0.1-0.2 0.2-0.4 0.1-0.2 0.1-0.5v-7q0-0.2-0.1-0.4-0.1-0.2-0.2-0.4-0.2-0.2-0.4-0.2-0.2-0.1-0.4-0.1z"/><path class="b" d="m55.7 51.3v7q0 0.3-0.1 0.5-0.1 0.2-0.2 0.4-0.2 0.1-0.4 0.2-0.2 0.1-0.4 0.1h-4.7v-9.3h4.7q0.2 0 0.4 0.1 0.2 0 0.4 0.2 0.1 0.2 0.2 0.4 0.1 0.2 0.1 0.4z"/><path fill-rule="evenodd" class="e" d="m49.9 53.7c-8.3 0-15.1-6.8-15.1-15.2 0-8.4 6.8-15.2 15.1-15.2 8.4 0 15.1 6.8 15.1 15.2 0 8.4-6.7 15.2-15.1 15.2z"/><path class="f" d="m65 38.5c0 2-0.4 4-1.1 5.8-0.8 1.8-1.9 3.5-3.3 4.9-1.4 1.4-3.1 2.6-4.9 3.3-1.8 0.8-3.8 1.2-5.8 1.2v-30.4c2 0 4 0.4 5.8 1.2 1.8 0.8 3.5 1.9 4.9 3.3 1.4 1.4 2.5 3.1 3.3 4.9 0.7 1.8 1.1 3.8 1.1 5.8z"/><path class="g" d="m29 9.3h-27.8q-0.3 0-0.5 0.1-0.2 0.1-0.4 0.3-0.1 0.1-0.2 0.4-0.1 0.2-0.1 0.4v49q0 0.2 0.1 0.4 0.1 0.3 0.2 0.4 0.2 0.2 0.4 0.3 0.2 0.1 0.5 0.1h27.8q0.2 0 0.5-0.1 0.2-0.1 0.3-0.3 0.2-0.1 0.3-0.4 0.1-0.2 0.1-0.4v-49q0-0.2-0.1-0.4-0.1-0.3-0.3-0.4-0.1-0.2-0.3-0.3-0.3-0.1-0.5-0.1z"/><path class="h" d="m30.2 10.5v49q0 0.2-0.1 0.4-0.1 0.3-0.3 0.4-0.1 0.2-0.3 0.3-0.3 0.1-0.5 0.1h-13.9v-51.4h13.9q0.2 0 0.5 0.1 0.2 0.1 0.3 0.3 0.2 0.1 0.3 0.4 0.1 0.2 0.1 0.4z"/><path class="i" d="m24.4 18.7h-18.6q-0.2 0-0.4 0.1-0.3 0-0.4 0.2-0.2 0.2-0.3 0.4-0.1 0.2-0.1 0.4v30.4q0 0.2 0.1 0.4 0.1 0.2 0.3 0.4 0.1 0.2 0.4 0.2 0.2 0.1 0.4 0.1h18.6q0.2 0 0.4-0.1 0.2 0 0.4-0.2 0.2-0.2 0.2-0.4 0.1-0.2 0.1-0.4v-30.4q0-0.2-0.1-0.4 0-0.2-0.2-0.4-0.2-0.2-0.4-0.2-0.2-0.1-0.4-0.1z"/><path class="d" d="m25.5 19.8v30.4q0 0.2-0.1 0.4 0 0.2-0.2 0.4-0.2 0.2-0.4 0.2-0.2 0.1-0.4 0.1h-9.3v-32.6h9.3q0.2 0 0.4 0.1 0.2 0 0.4 0.2 0.2 0.2 0.2 0.4 0.1 0.2 0.1 0.4z"/><path class="j" d="m51.1 35.1v18.5q-0.6 0.1-1.2 0.1-0.6 0-1.1-0.1v-18.5c-0.1-0.3 0-0.6 0.2-0.9 0.3-0.2 0.6-0.4 0.9-0.4 0.3 0 0.7 0.2 0.9 0.4 0.2 0.3 0.3 0.6 0.3 0.9z"/><path class="j" d="m56.9 39.7q-0.3 0-0.5 0.1-0.2 0-0.3 0.2-0.2 0.2-0.3 0.4-0.1 0.2-0.1 0.4v2.4h-11.6v-2.4c0-0.3-0.1-0.6-0.3-0.8-0.3-0.2-0.5-0.3-0.9-0.3-0.3 0-0.6 0.1-0.8 0.3-0.2 0.2-0.3 0.5-0.3 0.8v3.5q0 0.3 0.1 0.5 0.1 0.2 0.2 0.4 0.2 0.1 0.4 0.2 0.2 0.1 0.4 0.1h14q0.2 0 0.4-0.1 0.2-0.1 0.4-0.2 0.2-0.2 0.2-0.4 0.1-0.2 0.1-0.5v-3.5q0-0.2-0.1-0.4 0-0.2-0.2-0.4-0.2-0.2-0.4-0.2-0.2-0.1-0.4-0.1z"/><path class="d" d="m17.4 56h-4.6c-0.3 0-0.6-0.1-0.9-0.3-0.2-0.3-0.3-0.6-0.3-0.9 0-0.3 0.1-0.6 0.3-0.8 0.3-0.2 0.6-0.3 0.9-0.3h4.6c0.3 0 0.6 0.1 0.8 0.3 0.2 0.2 0.4 0.5 0.4 0.8 0 0.3-0.2 0.6-0.4 0.9-0.2 0.2-0.5 0.3-0.8 0.3z"/><path class="d" d="m16.3 16.3h-2.4c-0.3 0-0.6-0.1-0.8-0.3-0.2-0.2-0.3-0.5-0.3-0.8 0-0.3 0.1-0.6 0.3-0.9 0.2-0.2 0.5-0.3 0.8-0.3h2.3c0.4 0 0.7 0.1 0.9 0.3 0.2 0.3 0.3 0.6 0.3 0.9 0 0.3-0.1 0.6-0.3 0.8-0.2 0.2-0.5 0.3-0.9 0.3z"/><path class="g" d="m39.2 6.8c1.4-1.4 3.1-2.5 4.9-3.3 1.9-0.8 3.8-1.2 5.8-1.2 2 0 4 0.4 5.8 1.2 1.8 0.8 3.5 1.9 4.9 3.3 0.2 0.2 0.5 0.3 0.8 0.3 0.3 0 0.6-0.1 0.8-0.3 0.2-0.2 0.4-0.5 0.4-0.8 0-0.4-0.2-0.7-0.4-0.9-1.6-1.6-3.5-2.9-5.6-3.8-2.1-0.8-4.4-1.3-6.7-1.3-2.3 0-4.5 0.5-6.7 1.3-2.1 0.9-4 2.2-5.6 3.8-0.2 0.3-0.3 0.5-0.3 0.9 0 0.3 0.1 0.6 0.3 0.8 0.2 0.2 0.5 0.3 0.8 0.3 0.3 0 0.6-0.1 0.8-0.3z"/><path class="g" d="m58.9 10.1q0.2-0.2 0.3-0.4 0.1-0.2 0.1-0.5 0-0.2-0.1-0.4-0.1-0.2-0.3-0.4c-1.1-1.2-2.6-2.1-4.1-2.8-1.6-0.6-3.2-0.9-4.9-0.9-1.7 0-3.3 0.3-4.9 0.9-1.5 0.7-2.9 1.6-4.1 2.8q-0.2 0.2-0.3 0.4-0.1 0.2-0.1 0.5 0 0.2 0.1 0.4 0.1 0.2 0.3 0.4 0.2 0.1 0.4 0.2 0.2 0.1 0.4 0.1 0.2 0 0.4-0.1 0.3-0.1 0.4-0.2c1-1 2.1-1.8 3.4-2.3 1.3-0.5 2.6-0.8 4-0.8 1.4 0 2.7 0.3 4 0.8 1.3 0.5 2.4 1.3 3.4 2.3q0.2 0.1 0.4 0.2 0.2 0.1 0.4 0.1 0.2 0 0.5-0.1 0.2-0.1 0.3-0.2z"/><path class="g" d="m55.7 13.4q0.1-0.2 0.2-0.4 0.1-0.2 0.1-0.4 0-0.3-0.1-0.5-0.1-0.2-0.2-0.4-1.2-1.1-2.7-1.7-1.5-0.7-3.1-0.7-1.6 0-3.1 0.7-1.5 0.6-2.6 1.7-0.2 0.2-0.3 0.4-0.1 0.2-0.1 0.5 0 0.2 0.1 0.4 0.1 0.2 0.3 0.4 0.1 0.1 0.4 0.2 0.2 0.1 0.4 0.1 0.2 0 0.4-0.1 0.2-0.1 0.4-0.2 0.8-0.8 1.9-1.3 1.1-0.4 2.2-0.4 1.2 0 2.2 0.4 1.1 0.5 1.9 1.3 0.2 0.1 0.4 0.2 0.2 0.1 0.4 0.1 0.3 0 0.5-0.1 0.2-0.1 0.4-0.2z"/><path class="h" d="m46.4 17.5c0 1.4 0.9 2.7 2.2 3.2 1.3 0.6 2.8 0.3 3.8-0.7 1-1 1.3-2.5 0.7-3.9-0.5-1.3-1.8-2.1-3.2-2.1q-0.7 0-1.3 0.3-0.7 0.2-1.2 0.7-0.4 0.5-0.7 1.1-0.3 0.7-0.3 1.4z"/><path fill-rule="evenodd" class="k" d="m15.1 42c-3.2 0-5.8-2.6-5.8-5.8 0-3.3 2.6-5.9 5.8-5.9 3.2 0 5.8 2.6 5.8 5.9 0 3.2-2.6 5.8-5.8 5.8z"/><path class="i" d="m53.4 32.6c0 1.4-0.9 2.7-2.2 3.2-1.3 0.6-2.8 0.3-3.8-0.7-0.9-1-1.2-2.5-0.7-3.8 0.5-1.3 1.8-2.2 3.2-2.2q0.7 0 1.3 0.3 0.7 0.2 1.2 0.7 0.5 0.5 0.7 1.2 0.3 0.6 0.3 1.3z"/><path class="g" d="m16.3 29.2l-0.1 5.8c0 0.3-0.1 0.6-0.3 0.8-0.2 0.2-0.5 0.4-0.8 0.4-0.3 0-0.6-0.2-0.8-0.4-0.2-0.2-0.4-0.5-0.4-0.8v-5.8c0-0.3 0.2-0.6 0.4-0.9 0.2-0.2 0.5-0.3 0.8-0.3 0.3 0 0.6 0.1 0.8 0.3 0.2 0.3 0.3 0.6 0.3 0.9z"/><path class="l" d="m20.9 36.2q0 1.1-0.4 2.2-0.5 1.1-1.3 1.9-0.8 0.8-1.9 1.3-1.1 0.4-2.2 0.4v-11.7q1.1 0 2.2 0.5 1.1 0.4 1.9 1.2 0.8 0.9 1.3 1.9 0.4 1.1 0.4 2.3z"/><path class="h" d="m16.3 29.2l-0.1 5.8q0 0.2 0 0.4-0.1 0.3-0.3 0.4-0.2 0.2-0.4 0.3-0.2 0.1-0.4 0.1v-8.2q0.2 0 0.4 0.1 0.2 0.1 0.4 0.2 0.2 0.2 0.3 0.4 0 0.2 0 0.5z"/><path class="d" d="m53.4 32.6q0 0.7-0.3 1.3-0.2 0.7-0.7 1.2-0.5 0.5-1.2 0.7-0.6 0.3-1.3 0.3v-7q0.7 0 1.3 0.3 0.7 0.2 1.2 0.7 0.5 0.5 0.7 1.2 0.3 0.6 0.3 1.3z"/><path class="i" d="m60.4 38.4c0 1.5-0.8 2.7-2.1 3.3-1.3 0.5-2.8 0.2-3.8-0.8-1-1-1.3-2.5-0.8-3.8 0.6-1.3 1.8-2.2 3.2-2.2q0.7 0 1.4 0.3 0.6 0.3 1.1 0.8 0.5 0.5 0.8 1.1 0.2 0.7 0.2 1.3z"/><path class="d" d="m60.4 38.4q0 0.7-0.2 1.4-0.3 0.6-0.8 1.1-0.5 0.5-1.1 0.8-0.7 0.2-1.4 0.2v-7q0.7 0.1 1.4 0.3 0.6 0.3 1.1 0.8 0.5 0.5 0.8 1.1 0.2 0.7 0.2 1.3z"/><path class="i" d="m46.3 38.4c0 1.5-0.8 2.7-2.1 3.3-1.3 0.5-2.8 0.2-3.8-0.8-1-1-1.3-2.5-0.8-3.8 0.6-1.3 1.9-2.2 3.3-2.2q0.7 0 1.3 0.3 0.6 0.3 1.1 0.8 0.5 0.5 0.8 1.1 0.2 0.7 0.2 1.3z"/><path class="d" d="m46.3 38.4q0 0.7-0.2 1.4-0.3 0.6-0.8 1.1-0.5 0.5-1.1 0.8-0.6 0.2-1.3 0.2v-7q0.7 0.1 1.3 0.3 0.6 0.3 1.1 0.8 0.5 0.5 0.8 1.1 0.2 0.7 0.2 1.3z"/></svg>