<svg version="1.2" xmlns="http://www.w3.org/2000/svg" viewBox="0 0 44 70" width="44" height="70"><style>.a{fill:#ff9100}.b{fill:#e0f4ff}.c{fill:#596c76}.d{fill:#76e2f8}.e{fill:#ffda2d}.f{fill:#97de3d}.g{fill:#465a61}</style><path fill-rule="evenodd" class="a" d="m4.5 15.4h30.1c2.5 0 4.5 2 4.5 4.5v30c0 2.5-2 4.5-4.5 4.5h-30.1c-2.5 0-4.5-2-4.5-4.5v-30c0-2.5 2-4.5 4.5-4.5z"/><path fill-rule="evenodd" class="b" d="m34.6 19.9v30h-30.1v-30z"/><path class="c" d="m32.3 15.4h-25.5l1.7-15.4h22.1z"/><path class="c" d="m32.3 54.4h-25.5l1.7 15.4h22.1z"/><path class="d" d="m39.1 19.9h3.2q0.3 0 0.7 0.1 0.3 0.2 0.5 0.4 0.2 0.2 0.4 0.5 0.1 0.4 0.1 0.7v8.9q0 0.3-0.1 0.6-0.2 0.4-0.4 0.6-0.2 0.2-0.5 0.4-0.4 0.1-0.7 0.1h-3.2z"/><path class="e" d="m39.1 37.5h3.2q0.3 0 0.7 0.2 0.3 0.1 0.5 0.3 0.2 0.3 0.4 0.6 0.1 0.3 0.1 0.6v3.7q0 0.3-0.1 0.6-0.2 0.3-0.4 0.6-0.2 0.2-0.5 0.3-0.4 0.2-0.7 0.2h-3.2z"/><path class="a" d="m19.5 28.5c-1-1-2.4-1.6-3.8-1.6-1.5 0-2.9 0.5-3.9 1.6-1 1-1.6 2.4-1.6 3.8 0 1.5 0.6 2.9 1.7 3.9l7.6 7.6 7.7-7.6c1-1 1.6-2.4 1.6-3.9 0-1.4-0.5-2.8-1.6-3.8-1-1-2.4-1.6-3.8-1.6-1.5 0-2.8 0.6-3.9 1.6z"/><path class="f" d="m23.5 34.4q-0.1 0-0.2 0-0.1 0-0.2 0.1-0.1 0-0.2 0.1 0 0-0.1 0.1l-1.8 1.7-1.7-4.2q-0.1-0.2-0.3-0.4-0.1-0.1-0.4-0.2-0.2 0-0.5 0-0.2 0.1-0.4 0.3l-2.5 2.5h-4.5q0.1 0.2 0.2 0.5 0.1 0.2 0.3 0.4 0.1 0.3 0.3 0.5 0.2 0.2 0.4 0.4l0.1 0.2h3.6q0.1 0 0.2-0.1 0.1 0 0.2 0 0.1-0.1 0.1-0.1 0.1-0.1 0.2-0.1l1.8-1.8 1.7 4.3q0 0.1 0.1 0.2 0 0.1 0.1 0.1 0.1 0.1 0.2 0.2 0.1 0 0.3 0 0 0.1 0 0.1 0 0 0.1 0 0 0 0 0 0 0 0.1 0 0.1 0 0.2 0 0.1-0.1 0.1-0.1 0.1 0 0.2-0.1 0.1-0.1 0.2-0.1l2.5-2.5h3.1l0.2-0.2q0.2-0.2 0.4-0.4 0.2-0.2 0.3-0.5 0.2-0.2 0.3-0.4 0.1-0.3 0.2-0.5z"/><path fill-rule="evenodd" class="g" d="m15.5 5.5h8.1c1 0 1.7 0.7 1.7 1.6v1.2c0 0.9-0.7 1.6-1.7 1.6h-8.1c-1 0-1.7-0.7-1.7-1.6v-1.2c0-0.9 0.7-1.6 1.7-1.6z"/><path fill-rule="evenodd" class="g" d="m15.5 59.9h8.1c1 0 1.7 0.7 1.7 1.7v1.1c0 0.9-0.7 1.7-1.7 1.7h-8.1c-1 0-1.7-0.8-1.7-1.7v-1.1c0-1 0.7-1.7 1.7-1.7z"/></svg>