<svg version="1.2" xmlns="http://www.w3.org/2000/svg" viewBox="0 0 61 71" width="61" height="71"><style>.a{fill:#3b4346}.b{fill:#ebebeb}.c{fill:#2a3133}.d{opacity:.15;fill:#fff}.e{fill:#f15853}.f{fill:#115876}.g{fill:#54b8ea}.h{opacity:.2;fill:#fff}.i{fill:#43a9d1}</style><path class="a" d="m44.2 4.1v62.8c0 1.9-1.5 3.5-3.5 3.5h-37c-2 0-3.6-1.6-3.6-3.5v-62.8c0-1.9 1.6-3.5 3.6-3.5h37c2 0 3.5 1.6 3.5 3.5z"/><path class="b" d="m3.7 65.7v-60.4c0-0.6 0.5-1.2 1.1-1.2h34.7c0.7 0 1.2 0.6 1.2 1.2v60.4c0 0.6-0.5 1.2-1.2 1.2h-34.7c-0.6 0-1.1-0.6-1.1-1.2z"/><path class="a" d="m30.5 3.9l-2.2 2.7h-12.3l-2.1-2.7z"/><path class="c" d="m27.4 5c0 0.2-0.2 0.4-0.4 0.4h-1.7c-0.2 0-0.4-0.2-0.4-0.4 0-0.3 0.2-0.5 0.4-0.5h1.7c0.2 0 0.4 0.2 0.4 0.5z"/><path class="c" d="m23.1 5c0 0.2-0.2 0.4-0.4 0.4h-5.3c-0.3 0-0.5-0.2-0.5-0.4 0-0.3 0.2-0.5 0.5-0.5h5.3c0.2 0 0.4 0.2 0.4 0.5z"/><path class="d" d="m34.3 0.6h-30.6c-2 0-3.6 1.6-3.6 3.5v50.8h20.5c7.6 0 13.7-6.2 13.7-13.7 0 0 0-40.6 0-40.6z"/><path class="d" d="m25.3 0.6h-21.6c-2 0-3.6 1.6-3.6 3.5v40.6h7.9c9.6 0 17.3-7.8 17.3-17.4 0 0 0-26.7 0-26.7z"/><path class="e" d="m14.8 56.9v5.1c0 0.6-0.5 1.1-1.1 1.1h-5.1c-0.6 0-1.1-0.5-1.1-1.1v-5.1c0-0.7 0.5-1.2 1.1-1.2h5.1c0.6 0 1.1 0.5 1.1 1.2z"/><path class="f" d="m27 56.9v5.1c0 0.6-0.5 1.1-1.1 1.1h-5.1c-0.6 0-1.1-0.5-1.1-1.1v-5.1c0-0.7 0.5-1.2 1.1-1.2h5.1c0.6 0 1.1 0.5 1.1 1.2z"/><path class="g" d="m60.8 56.9c-1.7-0.7-2.8-2.4-2.8-4.3 0-1.8 1.1-3.5 2.8-4.2 0.2-0.1 0.3-0.4 0.3-0.7q-0.6-2.2-1.8-4.1c-0.1-0.3-0.4-0.4-0.7-0.3-1.7 0.6-3.6 0.3-4.9-1-1.3-1.4-1.6-3.3-1-4.9 0.1-0.3 0-0.6-0.3-0.8q-1.9-1.1-4.1-1.7c-0.3-0.1-0.6 0.1-0.7 0.3-0.7 1.6-2.3 2.8-4.2 2.8-1.9 0-3.5-1.2-4.2-2.8-0.1-0.2-0.5-0.4-0.7-0.3q-2.2 0.6-4.2 1.7c-0.3 0.2-0.3 0.5-0.2 0.8 0.6 1.6 0.3 3.5-1.1 4.9-1.3 1.3-3.2 1.6-4.8 1-0.3-0.1-0.7 0-0.8 0.3q-1.1 1.9-1.7 4.1c-0.1 0.3 0 0.6 0.3 0.7 1.6 0.7 2.7 2.4 2.7 4.2 0 1.9-1.1 3.6-2.7 4.3-0.3 0.1-0.4 0.4-0.3 0.7q0.6 2.2 1.7 4.1c0.1 0.3 0.5 0.4 0.8 0.3 1.6-0.6 3.5-0.3 4.8 1 1.3 1.3 1.7 3.3 1.1 4.9-0.1 0.3-0.1 0.6 0.2 0.8q2 1.1 4.2 1.7c0.3 0.1 0.6-0.1 0.7-0.3 0.7-1.7 2.3-2.8 4.2-2.8 1.8 0 3.5 1.1 4.2 2.8 0.1 0.2 0.4 0.4 0.7 0.3q2.2-0.6 4.1-1.7c0.3-0.2 0.4-0.5 0.3-0.8-0.6-1.6-0.3-3.6 1-4.9 1.3-1.3 3.3-1.6 4.9-1 0.3 0.1 0.6 0 0.7-0.3q1.2-1.9 1.8-4.1c0-0.3-0.1-0.6-0.3-0.7zm-17.4 3.5c-4.3 0-7.7-3.5-7.7-7.7 0-4.3 3.4-7.8 7.7-7.8 4.2 0 7.7 3.5 7.7 7.8 0 4.2-3.5 7.7-7.7 7.7z"/><path class="h" d="m54.5 42.9q-0.4-0.2-0.8-0.6c-1.3-1.3-1.7-3.3-1-4.9 0.1-0.3 0-0.6-0.3-0.8q-1.9-1.1-4.1-1.7c-0.3 0-0.6 0.1-0.7 0.3-0.7 1.7-2.3 2.8-4.2 2.8-1.9 0-3.5-1.1-4.2-2.8-0.1-0.2-0.5-0.3-0.7-0.3-1.5 0.4-2.9 1-4.2 1.7-0.3 0.2-0.3 0.5-0.2 0.8 0.6 1.7 0.3 3.6-1.1 4.9-1.3 1.3-3.2 1.7-4.8 1-0.3-0.1-0.7 0-0.8 0.3q-1.1 1.9-1.7 4.2c-0.1 0.2 0 0.5 0.3 0.7 1.6 0.7 2.7 2.3 2.7 4.2 0 1.8-1.1 3.5-2.7 4.2-0.3 0.1-0.4 0.4-0.3 0.7 0.4 1.4 1 2.8 1.7 4.1 0.1 0.3 0.5 0.4 0.8 0.3 1.6-0.6 3.5-0.3 4.8 1q0.4 0.4 0.7 0.9c3.5-0.5 6.8-1.7 9.7-3.5-4.3 0-7.8-3.5-7.8-7.7 0-4.3 3.5-7.8 7.8-7.8 4.2 0 7.7 3.5 7.7 7.8 1.8-2.9 3-6.2 3.4-9.8z"/><path class="h" d="m48.3 34.9c-0.3-0.1-0.6 0.1-0.7 0.3-0.7 1.7-2.3 2.8-4.2 2.8-1.9 0-3.5-1.1-4.2-2.8-0.1-0.2-0.4-0.4-0.7-0.3-1.5 0.4-2.9 1-4.2 1.7-0.2 0.2-0.3 0.5-0.2 0.8 0.6 1.6 0.3 3.6-1.1 4.9-1.3 1.3-3.2 1.6-4.8 1-0.3-0.1-0.6 0-0.8 0.3q-1.1 1.9-1.7 4.1c-0.1 0.3 0 0.6 0.3 0.7 1.6 0.8 2.8 2.4 2.8 4.2 0 1.9-1.2 3.6-2.8 4.3-0.3 0.1-0.4 0.4-0.3 0.7q0.2 0.9 0.6 1.8c3.8 0 7.4-0.9 10.6-2.5-0.8-1.2-1.2-2.7-1.2-4.2 0-4.3 3.4-7.8 7.7-7.8 1.5 0 3 0.5 4.2 1.3 1.6-3.2 2.5-6.8 2.5-10.7q-0.9-0.3-1.8-0.6z"/><path class="i" d="m43.4 65.4c-7 0-12.7-5.7-12.7-12.8 0-7 5.7-12.7 12.7-12.7 7 0 12.7 5.7 12.7 12.7 0 7.1-5.7 12.8-12.7 12.8zm0-23.4c-5.9 0-10.7 4.8-10.7 10.6 0 5.9 4.8 10.7 10.7 10.7 5.8 0 10.6-4.8 10.6-10.7 0-5.8-4.8-10.6-10.6-10.6z"/><path class="e" d="m18.7 28.3v1.3c0 0.4-0.5 0.7-0.9 0.5l-8-3.4c-0.3-0.1-0.4-0.4-0.4-0.6v-1.4c0-0.3 0.1-0.5 0.4-0.6l8-3.5c0.4-0.2 0.9 0.1 0.9 0.6v1.2c0 0.3-0.2 0.5-0.4 0.6l-6.1 2.4 6.1 2.4c0.2 0 0.4 0.3 0.4 0.5z"/><path class="e" d="m24.4 20.2l-2.6 10.6q-0.1 0.6-0.2 0.9-0.1 0.3-0.3 0.4-0.2 0.2-0.6 0.2-0.9 0-0.9-0.8 0-0.2 0.2-1.1l2.6-10.6q0.1-0.9 0.3-1.2 0.2-0.3 0.8-0.3 0.4 0 0.7 0.2 0.2 0.2 0.2 0.6 0 0.3-0.2 1.1z"/><path class="e" d="m34.6 26.7l-8 3.5c-0.4 0.1-0.9-0.2-0.9-0.6v-1.3c0-0.2 0.2-0.4 0.4-0.5l6.1-2.4-6.1-2.4c-0.2-0.1-0.4-0.3-0.4-0.6v-1.2c0-0.4 0.5-0.7 0.9-0.6l8 3.5c0.2 0.1 0.4 0.3 0.4 0.6v1.4c0 0.2-0.2 0.5-0.4 0.6z"/></svg>