<svg version="1.2" xmlns="http://www.w3.org/2000/svg" viewBox="0 0 70 70" width="70" height="70"><style>.a{fill:#404a80}.b{fill:#ff936b}.c{fill:#ffe666}.d{fill:#e8f1fd}.e{fill:#e26058}.f{fill:#cfdbfd}.g{fill:#6cf}</style><path fill-rule="evenodd" class="a" d="m4.6 60.9h60.8c2.6 0 4.6 2 4.6 4.5 0 2.6-2 4.6-4.6 4.6h-60.8c-2.6 0-4.6-2-4.6-4.6 0-2.5 2-4.5 4.6-4.5z"/><path class="b" d="m62.1 55.5h-54.2l-2.3 2.3v3.1h58.8v-3.1z"/><path class="c" d="m35 49.5q-1.2 0-2.2 0.4-1.1 0.5-1.9 1.3-0.9 0.8-1.3 1.9-0.4 1.1-0.5 2.2v0.2h11.8v-0.2q-0.1-1.1-0.5-2.2-0.4-1.1-1.3-1.9-0.8-0.8-1.9-1.3-1-0.4-2.2-0.4z"/><path class="d" d="m70 30.1l-35 19.4-35-19.4v-30.1h70z"/><path class="b" d="m21.5 42l12.8 7.1h1.4l12.8-7.1v-29.1h-27z"/><path class="e" d="m27.4 7.9h15.2q0.4 0 0.8 0.1 0.3 0.2 0.6 0.4 0.3 0.3 0.4 0.7 0.1 0.3 0.1 0.7v3.1h-19.1v-3.1q0.1-0.4 0.2-0.7 0.1-0.4 0.4-0.7 0.3-0.2 0.6-0.4 0.4-0.1 0.8-0.1z"/><path class="d" d="m29.7 46.6l5.3 2.9 5.3-2.9v-6.9h-10.6z"/><path class="f" d="m34 48.9l1 0.6 1-0.6v-9.2h-2z"/><path class="c" d="m25.3 16.8h8v4.5h-8z"/><path fill-rule="evenodd" class="c" d="m44.7 16.8v4.5h-8v-4.5z"/><path class="c" d="m25.3 24.1h8v4.5h-8z"/><path fill-rule="evenodd" class="c" d="m44.7 24.1v4.5h-8v-4.5z"/><path class="c" d="m25.3 31.3h8v4.6h-8z"/><path fill-rule="evenodd" class="c" d="m44.7 31.3v4.6h-8v-4.6z"/><path class="a" d="m48.5 42l14.3-7.9v-16.3h-14.3z"/><path fill-rule="evenodd" class="g" d="m62.8 22.3v4.9h-9.8v-4.9z"/><path class="g" d="m53 37.4h3.7l6.1-3.3v-1.5h-9.8z"/><path class="g" d="m21.5 42l-14.3-7.9v-16.3h14.3z"/><path class="a" d="m17 27.2h-9.8v-4.9h9.8z"/><path class="a" d="m17 37.4h-3.7l-6.1-3.3v-1.5h9.8z"/><path class="f" d="m56.3 25.1q-0.3 0-0.6-0.2-0.3-0.2-0.4-0.5-0.1-0.3 0-0.6 0.1-0.3 0.4-0.5l10.6-8.3q0.3-0.2 0.7-0.2 0.4 0.1 0.7 0.4 0.2 0.3 0.2 0.7-0.1 0.4-0.4 0.7l-10.6 8.3q-0.1 0-0.2 0 0 0.1-0.1 0.1-0.1 0-0.2 0 0 0.1-0.1 0.1z"/><path class="f" d="m58.8 15.2q-0.3 0-0.6-0.2-0.2-0.2-0.3-0.5-0.1-0.3 0-0.6 0.1-0.3 0.3-0.5l5.6-4.3q0.3-0.3 0.7-0.2 0.4 0 0.6 0.3 0.3 0.4 0.2 0.8 0 0.4-0.3 0.6l-5.6 4.4q-0.1 0-0.1 0-0.1 0.1-0.2 0.1-0.1 0-0.1 0.1-0.1 0-0.2 0z"/><path class="f" d="m13.7 25.1q-0.1 0-0.1-0.1-0.1 0-0.2 0-0.1 0-0.1-0.1-0.1 0-0.2 0l-10.6-8.3q-0.3-0.3-0.4-0.7 0-0.4 0.3-0.7 0.2-0.3 0.6-0.4 0.4 0 0.7 0.2l10.6 8.3q0.3 0.2 0.4 0.5 0.1 0.3 0 0.6-0.1 0.3-0.4 0.5-0.3 0.2-0.6 0.2z"/><path class="f" d="m11.2 15.2q-0.1 0-0.2 0 0-0.1-0.1-0.1-0.1 0-0.2-0.1 0 0-0.1 0l-5.6-4.4q-0.3-0.2-0.3-0.6-0.1-0.4 0.2-0.8 0.2-0.3 0.6-0.3 0.4-0.1 0.7 0.2l5.6 4.3q0.2 0.2 0.3 0.5 0.1 0.3 0 0.6-0.1 0.3-0.3 0.5-0.3 0.2-0.6 0.2z"/></svg>