<svg version="1.2" xmlns="http://www.w3.org/2000/svg" viewBox="0 0 70 70" width="70" height="70"><style>.a{fill:#ffd648}.b{fill:#ffb300}.c{fill:#00d0ce}.d{fill:#00a5ab}.e{fill:#007d93}</style><path class="a" d="m49.7 38.5v4.9q0 0.4-0.2 0.9-0.2 0.4-0.5 0.8-0.4 0.3-0.8 0.5-0.4 0.2-0.9 0.2h-26.6q-0.5 0-0.9-0.2-0.4-0.2-0.8-0.5-0.3-0.4-0.5-0.8-0.2-0.5-0.2-0.9v-4.9q0-0.4 0.2-0.9 0.2-0.4 0.5-0.8 0.4-0.3 0.8-0.5 0.4-0.2 0.9-0.2h26.6q0.5 0 0.9 0.2 0.4 0.2 0.8 0.5 0.3 0.4 0.5 0.8 0.2 0.5 0.2 0.9z"/><path fill-rule="evenodd" class="a" d="m20.7 26.5h26.6c1.3 0 2.4 1.1 2.4 2.4v4.8c0 1.4-1.1 2.4-2.4 2.4h-26.6c-1.3 0-2.4-1-2.4-2.4v-4.8c0-1.3 1.1-2.4 2.4-2.4z"/><path fill-rule="evenodd" class="a" d="m20.7 16.9h26.6c1.3 0 2.4 1 2.4 2.4v4.8c0 1.3-1.1 2.4-2.4 2.4h-26.6c-1.3 0-2.4-1.1-2.4-2.4v-4.8c0-1.4 1.1-2.4 2.4-2.4z"/><path class="b" d="m29.2 45.8h-8.5q-0.5 0-0.9-0.2-0.4-0.2-0.8-0.5-0.3-0.4-0.5-0.8-0.2-0.5-0.2-0.9v-4.9q0-0.4 0.2-0.9 0.2-0.4 0.5-0.8 0.4-0.3 0.8-0.5 0.4-0.2 0.9-0.2h8.5q-0.5 0-1 0.2-0.4 0.2-0.7 0.5-0.4 0.4-0.6 0.8-0.1 0.5-0.1 0.9v4.9q0 0.4 0.1 0.9 0.2 0.4 0.6 0.8 0.3 0.3 0.7 0.5 0.5 0.2 1 0.2z"/><path class="b" d="m29.2 36.1h-8.5q-0.5 0-0.9-0.2-0.4-0.1-0.8-0.5-0.3-0.3-0.5-0.8-0.2-0.4-0.2-0.9v-4.8q0-0.5 0.2-0.9 0.2-0.5 0.5-0.8 0.4-0.3 0.8-0.5 0.4-0.2 0.9-0.2h8.5q-0.5 0-1 0.2-0.4 0.2-0.7 0.5-0.4 0.3-0.6 0.8-0.1 0.4-0.1 0.9v4.8q0 0.5 0.1 0.9 0.2 0.5 0.6 0.8 0.3 0.4 0.7 0.5 0.5 0.2 1 0.2z"/><path class="b" d="m29.2 26.5h-8.5q-0.5 0-0.9-0.2-0.4-0.2-0.8-0.5-0.3-0.4-0.5-0.8-0.2-0.4-0.2-0.9v-4.8q0-0.5 0.2-1 0.2-0.4 0.5-0.7 0.4-0.4 0.8-0.6 0.4-0.1 0.9-0.1h8.5q-0.5 0-1 0.1-0.4 0.2-0.7 0.6-0.4 0.3-0.6 0.7-0.1 0.5-0.1 1v4.8q0 0.5 0.1 0.9 0.2 0.4 0.6 0.8 0.3 0.3 0.7 0.5 0.5 0.2 1 0.2z"/><path class="c" d="m58.1 16.9c2.9 0 5.7 1.1 7.7 3.1 2.1 2.1 3.2 4.8 3.2 7.7 0 2.9-1.1 5.6-3.2 7.7-2 2-4.8 3.1-7.7 3.1h-8.4q0-0.4-0.2-0.9-0.2-0.4-0.5-0.8-0.4-0.3-0.8-0.5-0.4-0.2-0.9-0.2 0.5 0 0.9-0.2 0.4-0.1 0.8-0.5 0.3-0.3 0.5-0.8 0.2-0.4 0.2-0.9v-4.8q0-0.5-0.2-0.9-0.2-0.5-0.5-0.8-0.4-0.3-0.8-0.5-0.4-0.2-0.9-0.2 0.5 0 0.9-0.2 0.4-0.2 0.8-0.5 0.3-0.4 0.5-0.8 0.2-0.4 0.2-0.9v-4.8q0-0.5-0.2-1-0.2-0.4-0.5-0.7-0.4-0.4-0.8-0.6-0.4-0.1-0.9-0.1h-26.6q-0.5 0-0.9 0.1-0.4 0.2-0.8 0.6-0.3 0.3-0.5 0.7-0.2 0.5-0.2 1v4.8q0 0.5 0.2 0.9 0.2 0.4 0.5 0.8 0.4 0.3 0.8 0.5 0.4 0.2 0.9 0.2-0.5 0-0.9 0.2-0.4 0.2-0.8 0.5-0.3 0.3-0.5 0.8-0.2 0.4-0.2 0.9v4.8q0 0.5 0.2 0.9 0.2 0.5 0.5 0.8 0.4 0.4 0.8 0.5 0.4 0.2 0.9 0.2-0.5 0-0.9 0.2-0.4 0.2-0.8 0.5-0.3 0.4-0.5 0.8-0.2 0.5-0.2 0.9h-6c-3.7 0-7.3-1.5-9.8-4.2-2.5-2.8-3.7-6.4-3.4-10.1 0.3-3.7 2.1-7.1 5-9.4 2.9-2.2 6.7-3.2 10.3-2.6 2-4.1 5.2-7.4 9.2-9.6 4-2.1 8.6-3 13.1-2.4 4.5 0.5 8.7 2.5 12 5.5 3.3 3.1 5.6 7.1 6.6 11.5q0.3-0.1 0.7-0.1 0.3-0.1 0.7-0.1 0.4-0.1 0.7-0.1 0.4 0 0.7 0z"/><path class="d" d="m34 0q0.6 0 1.2 0 0.6 0.1 1.2 0.1 0.6 0.1 1.2 0.2 0.6 0.1 1.2 0.2-2.4 0.6-4.6 1.6-2.2 1.1-4.1 2.6-1.9 1.5-3.4 3.4-1.5 1.9-2.6 4.1c-3.3-0.5-6.8 0.2-9.6 2.1-2.8 1.9-4.8 4.8-5.5 8.1-0.8 3.3-0.2 6.8 1.5 9.7 1.8 2.9 4.6 5 7.9 6q-0.1 0-0.1 0.1 0 0 0 0.1 0 0.1 0 0.1 0 0.1 0 0.1h-6c-3.7 0-7.3-1.5-9.8-4.2-2.5-2.8-3.7-6.4-3.4-10.1 0.3-3.7 2.1-7.1 5-9.4 2.9-2.2 6.7-3.2 10.3-2.6q1.4-2.7 3.4-5 2.1-2.3 4.7-3.9 2.6-1.6 5.5-2.5 2.9-0.8 6-0.8z"/><path class="d" d="m53.3 26.5q0.5 0 0.9 0.2 0.5 0.2 0.8 0.5 0.4 0.3 0.5 0.8 0.2 0.4 0.2 0.9v4.8q0 0.5-0.2 0.9-0.1 0.5-0.5 0.8-0.3 0.4-0.8 0.5-0.4 0.2-0.9 0.2 0.5 0 0.9 0.2 0.5 0.2 0.8 0.5 0.3 0.3 0.5 0.8 0.2 0.4 0.2 0.9-0.1 0-0.3 0-0.1 0-0.3 0-0.1 0-0.3 0-0.1 0-0.3 0h-4.8q0-0.4-0.2-0.9-0.2-0.4-0.5-0.8-0.4-0.3-0.8-0.5-0.4-0.2-0.9-0.2 0.5 0 0.9-0.2 0.4-0.1 0.8-0.5 0.3-0.3 0.5-0.8 0.2-0.4 0.2-0.9v-4.8q0-0.5-0.2-0.9-0.2-0.5-0.5-0.8-0.4-0.3-0.8-0.5-0.4-0.2-0.9-0.2 0.5 0 0.9-0.2 0.4-0.2 0.8-0.5 0.3-0.4 0.5-0.8 0.2-0.4 0.2-0.9v-4.8q0-0.5-0.2-1-0.2-0.4-0.5-0.7-0.4-0.4-0.8-0.6-0.4-0.1-0.9-0.1c-0.3 0 5.7 0 6.4 0q0.4 0.1 0.8 0.3 0.4 0.2 0.6 0.5 0.3 0.3 0.5 0.7 0.1 0.4 0.1 0.9v4.8q0 0.5-0.2 0.9-0.1 0.4-0.5 0.8-0.3 0.3-0.8 0.5-0.4 0.2-0.9 0.2z"/><path fill-rule="evenodd" class="e" d="m36.4 20.5v2.4h-14.5v-2.4z"/><path fill-rule="evenodd" class="e" d="m41.2 20.5v2.4h-2.4v-2.4z"/><path fill-rule="evenodd" class="e" d="m46.1 20.5v2.4h-2.4v-2.4z"/><path fill-rule="evenodd" class="e" d="m36.4 30.1v2.4h-14.5v-2.4z"/><path fill-rule="evenodd" class="e" d="m41.2 30.1v2.4h-2.4v-2.4z"/><path fill-rule="evenodd" class="e" d="m46.1 30.1v2.4h-2.4v-2.4z"/><path fill-rule="evenodd" class="e" d="m36.4 39.7v2.5h-14.5v-2.5z"/><path fill-rule="evenodd" class="e" d="m41.2 39.7v2.5h-2.4v-2.5z"/><path fill-rule="evenodd" class="e" d="m46.1 39.7v2.5h-2.4v-2.5z"/><path fill-rule="evenodd" class="e" d="m35.2 45.8v15.6h-2.4v-15.6z"/><path class="e" d="m21.9 54.2h-16.9v-2.4h15.7v-6h2.4v7.2q0 0.2-0.1 0.5 0 0.2-0.2 0.3-0.2 0.2-0.4 0.3-0.2 0.1-0.5 0.1z"/><path class="e" d="m17.1 63.8h-2.4v-6q0-0.2 0.1-0.5 0.1-0.2 0.2-0.3 0.2-0.2 0.4-0.3 0.3-0.1 0.5-0.1h9.7v-10.8h2.4v12q0 0.2-0.1 0.5-0.1 0.2-0.3 0.4-0.2 0.1-0.4 0.2-0.2 0.1-0.4 0.1h-9.7z"/><path class="e" d="m63 54.2h-16.9q-0.3 0-0.5-0.1-0.2-0.1-0.4-0.3-0.2-0.1-0.2-0.3-0.1-0.3-0.1-0.5v-7.2h2.4v6h15.7z"/><path class="e" d="m53.3 63.8h-2.4v-4.8h-9.7q-0.2 0-0.4-0.1-0.2-0.1-0.4-0.2-0.2-0.2-0.3-0.4-0.1-0.3-0.1-0.5v-12h2.4v10.8h9.7q0.2 0 0.5 0.1 0.2 0.1 0.4 0.3 0.1 0.1 0.2 0.3 0.1 0.3 0.1 0.5z"/><path fill-rule="evenodd" class="c" d="m65.4 56.6c-2 0-3.6-1.6-3.6-3.6 0-2 1.6-3.6 3.6-3.6 2 0 3.6 1.6 3.6 3.6 0 2-1.6 3.6-3.6 3.6z"/><path fill-rule="evenodd" class="c" d="m52.1 69.8c-2 0-3.6-1.6-3.6-3.6 0-2 1.6-3.6 3.6-3.6 2 0 3.6 1.6 3.6 3.6 0 2-1.6 3.6-3.6 3.6z"/><path fill-rule="evenodd" class="c" d="m34 67.4c-2 0-3.6-1.6-3.6-3.6 0-2 1.6-3.6 3.6-3.6 2 0 3.6 1.6 3.6 3.6 0 2-1.6 3.6-3.6 3.6z"/><path fill-rule="evenodd" class="c" d="m15.9 69.8c-2 0-3.6-1.6-3.6-3.6 0-2 1.6-3.6 3.6-3.6 2 0 3.6 1.6 3.6 3.6 0 2-1.6 3.6-3.6 3.6z"/><path fill-rule="evenodd" class="c" d="m2.6 56.6c-2 0-3.6-1.6-3.6-3.6 0-2 1.6-3.6 3.6-3.6 2 0 3.6 1.6 3.6 3.6 0 2-1.6 3.6-3.6 3.6z"/></svg>