<svg version="1.2" xmlns="http://www.w3.org/2000/svg" viewBox="0 0 70 70" width="70" height="70"><style>.a{fill:#fafbfb}.b{fill:#00a6ff}.c{fill:#b857cf}.d{fill:#006ef5}.e{fill:#ca80de}.f{fill:#ffa91f}.g{fill:#57555c}.h{fill:#b1dcff}</style><path class="a" d="m16.9 7.2h36.2c0.7 0 1.2 0.6 1.2 1.2v48.3c0 0.7-0.5 1.2-1.2 1.2h-36.2c-0.7 0-1.2-0.5-1.2-1.2v-48.3c0-0.6 0.5-1.2 1.2-1.2z"/><path class="b" d="m48.3 0h-26.6c-3.3 0-6 2.7-6 6v58c0 3.3 2.7 6 6 6h26.6c3.3 0 6-2.7 6-6v-58c0-3.3-2.7-6-6-6zm3.6 55.5h-33.8v-45.8h33.8z"/><path class="c" d="m24.1 20.5h-10.8c-0.3 0-0.7-0.1-0.9-0.3l-4.5-4.5h-6.7c-0.7 0-1.2-0.6-1.2-1.2 0-0.7 0.5-1.2 1.2-1.2h7.2c0.4 0 0.7 0.1 0.9 0.3l4.5 4.5h10.3c0.7 0 1.2 0.5 1.2 1.2 0 0.7-0.5 1.2-1.2 1.2z"/><path class="d" d="m38.6 3.6h-7.2c-0.7 0-1.2 0.6-1.2 1.2 0 0.7 0.5 1.2 1.2 1.2h7.2c0.7 0 1.2-0.5 1.2-1.2 0-0.6-0.5-1.2-1.2-1.2z"/><path fill-rule="evenodd" class="d" d="m35 66.4c-2 0-3.6-1.6-3.6-3.6 0-2 1.6-3.7 3.6-3.7 2 0 3.6 1.7 3.6 3.7 0 2-1.6 3.6-3.6 3.6z"/><path class="e" d="m25.3 14.5h4.9c1.3 0 2.4 1.1 2.4 2.4v4.8c0 1.4-1.1 2.4-2.4 2.4h-4.9c-1.3 0-2.4-1-2.4-2.4v-4.8c0-1.3 1.1-2.4 2.4-2.4z"/><path class="c" d="m56.7 33.8h-10.8c-0.7 0-1.2-0.5-1.2-1.2 0-0.7 0.5-1.2 1.2-1.2h10.3l4.5-4.5c0.2-0.2 0.5-0.3 0.9-0.3h7.2c0.7 0 1.2 0.5 1.2 1.2 0 0.6-0.5 1.2-1.2 1.2h-6.7l-4.5 4.4c-0.2 0.3-0.6 0.4-0.9 0.4z"/><path class="f" d="m25.3 27.8h19.4c1.3 0 2.4 1 2.4 2.4v4.8c0 1.3-1.1 2.4-2.4 2.4h-19.4c-1.3 0-2.4-1.1-2.4-2.4v-4.8c0-1.4 1.1-2.4 2.4-2.4z"/><path class="b" d="m47.1 45.9c0 2.6-2.2 4.8-4.9 4.8h-14.4q-0.3 0-0.5 0c-2.5-0.3-4.4-2.5-4.3-5.1 0.1-2.5 2.2-4.5 4.8-4.6h14.4c2.7 0 4.9 2.2 4.9 4.9z"/><path class="g" d="m39.8 18.1h-3.6c-0.7 0-1.2-0.5-1.2-1.2 0-0.7 0.5-1.2 1.2-1.2h3.6c0.7 0 1.2 0.5 1.2 1.2 0 0.7-0.5 1.2-1.2 1.2z"/><path class="g" d="m45.9 18.1h-2.5c-0.6 0-1.2-0.5-1.2-1.2 0-0.7 0.6-1.2 1.2-1.2h2.5c0.6 0 1.2 0.5 1.2 1.2 0 0.7-0.6 1.2-1.2 1.2z"/><path class="g" d="m45.9 22.9h-9.7c-0.7 0-1.2-0.5-1.2-1.2 0-0.6 0.5-1.2 1.2-1.2h9.7c0.6 0 1.2 0.6 1.2 1.2 0 0.7-0.6 1.2-1.2 1.2z"/><path class="g" d="m7.2 10.9h-6c-0.7 0-1.2-0.6-1.2-1.2 0-0.7 0.5-1.3 1.2-1.3h6c0.7 0 1.2 0.6 1.2 1.3 0 0.6-0.5 1.2-1.2 1.2z"/><path class="g" d="m7.2 6h-6c-0.7 0-1.2-0.5-1.2-1.2 0-0.6 0.5-1.2 1.2-1.2h6c0.7 0 1.2 0.6 1.2 1.2 0 0.7-0.5 1.2-1.2 1.2z"/><path class="g" d="m68.8 24.1h-6c-0.7 0-1.2-0.5-1.2-1.2 0-0.6 0.5-1.2 1.2-1.2h6c0.7 0 1.2 0.6 1.2 1.2 0 0.7-0.5 1.2-1.2 1.2z"/><path class="g" d="m68.8 19.3h-6c-0.7 0-1.2-0.5-1.2-1.2 0-0.7 0.5-1.2 1.2-1.2h6c0.7 0 1.2 0.5 1.2 1.2 0 0.7-0.5 1.2-1.2 1.2z"/><path class="h" d="m41.8 41l-4.8 9.7h-2.7l4.8-9.7z"/><path class="h" d="m37 41l-4.9 9.7h-2.7l4.9-9.7z"/><path class="h" d="m32.1 41l-4.8 9.7c-0.8-0.1-1.6-0.4-2.3-0.9l4.4-8.8z"/></svg>