<svg version="1.2" xmlns="http://www.w3.org/2000/svg" viewBox="0 0 71 70" width="71" height="70"><style>.a{fill:#60b7ff}.b{fill:#26a6fe}.c{fill:#fff}.d{fill:#f8f6f6}.e{fill:#ffd15b}.f{fill:#ffc344}.g{fill:#05e39c}.h{fill:#0ed290}.i{fill:#8ac9fe}</style><path class="a" d="m66.9 70h-34.1c-1.5 0-2.8-1.2-2.8-2.8v-41.9c0-1.5 1.3-2.7 2.8-2.7h34.1c1.5 0 2.8 1.2 2.8 2.7v41.9c0 1.6-1.3 2.8-2.8 2.8z"/><path class="b" d="m66.9 22.6h-1.4v40.5c0 1.5-1.2 2.8-2.7 2.8h-32.8v1.3c0 1.6 1.3 2.8 2.8 2.8h34.1c1.5 0 2.8-1.2 2.8-2.8v-41.9c0-1.5-1.3-2.7-2.8-2.7z"/><path fill-rule="evenodd" class="c" d="m49.9 49.9c-5.5 0-9.9-4.4-9.9-9.9 0-5.5 4.4-9.9 9.9-9.9 5.4 0 9.9 4.4 9.9 9.9 0 5.5-4.5 9.9-9.9 9.9z"/><path class="d" d="m52 30.4c2.2 1.8 3.6 4.5 3.6 7.6 0 5.4-4.4 9.9-9.9 9.9q-1.1 0-2.1-0.3c1.7 1.4 3.9 2.3 6.3 2.3 5.4 0 9.9-4.4 9.9-9.9 0-4.7-3.3-8.7-7.8-9.6z"/><path class="e" d="m58.9 62.8h-18.1c-1.8 0-3.3-1.5-3.3-3.3 0-1.8 1.5-3.3 3.3-3.3h18.1c1.8 0 3.3 1.5 3.3 3.3 0 1.8-1.5 3.3-3.3 3.3z"/><path class="f" d="m58.9 56.2h-0.9q0.1 0.1 0.1 0.2c0 1.8-1.5 3.3-3.3 3.3h-17.3c0.1 1.7 1.6 3.1 3.3 3.1h18.1c1.8 0 3.3-1.5 3.3-3.3 0-1.8-1.5-3.3-3.3-3.3z"/><path class="g" d="m20.8 70h-16c-1.5 0-2.8-1.2-2.8-2.8v-10.5c0-1.5 1.2-2.8 2.8-2.8h16c1.5 0 2.8 1.3 2.8 2.8v10.5c0 1.6-1.3 2.8-2.8 2.8z"/><path class="h" d="m20.8 53.9h-2v9.2c0 1.5-1.3 2.8-2.8 2.8h-14v1.3c0 1.6 1.2 2.8 2.8 2.8h16c1.5 0 2.8-1.2 2.8-2.8v-10.5c0-1.5-1.3-2.8-2.8-2.8z"/><path class="e" d="m20.8 46.7h-16c-1.5 0-2.8-1.2-2.8-2.7v-18.7c0-1.5 1.2-2.7 2.8-2.7h16c1.5 0 2.8 1.2 2.8 2.7v18.7c0 1.5-1.3 2.7-2.8 2.7z"/><path class="f" d="m20.8 22.6h-2v17.2c0 1.5-1.3 2.8-2.8 2.8h-14v1.4c0 1.5 1.2 2.7 2.8 2.7h16c1.5 0 2.8-1.2 2.8-2.7v-18.7c0-1.5-1.3-2.7-2.8-2.7z"/><path class="c" d="m17.4 63h-9.2c-0.6 0-1.1-0.5-1.1-1 0-0.6 0.5-1.1 1.1-1.1h9.2c0.6 0 1 0.5 1 1.1 0 0.5-0.4 1-1 1z"/><path class="c" d="m18.4 30.1h-5.6c-0.6 0-1.1-0.4-1.1-1 0-0.6 0.5-1 1.1-1h5.6c0.6 0 1.1 0.4 1.1 1 0 0.6-0.5 1-1.1 1z"/><path class="c" d="m18.4 35.7h-5.6c-0.6 0-1.1-0.5-1.1-1.1 0-0.5 0.5-1 1.1-1h5.6c0.6 0 1.1 0.5 1.1 1 0 0.6-0.5 1.1-1.1 1.1z"/><path class="c" d="m18.4 41.2h-5.6c-0.6 0-1.1-0.4-1.1-1 0-0.6 0.5-1 1.1-1h5.6c0.6 0 1.1 0.4 1.1 1 0 0.6-0.5 1-1.1 1z"/><path class="c" d="m7.7 30.1h-0.6c-0.5 0-1-0.4-1-1 0-0.6 0.5-1 1-1h0.6c0.6 0 1.1 0.4 1.1 1 0 0.6-0.5 1-1.1 1z"/><path class="c" d="m7.7 35.7h-0.6c-0.5 0-1-0.5-1-1.1 0-0.5 0.5-1 1-1h0.6c0.6 0 1.1 0.5 1.1 1 0 0.6-0.5 1.1-1.1 1.1z"/><path class="c" d="m7.7 41.2h-0.6c-0.5 0-1-0.4-1-1 0-0.6 0.5-1 1-1h0.6c0.6 0 1.1 0.4 1.1 1 0 0.6-0.5 1-1.1 1z"/><path class="a" d="m12 0c-0.5 0-1 0.5-1 1v8.2c0 0.5 0.5 1 1 1 0.6 0 1-0.5 1-1v-8.2c0-0.5-0.4-1-1-1z"/><path class="a" d="m7.7 0c-0.6 0-1.1 0.5-1.1 1v5.6c0 0.4-0.1 0.9-0.9 1.4q-0.4 0.2-0.9 0.2-0.5 0-1-0.3c-0.6-0.4-0.8-0.8-0.8-1.3v-5.6c0-0.5-0.4-1-1-1-0.6 0-1 0.5-1 1v5.6q0 1.9 1.7 3 1 0.6 2.1 0.6 1 0 1.8-0.4c1.7-0.9 2.1-2.2 2.1-3.2v-5.6c0-0.5-0.5-1-1-1z"/><path class="a" d="m40.6 8.6l-2.6-3.8 2.2-3.2c0.3-0.4 0.2-1.1-0.2-1.4-0.5-0.3-1.1-0.2-1.5 0.2l-1.8 2.6-1.8-2.6c-0.3-0.4-1-0.5-1.5-0.2-0.4 0.3-0.5 1-0.2 1.4l2.3 3.2-2.7 3.8c-0.3 0.5-0.2 1.1 0.2 1.4q0.3 0.2 0.6 0.2c0.3 0 0.7-0.1 0.9-0.4l2.2-3.2 2.2 3.2c0.2 0.3 0.6 0.4 0.9 0.4q0.3 0 0.6-0.2c0.4-0.3 0.5-0.9 0.2-1.4z"/><path class="a" d="m30.3 0c-0.5 0-1 0.5-1 1v5.6c0 0.4-0.1 0.9-1 1.4q-0.4 0.2-0.9 0.2-0.5 0-0.9-0.3c-0.7-0.4-0.8-0.8-0.8-1.3v-5.6c0-0.5-0.5-1-1-1-0.6 0-1.1 0.5-1.1 1v5.6q0 1.9 1.8 3 0.9 0.6 2 0.6h0.1q0.9 0 1.8-0.4c1.7-0.9 2.1-2.2 2.1-3.2v-5.6c0-0.5-0.5-1-1.1-1z"/><path class="a" d="m20.6 0.1c-0.5-0.2-1.1 0-1.3 0.5l-3.5 8.2c-0.2 0.5 0.1 1.1 0.6 1.3q0.2 0.1 0.4 0.1c0.4 0 0.8-0.2 0.9-0.6l3.5-8.2c0.2-0.5 0-1.1-0.6-1.3z"/><path class="i" d="m69.7 16.9h-67.7c-0.6 0-1-0.5-1-1 0-0.6 0.4-1.1 1-1.1h67.7c0.6 0 1 0.5 1 1.1 0 0.5-0.4 1-1 1z"/><path class="a" d="m69.7 2.1h-7.3c-0.5 0-1-0.5-1-1.1 0-0.5 0.5-1 1-1h7.3c0.6 0 1 0.5 1 1 0 0.6-0.4 1.1-1 1.1z"/><path class="a" d="m69.7 6.1h-7.3c-0.5 0-1-0.5-1-1 0-0.6 0.5-1.1 1-1.1h7.3c0.6 0 1 0.5 1 1.1 0 0.5-0.4 1-1 1z"/><path class="a" d="m69.7 10.1h-7.3c-0.5 0-1-0.4-1-1 0-0.5 0.5-1 1-1h7.3c0.6 0 1 0.5 1 1 0 0.6-0.4 1-1 1z"/></svg>