<svg version="1.2" xmlns="http://www.w3.org/2000/svg" viewBox="0 0 61 70" width="61" height="70"><style>.a{fill:#5aaae7}.b{fill:#3d9ae2}.c{fill:#ff9811}.d{fill:#ffd422}.e{fill:#1e81ce}.f{fill:#78b9eb}.g{fill:#ff6243}</style><path class="a" d="m38.9 0h-33.5c-2.7 0-4.8 2.2-4.8 4.8v60.2c0 2.7 2.1 4.9 4.8 4.9h33.5c2.6 0 4.7-2.2 4.7-4.9v-60.2c0-2.6-2.1-4.8-4.7-4.8z"/><path class="b" d="m7.7 69.9h-2.3c-2.7 0-4.8-2.2-4.8-4.9v-60.2c0-2.6 2.1-4.8 4.8-4.8h2.3c-2.6 0-4.7 2.2-4.7 4.8v60.2c0 2.7 2.1 4.9 4.7 4.9z"/><path class="b" d="m43.6 61.8v1.6q-1.1 0.5-2.3 0.8-3 0.8-6 0.8c-9.5 0-18-5.9-21.3-14.9-3.4-8.9-0.8-19 6.4-25.3-6.5 7.6-7.3 18.7-2 27.2 5.4 8.5 15.6 12.5 25.2 9.8z"/><path class="c" d="m31.7 0v3.6c0 1.3-1.1 2.4-2.4 2.4h-14.4c-1.3 0-2.4-1.1-2.4-2.4v-3.6z"/><path class="d" d="m60.4 39.7c0 10.4-6.9 19.4-16.8 22.1q-2.9 0.8-5.9 0.8c-12.6 0-22.8-10.2-22.8-22.9 0-12.6 10.2-22.8 22.8-22.8q3 0 5.9 0.8c9.9 2.7 16.8 11.7 16.8 22z"/><path fill-rule="evenodd" class="e" d="m16.1 9.6v2.4h-2.4v-2.4z"/><path fill-rule="evenodd" class="e" d="m20.9 9.6v2.4h-2.4v-2.4z"/><path fill-rule="evenodd" class="e" d="m25.7 9.6v2.4h-2.4v-2.4z"/><path fill-rule="evenodd" class="e" d="m30.5 9.6v2.4h-2.4v-2.4z"/><path class="b" d="m17.1 19.6l1.8-1.6 1.6 1.9-1.9 1.5z"/><path class="b" d="m13.7 23.3l1.5-1.8 1.9 1.5-1.6 1.8z"/><path class="b" d="m11 27.5l1.2-2 2.1 1.2-1.2 2z"/><path class="b" d="m9.1 32.2l0.8-2.3 2.2 0.9-0.8 2.2z"/><path class="b" d="m8 37.1l0.4-2.4 2.4 0.5-0.5 2.3z"/><path fill-rule="evenodd" class="b" d="m10.1 39.7v2.5h-2.4v-2.5z"/><path class="b" d="m8 44.8l2.3-0.4 0.5 2.3-2.4 0.5z"/><path class="b" d="m9.1 49.7l2.2-0.8 0.8 2.2-2.2 0.9z"/><path class="b" d="m11 54.4l2.1-1.2 1.2 2-2.1 1.2z"/><path class="b" d="m13.7 58.6l1.8-1.5 1.6 1.8-1.9 1.5z"/><path class="b" d="m17.1 62.3l1.5-1.8 1.9 1.5-1.6 1.9z"/><path class="b" d="m21.1 65.4l1.2-2.1 2 1.2-1.2 2.1z"/><path class="d" d="m18.3 18.4l1.8-1.6 1.6 1.9-1.9 1.5z"/><path class="d" d="m14.9 22.1l1.5-1.9 1.9 1.6-1.6 1.8z"/><path class="d" d="m12.2 26.3l1.2-2.1 2.1 1.3-1.2 2z"/><path class="d" d="m10.3 31l0.8-2.3 2.2 0.9-0.8 2.2z"/><path class="d" d="m9.2 35.9l0.4-2.4 2.3 0.5-0.4 2.3z"/><path fill-rule="evenodd" class="d" d="m11.3 38.5v2.4h-2.4v-2.4z"/><path class="d" d="m9.2 43.6l2.3-0.4 0.4 2.3-2.3 0.4z"/><path class="d" d="m10.3 48.5l2.2-0.8 0.8 2.2-2.2 0.9z"/><path class="d" d="m12.2 53.2l2.1-1.3 1.2 2.1-2.1 1.2z"/><path class="d" d="m14.9 57.4l1.8-1.5 1.6 1.8-1.9 1.5z"/><path class="d" d="m18.3 61.1l1.5-1.8 1.9 1.5-1.6 1.9z"/><path class="d" d="m22.3 64.2l1.2-2.1 2 1.2-1.2 2.1z"/><path fill-rule="evenodd" class="c" d="m54.4 10.8v2.4h-7.2v-2.4z"/><path fill-rule="evenodd" class="c" d="m60.4 15.7v2.4h-7.2v-2.4z"/><path class="c" d="m60.4 3.6h-2.4v-2.4h-2.4v2.4h-2.4v2.4h2.4v2.4h2.4v-2.4h2.4z"/><path class="c" d="m55.6 61.4h-2.4v2.4h-2.4v2.4h2.4v2.4h2.4v-2.4h2.4v-2.4h-2.4z"/><path class="f" d="m43.6 32.5h-19.1v16.9c0 1.3 1.1 2.4 2.4 2.4h21.5c1.4 0 2.4-1.1 2.4-2.4v-16.9z"/><path class="g" d="m48.4 27.7h-21.5c-1.3 0-2.4 1.1-2.4 2.4v2.4h26.3v-2.4c0-1.3-1-2.4-2.4-2.4z"/><path class="e" d="m34.2 45.7l4.8-8.3 2.1 1.2-4.8 8.3z"/><path class="e" d="m32 46.6l-3.6-3.6c-0.4-0.5-0.4-1.2 0-1.7l3.6-3.6 1.7 1.7-2.7 2.8 2.7 2.7z"/><path class="e" d="m43.3 46.6l-1.7-1.7 2.7-2.7-2.7-2.8 1.7-1.7 3.6 3.6c0.5 0.5 0.5 1.2 0 1.7z"/></svg>