<svg version="1.2" xmlns="http://www.w3.org/2000/svg" viewBox="0 0 70 70" width="70" height="70"><style>.a{fill:#56d9a3}.b{fill:#253858}.c{fill:#f2f6ff}.d{fill:#feb69e}.e{fill:#f8957e}.f{fill:#deebfe}.g{fill:#333}.h{fill:#fff}.i{fill:#272d4f}.j{fill:#37b37f}.k{fill:#18293d}.l{fill:#5e6d84}.m{fill:#fec400}.n{fill:#41506c}.o{fill:#54607b}</style><path class="a" d="m19.5 33.3l7.1 10.8c2 3 6 3.5 8.7 1.4q0.2-0.2 0.4-0.4 0.2-0.1 0.3-0.2l0.2-0.2 6.1-6.5-3.7-14.4h-3.9c-1.4 0-2.6 0.9-3 2.3l-2.2 8.7-5.6-5.8z"/><path class="b" d="m36.2 70v-13.6h15.4l-2.9 13.6z"/><path class="b" d="m48.8 70l-2.8-13.6h14.9v13.6z"/><path class="a" d="m36.2 25.3v32h24.7v-33.5h-23.2c-0.9 0-1.5 0.7-1.5 1.5z"/><path class="c" d="m40.3 23.8c1.3 4.9 3.1 8 7 8.6q0.3 0.1 0.7 0.1 0.4 0.1 0.7 0.1 0.8 0 1.5-0.2c3.8-0.6 5.7-3.7 7-8.6z"/><path class="d" d="m45.2 18.6v5.2l3.5 1.7 3.5-1.7v-5.2z"/><path class="e" d="m45.2 18.6v3.7c2.5 0.1 4.8-0.5 7-1.7v-2z"/><path class="f" d="m43.1 23.8l2.8 3.7 2.8-2-3.5-3.1-2 1.4z"/><path class="f" d="m54.3 23.8l-2.7 3.7-2.9-2 3.5-3.1 2.1 1.4z"/><path fill-rule="evenodd" class="d" d="m42.5 15.1c-0.8 0-1.5-0.8-1.5-1.8 0-1 0.7-1.8 1.5-1.8 0.9 0 1.6 0.8 1.6 1.8 0 1-0.7 1.8-1.6 1.8z"/><path fill-rule="evenodd" class="d" d="m54.8 15.1c-0.9 0-1.5-0.8-1.5-1.8 0-1 0.6-1.8 1.5-1.8 0.9 0 1.5 0.8 1.5 1.8 0 1-0.6 1.8-1.5 1.8z"/><path class="e" d="m55.5 14.3q-0.1 0-0.1-0.1c-0.1-0.1-0.1-0.1 0-0.2q0.3-0.3 0.3-0.6 0-0.4-0.3-0.7c-0.1 0-0.1-0.1 0-0.2 0 0 0.1 0 0.2 0q0.4 0.4 0.4 0.9 0 0.4-0.4 0.8-0.1 0.1-0.1 0.1z"/><path class="d" d="m42.3 11.3v3.4c0 3.5 2.9 6.4 6.4 6.4 3.5 0 6.4-2.9 6.4-6.4v-3.4c0-3.5-2.9-6.4-6.4-6.4-1.7 0-3.3 0.7-4.5 1.9-1.1 1.2-1.9 2.8-1.9 4.5z"/><path fill-rule="evenodd" class="g" d="m51.2 13.7c-0.3 0-0.5-0.4-0.5-0.8 0-0.5 0.2-0.8 0.5-0.8 0.3 0 0.6 0.3 0.6 0.8 0 0.4-0.3 0.8-0.6 0.8z"/><path fill-rule="evenodd" class="g" d="m46.2 13.7c-0.3 0-0.5-0.4-0.5-0.8 0-0.5 0.2-0.8 0.5-0.8 0.3 0 0.6 0.3 0.6 0.8 0 0.4-0.3 0.8-0.6 0.8z"/><path class="h" d="m50.9 16.3q0.1 0.1 0.1 0.1c0 1.3-1 2.3-2.3 2.3-1.2 0-2.2-1-2.2-2.3q0 0 0-0.1z"/><path class="e" d="m42 14.2q0 0 0.1-0.1c0 0 0-0.1 0-0.2q-0.4-0.3-0.4-0.6 0-0.4 0.4-0.7c0 0 0-0.1 0-0.2-0.1 0-0.2 0-0.2 0q-0.4 0.4-0.4 0.9 0 0.5 0.4 0.8 0 0.1 0.1 0.1z"/><path class="i" d="m42.3 13.4h0.7l1.1-6.3-3.6-0.1z"/><path class="i" d="m55.1 13.4h-0.7l-1.1-6.3 2.7-1.9c0 0 0.9 1.3 0.9 1.8 0.2 1.6-1.8 6.4-1.8 6.4z"/><path class="i" d="m40.5 7.2c0 0.3 0.2 0.7 0.5 0.8 2.3 1.1 10.7 1.7 14.6-0.6 3.9-2.2 3.5-4.6 2.3-5.1-1.1-0.5-2.6 0.6-4.5-0.5-1.9-1.2-4.3-3-8.9-0.5-3.6 1.9-4 4.8-4 5.9z"/><path class="a" d="m55 45.4l10 0.5c2.8 0 4.9-3 4.5-5.8-0.8-5.2-2.7-12.9-2.8-13.2-0.5-2.7-4.2-3.1-5.9-3.1-3.9 3.1 1.2 15.3 1.2 15.3l-7 0.8z"/><path class="j" d="m59.4 27.4c-0.1 0.7-0.1 1.5-0.1 2.2q0.1 1.2 0.3 2.3 0.5 2.2 1.4 4.3c-0.7-2.9-1.5-5.8-1.6-8.8z"/><path class="j" d="m60.9 39.1c-1 0-1.9 0.1-2.9 0.2-1 0.1-2 0.3-3 0.6 1 0 2-0.1 3-0.2 1-0.2 2-0.3 2.9-0.6z"/><path class="d" d="m51.7 39.6c0 0.4 0.3 0.7 0.7 0.9l0.7 0.2 1.9-0.8-1.9-1.1c-0.5-0.2-1 0-1.3 0.4q-0.1 0.2-0.1 0.4z"/><path class="k" d="m42.2 49.1h9.8c0.7 0 1.2-0.6 1.2-1.3v-10.5c0-0.7-0.5-1.2-1.2-1.2h-9.8c-0.7 0-1.3 0.5-1.3 1.2v10.5c0 0.7 0.6 1.3 1.3 1.3z"/><path class="d" d="m48.2 43.5c0 1.3 1.1 2.3 2.4 2.2l4.4-0.3v-5.5l-1.9 0.8-3.1 0.6c-1.1 0.2-1.8 1.1-1.8 2.2z"/><path class="k" d="m47.9 70h2.3l-1.2-8.3z"/><path class="j" d="m35.7 36.1v8.9q0.2-0.1 0.3-0.2l0.2-0.2v-8.5z"/><path class="d" d="m17.7 26.4l2.1 2.6-1.3 1c-0.8 0.7-0.8 1.9 0 2.5l1 0.8 4.4-4.3-0.2-1.5c-0.1-0.4-0.4-0.7-0.9-0.7-0.4 0-0.8 0.3-0.8 0.8v0.7l-2.7-3.2c-0.5-0.5-1.3-0.5-1.7 0.1q-0.1 0.2-0.1 0.6 0 0.3 0.2 0.6z"/><path class="l" d="m31.8 23v43.3c0 1.9-1.5 3.5-3.5 3.5h-24c-2 0-3.6-1.6-3.6-3.5v-43.3c0-2 1.6-3.6 3.6-3.6h24c2 0 3.5 1.6 3.5 3.6z"/><path class="h" d="m31 25v38.4c0 1.2-1 2.2-2.3 2.2h-24.9c-1.2 0-2.3-1-2.3-2.2v-38.4c0-1.2 1.1-2.2 2.3-2.2h24.9c1.3 0 2.3 1 2.3 2.2z"/><path fill-rule="evenodd" class="h" d="m14.2 22c-0.3 0-0.6-0.3-0.6-0.6 0-0.4 0.3-0.6 0.6-0.6 0.4 0 0.6 0.2 0.6 0.6 0 0.3-0.2 0.6-0.6 0.6z"/><path class="h" d="m19 21.4c0 0.2-0.2 0.4-0.5 0.4h-2.7c-0.2 0-0.4-0.2-0.4-0.4 0-0.3 0.2-0.5 0.4-0.5h2.7c0.3 0 0.5 0.2 0.5 0.5z"/><path class="l" d="m23 35v11.5c0 0.5-0.5 1-1 1h-11.4c-0.6 0-1-0.5-1-1v-11.5c0-0.5 0.4-1 1-1h11.4c0.5 0 1 0.5 1 1z"/><path class="m" d="m13.5 36.4c-0.1 0-0.2 0-0.2-0.1v-1.2c0-0.1 0.1-0.2 0.2-0.2 0 0 0.1 0.1 0.1 0.2v1.2c0 0.1-0.1 0.1-0.1 0.1z"/><path class="m" d="m15.3 36.4c0 0-0.1 0-0.1-0.1v-1.2c0-0.1 0.1-0.2 0.1-0.2 0.1 0 0.2 0.1 0.2 0.2v1.2c0 0.1-0.1 0.1-0.2 0.1z"/><path class="m" d="m17.2 36.4c-0.1 0-0.1 0-0.1-0.1v-1.2c0-0.1 0-0.2 0.1-0.2 0.1 0 0.2 0.1 0.2 0.2v1.2c0 0.1-0.1 0.1-0.2 0.1z"/><path class="m" d="m19.1 36.4c-0.1 0-0.1 0-0.1-0.1v-1.2c0-0.1 0-0.2 0.1-0.2 0.1 0 0.1 0.1 0.1 0.2v1.2c0 0.1 0 0.1-0.1 0.1z"/><path class="m" d="m13.5 46.6c-0.1 0-0.2-0.1-0.2-0.1v-1.3c0 0 0.1-0.1 0.2-0.1 0 0 0.1 0.1 0.1 0.1v1.3c0 0-0.1 0.1-0.1 0.1z"/><path class="m" d="m15.3 46.6c0 0-0.1-0.1-0.1-0.1v-1.3c0 0 0.1-0.1 0.1-0.1 0.1 0 0.2 0.1 0.2 0.1v1.3c0 0-0.1 0.1-0.2 0.1z"/><path class="m" d="m17.2 46.6c-0.1 0-0.1-0.1-0.1-0.1v-1.3c0 0 0-0.1 0.1-0.1 0.1 0 0.2 0.1 0.2 0.1v1.3c0 0-0.1 0.1-0.2 0.1z"/><path class="m" d="m19.1 46.6c-0.1 0-0.1-0.1-0.1-0.1v-1.3c0 0 0-0.1 0.1-0.1 0.1 0 0.1 0.1 0.1 0.1v1.3c0 0 0 0.1-0.1 0.1z"/><path class="m" d="m11.9 43.7h-1.2c-0.1 0-0.2-0.1-0.2-0.1 0-0.1 0.1-0.2 0.2-0.2h1.2c0.1 0 0.1 0.1 0.1 0.2 0 0 0 0.1-0.1 0.1z"/><path class="m" d="m11.9 41.8h-1.2c-0.1 0-0.2 0-0.2-0.1 0-0.1 0.1-0.2 0.2-0.2h1.2c0.1 0 0.1 0.1 0.1 0.2 0 0.1 0 0.1-0.1 0.1z"/><path class="m" d="m11.9 39.9h-1.2c-0.1 0-0.2 0-0.2-0.1 0-0.1 0.1-0.2 0.2-0.2h1.2c0.1 0 0.1 0.1 0.1 0.2 0 0.1 0 0.1-0.1 0.1z"/><path class="m" d="m11.9 38h-1.2c-0.1 0-0.2 0-0.2-0.1 0-0.1 0.1-0.1 0.2-0.1h1.2c0.1 0 0.1 0 0.1 0.1 0 0.1 0 0.1-0.1 0.1z"/><path class="m" d="m21.9 43.7h-1.2c-0.1 0-0.2-0.1-0.2-0.1 0-0.1 0.1-0.2 0.2-0.2h1.2c0.1 0 0.1 0.1 0.1 0.2 0 0 0 0.1-0.1 0.1z"/><path class="m" d="m21.9 41.8h-1.2c-0.1 0-0.2 0-0.2-0.1 0-0.1 0.1-0.2 0.2-0.2h1.2c0.1 0 0.1 0.1 0.1 0.2 0 0.1 0 0.1-0.1 0.1z"/><path class="m" d="m21.9 39.9h-1.2c-0.1 0-0.2 0-0.2-0.1 0-0.1 0.1-0.2 0.2-0.2h1.2c0.1 0 0.1 0.1 0.1 0.2 0 0.1 0 0.1-0.1 0.1z"/><path class="m" d="m21.9 38h-1.2c-0.1 0-0.2 0-0.2-0.1 0-0.1 0.1-0.1 0.2-0.1h1.2c0.1 0 0.1 0 0.1 0.1 0 0.1 0 0.1-0.1 0.1z"/><path class="n" d="m20.8 37v7.5c0 0.4-0.4 0.8-0.8 0.8h-7.4c-0.5 0-0.9-0.4-0.9-0.8v-7.5c0-0.5 0.4-0.8 0.9-0.8h7.4c0.4 0 0.8 0.3 0.8 0.8z"/><path fill-rule="evenodd" class="m" d="m19.7 37.3v6.9h-6.9v-6.9z"/><path class="h" d="m14 42.6q0-0.1 0-0.1v-0.1l1.4-3.6q0-0.1 0.1-0.1h0.4q0.1 0 0.2 0.1l1.4 3.6v0.1q0 0-0.1 0.1 0 0 0 0h-0.3q-0.1 0-0.1 0 0-0.1 0-0.1l-0.4-0.8h-1.8l-0.3 0.8q0 0.1-0.1 0.1h-0.3q0 0-0.1 0zm1-1.4h1.5l-0.8-2z"/><path class="h" d="m18.1 42.6q0-0.1 0-0.1v-3.7q0 0 0-0.1 0 0 0.1 0h0.3q0 0 0.1 0 0 0.1 0 0.1v3.7q0 0 0 0.1-0.1 0-0.1 0h-0.3q-0.1 0-0.1 0z"/><path class="o" d="m21.1 34v-2c0-0.1 0-0.2 0.2-0.2 0.1 0 0.2 0.1 0.2 0.2v2z"/><path class="o" d="m21.4 33.9v-1.9c0-0.1-0.1-0.1-0.1-0.1-0.1 0-0.2 0-0.2 0.1v1.9z"/><path class="o" d="m19.2 34v-3.6c0-0.2 0.1-0.2 0.2-0.2 0.1 0 0.2 0 0.2 0.2v3.6z"/><path class="o" d="m19.6 33.9v-3.5c0-0.1-0.1-0.2-0.2-0.2 0 0-0.1 0.1-0.1 0.2v3.5z"/><path class="o" d="m14.7 34v-1q0-0.1 0.1-0.1l2.2-1.5v-2.2c0-0.2 0.1-0.2 0.2-0.2 0.1 0 0.2 0 0.2 0.2v2.3q0 0-0.1 0.1l-2.2 1.5v0.8 0.1z"/><path class="o" d="m15.1 33.9v-0.8l2.2-1.5q0-0.1 0-0.1v-2.3c0-0.1 0-0.2-0.1-0.2-0.1 0-0.1 0.1-0.1 0.2v2.2l-2.3 1.5q0 0.1 0 0.1v0.9z"/><path class="o" d="m12.8 34v-2.3q0-0.1 0-0.2l1.7-1.6v-2.3c0-0.1 0.1-0.2 0.2-0.2 0.1 0 0.2 0.1 0.2 0.2v2.4q0 0.1-0.1 0.2l-1.7 1.6 0.1 2.2z"/><path class="o" d="m13.1 33.9v-2.2l1.7-1.6q0 0 0-0.1v-2.4c0-0.1-0.1-0.2-0.1-0.2-0.1 0-0.2 0.1-0.2 0.2v2.4l-1.6 1.6q-0.1 0-0.1 0.1v2.2z"/><path class="o" d="m11.1 34v-2.4c0-0.1 0.1-0.2 0.2-0.2 0.1 0 0.2 0.1 0.2 0.2v2.4z"/><path class="o" d="m11.5 33.9v-2.3c0-0.1-0.1-0.2-0.2-0.2-0.1 0-0.1 0.1-0.1 0.2v2.3z"/><path fill-rule="evenodd" class="m" d="m21.3 32.5c-0.4 0-0.8-0.4-0.8-0.8 0-0.4 0.4-0.7 0.8-0.7 0.3 0 0.7 0.3 0.7 0.7 0 0.4-0.4 0.8-0.7 0.8z"/><path fill-rule="evenodd" class="m" d="m19.5 31.2c-0.4 0-0.7-0.3-0.7-0.7 0-0.4 0.3-0.8 0.7-0.8 0.4 0 0.7 0.4 0.7 0.8 0 0.4-0.3 0.7-0.7 0.7z"/><path fill-rule="evenodd" class="m" d="m17.2 29.7c-0.4 0-0.7-0.3-0.7-0.7 0-0.4 0.3-0.7 0.7-0.7 0.4 0 0.7 0.3 0.7 0.7 0 0.4-0.3 0.7-0.7 0.7z"/><path fill-rule="evenodd" class="m" d="m14.6 28.2c-0.4 0-0.7-0.3-0.7-0.7 0-0.4 0.3-0.7 0.7-0.7 0.4 0 0.7 0.3 0.7 0.7 0 0.4-0.3 0.7-0.7 0.7z"/><path fill-rule="evenodd" class="m" d="m11.3 32.2c-0.4 0-0.7-0.3-0.7-0.7 0-0.4 0.3-0.7 0.7-0.7 0.4 0 0.7 0.3 0.7 0.7 0 0.4-0.3 0.7-0.7 0.7z"/><path class="o" d="m11.3 49.6c-0.1 0-0.2 0-0.2-0.2v-1.9h0.4v1.9c0 0.2-0.1 0.2-0.2 0.2z"/><path class="o" d="m11.2 47.6v1.8c0 0.1 0 0.2 0.1 0.2 0.1 0 0.2-0.1 0.2-0.2v-1.8z"/><path class="o" d="m13.1 51.3c-0.1 0-0.2-0.1-0.2-0.2v-3.6h0.4v3.6c0 0.1-0.1 0.2-0.2 0.2z"/><path class="o" d="m13 47.6v3.5c0 0.1 0.1 0.2 0.1 0.2 0.1 0 0.2-0.1 0.2-0.2v-3.5z"/><path class="o" d="m15.4 52.5c-0.2 0-0.2-0.1-0.2-0.2v-2.3q0-0.1 0-0.1l2.3-1.6-0.1-0.7v-0.1h0.4v1q0 0 0 0.1l-2.3 1.5 0.1 2.2c0 0.1-0.1 0.2-0.2 0.2z"/><path class="o" d="m17.5 47.6v0.8l-2.2 1.5q-0.1 0.1-0.1 0.1v2.3c0 0.1 0.1 0.2 0.2 0.2 0 0 0.1-0.1 0.1-0.2v-2.2l2.2-1.5q0.1-0.1 0.1-0.1v-0.9z"/><path class="o" d="m17.9 54.1c-0.1 0-0.2-0.1-0.2-0.2v-2.5q0-0.1 0.1-0.1l1.6-1.6v-2.2h0.4v2.3q0 0.1-0.1 0.1l-1.6 1.6v2.4c0 0.1-0.1 0.2-0.2 0.2z"/><path class="o" d="m19.5 47.6v2.1l-1.7 1.6q0 0.1 0 0.1v2.5c0 0.1 0 0.1 0.1 0.1 0.1 0 0.1 0 0.1-0.1v-2.4l1.7-1.6q0 0 0-0.1v-2.2z"/><path class="o" d="m21.3 50.1c-0.2 0-0.2-0.1-0.2-0.2v-2.4h0.4v2.4c0 0.1-0.1 0.2-0.2 0.2z"/><path class="o" d="m21.1 47.6v2.3c0 0.1 0.1 0.1 0.2 0.1 0 0 0.1 0 0.1-0.1v-2.3z"/><path fill-rule="evenodd" class="m" d="m11.3 50.4c-0.4 0-0.7-0.3-0.7-0.7 0-0.4 0.3-0.7 0.7-0.7 0.4 0 0.7 0.3 0.7 0.7 0 0.4-0.3 0.7-0.7 0.7z"/><path fill-rule="evenodd" class="m" d="m13.1 51.7c-0.4 0-0.7-0.3-0.7-0.7 0-0.4 0.3-0.7 0.7-0.7 0.4 0 0.7 0.3 0.7 0.7 0 0.4-0.3 0.7-0.7 0.7z"/><path fill-rule="evenodd" class="m" d="m15.4 53.2c-0.4 0-0.7-0.4-0.7-0.7 0-0.4 0.3-0.8 0.7-0.8 0.4 0 0.7 0.4 0.7 0.8 0 0.3-0.3 0.7-0.7 0.7z"/><path fill-rule="evenodd" class="m" d="m17.9 54.7c-0.4 0-0.7-0.3-0.7-0.7 0-0.4 0.3-0.8 0.7-0.8 0.4 0 0.7 0.4 0.7 0.8 0 0.4-0.3 0.7-0.7 0.7z"/><path fill-rule="evenodd" class="m" d="m21.3 50.7c-0.4 0-0.8-0.4-0.8-0.8 0-0.4 0.4-0.7 0.8-0.7 0.3 0 0.7 0.3 0.7 0.7 0 0.4-0.4 0.8-0.7 0.8z"/><path class="o" d="m7.6 35.9c-0.1 0-0.2-0.1-0.2-0.2 0-0.1 0.1-0.2 0.2-0.2h2v0.4z"/><path class="o" d="m9.5 35.6h-1.9c-0.1 0-0.1 0.1-0.1 0.1 0 0.1 0 0.2 0.1 0.2h1.9z"/><path class="o" d="m6 37.8c-0.1 0-0.2-0.1-0.2-0.2 0-0.1 0.1-0.2 0.2-0.2h3.6v0.4z"/><path class="o" d="m9.5 37.4h-3.5c-0.1 0-0.2 0.1-0.2 0.2 0 0 0.1 0.1 0.2 0.1h3.5z"/><path class="o" d="m8.6 42.3q-0.1 0-0.1-0.1l-1.5-2.2h-2.2c-0.1 0-0.2-0.1-0.2-0.2 0-0.1 0.1-0.2 0.2-0.2h2.3q0 0 0.1 0.1l1.5 2.2h0.8 0.1v0.4z"/><path class="o" d="m9.5 41.9h-0.8l-1.5-2.2q-0.1 0-0.1 0h-2.3c-0.1 0-0.2 0-0.2 0.1 0 0.1 0.1 0.1 0.2 0.1h2.2l1.5 2.3q0 0 0.1 0h0.9z"/><path class="o" d="m7.3 44.3q-0.1 0-0.2-0.1l-1.5-1.7-2.4 0.1c-0.1 0-0.2-0.1-0.2-0.2 0-0.1 0.1-0.2 0.2-0.2h2.5q0 0 0.1 0l1.6 1.7h2.2v0.4z"/><path class="o" d="m9.5 43.9h-2.2l-1.5-1.6q-0.1-0.1-0.1-0.1h-2.5c-0.1 0-0.1 0.1-0.1 0.2 0 0 0 0.1 0.1 0.1h2.4l1.6 1.7q0 0 0.1 0h2.2z"/><path class="o" d="m7.2 45.9c-0.1 0-0.2-0.1-0.2-0.2 0-0.1 0.1-0.2 0.2-0.2h2.4v0.4z"/><path class="o" d="m9.5 45.6h-2.3c-0.1 0-0.2 0.1-0.2 0.1 0 0.1 0.1 0.2 0.2 0.2h2.3z"/><path fill-rule="evenodd" class="m" d="m7.3 36.5c-0.3 0-0.7-0.4-0.7-0.8 0-0.4 0.4-0.7 0.7-0.7 0.4 0 0.8 0.3 0.8 0.7 0 0.4-0.4 0.8-0.8 0.8z"/><path fill-rule="evenodd" class="m" d="m6.1 38.2c-0.4 0-0.7-0.3-0.7-0.7 0-0.4 0.3-0.7 0.7-0.7 0.4 0 0.7 0.3 0.7 0.7 0 0.4-0.3 0.7-0.7 0.7z"/><path fill-rule="evenodd" class="m" d="m4.6 40.6c-0.4 0-0.7-0.4-0.7-0.8 0-0.4 0.3-0.7 0.7-0.7 0.4 0 0.8 0.3 0.8 0.7 0 0.4-0.4 0.8-0.8 0.8z"/><path fill-rule="evenodd" class="m" d="m3.1 43.1c-0.4 0-0.7-0.3-0.7-0.7 0-0.4 0.3-0.7 0.7-0.7 0.4 0 0.7 0.3 0.7 0.7 0 0.4-0.3 0.7-0.7 0.7z"/><path fill-rule="evenodd" class="m" d="m7.1 46.5c-0.4 0-0.7-0.4-0.7-0.8 0-0.4 0.3-0.7 0.7-0.7 0.4 0 0.7 0.3 0.7 0.7 0 0.4-0.3 0.8-0.7 0.8z"/><path class="o" d="m23 45.9v-0.4h1.9c0.2 0 0.2 0.1 0.2 0.2 0 0.1 0 0.2-0.2 0.2z"/><path class="o" d="m23.1 45.9h1.8c0.1 0 0.2-0.1 0.2-0.2 0 0-0.1-0.1-0.2-0.1h-1.8z"/><path class="o" d="m23 44.1v-0.4h3.6c0.1 0 0.2 0.1 0.2 0.2 0 0.1-0.1 0.2-0.2 0.2z"/><path class="o" d="m23.1 44h3.5c0.1 0 0.1 0 0.1-0.1 0-0.1 0-0.1-0.1-0.1h-3.5z"/><path class="o" d="m25.5 41.9q-0.1 0-0.1-0.1l-1.5-2.2h-0.8-0.1v-0.4h1q0 0 0.1 0l1.5 2.3h2.2c0.1 0 0.2 0.1 0.2 0.2 0 0.1-0.1 0.2-0.2 0.2z"/><path class="o" d="m23.1 39.5h0.8l1.5 2.3q0 0 0.1 0h2.3c0.1 0 0.1-0.1 0.1-0.1 0-0.1 0-0.2-0.1-0.2h-2.2l-1.5-2.2q-0.1-0.1-0.1-0.1h-0.9z"/><path class="o" d="m26.9 39.3q-0.1 0-0.1-0.1l-1.6-1.6h-2.2v-0.4h2.3q0.1 0 0.1 0.1l1.6 1.6h2.4c0.1 0 0.2 0.1 0.2 0.2 0 0.1-0.1 0.2-0.2 0.2z"/><path class="o" d="m23.1 37.5h2.1l1.6 1.7q0.1 0 0.1 0h2.5c0 0 0.1 0 0.1-0.1 0-0.1-0.1-0.1-0.1-0.1h-2.4l-1.6-1.7q-0.1 0-0.1 0h-2.2z"/><path class="o" d="m23 35.9v-0.4h2.4c0.1 0 0.2 0.1 0.2 0.2 0 0.1-0.1 0.2-0.2 0.2z"/><path class="o" d="m23.1 35.9h2.3c0.1 0 0.1-0.1 0.1-0.2 0 0 0-0.1-0.1-0.1h-2.3z"/><path fill-rule="evenodd" class="m" d="m25.2 46.5c-0.4 0-0.7-0.4-0.7-0.8 0-0.4 0.3-0.7 0.7-0.7 0.4 0 0.7 0.3 0.7 0.7 0 0.4-0.3 0.8-0.7 0.8z"/><path fill-rule="evenodd" class="m" d="m26.5 44.7c-0.4 0-0.7-0.3-0.7-0.7 0-0.4 0.3-0.8 0.7-0.8 0.4 0 0.7 0.4 0.7 0.8 0 0.4-0.3 0.7-0.7 0.7z"/><path fill-rule="evenodd" class="m" d="m27.9 42.3c-0.4 0-0.7-0.3-0.7-0.7 0-0.4 0.3-0.7 0.7-0.7 0.4 0 0.7 0.3 0.7 0.7 0 0.4-0.3 0.7-0.7 0.7z"/><path fill-rule="evenodd" class="m" d="m29.4 39.8c-0.4 0-0.7-0.3-0.7-0.7 0-0.4 0.3-0.7 0.7-0.7 0.4 0 0.7 0.3 0.7 0.7 0 0.4-0.3 0.7-0.7 0.7z"/><path fill-rule="evenodd" class="m" d="m25.4 36.5c-0.4 0-0.7-0.4-0.7-0.8 0-0.4 0.3-0.7 0.7-0.7 0.4 0 0.7 0.3 0.7 0.7 0 0.4-0.3 0.8-0.7 0.8z"/><path fill-rule="evenodd" class="f" d="m26.5 56.3v1.8h-20.4v-1.8z"/><path class="f" d="m9.6 59.7h13.3v1.7h-13.3z"/></svg>