<svg version="1.2" xmlns="http://www.w3.org/2000/svg" viewBox="0 0 70 66" width="70" height="66"><style>.a{fill:#ecf0f1}.b{fill:#3b97d3}.c{fill:#547580}.d{fill:#3f5c6c}.e{fill:#65ddb9}.f{fill:#4fba6f}.g{fill:#f0c419}.h{fill:#90bae1}.i{fill:#b0d3f0}.j{fill:#e64c3c}</style><path fill-rule="evenodd" class="a" d="m66.4 17.5v38.4h-62.8v-38.4z"/><path class="b" d="m66.4 12.7v7.2h-62.8v-7.2c0-1.4 1.1-2.4 2.4-2.4h58c1.3 0 2.4 1 2.4 2.4z"/><path class="c" d="m1.2 53.5h67.6c0.7 0 1.2 0.5 1.2 1.2v3.6c0 4-3.2 7.2-7.2 7.2h-55.6c-4 0-7.2-3.2-7.2-7.2v-3.6c0-0.7 0.5-1.2 1.2-1.2z"/><path class="d" d="m48.3 53.5l-4.1 5.1c-0.5 0.5-1.2 0.9-1.9 0.9h-14.6c-0.7 0-1.4-0.4-1.9-0.9l-4.1-5.1z"/><path fill-rule="evenodd" class="e" d="m12.1 60.7c-0.7 0-1.2-0.6-1.2-1.2 0-0.7 0.5-1.2 1.2-1.2 0.6 0 1.2 0.5 1.2 1.2 0 0.6-0.6 1.2-1.2 1.2z"/><path fill-rule="evenodd" class="e" d="m7.2 60.7c-0.6 0-1.2-0.6-1.2-1.2 0-0.7 0.6-1.2 1.2-1.2 0.7 0 1.2 0.5 1.2 1.2 0 0.6-0.5 1.2-1.2 1.2z"/><path class="d" d="m19.3 60.7h-2.4c-0.7 0-1.2-0.6-1.2-1.2 0-0.7 0.5-1.2 1.2-1.2h2.4c0.7 0 1.2 0.5 1.2 1.2 0 0.6-0.5 1.2-1.2 1.2z"/><path fill-rule="evenodd" class="f" d="m8.4 16.3c-0.6 0-1.2-0.6-1.2-1.2 0-0.7 0.6-1.2 1.2-1.2 0.7 0 1.3 0.5 1.3 1.2 0 0.6-0.6 1.2-1.3 1.2z"/><path fill-rule="evenodd" class="g" d="m13.3 16.3c-0.7 0-1.2-0.6-1.2-1.2 0-0.7 0.5-1.2 1.2-1.2 0.6 0 1.2 0.5 1.2 1.2 0 0.6-0.6 1.2-1.2 1.2z"/><path fill-rule="evenodd" class="h" d="m25.3 0.7h19.4c2.6 0 4.8 2.1 4.8 4.8v36c0 2.6-2.2 4.8-4.8 4.8h-19.4c-2.6 0-4.8-2.2-4.8-4.8v-36c0-2.7 2.2-4.8 4.8-4.8z"/><path class="i" d="m49.5 5.5v1.2c0 0-27 1.1-28.9 35.8q-0.1-0.5-0.1-1v-36c0-2.7 2.2-4.8 4.8-4.8h19.4c2.6 0 4.8 2.1 4.8 4.8z"/><path class="c" d="m44.7 0.7l-1.8 3.4c-0.4 0.8-1.2 1.4-2.2 1.4h-11.4c-1 0-1.8-0.6-2.2-1.4l-1.8-3.4"/><path class="c" d="m43.4 42.7h-16.8c-0.7 0-1.3-0.6-1.3-1.2 0-0.7 0.6-1.2 1.3-1.2h16.8c0.7 0 1.3 0.5 1.3 1.2 0 0.6-0.6 1.2-1.3 1.2z"/><path class="j" d="m42.6 28.1c2.7-3.4 2.7-8.3 0-11.7l0.5-0.5c0.5-0.5 0.4-1.2 0-1.7-0.5-0.4-1.2-0.4-1.7 0l-0.5 0.5c-3.5-2.7-8.3-2.7-11.8 0l-0.5-0.5c-0.5-0.4-1.2-0.4-1.7 0-0.4 0.5-0.4 1.2 0 1.7l0.5 0.5c-2.7 3.4-2.7 8.3 0 11.7l-0.5 0.5c-0.3 0.3-0.4 0.8-0.3 1.2 0.1 0.4 0.4 0.7 0.8 0.8q0.7 0.2 1.2-0.3l0.5-0.5c3.5 2.7 8.3 2.7 11.8 0l0.5 0.5c0.5 0.5 1.2 0.5 1.7 0 0.4-0.5 0.5-1.2 0-1.7zm-7.6 1.3c-1.5 0-3-0.4-4.2-1.3l0.2-0.2c0.5-0.5 0.4-1.2 0-1.7-0.5-0.5-1.2-0.5-1.7 0l-0.2 0.2c-1.8-2.5-1.8-5.8 0-8.3l0.2 0.2c0.5 0.4 1.2 0.4 1.7 0 0.4-0.5 0.5-1.2 0-1.7l-0.2-0.2c2.5-1.8 5.9-1.8 8.4 0l-0.3 0.2q-0.4 0.5-0.3 1.2c0.1 0.4 0.5 0.7 0.9 0.8 0.4 0.1 0.9 0 1.2-0.3l0.2-0.2c1.8 2.5 1.8 5.8 0 8.3l-0.2-0.2c-0.5-0.5-1.3-0.5-1.7 0-0.5 0.5-0.5 1.2-0.1 1.7l0.3 0.2c-1.3 0.9-2.7 1.3-4.2 1.3z"/><path fill-rule="evenodd" class="j" d="m35 23.5c-0.7 0-1.2-0.6-1.2-1.2 0-0.7 0.5-1.2 1.2-1.2 0.7 0 1.2 0.5 1.2 1.2 0 0.6-0.5 1.2-1.2 1.2z"/></svg>