<svg version="1.2" xmlns="http://www.w3.org/2000/svg" viewBox="0 0 67 71" width="67" height="71"><style>.a{fill:#d7deed}.b{fill:#afb9d2}.c{fill:#3f4751}.d{fill:#07cc66}.e{fill:#33383f}.f{fill:#5cbeff}.g{fill:#3256c1}.h{fill:#ffd400}.i{fill:#95a5a5}.j{fill:#fff}.k{fill:#99a7c1}</style><path fill-rule="evenodd" class="a" d="m53.2 9.5v51.9h-39.9v-51.9z"/><path class="b" d="m16.4 12.6v45.7h33.7c0-2 0-43.7 0-45.7z"/><path class="c" d="m53.2 61.2v3c0 3.4-2.8 6.2-6.2 6.2h-27.5c-3.4 0-6.2-2.8-6.2-6.2v-3z"/><path fill-rule="evenodd" class="d" d="m58.2 45.4c-1.1 0-2-0.9-2-2 0-1 0.9-1.9 2-1.9 1 0 1.9 0.9 1.9 1.9 0 1.1-0.9 2-1.9 2z"/><path fill-rule="evenodd" class="d" d="m62.4 14.1c-2.1 0-3.9-1.7-3.9-3.8 0-2.1 1.8-3.8 3.9-3.8 2.1 0 3.8 1.7 3.8 3.8 0 2.1-1.7 3.8-3.8 3.8z"/><path fill-rule="evenodd" class="d" d="m4.5 59.8c-2.3 0-4.2-1.8-4.2-4.2 0-2.3 1.9-4.1 4.2-4.1 2.4 0 4.2 1.8 4.2 4.1 0 2.4-1.8 4.2-4.2 4.2z"/><path fill-rule="evenodd" class="e" d="m33.3 68.2c-1.3 0-2.3-1-2.3-2.3 0-1.2 1-2.2 2.3-2.2 1.2 0 2.3 1 2.3 2.2 0 1.3-1.1 2.3-2.3 2.3z"/><path class="c" d="m53.2 6.7v3h-39.9v-3c0-3.4 2.8-6.2 6.2-6.2h27.5c3.4 0 6.2 2.8 6.2 6.2z"/><path class="f" d="m33.3 40.4c2.6 0 4.7 2.1 4.7 4.7 0 2.5-2.1 4.6-4.7 4.6-2.6 0-4.8-2.1-4.8-4.6 0-2.6 2.2-4.7 4.8-4.7zm1.9 4.7c0-1.1-0.9-2-1.9-2-1.1 0-2 0.9-2 2 0 1 0.9 1.9 2 1.9 1 0 1.9-0.9 1.9-1.9z"/><path class="g" d="m43.5 44.1v1.9l-2.9 0.7q-0.3 1.3-1 2.3l1.6 2.6-1.4 1.4-2.5-1.6q-1.1 0.7-2.4 0.9l-0.7 3h-1.9l-0.7-3q-1.3-0.2-2.4-0.9l-2.5 1.6-1.4-1.4 1.6-2.5q-0.7-1.1-1-2.4l-2.9-0.7v-1.9l2.9-0.7q0.3-1.3 1-2.4l-1.6-2.5 1.4-1.4 2.5 1.6q1.1-0.6 2.4-0.9l0.7-3h1.9l0.7 3q1.3 0.3 2.4 0.9l2.5-1.6 1.4 1.4-1.6 2.5q0.7 1.1 1 2.4zm-5.6 1c0-2.6-2.1-4.7-4.7-4.7-2.6 0-4.7 2.1-4.7 4.7 0 2.6 2.1 4.7 4.7 4.7 2.6 0 4.7-2.1 4.7-4.7z"/><path fill-rule="evenodd" class="h" d="m33.3 31.6c-4.7 0-8.5-3.7-8.5-8.4 0-4.6 3.8-8.3 8.5-8.3 4.6 0 8.4 3.7 8.4 8.3 0 4.7-3.8 8.4-8.4 8.4z"/><path fill-rule="evenodd" class="i" d="m65.1 53.7c-0.7 0-1.2-0.5-1.2-1.1 0-0.6 0.5-1.1 1.2-1.1 0.6 0 1.1 0.5 1.1 1.1 0 0.6-0.5 1.1-1.1 1.1z"/><path fill-rule="evenodd" class="i" d="m62.8 27.8c-0.7 0-1.2-0.5-1.2-1.1 0-0.7 0.5-1.2 1.2-1.2 0.6 0 1.1 0.5 1.1 1.2 0 0.6-0.5 1.1-1.1 1.1z"/><path fill-rule="evenodd" class="i" d="m58.2 64.4c-0.7 0-1.2-0.5-1.2-1.1 0-0.7 0.5-1.2 1.2-1.2 0.6 0 1.1 0.5 1.1 1.2 0 0.6-0.5 1.1-1.1 1.1z"/><path fill-rule="evenodd" class="i" d="m57.4 4.2c-0.6 0-1.2-0.5-1.2-1.2 0-0.6 0.6-1.1 1.2-1.1 0.6 0 1.1 0.5 1.1 1.1 0 0.7-0.5 1.2-1.1 1.2z"/><path fill-rule="evenodd" class="i" d="m8.4 38.5c-0.7 0-1.2-0.5-1.2-1.2 0-0.6 0.5-1.1 1.2-1.1 0.6 0 1.1 0.5 1.1 1.1 0 0.7-0.5 1.2-1.1 1.2z"/><path fill-rule="evenodd" class="i" d="m6.8 69c-0.6 0-1.1-0.5-1.1-1.2 0-0.6 0.5-1.1 1.1-1.1 0.7 0 1.2 0.5 1.2 1.1 0 0.7-0.5 1.2-1.2 1.2z"/><path fill-rule="evenodd" class="i" d="m5.3 5.7c-0.6 0-1.2-0.5-1.2-1.1 0-0.7 0.6-1.2 1.2-1.2 0.6 0 1.1 0.5 1.1 1.2 0 0.6-0.5 1.1-1.1 1.1z"/><path fill-rule="evenodd" class="i" d="m3 25.5c-0.6 0-1.2-0.5-1.2-1.1 0-0.6 0.6-1.2 1.2-1.2 0.6 0 1.1 0.6 1.1 1.2 0 0.6-0.5 1.1-1.1 1.1z"/><path class="j" d="m36.3 25.5c-0.2 0-0.5-0.1-0.6-0.3-0.2-0.4-0.2-0.8 0.2-1.1l1.3-0.9-1.3-0.8c-0.4-0.3-0.4-0.8-0.2-1.1 0.2-0.4 0.7-0.4 1.1-0.2l2.2 1.5c0.3 0.2 0.4 0.4 0.4 0.6 0 0.3-0.1 0.5-0.4 0.7l-2.2 1.5q-0.3 0.1-0.5 0.1z"/><path class="j" d="m30.2 25.5q-0.2 0-0.4-0.1l-2.3-1.5c-0.2-0.2-0.4-0.4-0.4-0.7 0-0.2 0.2-0.4 0.4-0.6l2.3-1.5c0.3-0.2 0.8-0.2 1 0.2 0.3 0.3 0.2 0.8-0.2 1.1l-1.3 0.8 1.3 0.9c0.4 0.3 0.5 0.7 0.2 1.1-0.1 0.2-0.4 0.3-0.6 0.3z"/><path class="j" d="m31.7 28.6q-0.1 0-0.2-0.1c-0.4-0.1-0.6-0.5-0.5-0.9l3.1-9.2c0.1-0.4 0.5-0.6 0.9-0.5 0.4 0.2 0.7 0.6 0.5 1l-3 9.2c-0.2 0.3-0.5 0.5-0.8 0.5z"/><path class="e" d="m36.3 5.7h-6.2c-0.4 0-0.7-0.3-0.7-0.8 0-0.4 0.3-0.7 0.7-0.7h6.2c0.4 0 0.8 0.3 0.8 0.7 0 0.5-0.4 0.8-0.8 0.8z"/><path class="k" d="m44.8 30.9c0 0.4 0.3 0.7 0.7 0.7h4.6q0-0.7 0-1.5h-4.6c-0.4 0-0.7 0.3-0.7 0.8z"/><path class="k" d="m44.8 33.9c0 0.4 0.3 0.8 0.7 0.8h4.6q0-0.8 0-1.5h-4.6c-0.4 0-0.7 0.3-0.7 0.7z"/><path class="k" d="m44.8 37c0 0.4 0.3 0.7 0.7 0.7h4.6q0-0.7 0-1.5h-4.6c-0.4 0-0.7 0.3-0.7 0.8z"/><path class="k" d="m21.8 30.9c0-0.5-0.4-0.8-0.8-0.8h-4.6v1.5h4.6c0.4 0 0.8-0.3 0.8-0.7z"/><path class="k" d="m21.8 33.9c0-0.4-0.4-0.7-0.8-0.7h-4.6v1.5h4.6c0.4 0 0.8-0.4 0.8-0.8z"/><path class="k" d="m21.8 37c0-0.5-0.4-0.8-0.8-0.8h-4.6v1.5h4.6c0.4 0 0.8-0.3 0.8-0.7z"/></svg>