<svg version="1.2" xmlns="http://www.w3.org/2000/svg" viewBox="0 0 67 70" width="67" height="70"><style>.a{fill:#57a4ff}.b{fill:#2488ff}.c{fill:#6d6e71}.d{fill:#ffcd00}.e{fill:#ff3051}.f{fill:#f1f2f2}.g{fill:#006df0}</style><path fill-rule="evenodd" class="a" d="m4.7 1.2h32.9c2.6 0 4.7 2.1 4.7 4.6v58.4c0 2.5-2.1 4.6-4.7 4.6h-32.9c-2.6 0-4.7-2.1-4.7-4.6v-58.4c0-2.5 2.1-4.6 4.7-4.6z"/><path class="b" d="m0 28v36.2q0 0.9 0.4 1.8 0.3 0.8 1 1.5 0.6 0.6 1.5 1 0.9 0.3 1.8 0.3h32.2c-21.2-4.4-36.9-21-36.9-40.8z"/><path class="c" d="m10.6 8.2h21.1q0.5 0 0.9-0.2 0.5-0.2 0.8-0.5 0.3-0.3 0.5-0.8 0.2-0.4 0.2-0.9v-4.6h-25.9v4.6q0 0.5 0.2 0.9 0.2 0.5 0.5 0.8 0.3 0.3 0.8 0.5 0.4 0.2 0.9 0.2z"/><path fill-rule="evenodd" class="d" d="m42.3 56c-11.7 0-21.1-9.4-21.1-21 0-11.6 9.4-21 21.1-21 11.7 0 21.2 9.4 21.2 21 0 11.6-9.5 21-21.2 21z"/><path class="e" d="m56.4 26.8q0-0.4-0.2-0.9-0.1-0.4-0.5-0.7-0.3-0.3-0.7-0.5-0.5-0.2-0.9-0.2h-23.5q-0.5 0-0.9 0.2-0.5 0.2-0.8 0.5-0.3 0.3-0.5 0.7-0.2 0.5-0.2 0.9v2.4h28.2z"/><path class="f" d="m28.2 29.2v14q0 0.4 0.2 0.9 0.2 0.4 0.5 0.7 0.3 0.3 0.8 0.5 0.4 0.2 0.9 0.2h23.5q0.4 0 0.9-0.2 0.4-0.2 0.7-0.5 0.4-0.3 0.5-0.7 0.2-0.5 0.2-0.9v-14z"/><path fill-rule="evenodd" class="e" d="m52.9 67.7v2.3h-7.1v-2.3z"/><path class="e" d="m50.5 58.3h-2.3v2.4h-2.4v2.3h2.4v2.3h2.3v-2.3h2.4v-2.3h-2.4z"/><path class="c" d="m34.1 63h-25.9c-0.3 0-0.6 0.1-0.8 0.3-0.2 0.3-0.3 0.6-0.3 0.9 0 0.3 0.1 0.6 0.3 0.8 0.2 0.2 0.5 0.3 0.8 0.3h25.9c0.3 0 0.6-0.1 0.8-0.3 0.2-0.2 0.4-0.5 0.4-0.8 0-0.3-0.2-0.6-0.4-0.9-0.2-0.2-0.5-0.3-0.8-0.3z"/><path fill-rule="evenodd" class="e" d="m17.6 33.8v2.4h-2.3v-2.4z"/><path class="e" d="m15.9 40.8l2.3-0.6 0.6 2.3-2.3 0.6z"/><path class="e" d="m18.3 47.4l2.1-1.2 1.1 2.1-2 1.1z"/><path class="e" d="m22.4 53.1l1.6-1.6 1.7 1.6-1.7 1.7z"/><path class="e" d="m27.8 57.7l1.2-2.1 2 1.2-1.2 2z"/><path class="e" d="m15.9 29.2l0.6-2.3 2.3 0.6-0.6 2.3z"/><path class="e" d="m18.3 22.6l1.2-2 2 1.1-1.2 2.1z"/><path class="e" d="m22.4 16.9l1.6-1.7 1.7 1.7-1.7 1.6z"/><path class="e" d="m27.8 12.3l2-1.1 1.2 2-2 1.2z"/><path class="g" d="m54.1 11.7q0.2 0 0.4 0.1 0.2 0 0.4 0.2 0.2 0.2 0.3 0.4 0 0.2 0 0.4c0 0.3 0.2 0.6 0.4 0.9 0.2 0.2 0.5 0.3 0.8 0.3 0.3 0 0.6-0.1 0.9-0.3 0.2-0.3 0.3-0.6 0.3-0.9q0-0.7-0.3-1.3-0.2-0.6-0.7-1.1-0.5-0.5-1.2-0.8-0.6-0.3-1.3-0.3c-0.3 0-0.6 0.2-0.9 0.4-0.2 0.2-0.3 0.5-0.3 0.8 0 0.3 0.1 0.6 0.3 0.8 0.3 0.2 0.6 0.4 0.9 0.4z"/><path class="g" d="m54.1 0c-0.3 0-0.6 0.1-0.9 0.3-0.2 0.3-0.3 0.6-0.3 0.9 0 0.3 0.1 0.6 0.3 0.8 0.3 0.2 0.6 0.3 0.9 0.3 1.4 0 2.7 0.3 4 0.8 1.3 0.6 2.5 1.3 3.4 2.3 1 1 1.8 2.1 2.3 3.4 0.6 1.3 0.8 2.7 0.8 4 0 0.3 0.2 0.6 0.4 0.9 0.2 0.2 0.5 0.3 0.8 0.3 0.3 0 0.6-0.1 0.9-0.3 0.2-0.3 0.3-0.6 0.3-0.9 0-1.7-0.3-3.3-1-4.9-0.6-1.5-1.6-2.9-2.8-4.1-1.2-1.2-2.6-2.2-4.2-2.8-1.6-0.7-3.2-1-4.9-1z"/><path class="g" d="m54.1 7q1.1 0 2.2 0.4 1.1 0.5 1.9 1.3 0.8 0.8 1.3 1.9 0.4 1.1 0.4 2.2c0 0.3 0.2 0.6 0.4 0.9 0.2 0.2 0.5 0.3 0.8 0.3 0.3 0 0.6-0.1 0.9-0.3 0.2-0.3 0.3-0.6 0.3-0.9q0-1.6-0.6-3.1-0.7-1.5-1.8-2.6-1.2-1.2-2.7-1.8-1.5-0.6-3.1-0.6c-0.3 0-0.6 0.1-0.9 0.3-0.2 0.2-0.3 0.5-0.3 0.8 0 0.3 0.1 0.6 0.3 0.9 0.3 0.2 0.6 0.3 0.9 0.3z"/><path class="g" d="m36.9 41.8c0.3 0.2 0.6 0.2 0.9 0.2 0.3-0.1 0.6-0.2 0.8-0.5 0.1-0.2 0.2-0.5 0.2-0.8-0.1-0.3-0.2-0.6-0.5-0.8l-3.4-2.6 3.4-2.5c0.3-0.2 0.4-0.5 0.5-0.8 0-0.3-0.1-0.6-0.2-0.9-0.2-0.2-0.5-0.4-0.8-0.4-0.3-0.1-0.6 0-0.9 0.2l-4.7 3.5q-0.2 0.2-0.3 0.4-0.2 0.3-0.2 0.5 0 0.3 0.2 0.6 0.1 0.2 0.3 0.4z"/><path class="g" d="m46.1 41.5q0.1 0.2 0.3 0.3 0.2 0.2 0.5 0.2 0.2 0 0.4 0 0.2-0.1 0.4-0.2l4.7-3.5q0.2-0.2 0.4-0.4 0.1-0.3 0.1-0.6 0-0.2-0.1-0.5-0.2-0.2-0.4-0.4l-4.7-3.5c-0.2-0.2-0.5-0.3-0.8-0.2-0.4 0-0.6 0.2-0.8 0.4-0.2 0.3-0.3 0.6-0.2 0.9 0 0.3 0.2 0.6 0.4 0.8l3.5 2.5-3.5 2.6q-0.2 0.1-0.3 0.3-0.1 0.2-0.1 0.5-0.1 0.2 0 0.4 0 0.2 0.2 0.4z"/><path class="g" d="m40.9 43.1q0 0 0 0 0.1 0.1 0.1 0.1 0 0 0.1 0 0 0 0 0 0.2 0 0.4-0.1 0.2-0.1 0.4-0.2 0.1-0.1 0.2-0.3 0.1-0.1 0.2-0.3l2.3-9.3c0.1-0.3 0.1-0.7-0.1-0.9-0.2-0.3-0.4-0.5-0.7-0.6-0.3 0-0.6 0-0.9 0.2-0.3 0.1-0.5 0.4-0.6 0.7l-2.3 9.3q-0.1 0.2 0 0.5 0 0.2 0.1 0.4 0.2 0.2 0.3 0.3 0.2 0.2 0.5 0.2z"/></svg>