<svg version="1.2" xmlns="http://www.w3.org/2000/svg" viewBox="0 0 55 71" width="55" height="71"><style>.a{fill:#f9a83d}.b{fill:#ffd06c}.c{fill:#1d2943}.d{fill:#638dff}.e{fill:#4c5c75}.f{fill:#497bfe}.g{fill:#57b3fe}.h{fill:#9ea9c9}.i{fill:#fff}.j{fill:#f3f1fc}.k{fill:#dedffb}.l{fill:#b28afd}.m{fill:#dba660}.n{fill:#f45170}.o{fill:#df3260}.p{fill:#c9cee2}.q{fill:#78e75a}</style><path class="a" d="m49 14.8c0 0.9-0.6 2-1.4 2.4l-10.3 6c-0.4 0.2-0.8 0.2-1.1 0q0 0 0 0l-1.1-0.6c-0.2-0.1-0.4-0.5-0.4-0.9v-7.1c0-0.9 0.6-2 1.4-2.4l10.3-6q0.6-0.3 1-0.1l1.1 0.7c0.3 0.1 0.5 0.5 0.5 0.9z"/><path class="a" d="m36.3 23.3c-0.3-0.2-0.4-0.5-0.4-0.9v-7.1c0-0.9 0.6-2 1.3-2.4l10.4-6c0.4-0.2 0.8-0.2 1-0.1l-1.2-0.7c-0.2-0.1-0.6-0.1-1 0.1l-10.3 6c-0.8 0.4-1.4 1.5-1.4 2.4v7.1c0 0.4 0.2 0.8 0.4 0.9z"/><path class="b" d="m47.6 6.9c0.8-0.4 1.4-0.1 1.4 0.8v7.1c0 0.9-0.6 2-1.4 2.4l-10.3 6c-0.8 0.4-1.4 0.1-1.4-0.8v-7.1c0-0.9 0.6-2 1.3-2.4z"/><path class="c" d="m31.6 51v3.1c0 1-0.7 2.3-1.6 2.8l-23.4 13.4c-0.5 0.3-1 0.3-1.3 0.1q0.1 0 0.1 0l-3.9-2.2c-0.3-0.2-0.5-0.6-0.5-1.1v-3.1l-0.2-43.6v-3.1c0-1.1 0.8-2.3 1.7-2.9l23.3-13.4c0.5-0.2 0.9-0.3 1.2-0.1l3.9 2.2q0 0 0.1 0.1 0.4 0.2 0.5 1v3.1 5.1 21.4l0.1 17.2z"/><path class="d" d="m31.6 51l-26.7 15.3-0.1-43.7 26.7-15.3z"/><path class="c" d="m5.4 70.4l-3.9-2.2c-0.3-0.2-0.5-0.6-0.5-1.1v-3.1l3.9 2.3 0.1 3.1c0 0.5 0.1 0.9 0.4 1z"/><path class="e" d="m31.6 51v3.1c0 1-0.7 2.3-1.6 2.8l-23.4 13.4c-0.9 0.6-1.6 0.1-1.6-0.9l-0.1-3.1z"/><path class="c" d="m4.9 66.3l-3.9-2.3-0.2-43.6 4 2.2z"/><path class="f" d="m3.8 65.6l1.1 0.7-0.1-43.7-1-0.6z"/><path class="g" d="m31.6 51l-26.7 15.3-0.1-43.7 26.7-15.3v5.1 21.4z"/><path class="c" d="m31 3.2c-0.3-0.2-0.7-0.2-1.2 0.1l-23.3 13.4c-1 0.5-1.7 1.8-1.7 2.8v3.1l-4-2.2v-3.1c0-1.1 0.8-2.3 1.7-2.9l23.3-13.4c0.5-0.2 0.9-0.3 1.2-0.1z"/><path class="e" d="m29.8 3.3c0.9-0.5 1.7-0.1 1.7 0.9v3.1l-26.7 15.3v-3.1c0-1 0.7-2.3 1.7-2.8z"/><path class="h" d="m20.1 59.1c0.6-0.4 1.1-0.1 1.1 0.6 0 0.7-0.5 1.5-1.1 1.9l-3.6 2.1c-0.6 0.3-1.1 0-1.1-0.7 0-0.7 0.4-1.5 1-1.8z"/><path class="h" d="m22.9 9.2c0.4-0.2 0.7-0.1 0.7 0.4 0 0.4-0.3 1-0.7 1.2-0.4 0.2-0.7 0.1-0.7-0.4 0-0.4 0.3-1 0.7-1.2z"/><path class="h" d="m21 10.6c0.2-0.2 0.4 0 0.4 0.2 0 0.3-0.2 0.7-0.4 0.8l-7.8 4.5c-0.3 0.2-0.5 0-0.5-0.2 0-0.3 0.2-0.7 0.4-0.8z"/><path class="i" d="m8.4 13.4c-0.7-0.4-1.8-0.4-2.5 0-0.6 0.4-0.7 0.9-0.2 1.3q0.1-0.1 0.2-0.2c0.7-0.3 1.8-0.3 2.5 0q0.1 0.1 0.2 0.2c0.5-0.4 0.4-0.9-0.2-1.3z"/><path class="e" d="m5.9 14.5q-0.1 0.1-0.2 0.2 0.1 0.1 0.2 0.2c0.7 0.4 1.8 0.4 2.5 0q0.1-0.1 0.2-0.2-0.1-0.1-0.2-0.2c-0.7-0.3-1.8-0.3-2.5 0z"/><path class="j" d="m30.3 38.5l-22.6 12.9-1-0.6v-25.7l22.5-13 1 0.6z"/><path class="k" d="m7.7 51.4l-1-0.5v-25.8l1 0.6z"/><path class="j" d="m7.7 25.7l-1-0.6 22.5-13 1 0.6z"/><path class="i" d="m30.2 12.7l0.1 25.8-22.6 12.9v-25.7z"/><path class="l" d="m20.1 25.7l1.2-0.5v1.4l-1.2 0.8c-0.1 1-0.4 2-0.8 2.9l0.7 0.7-0.9 1.5-0.9-0.3c-0.6 0.9-1.3 1.6-2.1 2.2l-0.2 1.4-1.2 0.7-0.2-1.2q-1.1 0.4-2 0.2l-1 1.4-0.9-0.5 0.8-1.5c-0.5-0.5-0.8-1.1-0.9-1.9l-1.2 0.5v-1.4l1.2-0.9c0.1-1 0.4-1.9 0.8-2.9l-0.7-0.7 0.9-1.4 0.9 0.2c0.6-0.8 1.3-1.6 2.1-2.1l0.2-1.5 1.2-0.7 0.2 1.3c0.7-0.3 1.4-0.4 2-0.3l1-1.3 0.9 0.5-0.7 1.5c0.4 0.4 0.7 1 0.8 1.9zm-4.8 7.3c1.8-1 3.3-3.5 3.3-5.6-0.1-2-1.5-2.8-3.3-1.8-1.8 1-3.3 3.5-3.2 5.6 0 2 1.4 2.9 3.2 1.8z"/><path class="m" d="m20.9 36.6l0.8-0.4v1.1l-0.8 0.6c-0.1 0.7-0.3 1.4-0.7 2.1l0.6 0.5-0.7 1-0.6-0.2c-0.5 0.7-1 1.2-1.6 1.6l-0.1 1.1-0.9 0.5-0.1-0.9q-0.8 0.3-1.5 0.1l-0.7 1-0.6-0.3 0.5-1.1q-0.5-0.5-0.6-1.4l-0.9 0.4v-1.1l0.9-0.6q0.1-1 0.6-2.1l-0.5-0.5 0.6-1 0.7 0.2c0.4-0.7 0.9-1.2 1.5-1.6l0.1-1.1 0.9-0.5 0.1 0.9q0.9-0.3 1.5-0.1l0.7-1 0.7 0.3-0.6 1.1q0.5 0.5 0.7 1.4zm-3.5 5.3c1.3-0.7 2.3-2.5 2.3-4 0-1.5-1-2.1-2.3-1.3-1.3 0.7-2.4 2.5-2.4 4 0 1.5 1.1 2.1 2.4 1.3z"/><path class="l" d="m15.3 26.9c1.1-0.6 2.1-0.1 2.1 1.2 0 1.3-0.9 2.9-2.1 3.6-1.1 0.7-2.1 0.1-2.1-1.2 0-1.3 0.9-2.9 2.1-3.6z"/><path class="n" d="m24.3 28.3c0.8-0.4 1.5-0.1 1.5 0.9 0 1-0.7 2.1-1.5 2.6-0.8 0.5-1.5 0.1-1.5-0.9 0-0.9 0.6-2.1 1.5-2.6z"/><path class="n" d="m27.8 27.4l0.8-0.3v1l-0.8 0.6c-0.1 0.7-0.3 1.4-0.6 2.1l0.5 0.5-0.6 1.1-0.7-0.2c-0.5 0.6-1 1.1-1.5 1.5l-0.2 1.1-0.8 0.5-0.2-0.9q-0.8 0.3-1.5 0.1l-0.7 1-0.6-0.3 0.5-1.1q-0.5-0.5-0.6-1.4l-0.8 0.4-0.1-1 0.9-0.7c0.1-0.7 0.3-1.4 0.6-2l-0.5-0.5 0.6-1.1 0.7 0.2c0.4-0.6 1-1.2 1.5-1.6l0.1-1 0.9-0.6 0.2 1q0.8-0.4 1.4-0.2l0.7-1 0.7 0.4-0.5 1.1q0.4 0.4 0.6 1.3zm-3.5 5.4c1.3-0.8 2.4-2.6 2.3-4.1 0-1.5-1-2.1-2.3-1.3-1.3 0.7-2.4 2.5-2.4 4 0 1.5 1.1 2.1 2.4 1.4z"/><path fill-rule="evenodd" class="m" d="m18.4 39.8c-0.5 1.1-1.5 1.6-2.1 1.3-0.6-0.4-0.6-1.5 0-2.5 0.6-1 1.6-1.6 2.2-1.2 0.5 0.3 0.5 1.4-0.1 2.4z"/><path class="i" d="m8.3 56.5c0.9-0.6 1.7-0.2 1.7 0.9 0 1.1-0.7 2.3-1.7 2.9-0.9 0.5-1.6 0.1-1.6-1 0-1 0.7-2.3 1.6-2.8z"/><path class="i" d="m15.7 52.1c0.1-0.1 0.2 0 0.2 0.1 0 0.2-0.1 0.3-0.2 0.4l-4.6 2.6c-0.1 0.1-0.2 0-0.2-0.1 0-0.1 0.1-0.3 0.2-0.4z"/><path class="i" d="m15.7 55.7c0.1-0.1 0.2 0 0.2 0.1 0 0.2-0.1 0.3-0.2 0.4l-4.6 2.6c-0.1 0.1-0.2 0-0.2-0.1 0-0.1 0.1-0.3 0.2-0.4z"/><path class="i" d="m18 52.6c0.1-0.1 0.2 0 0.2 0.1 0 0.2-0.1 0.3-0.2 0.4l-6.9 3.9c-0.1 0.1-0.2 0-0.2-0.1 0-0.1 0.1-0.3 0.2-0.4z"/><path class="i" d="m20.5 49.5c0.9-0.6 1.6-0.1 1.6 0.9 0 1.1-0.7 2.4-1.6 2.9-0.9 0.5-1.7 0.1-1.7-1 0-1 0.7-2.3 1.7-2.8z"/><path class="i" d="m27.8 45.1c0.1-0.1 0.2 0 0.2 0.1 0 0.2-0.1 0.4-0.2 0.4l-4.6 2.6c-0.1 0.1-0.2 0.1-0.2-0.1 0-0.1 0.1-0.3 0.2-0.4z"/><path class="i" d="m27.8 48.7c0.2-0.1 0.3 0 0.3 0.1 0 0.2-0.1 0.4-0.3 0.4l-4.5 2.7c-0.2 0-0.3 0-0.3-0.2 0-0.1 0.1-0.3 0.3-0.4z"/><path class="i" d="m30.1 45.6c0.1-0.1 0.2 0 0.2 0.1 0 0.2-0.1 0.3-0.2 0.4l-6.8 4c-0.2 0-0.3 0-0.3-0.2 0-0.1 0.1-0.3 0.3-0.4z"/><path class="k" d="m54.6 49.7c0 1.6-1.1 3.4-2.4 4.2l-19 10.9c-0.7 0.4-1.3 0.4-1.8 0.1q0 0 0 0l-1.9-1.1c-0.5-0.3-0.7-0.8-0.7-1.6l-0.1-21v-1.3c0-1.6 1.1-3.5 2.4-4.2l19-10.9c0.6-0.4 1.2-0.4 1.7-0.2l1.9 1.1 0.1 0.1q0 0 0 0c0.4 0.3 0.7 0.8 0.7 1.6v1.3z"/><path class="k" d="m31.5 65l-2-1.2c-0.5-0.3-0.7-0.8-0.7-1.6l-0.1-21 2 1.2 0.1 21c0 0.8 0.3 1.3 0.7 1.6z"/><path class="j" d="m30.7 42.4l23.8-13.7 0.1 21c0 1.6-1.1 3.4-2.4 4.2l-19 10.9c-1.3 0.8-2.4 0.1-2.4-1.4z"/><path class="i" d="m53.6 49.7c0 1.2-0.9 2.7-2 3.3l-18.9 10.9c-0.3 0.2-0.5 0.2-0.6 0.2-0.2 0-0.3-0.5-0.3-0.7v-20.4l21.7-12.5z"/><path class="o" d="m54.5 27.4v1.3l-23.8 13.7-2-1.2v-1.3c0-1.6 1.1-3.5 2.4-4.2l19-10.9c0.6-0.4 1.2-0.4 1.7-0.2l1.9 1.1 0.1 0.1q0 0 0 0c0.4 0.3 0.7 0.8 0.7 1.6z"/><path class="n" d="m52.1 26c1.3-0.8 2.4-0.2 2.4 1.4v1.3l-23.8 13.7v-1.4c0-1.5 1.1-3.4 2.5-4.2z"/><path class="o" d="m51.8 24.6c-0.5-0.2-1.1-0.2-1.8 0.2l-18.9 10.9c-1.3 0.7-2.4 2.6-2.4 4.2v1.3l2 1.2v-1.4c0-1.5 1.1-3.4 2.5-4.2l18.9-10.8c0.6-0.4 1.3-0.5 1.7-0.2z"/><path class="e" d="m39.5 45.4v0.8l-3.8 2.2v-0.8z"/><path class="e" d="m36.9 44.3l-2.5 3.9-0.5-0.3 1.9-2.9-1.9-0.8 0.5-0.9z"/><path class="l" d="m35.4 56.9v2.8l-2.6 1.3v-2.7z"/><path class="k" d="m39.3 54.8v0.8l-1.8 0.9v-0.7z"/><path class="p" d="m52.2 48v0.8l-7.5 3.9v-0.7z"/><path class="k" d="m43.8 52.4v0.8l-3.4 1.8v-0.7z"/><path class="k" d="m39.3 56.8v0.8l-1.7 0.9-0.1-0.8z"/><path class="k" d="m49.7 51.2v0.8l-9.3 5v-0.8z"/><path class="n" d="m35.4 51.7v2.8l-2.6 1.3v-2.7z"/><path class="k" d="m39.3 49.6v0.8l-1.8 0.9v-0.7z"/><path class="b" d="m52.2 42.8v0.8l-7.5 3.9v-0.7z"/><path class="k" d="m43.8 47.2v0.8l-3.4 1.8v-0.7z"/><path class="k" d="m39.3 51.6v0.8l-1.7 0.9-0.1-0.8z"/><path class="k" d="m49.7 46.1v0.7l-9.3 5v-0.8z"/><path class="i" d="m33.3 37.9c0.6-0.3 1-0.1 1 0.5 0 0.6-0.4 1.4-1 1.7-0.5 0.3-0.9 0.1-0.9-0.5 0-0.6 0.4-1.4 0.9-1.7z"/><path class="i" d="m36.2 36.3c0.5-0.3 0.9-0.1 0.9 0.5 0 0.6-0.4 1.4-0.9 1.7-0.6 0.3-1 0-1-0.6 0-0.6 0.4-1.3 1-1.6z"/><path class="i" d="m39 34.7c0.5-0.4 1-0.1 1 0.5 0 0.6-0.5 1.4-1 1.7-0.6 0.3-1 0-1-0.6 0-0.6 0.4-1.3 1-1.6z"/><path class="i" d="m51.9 27.2c0.5-0.3 1 0 1 0.6 0 0.6-0.5 1.3-1 1.6l-7.4 4.3c-0.5 0.3-1 0-1-0.6 0-0.6 0.5-1.3 1-1.6z"/><path class="m" d="m52.2 38.1v0.7l-7.5 4v-0.8z"/><path class="k" d="m43.8 42.5v0.8l-3.4 1.8v-0.8z"/><path class="k" d="m49.7 41.3v0.8l-9.3 5v-0.8z"/><path class="q" d="m52.2 32.9v0.7l-7.5 4v-0.8z"/><path class="k" d="m43.8 37.3v0.8l-3.4 1.8v-0.8z"/><path class="k" d="m49.7 36.1v0.8l-9.3 5v-0.8z"/><path class="c" d="m40.9 14.1q0.2-0.1 0.3 0c0.1 0.1 0.1 0.3-0.1 0.5l-1.2 1.9 1.2 0.5c0.2 0 0.2 0.2 0.1 0.5q-0.1 0.2-0.3 0.2-0.1 0.1-0.2 0.1l-1.4-0.6q-0.1-0.1-0.1-0.2 0-0.2 0.1-0.4l1.4-2.3q0.1-0.1 0.2-0.2z"/><path class="c" d="m43.5 11.5q0.1-0.1 0.1-0.1c0.2 0 0.3 0.2 0.2 0.4l-2.1 6.5q-0.1 0.2-0.3 0.3l-0.1 0.1c-0.2 0-0.3-0.2-0.2-0.4l2.1-6.5c0.1-0.1 0.2-0.3 0.3-0.3z"/><path class="c" d="m44 12.4q0.1-0.1 0.2-0.1l1.4 0.7q0.1 0 0.1 0.2 0 0.1-0.1 0.3l-1.4 2.3q-0.1 0.1-0.2 0.2-0.2 0.1-0.3 0c-0.1-0.1-0.1-0.3 0.1-0.5l1.1-1.9-1.1-0.5c-0.2 0-0.2-0.2-0.1-0.5q0.1-0.1 0.3-0.2z"/></svg>