<svg version="1.2" xmlns="http://www.w3.org/2000/svg" viewBox="0 0 70 70" width="70" height="70"><style>.a{fill:#454545}.b{fill:#2c2c2c}.c{fill:#108be1}.d{fill:#0c6bc3}.e{fill:#fabb53}.f{fill:#f99944}.g{fill:#e9293a}.h{fill:#fe6559}.i{fill:#d42032}.j{fill:#e8edf2}.k{fill:#c4d3e4}.l{fill:#fff}</style><path class="a" d="m69 63.9c0 0.8-0.3 1.6-0.9 2.3-0.6 0.5-1.4 0.9-2.4 0.9h-63.4c-1.9 0-3.3-1.5-3.3-3.2 0-1 0.3-1.8 0.9-2.4 0.6-0.6 1.4-0.9 2.4-0.9h63.4c1.9 0 3.3 1.4 3.3 3.3z"/><path class="b" d="m-1 64.1c0.1 1.7 1.5 3 3.3 3h63.4c1 0 1.8-0.4 2.4-0.9 0.5-0.6 0.8-1.2 0.9-2.1z"/><path fill-rule="evenodd" class="c" d="m13.2 69.9c-3.3 0-6-2.7-6-6.1 0-3.3 2.7-6.1 6-6.1 3.3 0 6 2.8 6 6.1 0 3.4-2.7 6.1-6 6.1z"/><path class="d" d="m13.2 57.7v12.2c3.4 0 6-2.8 6-6 0-3.4-2.6-6.2-6-6.2z"/><path fill-rule="evenodd" class="e" d="m34 69.9c-3.3 0-6-2.7-6-6.1 0-3.3 2.7-6.1 6-6.1 3.3 0 6 2.8 6 6.1 0 3.4-2.7 6.1-6 6.1z"/><path class="f" d="m34 57.7v12.2c3.4 0 6-2.8 6-6 0-3.4-2.6-6.2-6-6.2z"/><path fill-rule="evenodd" class="g" d="m54.8 69.9c-3.3 0-6-2.7-6-6.1 0-3.3 2.7-6.1 6-6.1 3.3 0 6 2.8 6 6.1 0 3.4-2.7 6.1-6 6.1z"/><path class="h" d="m51.6 66.2q-0.6 0-1-0.7-0.4-0.8-0.4-1.7c0-0.7 0.2-1.4 0.5-2 0.4-0.5 1-0.7 1.6-0.3 0.4 0.2 0.6 0.9 0.3 1.4q-0.2 0.4-0.2 0.9 0 0.4 0.2 0.7c0.2 0.6 0 1.2-0.6 1.4q-0.2 0.3-0.4 0.3z"/><path class="i" d="m54.8 57.7v12.2c3.4 0 6-2.8 6-6 0-3.4-2.6-6.2-6-6.2z"/><path class="c" d="m58.9 5.5v19.2h-49.8v-19.2c0-3 2.4-5.4 5.3-5.4h39.2c2.9 0 5.3 2.4 5.3 5.4z"/><path class="d" d="m58.9 19.5v-14c0-3-2.4-5.4-5.3-5.4h-19.6v19.4z"/><path class="j" d="m58.9 14.1v29.6c0 3.5-2.8 6.4-6.3 6.4h-11.6c-0.7 0-1.4 0.3-1.9 0.9l-2.8 3.5c-0.9 1.2-2.7 1.2-3.6 0l-2.9-3.5c-0.4-0.6-1-0.9-1.8-0.9h-13.6c-2.9 0-5.3-2.4-5.3-5.4v-30.7c0-3 2.4-5.3 5.3-5.3h39.2c2.9 0 5.3 2.3 5.3 5.4z"/><path class="k" d="m53.6 8.7h-19.6v46.6c0.8 0.1 1.8-0.1 2.3-0.8l2.8-3.5c0.5-0.6 1.2-0.9 1.9-0.9h11.6c3.5 0 6.3-2.9 6.3-6.4v-29.6c0-3.1-2.4-5.4-5.3-5.4z"/><path class="l" d="m17.9 4.3c0 0.7-0.6 1.4-1.5 1.4h-1.2c-0.8 0-1.4-0.7-1.4-1.4 0-0.9 0.6-1.6 1.4-1.6h1.2c0.9 0 1.5 0.7 1.5 1.6z"/><path class="l" d="m24.5 4.3c0 0.7-0.7 1.4-1.4 1.4h-1.2c-0.9 0-1.6-0.7-1.6-1.4 0-0.9 0.7-1.6 1.6-1.6h1.2c0.7 0 1.4 0.7 1.4 1.6z"/><path class="l" d="m31.2 4.3c0 0.7-0.7 1.4-1.6 1.4h-1.2c-0.7 0-1.4-0.7-1.4-1.4 0-0.9 0.7-1.6 1.4-1.6h1.2c0.9 0 1.6 0.7 1.6 1.6z"/><path class="l" d="m10.3 43.1v-1.1c0-0.3 0.1-0.7 0.3-0.9 0.2-0.2 0.5-0.3 0.9-0.3 0.6 0 1.1 0.5 1.1 1.2v1.1c0 0.6-0.5 1.2-1.1 1.2-0.7 0-1.2-0.6-1.2-1.2z"/><path class="l" d="m10.3 38.2v-7.9c0-0.3 0.1-0.7 0.3-0.9 0.2-0.2 0.5-0.3 0.9-0.3 0.6 0 1.1 0.5 1.1 1.2v7.9c0 0.6-0.5 1.2-1.1 1.2-0.7 0-1.2-0.6-1.2-1.2z"/><path class="g" d="m52.6 42.9c-0.3 0.3-0.7 0.4-1.1 0.4h-18.3c-0.4 0-0.7-0.1-1.1-0.4-0.2-0.3-0.4-0.7-0.4-1.1 0-0.9 0.7-1.6 1.5-1.6h18.2c0.6 0 1.2 0.4 1.5 0.9 0.2 0.7 0.1 1.3-0.3 1.8z"/><path class="g" d="m29 41.8c0 0.8-0.7 1.5-1.6 1.5h-10.7c-1 0-1.8-0.8-1.7-1.6q0.1-0.6 0.4-1c0.3-0.2 0.7-0.5 1.1-0.5h10.9c0.9 0 1.6 0.7 1.6 1.6z"/><path class="d" d="m52.9 34.8c0.2 0.6 0.1 1.3-0.3 1.7-0.3 0.3-0.7 0.5-1.1 0.5h-6.5c-0.4 0-0.7-0.2-1-0.5-0.3-0.2-0.5-0.6-0.5-1.1 0-0.8 0.7-1.5 1.5-1.5h6.4c0.6 0 1.2 0.3 1.5 0.9z"/><path class="c" d="m38.8 35.4c0 0.9-0.8 1.6-1.5 1.6h-20.6c-1 0-1.8-0.8-1.7-1.7q0.1-0.5 0.4-1c0.3-0.2 0.7-0.4 1.1-0.4h20.8c0.7 0 1.5 0.7 1.5 1.5z"/><path class="e" d="m15 29q0.1-0.6 0.4-1c0.3-0.2 0.7-0.4 1.1-0.4h2.1c0.9 0 1.5 0.6 1.5 1.5 0 0.9-0.6 1.5-1.5 1.5h-1.9c-1 0-1.8-0.8-1.7-1.6z"/><path class="e" d="m52.6 30.2c-0.3 0.3-0.7 0.4-1.1 0.4h-25.3c-0.4 0-0.7-0.1-1.1-0.4-0.2-0.2-0.4-0.7-0.4-1.1 0-0.9 0.7-1.5 1.5-1.5h25.2c0.6 0 1.2 0.3 1.5 0.8 0.2 0.7 0.1 1.3-0.3 1.8z"/><path class="d" d="m37.3 37h-3.3v-3.1h3.3c0.7 0 1.5 0.7 1.5 1.5 0 0.9-0.8 1.6-1.5 1.6z"/><path class="i" d="m52.9 41.1c0.2 0.7 0.1 1.3-0.3 1.8-0.3 0.3-0.7 0.4-1.1 0.4h-17.5v-3.1h17.4c0.6 0 1.2 0.4 1.5 0.9z"/><path class="f" d="m51.5 30.6h-17.5v-3h17.4c0.6 0 1.2 0.3 1.5 0.8 0.2 0.7 0.1 1.3-0.3 1.8-0.3 0.3-0.7 0.4-1.1 0.4z"/><path class="g" d="m22.7 14.8q-0.4 0-0.6 0.3-0.4 0.2-0.4 0.6v5.3c0 0.6-0.1 1-0.2 1-0.3 0.3-1.1 0.3-1.6 0.1-0.4-0.2-0.9-0.1-1.1 0.2q-0.2 0.2-0.2 0.5 0 0.6 0.4 0.9 0.9 0.5 1.9 0.5 1.2 0 2.1-0.8 0.7-0.8 0.7-2.5v-5.2q0-0.4-0.2-0.6c-0.2-0.2-0.4-0.3-0.8-0.3z"/><path class="g" d="m30.1 15.5q-0.1-0.3-0.5-0.5-0.2-0.2-0.6-0.2h-0.1q-0.5 0-0.8 0.2-0.2 0.2-0.3 0.5l-3.1 7.2q-0.1 0.3-0.1 0.5 0 0.4 0.2 0.6c0.3 0.4 0.9 0.5 1.3 0.1q0.2-0.1 0.4-0.4l0.6-1.5h3.5l0.7 1.5q0.2 0.3 0.4 0.4 0.2 0.3 0.5 0.3 0.5 0 0.7-0.4 0.3-0.2 0.3-0.6 0-0.2-0.1-0.5zm-0.2 4.5h-1.9l0.9-2.2z"/><path class="i" d="m41.3 15.7q0-0.4-0.2-0.7c-0.1-0.1-0.3-0.2-0.8-0.2q-0.3 0-0.5 0.2-0.2 0.1-0.3 0.4l-2.4 6-2.4-6q-0.3-0.3-0.5-0.4-0.2-0.2-0.5-0.2c-0.4 0-0.6 0.1-0.8 0.2q-0.2 0.3-0.2 0.7 0 0.3 0.1 0.4l2.9 7.2c0.4 0.8 0.8 0.9 1.1 0.9h0.4c0.3 0 0.8-0.1 1.1-0.9l3-7.2q0-0.1 0-0.4z"/><path class="i" d="m49.4 22.7l-3-7.2q-0.3-0.3-0.5-0.5-0.3-0.2-0.7-0.2h-0.2q-0.3 0-0.6 0.2-0.2 0.2-0.4 0.5l-3.1 7.2q-0.1 0.3-0.1 0.5 0 0.4 0.3 0.6c0.3 0.4 0.9 0.5 1.2 0.1q0.3-0.1 0.5-0.4l0.6-1.5h3.5l0.7 1.5q0.1 0.3 0.3 0.4 0.3 0.3 0.5 0.3 0.5 0 0.8-0.4 0.2-0.2 0.2-0.6 0-0.2 0-0.5zm-3.3-2.7h-1.9l1-2.3z"/></svg>