<svg version="1.2" xmlns="http://www.w3.org/2000/svg" viewBox="0 0 57 71" width="57" height="71"><style>.a{fill:#1d2943}.b{fill:#4c5c75}.c{fill:#fff}.d{fill:#9ea9c9}.e{fill:#f3f1fc}.f{fill:#edeef2}.g{fill:#111d33}.h{fill:#497bfe}.i{fill:#5094ff}.j{fill:#5ec363}.k{fill:#78e75a}.l{fill:#df3260}.m{fill:#b0b8cf}.n{fill:#e3e7f0}.o{fill:#c9cee2}.p{fill:#f45170}.q{fill:#febc1f}.r{fill:#e93565}.s{fill:#ffd475}.t{fill:#57b3fe}.u{fill:#dedffb}.v{fill:#f9a83d}.w{fill:#ffd06c}.x{fill:#b28afd}.y{fill:#f8f9fe}</style><path class="a" d="m33.2 4c-0.4-0.3-0.9-0.2-1.5 0.1l-24.2 14c-1.1 0.7-2 2.3-2 3.6l0.1 47.3c0 0.7 0.2 1.1 0.6 1.3l-5.2-3.1c-0.4-0.2-0.6-0.7-0.6-1.3l-0.2-47.3c0-1.4 0.9-2.9 2.1-3.6l24.2-14c0.6-0.4 1.1-0.4 1.5-0.2z"/><path class="b" d="m31.7 4.1c1.2-0.7 2.1-0.1 2.1 1.2l0.1 47.3c0.1 1.3-0.9 2.9-2 3.6l-24.2 14c-1.2 0.7-2.1 0.1-2.1-1.2l-0.1-47.3c0-1.3 0.9-2.9 2-3.6z"/><path class="c" d="m32.5 52.6c0 0.8-0.6 2-1.3 2.4l-22.6 13c-0.7 0.5-1.6-0.1-1.6-0.9l-0.1-45.4c0-0.8 0.6-1.9 1.3-2.4l8.5-4.9c0.5-0.2 1.1-0.1 1.4 0.3 0.3 0.5 0.9 0.6 1.6 0.2 0.9-0.5 1.7-1.7 1.8-2.8 0.1-0.3 0.3-0.6 0.5-0.7l8.8-5.1c0.7-0.4 1.6 0.1 1.6 0.9z"/><path class="a" d="m19.6 12.3c-0.5 0.3-0.9 1-0.9 1.5 0 0.6 0.4 0.8 0.9 0.5 0.4-0.2 0.8-0.9 0.8-1.5 0-0.5-0.4-0.7-0.8-0.5z"/><path class="d" d="m4.1 25.5v5.7q0 0.6-0.3 0.7l-0.8 0.5c0.2-0.1 0.3-0.4 0.3-0.7l0.1-5.7c0-0.7-0.5-1.6-1.1-1.9q-0.5-0.3-0.8-0.1l0.8-0.4c0.2-0.1 0.5-0.1 0.8 0 0.6 0.4 1 1.2 1 1.9z"/><path class="e" d="m2.3 24.1c0.6 0.3 1.1 1.2 1.1 1.8l-0.1 5.8c0 0.7-0.4 0.9-1 0.6-0.6-0.3-1.1-1.2-1.1-1.8v-5.8c0-0.7 0.5-0.9 1.1-0.6z"/><path class="d" d="m4.1 36.8v3.4q0 0.6-0.3 0.7l-0.8 0.5c0.2-0.1 0.3-0.4 0.3-0.7v-3.5c0-0.6-0.4-1.5-1-1.8-0.3-0.2-0.6-0.2-0.8-0.1l0.8-0.4q0.3-0.2 0.7 0c0.6 0.4 1.1 1.2 1.1 1.9z"/><path class="e" d="m2.3 35.4c0.6 0.3 1 1.2 1 1.8v3.5c0 0.7-0.5 0.9-1 0.6-0.6-0.3-1.1-1.2-1.1-1.8v-3.5c0-0.7 0.5-1 1.1-0.6z"/><path class="a" d="m2.3 15l24.2-14"/><path class="f" d="m28.8 4.3q-0.1 0.1-0.4 0.3c-0.8 0.4-2.1 0.4-3 0q-0.2-0.2-0.4-0.4c-0.4-0.4-0.2-1 0.4-1.4 0.8-0.5 2.2-0.5 3 0 0.7 0.4 0.8 1 0.4 1.5z"/><path class="g" d="m28.8 4.3q-0.1 0.1-0.4 0.3c-0.8 0.4-2.1 0.4-3 0q-0.2-0.2-0.4-0.4 0.2-0.1 0.4-0.3c0.8-0.4 2.2-0.4 3 0q0.3 0.2 0.4 0.4z"/><path class="h" d="m19.6 50.3l11.5 6.7 10.1-5.8v-13.4z"/><path class="i" d="m41.2 37.8v13.4l11.5-6.7z"/><path class="j" d="m32.5 35.1l-5.8-3.4-0.1 13.7 1 0.6v-12.7l3 1.8z"/><path class="g" d="m53.8 43.8v2l-13-7.5v-2z"/><path class="k" d="m27.6 33.3l2.3-1.3-0.1 12.6-2.2 1.4z"/><path class="a" d="m40.8 36.3v2l-21.5 12.5v-1.9z"/><path class="b" d="m40.8 35l15.4 8.8-24 13.9-15.3-8.8zm-8.6 21.4l21.6-12.6-13-7.4-21.5 12.5z"/><path class="h" d="m47.2 53.1l-1.2 7.9c-0.1 0.4-0.4 0.8-0.7 1q0 0-0.1 0-0.1 0.1-0.2 0.1 0-0.2 0-0.4l1.3-7.9c0-0.4 0.3-0.8 0.6-1q0.1-0.1 0.2-0.1 0.1 0 0.1 0 0.1 0.1 0 0.4z"/><path class="e" d="m46.4 44.1v10.4c0 0.8-0.6 1.7-1.7 2.4-2.3 1.3-6 1.3-8.3 0-1.2-0.7-1.8-1.6-1.8-2.4q0-0.1 0-0.1v-10.3c0-1.2 0.7-2.4 1.7-3 1-0.7 1.7-1.8 1.7-3.1v-5h5v5c0 1.3 0.7 2.4 1.7 3.1q0.8 0.5 1.2 1.3c0.3 0.5 0.5 1.1 0.5 1.7z"/><path class="l" d="m45.4 44.2v10.3c0 0.5-0.4 1.1-1.2 1.5-1 0.6-2.3 0.9-3.7 0.9-1.4 0-2.7-0.4-3.6-0.9-0.8-0.5-1.3-1-1.3-1.6v-10.2c0 0.7 0.5 1.4 1.5 2 1.9 1.1 5 1.1 6.9 0 0.9-0.6 1.4-1.3 1.4-2z"/><path class="m" d="m43.3 33.5v1.6c0 0.4-0.3 0.8-0.8 1.2-1.1 0.6-2.9 0.6-3.9 0-0.6-0.4-0.9-0.8-0.9-1.2v-1.6c0 0.4 0.3 0.8 0.9 1.2 1 0.6 2.8 0.6 3.9 0 0.5-0.4 0.8-0.8 0.8-1.2z"/><path class="n" d="m42.5 32.4c1 0.6 1 1.6 0 2.3-1.1 0.6-2.9 0.6-3.9 0-1.1-0.7-1.1-1.7-0.1-2.3 1.1-0.6 2.9-0.6 4 0z"/><path class="o" d="m42 32.7c0.8 0.4 0.8 1.2 0 1.7-0.8 0.5-2.1 0.5-3 0-0.8-0.5-0.8-1.3 0-1.7 0.8-0.5 2.2-0.5 3 0z"/><path class="p" d="m45.4 44.2c0 0.7-0.5 1.4-1.4 2-1.9 1.1-5 1.1-6.9 0-1-0.6-1.5-1.3-1.5-2 0-0.7 0.5-1.5 1.4-2 1.9-1.1 5-1.1 6.9 0 1 0.5 1.5 1.2 1.5 2z"/><path class="e" d="m36.5 49.9v10.3c0 0.9-0.5 1.7-1.7 2.4-2.3 1.3-6 1.3-8.3 0-1.1-0.7-1.7-1.5-1.7-2.4q0 0 0 0v-10.3c0-1.3 0.6-2.4 1.6-3.1 1.1-0.7 1.7-1.8 1.7-3.1v-4.9h5.1v5c0 1.2 0.6 2.3 1.7 3q0.8 0.5 1.2 1.3c0.3 0.5 0.4 1.2 0.4 1.8z"/><path class="q" d="m35.5 49.9v10.3c0 0.5-0.4 1.1-1.2 1.5-0.9 0.6-2.2 0.9-3.6 0.9-1.4 0-2.7-0.3-3.7-0.9-0.8-0.4-1.2-1-1.2-1.5v-10.3c0 0.7 0.5 1.5 1.4 2 1.9 1.1 5 1.1 6.9 0 1-0.5 1.4-1.3 1.4-2z"/><path class="r" d="m33.4 39.3v1.6c0 0.4-0.2 0.8-0.8 1.1-1.1 0.6-2.8 0.6-3.9 0-0.5-0.3-0.8-0.7-0.8-1.2v-1.5c0 0.4 0.3 0.8 0.8 1.1 1.1 0.6 2.8 0.6 3.9 0 0.6-0.3 0.8-0.7 0.8-1.1z"/><path class="p" d="m32.6 38.1c1.1 0.7 1.1 1.7 0 2.3-1.1 0.6-2.8 0.6-3.9 0-1.1-0.6-1.1-1.6 0-2.3 1.1-0.6 2.8-0.6 3.9 0z"/><path class="r" d="m32.1 38.4c0.8 0.5 0.8 1.2 0 1.7-0.8 0.5-2.1 0.5-2.9 0-0.8-0.5-0.8-1.2 0-1.7 0.8-0.5 2.1-0.5 2.9 0z"/><path class="s" d="m35.5 49.9c0 0.7-0.4 1.5-1.4 2-1.9 1.1-5 1.1-6.9 0-0.9-0.5-1.4-1.3-1.4-2 0-0.7 0.4-1.4 1.4-2 1.9-1.1 5-1.1 6.9 0 1 0.6 1.4 1.3 1.4 2z"/><path class="t" d="m52.7 44.5l-1.6 13.9c-0.1 1.2-0.9 2.4-1.8 3l-14.7 8.5c-0.9 0.5-1.7 0.2-1.9-0.8l-1.6-12.1z"/><path class="i" d="m38.3 66.5q-0.1 0.1-0.1 0.1c-0.3 0.2-0.6 0.1-0.7-0.2q0 0 0 0l-1.3-6.5c-0.1-0.4 0.2-0.9 0.5-1.2q0.1-0.1 0.2-0.1 0.1-0.1 0.3-0.1 0.2 0 0.3 0.3l1.3 6.5c0.1 0.4-0.1 0.9-0.5 1.2z"/><path class="i" d="m47.6 53.3l-1.2 7.9c-0.1 0.4-0.4 0.9-0.7 1q-0.1 0.1-0.1 0.1c-0.3 0.1-0.5 0-0.6-0.2q0-0.2 0-0.4l1.3-7.9c0-0.4 0.3-0.8 0.6-1q0.1-0.1 0.2-0.1 0.1 0 0.1 0c0.3 0 0.5 0.2 0.4 0.6z"/><path class="i" d="m42.6 63.2c0 0.5-0.3 1-0.7 1.2-0.3 0.2-0.5 0.1-0.6-0.2q-0.1-0.1-0.1-0.2v-7.1c0-0.5 0.3-1 0.7-1.2q0.2-0.1 0.3-0.1c0.2 0 0.4 0.2 0.4 0.5z"/><path class="h" d="m37.9 66.2q0 0.1-0.1 0.1-0.2 0.1-0.3 0.1 0 0 0 0l-1.3-6.5c-0.1-0.4 0.2-0.9 0.5-1.2q0.1-0.1 0.2-0.1 0.1-0.1 0.3-0.1 0 0 0 0.1l1.3 6.4c0 0.4-0.2 0.9-0.6 1.2z"/><path class="h" d="m42.2 63c0 0.4-0.3 0.9-0.6 1.1q-0.2 0.1-0.3 0.1-0.1-0.1-0.1-0.2v-7.1c0-0.5 0.3-1 0.7-1.2q0.2-0.1 0.3-0.1 0 0.1 0 0.2z"/><path class="a" d="m56.2 43.8v2l-24 13.9v-2z"/><path class="h" d="m33.3 70l-11.6-6.7q-0.4-0.3-0.5-0.9l-1.6-12.1 11.5 6.7 1.6 12.1q0.1 0.6 0.6 0.9z"/><path class="g" d="m32.2 57.7v2l-15.3-8.9v-1.9z"/><path class="b" d="m44.1 36.8v1.4l9.7 5.6-21.6 12.6-12.9-7.5 4.7-2.8h-2.4l-4.7 2.8 15.3 8.8 24-13.9z"/><path class="k" d="m42.8 41.1l2.3-1.3v13.6l-2.3 1.4z"/><path class="k" d="m26.7 31.7l2.3-1.3 16.1 9.4-2.3 1.3z"/><path class="j" d="m26.7 31.7v7.4h0.9v-5.8l14.3 8.3v12.6l0.9 0.6v-13.7z"/><path class="u" d="m44.6 51.8q-0.2-0.2-0.5 0c-0.4 0.2-0.7 0.7-0.7 1.2q0 0.3 0.2 0.4l-0.3-0.2q-0.2-0.1-0.2-0.4c0-0.4 0.3-1 0.7-1.2q0.3-0.1 0.5 0z"/><path class="e" d="m44.1 51.8c0.4-0.2 0.7 0 0.7 0.4 0 0.4-0.3 0.9-0.7 1.2-0.4 0.2-0.7 0-0.7-0.4 0-0.5 0.3-1 0.7-1.2z"/><path class="v" d="m40.4 29.1l-1.5-0.9 0.2-4.1 1.5 0.9z"/><path class="q" d="m49.5 10.2q-0.3-0.2-0.8 0.1l-9.9 5.7c-0.7 0.4-1.2 1.3-1.2 2v7.4q0 0.6 0.3 0.7l-1.5-0.8c-0.2-0.2-0.4-0.4-0.4-0.8v-7.4c0-0.7 0.6-1.6 1.2-2l10-5.7q0.5-0.2 0.8 0z"/><path class="w" d="m38.7 16l10-5.7c0.7-0.3 1.2 0 1.2 0.7v7.4c0 0.7-0.5 1.6-1.2 2l-6.1 3.4-2.2 5.3 0.2-4.1-1.8 1.1c-0.7 0.3-1.2 0-1.2-0.7v-7.4c0-0.7 0.5-1.6 1.1-2z"/><path class="c" d="m46.5 17.2q-0.4-0.3-1.1 0.1-0.6 0.4-1 1.1-0.3 0.7-0.3 1.5 0 0.7 0.3 1 0.4 0.3 1.1-0.1 0.6-0.3 1-1.1 0.3-0.7 0.3-1.4 0-0.8-0.3-1.1zm-1.6 2.9q-0.2-0.1-0.2-0.6 0-0.5 0.2-0.9 0.2-0.4 0.5-0.6 0.4-0.2 0.6 0 0.2 0.2 0.2 0.6 0 0.5-0.2 0.9-0.2 0.4-0.5 0.6-0.4 0.2-0.6 0z"/><path class="c" d="m45.8 13.9q0 0.1-0.1 0.3l-3.4 8.2q0 0.1-0.1 0.2-0.1 0.1-0.1 0.1-0.2 0.1-0.3 0-0.1 0-0.1-0.2 0-0.1 0.1-0.2l3.4-8.2q0.1-0.2 0.2-0.3 0.2-0.1 0.3-0.1 0.1 0.1 0.1 0.2z"/><path class="c" d="m43.1 15.6q-0.4-0.3-1.1 0.1-0.6 0.3-1 1-0.3 0.8-0.3 1.5 0 0.8 0.3 1.1 0.4 0.3 1-0.1 0.7-0.4 1.1-1.1 0.3-0.7 0.3-1.5 0-0.7-0.3-1zm-0.5 2.3q-0.2 0.4-0.6 0.6-0.3 0.2-0.5 0-0.2-0.2-0.2-0.7 0-0.4 0.2-0.8 0.2-0.4 0.5-0.6 0.4-0.2 0.6-0.1 0.2 0.2 0.2 0.7 0 0.5-0.2 0.9z"/><path class="x" d="m30.8 12.3v13.2c0 0.6-0.5 1.3-1 1.6l-9.2 5.3-2.4 1.3-8.7 5c-0.5 0.2-0.9 0-0.9-0.6l0.1-13.2c0-0.6 0.4-1.3 0.9-1.6l20.3-11.5c0.5-0.3 0.9-0.1 0.9 0.5z"/><g style="opacity:.4"><path class="c" d="m19.8 31.2q-0.1 0.1-0.1 0.3c-0.1 0.1-0.1 0.2-0.1 0.2-0.2 0.2-0.2 0.4-0.3 0.6 0 0.2 0 0.4-0.1 0.6l-0.1 0.2q-0.1 0-0.2 0.2l-2.2 1.2q0-0.3 0.1-0.5 0-0.3-0.3-0.3c-0.2 0-0.3-0.2-0.3-0.5 0-0.1-0.1-0.2-0.1-0.3-0.3-0.3-0.2-0.4 0-1 0.1-0.3 0.2-0.5 0.1-0.7-0.3 0-0.7 0-0.8-0.1q0 0-0.1 0c-0.1 0-0.2 0-0.4-0.1q0 0-0.1 0 0 0.1 0 0.1c-0.4 0.2-0.9 0.1-1-0.3 0-0.2-0.1-0.3-0.3-0.5 0 0-0.1-0.1-0.1-0.2q-0.1-0.1-0.2 0 0.2 0.3 0.4 0.7l-0.1 0.1c0-0.1-0.1 0-0.1-0.1-0.1-0.1-0.4-0.3-0.7-0.5q0.4-1.8 1.1-3.6 0.4-0.9 0.9-1.7v-0.2q0.2-0.2 0.3-0.4 0.1-0.3 0.3-0.5l0.1-0.1v-0.1q0.3-0.4 0.6-0.9 0 0.1 0 0.1c0 0.4-0.2 0.7-0.5 1-0.2 0.3-0.4 0.8-0.4 1.1h0.1c0 0 0.1 0.1 0.1 0.1 0 0.2 0 0.1 0.1 0.1 0.2-0.1 0.2-0.1 0.3 0 0 0 0.1 0 0.1 0 0.2-0.1 0.2-0.1 0.2 0.1 0 0.2 0.1 0.2 0.3 0.2q0-0.3 0-0.6 0-0.1 0.1-0.2c0.1-0.1 0.1-0.2 0.1-0.3q0-0.1 0-0.2c0-0.1 0-0.3 0-0.4q-0.1-0.1 0.1-0.2 0 0 0.1-0.1 0.1-0.1 0.2 0c0.1 0.1 0.2 0.1 0.3 0.1q0 0.2 0 0.3l0.1 0.1q0.1-0.3 0.2-0.5h0.1c0.1 0.4 0.3 0.6 0.7 0.6q-0.1 0.1-0.2 0.2-0.2 0.3-0.5 0.6-0.3 0.4-0.3 0.8 0 0.2-0.1 0.2 0 0.1-0.1 0.1-0.2 0.1-0.2 0.4 0.1 0.1-0.1 0.2-0.3 0.2-0.3 0.6-0.1 0.5-0.4 0.9c-0.1 0.1-0.1 0.3-0.1 0.4 0 0.2 0 0.3 0 0.5q0 0.1 0 0.2c-0.1-0.1-0.3-0.1-0.3-0.3 0-0.1-0.1-0.1-0.1-0.1 0 0-0.1 0-0.2 0q0 0 0 0-0.1 0.1-0.1 0.2 0 0.1-0.1 0.1 0 0-0.1 0-0.1 0-0.2 0.1c-0.1 0-0.2 0.2-0.3 0.4q-0.1 0.6 0 1 0.1 0.1 0.3 0.1 0-0.1 0.1-0.2 0.1-0.2 0.3-0.4c0.1-0.1 0.2-0.1 0.1 0.2q-0.1 0.2 0 0.3h0.1q0 0 0 0 0.1-0.1 0.2 0.1 0 0.1 0 0.3c0 0.1 0.3 0 0.6-0.1q0.1-0.2 0.3-0.4 0.1-0.1 0.1-0.2 0.1 0 0.2 0 0.1 0 0.3 0 0-0.1 0-0.1c0.3-0.1 0.5-0.1 0.6 0.2q0.1 0.1 0.2 0.1 0 0 0-0.1 0.1 0 0.1-0.1c0.2 0 0.3 0 0.4 0.2q0 0.3 0.3 0.2 0-0.1 0.1-0.1 0 0 0 0 0.1-0.1 0.1-0.1c0.3 0 0.5 0.1 0.7 0.2 0.1 0 0.1 0.3 0.1 0.5z"/><path class="c" d="m26.7 23.7q-0.1 0.2-0.2 0.4l-0.1 0.2c-0.1 0.2-0.1 0.4-0.1 0.5q0 0.2-0.1 0.4c0 0.1-0.1 0.3-0.1 0.3q-0.1 0.1-0.2 0.1-0.1 0.1-0.1-0.2c0-0.3-0.1-0.7-0.2-0.9h-0.1c-0.2 0-0.3-0.3-0.4-0.5q0 0-0.1 0-0.2 0.1-0.4 0.2c-0.1 0.1-0.2 0.1-0.2 0 0 0-0.1 0-0.2 0-0.2 0.1-0.3 0.1-0.4-0.1 0 0-0.1 0-0.2 0l-0.1 0.1c0.1 0.2 0.2 0.4 0.3 0.5q0 0.1 0.1 0.1 0.1-0.1 0.3-0.4 0 0.1 0.1 0.2c0.1 0 0.1 0.1 0 0.3v0.2c0 0.2-0.1 0.4-0.3 0.6q-0.2 0.2-0.4 0.4-0.1 0.2-0.3 0.4-0.1 0.1-0.2-0.2 0 0 0-0.1-0.1-0.3-0.2-0.5-0.1-0.1-0.1-0.1l-0.1-0.1q0 0-0.1-0.1c0-0.1 0-0.2 0-0.3q0-0.1-0.1-0.1c0 0-0.1 0-0.1 0q0 0.1 0 0.2 0 0.2 0.1 0.4 0.1 0.2 0.1 0.4 0.1 0.1 0.1 0.3 0.2 0.3 0.3 0.5c0.1 0.1 0.2 0.1 0.4 0q0.1-0.1 0.2-0.1 0-0.1 0-0.1 0.1 0 0.1 0 0 0.1 0 0.2-0.1 0.3-0.2 0.5-0.1 0.6-0.5 1c-0.2 0.3-0.3 0.6-0.2 0.9q0 0.3 0.1 0.5c0 0.3-0.1 0.8-0.3 1.1q-0.2 0.3-0.2 0.5l-1.8 1q0-0.2-0.1-0.4c0-0.3 0-0.7 0-1 0-0.3-0.1-0.5-0.2-0.6-0.1-0.2-0.1-0.3 0-0.5 0-0.1 0-0.3 0-0.4 0 0-0.1 0-0.1 0-0.1 0-0.2 0.1-0.2 0q-0.1-0.1-0.2 0-0.1 0-0.1 0.1c-0.2 0.2-0.4 0.4-0.5 0.5q-0.2 0-0.3 0c-0.2 0-0.5 0.1-0.5-0.2q-0.1-0.1-0.1-0.2-0.3-0.1-0.2-0.5c0-0.3 0.1-0.6 0-0.8 0 0 0.1-0.2 0.1-0.2 0.1-0.2 0.1-0.3 0.2-0.4 0-0.1 0-0.2 0.1-0.3l0.1-0.1c0-0.2 0.1-0.4 0.1-0.5l0.1-0.1c0-0.2 0-0.3 0.2-0.4q0 0 0.1 0c0-0.3 0.1-0.4 0.2-0.5q0.1-0.1 0.2-0.2 0.1-0.1 0.2-0.2l0.1-0.1q0.3-0.2 0.7-0.5 0 0.3-0.1 0.4c0 0.2 0 0.2 0.1 0.2 0.2 0 0.3 0 0.4 0q0.1 0 0.2 0.1 0 0 0-0.1 0.1 0 0.1-0.1c0-0.2 0-0.3 0.1-0.3q0.1 0 0.2 0 0.3 0 0.6-0.2 0.1-0.1 0.1-0.1 0.2-0.2 0.3-0.4 0-0.2 0.1-0.4 0-0.2-0.2-0.1 0 0 0 0-0.2 0.1-0.4 0.2c-0.1 0.1-0.1 0-0.2-0.1q0-0.1 0-0.2c-0.1-0.1-0.1 0-0.2 0 0 0 0 0.1 0 0.2 0 0.1-0.1 0.3-0.2 0.4q-0.1-0.2-0.1-0.4-0.1-0.2-0.2-0.1c-0.2 0-0.3 0.1-0.3-0.2 0 0-0.1 0-0.1 0 0 0.2 0.1 0.3 0.2 0.3 0.1 0 0.1 0.1 0.1 0.2 0 0.2 0 0.3-0.1 0.4q-0.1-0.2-0.1-0.4c-0.1 0-0.1 0-0.2 0h-0.1q-0.2-0.1-0.5 0.1l-0.1 0.1q-0.2 0.3-0.3 0.6c-0.1 0.2-0.2 0.4-0.1 0.6l-0.1 0.1q-0.1-0.1-0.2 0 0 0-0.1 0.1-0.1 0-0.2 0 0-0.2 0-0.4c0-0.1 0-0.1 0-0.2q0-0.1 0.1-0.2v-0.1q0 0 0.1 0 0 0 0.1 0c0.2-0.2 0.2-0.3 0.2-0.6 0-0.1 0-0.2 0-0.2-0.1-0.1-0.1-0.2 0-0.3q0.2-0.1 0.2-0.2 0.2-0.3 0.4-0.7 0-0.1 0.1-0.2 0.1 0 0.1 0 0 0 0 0 0.2-0.1 0.2-0.3 0-0.2 0-0.4l0.1 0.1c0.1 0.1 0.3 0.1 0.5 0q0.2-0.1 0.4-0.4c0.1-0.2 0.2-0.4 0.3-0.6l0.1-0.1c0.1-0.1 0.2-0.4 0.2-0.6q-0.3 0.2-0.6 0.4c0 0 0-0.2 0.1-0.5q0.1-0.2 0.1-0.3 0-0.1 0-0.2-0.1 0.1-0.2 0.1-0.1 0.3-0.2 0.5-0.2 0.4-0.2 0.8 0 0.3-0.1 0.5c0 0.1 0 0.2-0.1 0.2 0 0 0 0-0.1-0.1q-0.1-0.1-0.2-0.2c-0.1 0-0.2 0.1-0.2 0.2-0.1 0-0.1 0.1-0.1 0.1-0.1 0-0.1 0-0.1-0.1q0-0.3 0-0.5 0.1-0.2 0.1-0.3 0.2-0.3 0.4-0.6 0.1-0.2 0.1-0.3 0.1-0.1 0.1-0.2c0.1-0.1 0.1-0.2 0.1-0.3 0.1-0.3 0.3-0.5 0.5-0.6q0.2-0.2 0.4-0.3 0.1-0.1 0.1-0.1c0.2 0.2 0.5 0 0.6 0.1 0.1 0.1 0.2 0 0.2 0.2q-0.1 0.2-0.2 0.3-0.1 0-0.2 0c0.1 0.2 0.1 0.3 0.2 0.3q0 0.1 0 0c0 0 0.1-0.1 0.1-0.1q0-0.1 0.1-0.2 0.1-0.3 0.3-0.7 0.1 0.1 0.2 0.1 0 0.1 0.1 0 0.4 0.1 0.8 0.3 0.1 0.1 0.2 0.2 0.1 0 0.3 0.1 0.1 0.1 0.2 0.2 0.1 0 0.1 0.1 0.2 0.1 0.3 0.3 0 0 0.1 0.1 0.4 0.5 0.7 1.1 0.3 0.6 0.5 1.3 0.1 0.3 0.1 0.7 0.1 0.2 0.1 0.4 0 0.2 0 0.4z"/></g><path class="w" d="m13.7 26.1v-0.7l1.3-0.8v0.8z"/><path class="w" d="m13.7 24.2l1.3-0.8v0.8l-1.3 0.8z"/><path class="w" d="m15 23.1q0-0.1 0-0.1l-1.3 0.8v-0.7l0.5-0.3c0.4-0.2 0.7-0.1 0.8 0.3z"/><path class="q" d="m13.7 23.1v0.7l1.3-0.8q0 0 0 0.1 0 0 0 0.1v0.2l-1.3 0.8v0.8l1.3-0.8v0.4l-1.3 0.8v0.7l1.3-0.7v0.2q0 0.1 0 0.2l-1.3 0.7v0.7l-0.4 0.2v-4.1z"/><path class="w" d="m13.7 27.2v-0.7l1.3-0.7c-0.1 0.4-0.4 0.9-0.8 1.1z"/><path class="w" d="m11.6 24.3l1.7-1v4.1l-1.6 1z"/><path class="w" d="m10 28.7l1.3-0.8v0.7l-0.6 0.3c-0.3 0.2-0.6 0.1-0.7-0.2z"/><path class="w" d="m11.3 26.7v0.8l-1.3 0.8v-0.8z"/><path class="w" d="m11.3 25.6v0.7l-1.4 0.8v-0.8z"/><path class="q" d="m11.6 24.3l0.1 4.1-0.4 0.2v-0.7l-1.3 0.8q0-0.1 0-0.2v-0.2l1.3-0.8v-0.8l-1.3 0.8-0.1-0.4 1.4-0.8v-0.7l-1.4 0.7v-0.1q0-0.1 0.1-0.2 0-0.1 0-0.1l1.3-0.7v-0.7z"/><path class="w" d="m11.3 25.2l-1.3 0.7q0 0 0 0.1c0-0.5 0.3-1 0.7-1.2l0.6-0.3z"/><path class="u" d="m28.2 16v0.3q0 0-0.1 0.1l-0.5 0.3-0.1 0.1q-0.1 0-0.1-0.1v-0.2z"/><path class="u" d="m28.2 18.2q0 0 0 0.1v0.2l-0.8 0.5v-0.3q0 0 0.1-0.1h0.1l0.5-0.3z"/><path class="u" d="m29.4 15.3v0.3q-0.1 0.1-0.1 0.1l-0.1 0.1-0.5 0.2-0.1 0.1q0 0 0 0v-0.3z"/><path class="u" d="m29.3 17.6q0.1 0 0.1 0v0.3l-0.8 0.4v-0.2q0-0.1 0-0.1l0.1-0.1 0.5-0.3z"/><path class="c" d="m29.2 15.8v1.8l-0.5 0.3v-1.9z"/><path class="u" d="m27.1 16.7v0.2q0 0.1-0.1 0.1l-0.1 0.1-0.5 0.3h-0.1q0 0 0 0v-0.3z"/><path class="p" d="m27.8 15.1c0.1-0.1 0.3 0 0.3 0.1 0 0.2-0.1 0.4-0.3 0.4-0.1 0.1-0.2 0.1-0.2-0.1 0-0.2 0.1-0.4 0.2-0.4z"/><path class="c" d="m28.1 16.4v1.9l-0.5 0.3v-1.9z"/><path class="u" d="m27.8 14.5l1.4 0.7-2.7 1.5zm0 1.2c0.1-0.1 0.2-0.3 0.2-0.4 0-0.2-0.1-0.3-0.2-0.2-0.2 0.1-0.3 0.3-0.3 0.4 0 0.2 0.1 0.3 0.3 0.2z"/><path class="y" d="m27.8 14.1l2 1-0.4 0.2-0.8 0.5-0.4 0.2-0.8 0.5-0.3 0.2-0.8 0.4-0.4 0.3zm-1.4 2.6l2.7-1.6-1.3-0.7z"/><path class="u" d="m27 18.9q0.1 0 0.1 0v0.3l-0.8 0.4v-0.2q0-0.1 0-0.1l0.1-0.1 0.5-0.3z"/><path class="c" d="m29.6 17.7v0.4l-3.6 2.1v-0.4z"/><path class="c" d="m26.9 17.1v1.8l-0.5 0.3v-1.8z"/><path class="c" d="m18.5 30.7c0.2-0.2 0.4-0.1 0.4 0.2 0 0.3-0.2 0.6-0.4 0.7l-8.2 4.8c-0.3 0.1-0.5 0-0.5-0.3 0-0.2 0.2-0.5 0.4-0.7z"/><path class="c" d="m26.1 23.8c0.3-0.2 0.4-0.1 0.4 0.2 0 0.2-0.1 0.6-0.4 0.7l-15.8 9.2c-0.3 0.1-0.5 0-0.5-0.3 0-0.2 0.2-0.5 0.4-0.7z"/><path class="n" d="m24.7 32l-16.1 9.3v1.8l16.1-9.3z"/><path class="n" d="m20.8 37.9l-12.2 7.1v1.7l12.2-7.1z"/><path class="k" d="m22 37.2v1.8l2.8-1.7v-1.7z"/><path class="n" d="m24.8 39.3l-16.2 9.4v1.7l16.2-9.3z"/><path class="p" d="m15.7 48.4l-7.1 4.1v1.7l7.1-4.1z"/><path class="n" d="m15.7 52.1l-7.1 4.1v1.7l7.1-4z"/><path class="n" d="m15.7 55.9l-7.1 4.1v1.7l7.1-4.1z"/><path class="n" d="m19.3 57.5l-10.7 6.2v1.7l10.7-6.2z"/></svg>