<svg version="1.2" xmlns="http://www.w3.org/2000/svg" viewBox="0 0 65 70" width="65" height="70"><style>.a{fill:#0a5078}.b{fill:#00325a}.c{fill:#00a0c8}.d{fill:#c80a50}.e{fill:#0082aa}.f{fill:#a00028}.g{fill:#fab400}.h{fill:#be7800}</style><path class="a" d="m37.5 70h-32.5c-2.8 0-5-2.2-5-5v-60c0-2.8 2.2-5 5-5h32.5c2.8 0 5 2.2 5 5v60c0 2.8-2.2 5-5 5z"/><path class="b" d="m42.5 38.4c-4.3-1.1-7.5-5-7.5-9.6 0-4.7 3.2-8.6 7.5-9.7v-9.9q-0.2 0.1-0.3 0.4l-1.6 4.8q-1.4 0.4-2.6 1.1l-4.6-2.3c-0.4-0.2-1-0.1-1.4 0.3l-2.3 2.2c-0.4 0.4-0.4 1-0.2 1.5l2.3 4.5q-0.7 1.3-1.1 2.7l-4.8 1.6c-0.6 0.1-0.9 0.6-0.9 1.2v3.1c0 0.6 0.3 1.1 0.9 1.2l4.8 1.6q0.4 1.4 1.1 2.7l-2.3 4.5c-0.2 0.5-0.2 1.1 0.2 1.5l2.3 2.2c0.4 0.4 0.9 0.5 1.4 0.3l4.6-2.3q1.2 0.7 2.6 1.1l1.6 4.8q0.1 0.3 0.3 0.4z"/><path class="c" d="m30 5l-2.1 2.1c-0.3 0.3-0.6 0.4-0.9 0.4h-11.5c-0.3 0-0.6-0.1-0.9-0.4l-2.1-2.1h-5c-1.4 0-2.5 1.1-2.5 2.5v55c0 1.4 1.1 2.5 2.5 2.5h27.5c1.4 0 2.5-1.1 2.5-2.5v-55c0-1.4-1.1-2.5-2.5-2.5z"/><path class="d" d="m64.1 24.7l-4.8-1.6q-0.4-1.4-1.1-2.6l2.3-4.6c0.2-0.5 0.2-1-0.2-1.4l-2.3-2.3c-0.4-0.4-0.9-0.4-1.4-0.2l-4.6 2.3q-1.2-0.7-2.6-1.1l-1.6-4.8c-0.2-0.6-0.7-0.9-1.2-0.9h-3.2c-0.5 0-1 0.3-1.2 0.9l-1.6 4.8q-1.4 0.4-2.6 1.1l-4.6-2.3c-0.4-0.2-1-0.2-1.4 0.2l-2.3 2.3c-0.4 0.4-0.4 0.9-0.2 1.4l2.3 4.6q-0.7 1.2-1.1 2.6l-4.8 1.6c-0.6 0.2-0.9 0.7-0.9 1.2v3.2c0 0.5 0.3 1 0.9 1.2l4.8 1.6q0.4 1.4 1.1 2.6l-2.3 4.6c-0.2 0.4-0.2 1 0.2 1.4l2.3 2.3c0.4 0.4 1 0.4 1.4 0.2l4.6-2.3q1.2 0.7 2.6 1.1l1.6 4.8c0.2 0.6 0.7 0.9 1.2 0.9h3.2c0.5 0 1-0.3 1.2-0.9l1.6-4.8q1.4-0.4 2.6-1.1l4.6 2.3c0.5 0.2 1 0.2 1.4-0.2l2.3-2.3c0.4-0.4 0.4-0.9 0.2-1.4l-2.3-4.6q0.7-1.2 1.1-2.6l4.8-1.6c0.6-0.2 0.9-0.7 0.9-1.2v-3.2c0-0.5-0.3-1-0.9-1.2zm-19.1 12.8c-5.5 0-10-4.5-10-10 0-5.5 4.5-10 10-10 5.5 0 10 4.5 10 10 0 5.5-4.5 10-10 10z"/><path class="e" d="m37.5 35.3c-1.6-1.7-2.5-4-2.5-6.5 0-2.6 0.9-4.9 2.5-6.6v-6.9l-4.1-2.1c-0.4-0.2-1-0.1-1.4 0.3l-2.3 2.2c-0.4 0.4-0.4 1-0.2 1.5l2.3 4.5q-0.7 1.3-1.1 2.7l-4.8 1.6c-0.6 0.1-0.9 0.6-0.9 1.2v3.1c0 0.6 0.3 1.1 0.9 1.2l4.8 1.6q0.4 1.4 1.1 2.7l-2.3 4.5c-0.2 0.5-0.2 1.1 0.2 1.5l2.3 2.2c0.4 0.4 0.9 0.5 1.4 0.3l4.1-2.1z"/><path class="d" d="m64.1 24.7l-4.8-1.6q-0.4-1.4-1.1-2.6l2.3-4.6c0.2-0.5 0.2-1-0.2-1.4l-2.3-2.3c-0.4-0.4-0.9-0.4-1.4-0.2l-4.6 2.3q-1.2-0.7-2.6-1.1l-1.6-4.8c-0.2-0.6-0.7-0.9-1.2-0.9h-3.2c-0.5 0-1 0.3-1.2 0.9l-1.6 4.8q-1.4 0.4-2.6 1.1l-4.6-2.3c-0.4-0.2-1-0.2-1.4 0.2l-2.3 2.3c-0.4 0.4-0.4 0.9-0.2 1.4l2.3 4.6q-0.7 1.2-1.1 2.6l-4.8 1.6c-0.6 0.2-0.9 0.7-0.9 1.2v3.2c0 0.5 0.3 1 0.9 1.2l4.8 1.6q0.4 1.4 1.1 2.6l-2.3 4.6c-0.2 0.4-0.2 1 0.2 1.4l2.3 2.3c0.4 0.4 1 0.4 1.4 0.2l4.6-2.3q1.2 0.7 2.6 1.1l1.6 4.8c0.2 0.6 0.7 0.9 1.2 0.9h3.2c0.5 0 1-0.3 1.2-0.9l1.6-4.8q1.4-0.4 2.6-1.1l4.6 2.3c0.5 0.2 1 0.2 1.4-0.2l2.3-2.3c0.4-0.4 0.4-0.9 0.2-1.4l-2.3-4.6q0.7-1.2 1.1-2.6l4.8-1.6c0.6-0.2 0.9-0.7 0.9-1.2v-3.2c0-0.5-0.3-1-0.9-1.2z"/><path class="f" d="m45 40c-6.9 0-12.5-5.6-12.5-12.5 0-6.9 5.6-12.5 12.5-12.5 6.9 0 12.5 5.6 12.5 12.5 0 6.9-5.6 12.5-12.5 12.5zm0-22.5c-5.5 0-10 4.5-10 10 0 5.5 4.5 10 10 10 5.5 0 10-4.5 10-10 0-5.5-4.5-10-10-10z"/><path class="g" d="m55 27.5c0-5.9-5.1-10.6-11.1-9.9-4.4 0.5-8.1 3.9-8.8 8.3-0.5 3.6 0.8 6.9 3.2 9.1 1.1 0.9 1.7 2.2 1.7 3.7v1.3h10v-1.3c0-1.4 0.6-2.8 1.6-3.7 2.1-1.9 3.4-4.5 3.4-7.5z"/><path class="b" d="m47.5 45h-5c-1.4 0-2.5-1.1-2.5-2.5v-2.5h10v2.5c0 1.4-1.1 2.5-2.5 2.5z"/><path class="h" d="m51.1 26.9c-0.2-0.4-0.6-0.6-1.1-0.6h-10c-0.5 0-0.9 0.2-1.1 0.6-0.2 0.4-0.2 0.9 0.1 1.3l4.7 7.2v4.6h2.5v-4.6l4.8-7.2c0.3-0.4 0.3-0.9 0.1-1.3zm-6.1 5.8l-2.7-3.9h5.4z"/><path class="e" d="m29.5 44.5l-3-1q-0.3-0.9-0.7-1.6l1.4-2.9c0.1-0.3 0.1-0.6-0.2-0.9l-1.4-1.4c-0.2-0.2-0.6-0.3-0.9-0.1l-2.8 1.4q-0.8-0.4-1.7-0.7l-1-3c-0.1-0.3-0.4-0.6-0.7-0.6h-2c-0.3 0-0.6 0.3-0.7 0.6l-1 3q-0.9 0.3-1.7 0.7l-2.8-1.4c-0.3-0.2-0.7-0.1-0.9 0.1l-1.4 1.4c-0.3 0.3-0.3 0.6-0.2 0.9l1.4 2.8q-0.4 0.8-0.7 1.7l-3 1c-0.3 0.1-0.5 0.4-0.5 0.8v2c0 0.3 0.2 0.6 0.5 0.7l3 1q0.3 0.9 0.7 1.6l-1.4 2.9c-0.1 0.3-0.1 0.6 0.2 0.9l1.4 1.4c0.2 0.2 0.6 0.3 0.9 0.1l2.8-1.4q0.8 0.4 1.7 0.7l1 3c0.1 0.3 0.4 0.5 0.7 0.5h2c0.3 0 0.6-0.2 0.7-0.5l1-3q0.9-0.3 1.7-0.7l2.8 1.4c0.3 0.2 0.7 0.1 0.9-0.1l1.4-1.4c0.3-0.3 0.3-0.6 0.2-0.9l-1.4-2.8q0.4-0.8 0.7-1.7l3-1c0.3-0.1 0.5-0.4 0.5-0.8v-1.9c0-0.4-0.2-0.7-0.5-0.8zm-12 6.8c-2.8 0-5-2.3-5-5 0-2.8 2.2-5 5-5 2.8 0 5 2.2 5 5 0 2.7-2.2 5-5 5z"/><path class="d" d="m29.5 43.3l-3-1q-0.3-0.9-0.7-1.7l1.4-2.8c0.1-0.3 0.1-0.7-0.2-0.9l-1.4-1.4c-0.2-0.3-0.6-0.3-0.9-0.2l-2.8 1.4q-0.8-0.4-1.7-0.7l-1-3c-0.1-0.3-0.4-0.5-0.7-0.5h-2c-0.3 0-0.6 0.2-0.7 0.5l-1 3q-0.9 0.3-1.7 0.7l-2.8-1.4c-0.3-0.1-0.7-0.1-0.9 0.2l-1.4 1.4c-0.3 0.2-0.3 0.6-0.2 0.9l1.4 2.8q-0.4 0.8-0.7 1.7l-3 1c-0.3 0.1-0.5 0.4-0.5 0.7v2c0 0.3 0.2 0.6 0.5 0.7l3 1q0.3 0.9 0.7 1.7l-1.4 2.8c-0.1 0.3-0.1 0.7 0.2 0.9l1.4 1.4c0.2 0.3 0.6 0.3 0.9 0.2l2.8-1.4q0.8 0.4 1.7 0.7l1 3c0.1 0.3 0.4 0.5 0.7 0.5h2c0.3 0 0.6-0.2 0.7-0.5l1-3q0.9-0.3 1.7-0.7l2.8 1.4c0.3 0.1 0.7 0.1 0.9-0.2l1.4-1.4c0.3-0.2 0.3-0.6 0.2-0.9l-1.4-2.8q0.4-0.8 0.7-1.7l3-1c0.3-0.1 0.5-0.4 0.5-0.7v-2c0-0.3-0.2-0.6-0.5-0.7zm-12 6.7c-2.8 0-5-2.2-5-5 0-2.8 2.2-5 5-5 2.8 0 5 2.2 5 5 0 2.8-2.2 5-5 5z"/><path class="f" d="m17.5 52.5c-4.1 0-7.5-3.4-7.5-7.5 0-4.1 3.4-7.5 7.5-7.5 4.1 0 7.5 3.4 7.5 7.5 0 4.1-3.4 7.5-7.5 7.5zm0-12.5c-2.8 0-5 2.2-5 5 0 2.8 2.2 5 5 5 2.8 0 5-2.2 5-5 0-2.8-2.2-5-5-5z"/><path fill-rule="evenodd" class="a" d="m21.2 62.5c-0.6 0-1.2-0.6-1.2-1.3 0-0.6 0.6-1.2 1.2-1.2 0.7 0 1.3 0.6 1.3 1.2 0 0.7-0.6 1.3-1.3 1.3z"/><path fill-rule="evenodd" class="a" d="m13.7 62.5c-0.6 0-1.2-0.6-1.2-1.3 0-0.6 0.6-1.2 1.2-1.2 0.7 0 1.3 0.6 1.3 1.2 0 0.7-0.6 1.3-1.3 1.3z"/><path fill-rule="evenodd" class="a" d="m28.7 62.5c-0.6 0-1.2-0.6-1.2-1.3 0-0.6 0.6-1.2 1.2-1.2 0.7 0 1.3 0.6 1.3 1.3 0 0.6-0.6 1.2-1.3 1.2z"/></svg>