<svg version="1.2" xmlns="http://www.w3.org/2000/svg" viewBox="0 0 69 70" width="69" height="70"><style>.a{fill:#eee8e5}.b{fill:#fff7f7}.c{fill:#7bc5b0}.d{fill:#9edba7}.e{fill:#3d3d3d}.f{fill:#535353}.g{fill:#7aabff}.h{fill:#8dcbff}.i{fill:#ff5737}.j{fill:#fd6717}.k{fill:#fdae02}.l{fill:#fd9002}.m{fill:#638cfb}</style><path class="a" d="m36.4 2h-13.8l-1.3 32.9 1.3 32.9h13.8c3.3 0 6.1-2.7 6.1-6.1v-53.5c0-3.4-2.8-6.2-6.1-6.2z"/><path class="b" d="m8.9 2c-3.4 0-6.1 2.8-6.1 6.2v53.5c0 3.4 2.7 6.1 6.1 6.1h13.7v-65.8z"/><path class="c" d="m42.5 12.8v-4.6c0-3.4-2.8-6.2-6.1-6.2h-13.8l-1.3 6.1 1.3 4.7z"/><path class="d" d="m22.6 12.8v-10.8h-13.7c-3.4 0-6.1 2.8-6.1 6.2v4.6z"/><path class="e" d="m36.4 0h-13.8l-1.3 1.9 1.3 2.2h13.8c2.2 0 4 1.8 4 4.1v53.5c0 2.2-1.8 4.1-4 4.1h-13.8l-1.3 2 1.3 2.1h13.8c4.5 0 8.1-3.7 8.1-8.2v-53.5c0-4.5-3.6-8.2-8.1-8.2z"/><path class="f" d="m8.9 65.8c-2.2 0-4.1-1.9-4.1-4.1v-53.5c0-2.3 1.9-4.1 4.1-4.1h13.7v-4.1h-13.7c-4.5 0-8.2 3.7-8.2 8.2v53.5c0 4.5 3.7 8.2 8.2 8.2h13.7v-4.1z"/><path class="d" d="m10.1 45.7h12.5v4.1h-12.5z"/><path fill-rule="evenodd" class="d" d="m16.3 54v4.1h-6.2v-4.1z"/><path class="g" d="m22.6 19.5h4c1.4 0 2.7 0.9 3.2 2.2l2.2 5.1h-9.4l-1-3.6z"/><path class="h" d="m22.6 19.5h-3.9c-1.4 0-2.7 0.9-3.2 2.2l-2.2 5.1h9.3z"/><path fill-rule="evenodd" class="e" d="m16.1 32.8v5.5h-4.1v-5.5z"/><path class="i" d="m33.2 26.2l-2.1-5c-0.9-2.3-3.1-3.7-5.5-3.7h-3l-1.3 2 1.3 2.1h3c0.8 0 1.5 0.5 1.8 1.2l1.3 3.2h-6.1l-1.3 3.9 1.3 4.3h13.7v-3.8c0-2-1.3-3.7-3.1-4.2z"/><path class="j" d="m16.5 26l1.4-3.2c0.3-0.7 1-1.2 1.7-1.2h3v-4.1h-3c-2.4 0-4.5 1.4-5.5 3.7l-2 5c-1.8 0.5-3.1 2.2-3.1 4.2v3.8h13.6v-8.2z"/><path class="k" d="m14 28h4.1v4.1h-4.1z"/><path fill-rule="evenodd" class="l" d="m31.2 28v4.1h-4.1v-4.1z"/><path class="m" d="m59.7 28.9h-11l-1.4 20.9 1.4 20.1h11c4.9 0 8.8-4 8.8-8.9v-23.2c0-4.9-3.9-8.9-8.8-8.9z"/><path class="g" d="m38 28.9c-4.9 0-8.9 4-8.9 8.9v12l-4.9 4.9 4.9 4.9v1.4c0 4.9 4 8.9 8.9 8.9h10.7v-41z"/><path class="a" d="m57.2 59.2h-4.1v-15.6h-4.4v-4.1h8.5z"/><path class="b" d="m48.7 48.7h-2.9v-2.9h-4.1v2.9h-2.9v4.1h2.9v2.8h4.1v-2.8h2.9z"/></svg>