<svg version="1.2" xmlns="http://www.w3.org/2000/svg" viewBox="0 0 70 70" width="70" height="70"><defs><linearGradient id="P" gradientUnits="userSpaceOnUse"/><linearGradient id="g1" x2="1" href="#P" gradientTransform="matrix(49.497,49.497,-49.497,49.497,10.251,10.251)"><stop stop-color="#62fdff"/><stop offset="1" stop-color="#00aec0"/></linearGradient><linearGradient id="g2" x2="1" href="#P" gradientTransform="matrix(22.148,0,0,5.135,23.607,11.282)"><stop stop-color="#ff1f35"/><stop offset="1" stop-color="#b40009"/></linearGradient><linearGradient id="g3" x2="1" href="#P" gradientTransform="matrix(22.148,0,0,7.125,23.607,56.554)"><stop stop-color="#ff1f35"/><stop offset="1" stop-color="#b40009"/></linearGradient><linearGradient id="g4" x2="1" href="#P" gradientTransform="matrix(22.148,0,0,4.429,23.607,11.282)"><stop stop-color="#fff5ca"/><stop offset="1" stop-color="#ffdc00"/></linearGradient><linearGradient id="g5" x2="1" href="#P" gradientTransform="matrix(22.148,0,0,22.148,23.607,56.51)"><stop stop-color="#fff5ca"/><stop offset="1" stop-color="#ffdc00"/></linearGradient><linearGradient id="g6" x2="1" href="#P" gradientTransform="matrix(22.148,0,0,3.207,23.607,38.043)"><stop stop-color="#ff1f35"/><stop offset="1" stop-color="#b40009"/></linearGradient><linearGradient id="g7" x2="1" href="#P" gradientTransform="matrix(22.148,0,0,4.175,23.607,36.836)"><stop stop-color="#ffe336"/><stop offset="1" stop-color="#ff9b00"/></linearGradient><linearGradient id="g8" x2="1" href="#P" gradientTransform="matrix(22.148,49.498,-94.35,42.218,24.187,9.992)"><stop stop-color="#62fdff"/><stop offset="1" stop-color="#00aec0"/></linearGradient><linearGradient id="g9" x2="1" href="#P" gradientTransform="matrix(22.148,0,0,3.942,23.607,32.203)"><stop stop-color="#b85d19"/><stop offset="1" stop-color="#843300"/></linearGradient><linearGradient id="g10" x2="1" href="#P" gradientTransform="matrix(22.148,0,0,6.827,23.607,27.854)"><stop stop-color="#ffbf57"/><stop offset="1" stop-color="#ff7900"/></linearGradient><linearGradient id="g11" x2="1" href="#P" gradientTransform="matrix(22.148,0,0,3.508,23.607,40.971)"><stop stop-color="#ffbf57"/><stop offset="1" stop-color="#ff7900"/></linearGradient></defs><style>.a{fill:url(#g1)}.b{fill:#fff}.c{fill:url(#g2)}.d{fill:url(#g3)}.e{fill:url(#g4)}.f{fill:url(#g5)}.g{fill:url(#g6)}.h{fill:url(#g7)}.i{fill:url(#g8)}.j{fill:url(#g9)}.k{fill:url(#g10)}.l{fill:url(#g11)}</style><path fill-rule="evenodd" class="a" d="m35 70c-19.4 0-35-15.6-35-35 0-19.4 15.6-35 35-35 19.4 0 35 15.6 35 35 0 19.4-15.6 35-35 35z"/><path class="b" d="m46.4 61.7h-22.7c-2.6 0-4.6-2.1-4.6-4.6v-44.9c0-2.6 2-4.6 4.6-4.6h22.7c2.5 0 4.6 2 4.6 4.6v44.9c0 2.5-2.1 4.6-4.6 4.6z"/><path class="c" d="m51 12.2c0-2.6-2.1-4.6-4.6-4.6h-22.7c-2.6 0-4.6 2-4.6 4.6v2.8h31.9z"/><path class="d" d="m19.1 57.1c0 2.5 2 4.6 4.6 4.6h22.7c2.5 0 4.6-2.1 4.6-4.6v-5.7h-31.9z"/><path fill-rule="evenodd" class="e" d="m39.6 10.4v1.8h-9.1v-1.8z"/><path fill-rule="evenodd" class="f" d="m35 60.1c-2 0-3.5-1.6-3.5-3.6 0-2 1.5-3.6 3.5-3.6 2 0 3.6 1.6 3.6 3.6 0 2-1.6 3.6-3.6 3.6z"/><path class="g" d="m43.2 39.4h-16.3c-0.6 0-1.1-0.5-1.1-1.1v-0.5c0-0.6 0.5-1.1 1.1-1.1h16.3c0.6 0 1.1 0.5 1.1 1.1v0.5c0 0.6-0.5 1.1-1.1 1.1z"/><path fill-rule="evenodd" class="h" d="m44.3 35.1h-18.5v1.8h7.4l1.8 1.7 1.8-1.7h7.5z"/><path class="i" d="m41.4 32.9c-0.5 0-0.9 0.1-1.3 0.3-0.3-0.2-0.8-0.3-1.3-0.3-0.4 0-0.9 0.1-1.2 0.3-0.4-0.2-0.8-0.3-1.3-0.3-0.5 0-0.9 0.1-1.3 0.3-0.3-0.2-0.8-0.3-1.2-0.3-0.5 0-1 0.1-1.3 0.3-0.4-0.2-0.8-0.3-1.3-0.3-0.5 0-0.9 0.1-1.3 0.3-0.3-0.2-0.8-0.3-1.2-0.3-1.1 0-2 0.6-2 1.3 0 0.7 0.9 1.3 2 1.3 0.4 0 0.9-0.1 1.2-0.3 0.4 0.2 0.8 0.3 1.3 0.3 0.5 0 0.9-0.1 1.3-0.3 0.3 0.2 0.8 0.3 1.3 0.3 0.4 0 0.9-0.1 1.2-0.3 0.4 0.2 0.8 0.3 1.3 0.3 0.5 0 0.9-0.1 1.3-0.3 0.3 0.2 0.8 0.3 1.2 0.3 0.5 0 1-0.1 1.3-0.3 0.4 0.2 0.8 0.3 1.3 0.3 1.1 0 2-0.6 2-1.3 0-0.7-0.9-1.3-2-1.3z"/><path class="j" d="m42.9 33.8h-15.8c-0.7 0-1.3-0.6-1.3-1.3v-0.6c0-0.7 0.6-1.3 1.3-1.3h15.8c0.8 0 1.4 0.6 1.4 1.3v0.6c0 0.7-0.6 1.3-1.4 1.3z"/><path class="k" d="m45.4 31.1h-20.8v-2c0-2.5 2-4.5 4.4-4.5h12c2.5 0 4.4 2 4.4 4.5z"/><path class="l" d="m24.6 39.3h20.8v2.4c0 0.5-0.4 0.9-0.9 0.9h-18.9c-0.6 0-1-0.4-1-0.9z"/></svg>