<svg version="1.2" xmlns="http://www.w3.org/2000/svg" viewBox="0 0 68 70" width="68" height="70"><style>.a{fill:#94dc79}.b{fill:#2a428b}.c{fill:#1d2e79}.d{fill:#3f57a0}.e{fill:#bb81e3}.f{fill:#9957bc}.g{fill:#cf9cf7}.h{fill:#02c0fc}.i{fill:#27a6ff}.j{fill:#6ad9fb}.k{fill:#ff0363}.l{fill:#e51e82}.m{fill:#e8f8fc}.n{fill:#ade9f7}.o{fill:#fe3d97}.p{fill:#fef156}</style><path class="a" d="m12.3 61.4h44.1c6.9-6.1 11.3-15.1 11.3-25 0-18.5-14.9-33.4-33.3-33.4-18.5 0-33.4 14.9-33.4 33.4 0 9.9 4.4 18.9 11.3 25z"/><path class="b" d="m56.2 19.5q-0.7 1-1.5 1c-1 0-1.8-1-1.8-1l-0.1-0.1h-0.1q-4-0.5-5.6-3c-1.6-2.3-1.1-5.1-1-5.7 0.6-0.2 1.9-0.6 1.9-1.2 0-0.4-0.4-0.7-1.4-1q-1.3-0.3-1.9-1.2c-0.5-1-0.1-2.2-0.1-2.2v-0.2h-0.1q-1.4-0.8-1.8-2c-0.3-1.1 0.2-2.3 0.4-2.9h-14.6c-0.6 0.7-2.9 3.7 0 6.8-0.5 0.6-2.1 2.8-1.9 5.4q0.3 2.4 2.5 4.2c-0.5 0.4-1.7 1.6-1.9 3.2q-0.2 1.6 1 3.1c2.5 3.1 5.7 22.3 5.9 24-0.3 0.3-1.2 1.2-1.3 2.4q-0.1 1.3 1.2 2.5 1 1.1 1 2.2c-0.1 1.5-1.3 2.6-1.3 2.6-0.1 0-0.9 0.9-0.8 2q0 1 0.8 1.7c0.8 0.7 0.7 0.9 0.7 1 0 0.1-0.3 0.1-0.6 0.1h-0.1-0.1c0 0.1-1.4 1.3-2.2 3h21.3q1.9-1.3 3.7-2.8v-42.1q-0.1 0.1-0.2 0.2z"/><path class="c" d="m20.6 0c-4.5 0-8.3 3.7-8.3 8.3v53.1q1.8 1.5 3.7 2.8h15.7c0.7-1.7 2.1-2.8 2.1-2.8 0 0 1.8 0.1 0.1-1.4-1.8-1.6-0.1-3.5-0.1-3.5 0 0 2.9-2.5 0.3-5-2.5-2.6 0.3-4.7 0.3-4.7 0 0-3.3-20.9-6.1-24.2-2.7-3.4 1.1-6.2 1.1-6.2-5.4-4.2-0.6-9.7-0.6-9.7-3.4-3.3 0-6.7 0-6.7 0 0-8.2 0-8.2 0z"/><path class="d" d="m48.1 0h-5.2c-0.5 1.1-1.3 3.6 1.5 5 0 0-1 3 2.2 3.7 3.1 0.8-0.7 1.8-0.7 1.8 0 0-1.9 7.9 6.8 9.1 0 0 2 2.4 3.7 0v-11.3c0-4.6-3.7-8.3-8.3-8.3z"/><path class="e" d="m47.1 16.4c-1.6-2.3-1.1-5.1-1-5.7 0.6-0.2 1.9-0.6 1.9-1.2 0-0.4-0.4-0.7-1.4-1q-1.3-0.3-1.9-1.2c-0.5-1-0.1-2.2-0.1-2.2v-0.2h-0.1q-0.1 0.1-0.1 0.1c-0.7 1.1-1.8 1.7-3.1 1.7h-1.2l-0.6 1.4c-2 4.8-6.2 7.5-10.6 8.1q0.1 0.1 0.2 0.2c-0.5 0.4-1.7 1.6-1.9 3.2q-0.2 1.6 1 3.1c0.7 0.8 1.4 2.9 2.1 5.5q2-0.2 4.1-0.8c9.6-2.8 14.4-0.3 18.3 4.3v-12.3q-4-0.6-5.6-3z"/><path class="f" d="m30.5 28.1c-0.7-2.6-1.5-4.7-2.2-5.5-2.7-3.4 1.1-6.2 1.1-6.2q-0.1-0.1-0.3-0.2c-4.7 0.8-9.9-0.9-13.1-5.2v12.8c4.1 3.4 9.1 4.9 14.5 4.3z"/><path class="g" d="m48.1 3.7h-1.3c-1 0-1.9 0.5-2.4 1.3 0 0-1 3 2.2 3.7 3.1 0.8-0.7 1.8-0.7 1.8 0 0-1.9 7.9 6.8 9.1v-11.3c0-2.6-2.1-4.6-4.6-4.6z"/><path class="h" d="m34.1 46.7c-0.3 0.3-1.2 1.2-1.3 2.4q-0.1 1.3 1.2 2.5 1 1.1 1 2.2c-0.1 1.5-1.3 2.6-1.3 2.6-0.1 0-0.9 0.9-0.8 2q0 1 0.8 1.7c0.8 0.7 0.7 0.9 0.7 1 0 0.1-0.3 0.1-0.6 0.1h-0.1-0.1c-0.1 0.1-2.7 2.5-2.7 5.5q0 1.5 1.1 2.9 1.1 0.1 2.4 0.1c6.7 0 13-2 18.3-5.5-2.4-2.7-4.3-6.1-5.6-9-2.6-5.5-4.9-10.4-13.4-11.3 0.2 1.4 0.4 2.5 0.4 2.8z"/><path class="i" d="m33.8 61.4c0 0 1.8 0.1 0.1-1.4-1.8-1.6-0.1-3.5-0.1-3.5 0 0 2.9-2.5 0.3-5-2.5-2.6 0.3-4.7 0.3-4.7 0 0-0.2-1.1-0.5-2.9q-1.5-0.2-3.2-0.2-1.1 0-2.3 0.1c-4.7 0.3-9.1-0.8-12.4-2.9v23.3c4.7 3.1 10.3 5.1 16.2 5.5-3.2-4.3 1.6-8.3 1.6-8.3z"/><path class="g" d="m28.5 6.7q0 0.1 0 0.1c-0.5 0.6-2.1 2.8-1.9 5.5q0.3 2.3 2.5 4.1-0.1 0-0.1 0.1c4.4-0.7 8.5-3.4 10.5-8.2l0.7-1.6c0 0-11.7 0-11.7 0z"/><path class="e" d="m27.4 6.7c-1.3 0-2.4-0.6-3-1.7-0.6-0.8-1.5-1.3-2.4-1.3h-1.4c-2.5 0-4.6 2-4.6 4.6v3c3.3 4.3 8.6 6 13.4 5.1-5.4-4.2-0.6-9.7-0.6-9.7 0 0-1.4 0-1.4 0z"/><path class="j" d="m34.4 27.2q-2.2 0.6-4.1 0.8c1.4 5.1 2.7 12.2 3.4 16.1 13 1.4 11.3 12.3 18.8 20.3q0.1-0.1 0.2-0.2v-32.7c-3.7-4.4-8-7.3-18.3-4.3z"/><path class="h" d="m16 23.6v17.5c3.1 2 7.2 3.2 12.4 2.9q3.1-0.2 5.5 0.1c-0.7-3.9-2-11-3.4-16.1-6.1 0.8-10.9-1.2-14.5-4.4z"/><path class="k" d="m47.8 33.6q-3.6-0.1-5.8-3.5-2.2-3.4-1.1-6.3 0.3-0.7 0.6-1.2c-2.2-0.2-4.5 0.4-6.4 1.9-0.4 0.3-1 0.3-1.5 0-1.7-1.3-3.7-2-5.7-2q0.1 0.1 0.2 0.1c-0.1 0.3-0.3 0.8-0.5 1.4-0.3 1.2-0.2 2.2 0.3 3.1q1 1.9 4.5 2.4l3.7 9.6c-0.1 0.2-0.2 1.6 0.7 2.6q1 1.1 2.9 1.2c1.4-1.1 3-2 4.8-2.9 2.8-1.3 4.6-3.8 5.2-6.5-0.5 0.1-1.2 0.2-1.9 0.1z"/><path class="l" d="m24.2 40c3.6 1.7 6.2 3.9 8.3 6 1 1.1 2.7 1.1 3.7 0 1.1-1.1 2.3-2.2 3.8-3.3q0 0 0 0c-4.3 0-3.8-3.6-3.8-3.6l-3.7-9.8c-7.4-0.8-4.2-6.7-4.2-6.7-2.7-0.1-5.4 1-7.2 3.2h-0.1c-3.9 4.6-2.3 11.7 3.2 14.2z"/><path class="m" d="m39.2 32.3h-2.8c-0.1 0-0.2-0.1-0.2-0.2h-0.1c0 0-3 2.2 0 4.1q0.1 0.1 0.1 0.1 0 0 0-0.1c0-0.1 0.1-0.2 0.2-0.2h2.8c0.4 0 0.8-0.3 0.8-0.7v-2.3c0-0.4-0.4-0.7-0.8-0.7z"/><path class="n" d="m29.5 36h2.8c0.1 0 0.2 0.1 0.2 0.2v2.9c0 0.4 0.3 0.7 0.7 0.7h2.3c0.4 0 0.7-0.3 0.7-0.7 0-0.8 0-2.2 0-2.9-3-1.9 0-4.1 0-4.1 0-0.6 0-2.1 0-2.8 0-0.4-0.3-0.7-0.7-0.7h-2.3c-0.4 0-0.7 0.3-0.7 0.7v2.8c0 0.1-0.1 0.2-0.2 0.2-0.9 0-2.2 0-2.8 0-0.4 0-0.7 0.3-0.7 0.7v2.3c0 0.4 0.3 0.7 0.7 0.7z"/><path class="o" d="m47.7 25.8c-1.7-2-4-3.1-6.4-3.2-0.9 1.4-1.7 4 0.6 7.5 2.5 3.9 5.9 3.9 7.8 3.5 0.5-2.6 0-5.5-2-7.8z"/><path class="m" d="m24.6 57.1h-2.4c-1.6 0-2.9-1.3-2.9-2.9 0-1.7 1.3-3 2.9-3h2.4c1.6 0 3 1.3 3 3 0 1.6-1.4 2.9-3 2.9z"/><path class="m" d="m35.5 57.1h-2.3c-1.7 0-3-1.3-3-2.9 0-1.7 1.3-3 3-3h2.3c1.7 0 3 1.3 3 3 0 1.6-1.3 2.9-3 2.9z"/><path class="m" d="m46.5 57.1h-2.4c-1.6 0-2.9-1.3-2.9-2.9 0-1.7 1.3-3 2.9-3h2.4c1.6 0 3 1.3 3 3 0 1.6-1.4 2.9-3 2.9z"/><path class="j" d="m47.1 60.6c0-0.6-0.5-1.1-1.1-1.1h-1.4c-0.6 0-1.1 0.5-1.1 1.1 0 0.6 0.5 1.1 1.1 1.1h1.4c0.6 0 1.1-0.5 1.1-1.1z"/><path class="p" d="m50.2 9.4c0-0.6-0.5-1.1-1.1-1.1h-3.2c-0.6 0-1.1 0.5-1.1 1.1 0 0.6 0.5 1.1 1.1 1.1h3.2c0.6 0 1.1-0.5 1.1-1.1z"/><path class="g" d="m23.9 9.4c0-0.6-0.5-1.1-1.1-1.1h-3.1c-0.7 0-1.2 0.5-1.2 1.1 0 0.6 0.5 1.1 1.2 1.1h3.1c0.6 0 1.1-0.5 1.1-1.1z"/><path class="j" d="m36.1 60.6c0-0.6-0.5-1.1-1.1-1.1h-1.3c-0.6 0-1.1 0.5-1.1 1.1 0 0.6 0.5 1.1 1.1 1.1h1.3c0.6 0 1.1-0.5 1.1-1.1z"/><path class="j" d="m25.2 60.6c0-0.6-0.5-1.1-1.1-1.1h-1.4c-0.6 0-1.1 0.5-1.1 1.1 0 0.6 0.5 1.1 1.1 1.1h1.4c0.6 0 1.1-0.5 1.1-1.1z"/></svg>