<svg version="1.2" xmlns="http://www.w3.org/2000/svg" viewBox="0 0 70 70" width="70" height="70"><style>.a{fill:#11bef7}.b{fill:#f7b84e}.c{fill:#ffcb5b}.d{fill:#faa845}.e{fill:#ee2b39}.f{fill:#676873}.g{fill:#494a52}.h{fill:#595a66}.i{fill:#00ade6}</style><path class="a" d="m56.9 47.4v-7.7q0-0.3-0.2-0.5-0.2-0.2-0.5-0.2h-18.4v-1.7h18.4c0.7 0 1.3 0.3 1.7 0.7 0.5 0.5 0.8 1.1 0.8 1.7v7.7c0 0-1.8 0-1.8 0z"/><path class="a" d="m58.7 22.9v7.6c0 0.7-0.3 1.3-0.8 1.7-0.4 0.4-1 0.7-1.7 0.7h-18.4v-1.7h18.4q0.3 0 0.5-0.2 0.2-0.2 0.2-0.5v-7.6z"/><path fill-rule="evenodd" class="b" d="m57.8 22.9c-6.4 0-11.5-5.1-11.5-11.5 0-6.3 5.1-11.4 11.5-11.4 6.4 0 11.5 5.1 11.5 11.4 0 6.4-5.1 11.5-11.5 11.5z"/><path fill-rule="evenodd" class="c" d="m59.5 0.1c5.6 0.8 9.8 5.6 9.8 11.3 0 5.8-4.2 10.5-9.8 11.4-5.5-0.9-9.8-5.6-9.8-11.4 0-5.7 4.3-10.5 9.8-11.3z"/><path class="d" d="m58.7 18.5c0 0.5-0.4 0.9-0.9 0.9-0.5 0-0.9-0.4-0.9-0.9v-1c-0.7-0.1-1.4-0.5-2-0.9-0.8-0.7-1.3-1.6-1.3-2.7 0-0.5 0.4-0.8 0.9-0.8 0.5 0 0.8 0.3 0.8 0.8 0 0.5 0.3 1 0.7 1.4 0.5 0.4 1.1 0.6 1.8 0.6 0.7 0 1.3-0.2 1.8-0.6 0.4-0.4 0.6-0.9 0.6-1.4 0-1.4-1.2-1.7-2.5-2-1.8-0.4-3.6-0.8-3.6-3.3 0-0.9 0.4-1.8 1.1-2.4 0.5-0.4 1.1-0.7 1.7-0.8v-1c0-0.5 0.4-0.9 0.9-0.9 0.5 0 0.9 0.4 0.9 0.9v1c0.6 0.1 1.2 0.4 1.7 0.8 0.7 0.6 1.1 1.5 1.1 2.4 0 0.5-0.4 0.9-0.8 0.9-0.5 0-0.9-0.4-0.9-0.9 0-0.4-0.2-0.8-0.5-1.1-0.4-0.3-0.9-0.5-1.5-0.5-0.6 0-1.1 0.2-1.5 0.5-0.3 0.3-0.5 0.7-0.5 1.1 0 1.2 1.1 1.4 2.3 1.7 1.9 0.4 3.9 0.8 3.9 3.6 0 1.1-0.5 2-1.3 2.7-0.6 0.4-1.3 0.8-2 0.9 0 0 0 1 0 1z"/><path fill-rule="evenodd" class="b" d="m57.8 69.7c-6.4 0-11.5-5.1-11.5-11.4 0-6.4 5.1-11.5 11.5-11.5 6.4 0 11.5 5.1 11.5 11.5 0 6.3-5.1 11.4-11.5 11.4z"/><path fill-rule="evenodd" class="c" d="m59.5 47c5.6 0.8 9.8 5.5 9.8 11.3 0 5.7-4.2 10.5-9.8 11.3-5.5-0.8-9.8-5.6-9.8-11.3 0-5.8 4.3-10.5 9.8-11.3z"/><path fill-rule="evenodd" class="e" d="m57.8 52.4l1.8 4 4.5 0.5-3.4 2.9 1 4.4-3.9-2.2-3.9 2.2 1-4.4-3.4-2.9 4.5-0.5z"/><path fill-rule="evenodd" class="f" d="m5.4 69.7h31.4c2.7 0 5-2.2 5-4.9v-59.9c0-2.7-2.3-4.9-5-4.9h-31.4c-2.8 0-5 2.2-5 4.9v59.9c0 2.7 2.2 4.9 5 4.9z"/><path fill-rule="evenodd" class="a" d="m5.4 4.3h31.4c0.3 0 0.6 0.3 0.6 0.6v56.7h-32.6v-56.7c0-0.3 0.3-0.6 0.6-0.6z"/><path class="g" d="m18.3 66.5c-0.5 0-0.9-0.4-0.9-0.8 0-0.5 0.4-0.9 0.9-0.9h6c0.5 0 0.9 0.4 0.9 0.9 0 0.4-0.4 0.8-0.9 0.8z"/><path fill-rule="evenodd" class="b" d="m16.3 41.9c-0.8-1.9-1.8-3.4-3.1-5.4-1-1.5-1.5-3.2-1.5-5 0-5.2 4.2-9.3 9.4-9.3 5.2 0 9.4 4.1 9.4 9.3 0 1.8-0.6 3.5-1.5 5-1.3 2-2.3 3.5-3.1 5.4z"/><path fill-rule="evenodd" class="c" d="m22.2 22.2c4.6 0.6 8.3 4.5 8.3 9.3 0 1.8-0.6 3.5-1.5 5-1.3 2-2.3 3.5-3.1 5.4h-7.5c-0.7-1.9-1.8-3.4-3.1-5.4-0.9-1.5-1.4-3.2-1.4-5 0-4.8 3.6-8.7 8.3-9.3z"/><path class="c" d="m20.2 16.6c0-0.5 0.4-0.9 0.9-0.9 0.5 0 0.9 0.4 0.9 0.9v2.5c0 0.5-0.4 0.9-0.9 0.9-0.5 0-0.9-0.4-0.9-0.9z"/><path class="c" d="m31.5 20.5c0.3-0.3 0.9-0.3 1.2 0 0.3 0.3 0.3 0.9 0 1.2l-1.8 1.8q-0.3 0.3-0.7 0.3-0.3-0.1-0.5-0.3-0.3-0.2-0.3-0.5c0-0.3 0.1-0.5 0.2-0.7 0 0 1.9-1.8 1.9-1.8z"/><path class="c" d="m9.5 21.7c-0.3-0.3-0.3-0.9 0-1.2 0.3-0.3 0.9-0.3 1.2 0l1.8 1.8q0.2 0.2 0.3 0.5c0 0.2 0 0.5-0.2 0.7-0.2 0.2-0.5 0.3-0.8 0.3q-0.3-0.1-0.5-0.3c0 0-1.8-1.8-1.8-1.8z"/><path class="d" d="m23.8 41.7c0 0.4-0.4 0.8-0.9 0.8-0.4 0-0.8-0.4-0.8-0.8v-7.4h-2v7.4c0 0.4-0.4 0.8-0.8 0.8-0.5 0-0.9-0.4-0.9-0.8v-7.4h-1.2c-0.7 0-1.5-0.4-2-0.9-0.5-0.5-0.8-1.2-0.8-2 0-0.8 0.3-1.5 0.8-2 0.5-0.5 1.3-0.8 2-0.8 0.8 0 1.5 0.3 2.1 0.8 0.5 0.5 0.8 1.2 0.8 2v1.2h2v-1.2c0-0.8 0.3-1.5 0.8-2 0.5-0.5 1.3-0.8 2-0.8 0.8 0 1.6 0.3 2.1 0.8 0.5 0.5 0.8 1.2 0.8 2 0 0.8-0.3 1.5-0.8 2-0.5 0.5-1.3 0.9-2.1 0.9h-1.1c0 0 0 7.4 0 7.4zm0-10.3v1.2h1.1c0.4 0 0.7-0.2 0.9-0.4 0.2-0.2 0.3-0.5 0.3-0.8 0-0.3-0.1-0.6-0.3-0.8-0.2-0.2-0.5-0.3-0.9-0.3q-0.4 0-0.8 0.3c-0.2 0.2-0.3 0.5-0.3 0.8zm-6.6 1.2h1.2v-1.2c0-0.3-0.1-0.6-0.3-0.8-0.2-0.2-0.5-0.3-0.9-0.3q-0.4 0-0.8 0.3c-0.2 0.2-0.3 0.5-0.3 0.8 0 0.3 0.1 0.6 0.3 0.8 0.2 0.2 0.5 0.4 0.8 0.4z"/><path fill-rule="evenodd" class="g" d="m18 49.4h6.1c0.3 0 0.5-0.2 0.5-0.5v-2.9h-7.1v2.9c0 0.3 0.3 0.5 0.5 0.5z"/><path fill-rule="evenodd" class="h" d="m20.2 49.4h3.9c0.3 0 0.5-0.2 0.5-0.5v-2.9h-4.9v2.9c0 0.3 0.2 0.5 0.5 0.5z"/><path fill-rule="evenodd" class="h" d="m16.9 46h8.4c0.4 0 0.6-0.3 0.6-0.6v-3.5h-9.6v3.5c0 0.3 0.2 0.6 0.6 0.6z"/><path fill-rule="evenodd" class="f" d="m19 46h6.3c0.4 0 0.6-0.3 0.6-0.6v-3.5h-7.5v3.5c0 0.3 0.3 0.6 0.6 0.6z"/><path fill-rule="evenodd" class="i" d="m4.9 4.3h3.8c0.1 0 0.1 0.3 0.1 0.6v56.7h-4v-56.7c0-0.3 0-0.6 0.1-0.6z"/></svg>