<svg version="1.2" xmlns="http://www.w3.org/2000/svg" viewBox="0 0 69 70" width="69" height="70"><style>.a{fill:#7a8a93}.b{fill:#687780}.c{fill:#9cc6fa}.d{fill:#7fb4fb}.e{fill:#f9f6f6}.f{fill:#dddaec}.g{fill:#d0cee7}.h{fill:#e28086}.i{fill:#dd636e}</style><path class="a" d="m35.1 0h-27.7c-3.8 0-6.8 3-6.8 6.8v41.7c0 3.8 3 6.8 6.8 6.8h27.7c3.7 0 6.8-3 6.8-6.8v-41.7c0-3.8-3.1-6.8-6.8-6.8z"/><path class="b" d="m11.2 55.3h-3.8c-3.8 0-6.8-3-6.8-6.8v-41.7c0-3.8 3-6.8 6.8-6.8h3.8c-3.7 0-6.8 3-6.8 6.8v41.7c0 3.8 3.1 6.8 6.8 6.8z"/><path class="c" d="m37.4 8.3v38.7c0 2.1-1.7 3.9-3.9 3.9h-24.6c-2.1 0-3.9-1.8-3.9-3.9v-38.7c0-2.1 1.8-3.8 3.9-3.8h3.8v0.1c0 2.2 1.8 4 4 4h9.1c2.2 0 4-1.8 4-4v-0.1h3.7c2.2 0 3.9 1.7 3.9 3.8z"/><path class="d" d="m12.6 50.9h-3.7c-2.1 0-3.9-1.8-3.9-3.9v-38.7c0-2.1 1.8-3.8 3.9-3.8h3.7c-2.1 0-3.9 1.7-3.9 3.8v38.7c0 2.1 1.8 3.9 3.9 3.9z"/><path class="b" d="m25.7 5.5h-8.9c-0.6 0-1.1-0.5-1.1-1 0-0.6 0.5-1.1 1.1-1.1h8.9c0.5 0 1 0.5 1 1.1 0 0.5-0.5 1-1 1z"/><path class="e" d="m15.7 33.5c-0.3 0-0.6-0.1-0.8-0.4l-4.5-4.5c-0.2-0.2-0.3-0.5-0.3-0.8 0-0.2 0.1-0.5 0.3-0.7l4.5-4.6c0.4-0.4 1.1-0.4 1.5 0 0.4 0.5 0.4 1.1 0 1.5l-3.8 3.8 3.8 3.9c0.4 0.4 0.4 1 0 1.4-0.2 0.3-0.5 0.4-0.7 0.4z"/><path class="e" d="m26.8 33.5c-0.3 0-0.6-0.1-0.8-0.4-0.4-0.4-0.4-1 0-1.4l3.8-3.9-3.8-3.8c-0.4-0.4-0.4-1 0-1.5 0.4-0.4 1.1-0.4 1.5 0l4.6 4.6c0.2 0.2 0.3 0.5 0.3 0.7 0 0.3-0.1 0.6-0.3 0.8l-4.6 4.5c-0.2 0.3-0.5 0.4-0.7 0.4z"/><path class="e" d="m19.1 36.9q-0.2 0-0.3-0.1c-0.6-0.1-0.9-0.7-0.8-1.2l3.9-16c0.1-0.5 0.7-0.9 1.3-0.7 0.5 0.1 0.9 0.7 0.7 1.2l-3.8 16c-0.1 0.4-0.6 0.8-1 0.8z"/><path class="f" d="m56.8 39.6l-5.6 19h-15l-5.9-19.2h24.4q1.1 0 2.1 0.2z"/><path class="g" d="m56.8 39.6l-5.6 19h-2.1l-2.7-7.2c-2-5.1 1.1-10.8 6.5-11.9q0.9-0.2 1.8-0.1 1.1 0 2.1 0.2z"/><path class="e" d="m32.4 39.5c-4.8-0.9-9.4 2.2-10.4 7l-2.9 14.4c-0.8 4.1 1.9 8.1 6 9 3.7 0.7 7.3-1.3 8.6-4.8l5.3-13.7c1.9-5.1-1.2-10.8-6.6-11.9z"/><path class="f" d="m28.2 69.8q-0.8 0.2-1.6 0.2-0.7 0-1.5-0.1c-4.1-0.9-6.8-4.9-6-9l2.9-14.4c1-4.8 5.6-7.9 10.3-7-3.4 0.7-6.3 3.3-7 7l-2.9 14.4c-0.8 4.1 1.8 8 5.8 8.9z"/><path class="e" d="m55 39.5c4.8-0.9 9.4 2.2 10.4 7l2.9 14.4c0.8 4.1-1.9 8.1-6 9-3.7 0.7-7.3-1.3-8.6-4.8l-5.3-13.7c-1.9-5.1 1.2-10.8 6.6-11.9z"/><path class="f" d="m62.4 69.8q0 0-0.1 0.1-0.8 0.1-1.5 0.1c-3.1 0-6-1.9-7.1-4.9l-5.3-13.7c-1.9-5.1 1.2-10.8 6.6-11.9q1.7-0.3 3.4 0-0.1 0-0.2 0c-5.3 1.1-8.5 6.8-6.5 11.9l5.3 13.7c0.9 2.5 3 4.2 5.4 4.7z"/><path class="a" d="m32.9 46.8h-0.8v-0.8c0-1.1-0.9-2.1-2.1-2.1-1.1 0-2 1-2 2.1v0.8h-0.8c-1.2 0-2.1 0.9-2.1 2.1 0 1.1 0.9 2 2.1 2h0.8v0.8c0 1.2 0.9 2.1 2 2.1 1.2 0 2.1-0.9 2.1-2.1v-0.8h0.8c1.1 0 2.1-0.9 2.1-2 0-1.2-1-2.1-2.1-2.1z"/><path class="b" d="m30.8 53.6q-0.3 0.2-0.8 0.2c-1.1 0-2-0.9-2-2.1v-0.8h-0.8c-0.6 0-1.1-0.2-1.5-0.6-0.4-0.3-0.6-0.9-0.6-1.4 0-1.2 0.9-2.1 2.1-2.1h0.8v-0.8c0-1.1 0.9-2.1 2-2.1q0.5 0 0.8 0.2c-0.7 0.3-1.3 1-1.3 1.9v0.8h-0.8c-1.1 0-2 0.9-2 2.1 0 0.5 0.2 1.1 0.6 1.4 0.3 0.4 0.9 0.6 1.4 0.6h0.8v0.8c0 0.9 0.6 1.6 1.3 1.9z"/><path fill-rule="evenodd" class="h" d="m59.3 48.1c-1.1 0-2-0.9-2-2.1 0-1.1 0.9-2.1 2-2.1 1.2 0 2.1 1 2.1 2.1 0 1.2-0.9 2.1-2.1 2.1z"/><path fill-rule="evenodd" class="h" d="m53.7 52.2c-1.1 0-2-0.9-2-2.1 0-1.1 0.9-2 2-2 1.2 0 2.1 0.9 2.1 2 0 1.2-0.9 2.1-2.1 2.1z"/><path class="i" d="m60.1 47.9q-0.3 0.2-0.8 0.2c-1.1 0-2-0.9-2-2.1 0-1.1 0.9-2.1 2-2.1q0.5 0 0.8 0.2c-0.7 0.3-1.2 1-1.2 1.9 0 0.9 0.5 1.6 1.2 1.9z"/><path class="i" d="m54.5 52.1q-0.3 0.1-0.8 0.1c-1.1 0-2-0.9-2-2.1 0-1.1 0.9-2 2-2q0.5 0 0.8 0.1c-0.7 0.4-1.2 1.1-1.2 1.9 0 0.9 0.5 1.6 1.2 2z"/><path class="a" d="m44.9 55.2h-2.4c-0.9 0-1.5-0.7-1.5-1.5 0-0.8 0.6-1.5 1.5-1.5h2.4c0.9 0 1.5 0.7 1.5 1.5 0 0.8-0.6 1.5-1.5 1.5z"/><path class="b" d="m44.2 55.2h-1.7c-0.9 0-1.5-0.6-1.5-1.5 0-0.4 0.1-0.8 0.4-1 0.3-0.3 0.6-0.5 1.1-0.5h1.7c-0.4 0-0.8 0.2-1.1 0.5-0.3 0.2-0.4 0.6-0.4 1 0 0.9 0.6 1.5 1.5 1.5z"/></svg>