<svg version="1.2" xmlns="http://www.w3.org/2000/svg" viewBox="0 0 70 70" width="70" height="70"><style>.a{fill:#6d6e71}.b{fill:#ebbf00}.c{fill:#ffda44}.d{fill:#96c8ef}.e{fill:#7ed63e}.f{fill:#d1e7f8}.g{fill:#ff3051}.h{fill:#57a4ff}.i{fill:#58595b}.j{fill:#ed1c24}.k{fill:#ff9811}.l{fill:#f1f2f2}</style><path fill-rule="evenodd" class="a" d="m18.1 0h33.8c2.7 0 4.8 2.2 4.8 4.8v55.5c0 2.7-2.1 4.9-4.8 4.9h-33.8c-2.7 0-4.8-2.2-4.8-4.9v-55.5c0-2.6 2.1-4.8 4.8-4.8z"/><path class="b" d="m53.1 6q0-0.4-0.2-0.9-0.2-0.4-0.5-0.8-0.3-0.3-0.8-0.5-0.4-0.2-0.9-0.2h-6q-0.5 0-1 0.2-0.4 0.2-0.8 0.5-0.3 0.4-0.5 0.8-0.2 0.5-0.2 1 0 0.4-0.1 0.9-0.2 0.4-0.6 0.8-0.3 0.3-0.8 0.5-0.4 0.2-0.9 0.1h-9.6q-0.5 0-1-0.1-0.4-0.2-0.7-0.6-0.4-0.3-0.6-0.8-0.1-0.4-0.1-0.9 0-0.5-0.2-0.9-0.2-0.5-0.5-0.8-0.4-0.3-0.8-0.5-0.5-0.2-0.9-0.2h-6.1q-0.5 0-0.9 0.2-0.5 0.2-0.8 0.5-0.3 0.4-0.5 0.8-0.2 0.5-0.2 0.9v49.5q0 0.5 0.2 0.9 0.2 0.5 0.5 0.8 0.3 0.4 0.8 0.5 0.4 0.2 0.9 0.2h31.4q0.5 0 0.9-0.2 0.5-0.1 0.8-0.5 0.3-0.3 0.5-0.8 0.2-0.4 0.2-0.9z"/><path class="c" d="m53.1 6q0-0.4-0.2-0.9-0.2-0.4-0.5-0.8-0.3-0.3-0.8-0.5-0.4-0.2-0.9-0.2h-6.1q-0.5 0-1 0.2-0.4 0.2-0.7 0.6-0.3 0.3-0.5 0.8-0.2 0.4-0.2 0.9 0 0.5-0.2 0.9-0.1 0.4-0.5 0.8-0.3 0.3-0.8 0.5-0.4 0.1-0.9 0.1h-9.7q-0.5 0-0.9-0.2-0.5-0.2-0.8-0.5-0.3-0.3-0.5-0.8-0.2-0.4-0.1-0.9-0.1-0.5-0.2-0.9-0.2-0.5-0.6-0.8-0.3-0.3-0.7-0.5-0.5-0.2-1-0.2h-6q-0.5 0-0.9 0.2-0.5 0.2-0.8 0.5-0.3 0.4-0.5 0.8-0.2 0.5-0.2 0.9v45.9l36.2-45.5z"/><path fill-rule="evenodd" class="d" d="m2.4 22.9h24.2c1.3 0 2.4 1.1 2.4 2.4v24.2c0 1.3-1.1 2.4-2.4 2.4h-24.2c-1.3 0-2.4-1.1-2.4-2.4v-24.2c0-1.3 1.1-2.4 2.4-2.4z"/><path fill-rule="evenodd" class="e" d="m13.3 47.1c-4.7 0-8.5-3.8-8.5-8.5 0-4.7 3.8-8.4 8.5-8.4 4.6 0 8.4 3.7 8.4 8.4 0 4.7-3.8 8.5-8.4 8.5z"/><path fill-rule="evenodd" class="f" d="m43.4 22.9h24.2c1.3 0 2.4 1.1 2.4 2.4v24.2c0 1.3-1.1 2.4-2.4 2.4h-24.2c-1.3 0-2.4-1.1-2.4-2.4v-24.2c0-1.3 1.1-2.4 2.4-2.4z"/><path class="g" d="m64.4 31.8q-0.5-0.5-1.2-0.7-0.6-0.3-1.4-0.3-0.7 0-1.3 0.3-0.7 0.2-1.2 0.7l-2.6 2.6-2.5-2.6c-0.7-0.6-1.6-1-2.6-1-1 0-1.9 0.4-2.6 1.1-0.6 0.6-1 1.6-1 2.5 0 1 0.4 1.9 1 2.6l7.7 7.7 7.7-7.7q0.5-0.5 0.8-1.2 0.3-0.7 0.3-1.4 0-0.7-0.3-1.4-0.3-0.6-0.8-1.2z"/><path fill-rule="evenodd" class="h" d="m22.9 13.3h24.2c1.3 0 2.4 1.1 2.4 2.4v24.1c0 1.4-1.1 2.4-2.4 2.4h-24.2c-1.3 0-2.4-1-2.4-2.4v-24.1c0-1.3 1.1-2.4 2.4-2.4z"/><path class="i" d="m51.9 65.2h-33.8q-1 0-1.8-0.4-0.9-0.4-1.6-1-0.7-0.7-1.1-1.6-0.3-0.9-0.3-1.9v4.9q0 0.9 0.3 1.8 0.4 0.9 1.1 1.6 0.7 0.7 1.6 1 0.8 0.4 1.8 0.4h33.8q1 0 1.8-0.4 0.9-0.3 1.6-1 0.7-0.7 1.1-1.6 0.3-0.9 0.3-1.8v-4.9q0 1-0.3 1.9-0.4 0.9-1.1 1.6-0.7 0.6-1.6 1-0.8 0.4-1.8 0.4z"/><path class="j" d="m18.1 45.5v-0.8c0-1.3-0.5-2.6-1.4-3.5-0.9-0.9-2.1-1.4-3.4-1.4-1.3 0-2.5 0.5-3.4 1.4-0.9 0.9-1.5 2.2-1.5 3.5v0.8q1.1 0.8 2.3 1.2 1.3 0.4 2.6 0.4 1.3 0 2.5-0.4 1.2-0.4 2.3-1.2z"/><path class="k" d="m44.7 30.2h-3.9l2.7 2.7-3.4 3.4-2.7-2.7v3.8h-4.8v-3.8l-2.7 2.7-3.4-3.4 2.7-2.7h-3.9v-4.9h3.9l-2.7-2.7 3.4-3.4 2.7 2.7v-3.8h4.8v3.8l2.7-2.7 3.4 3.4-2.7 2.7h3.9z"/><path fill-rule="evenodd" class="l" d="m35 30.2c-1.3 0-2.4-1.1-2.4-2.4 0-1.4 1.1-2.5 2.4-2.5 1.3 0 2.4 1.1 2.4 2.5 0 1.3-1.1 2.4-2.4 2.4z"/><path fill-rule="evenodd" class="j" d="m13.3 38.6c-1.4 0-2.4-1.1-2.4-2.4 0-1.3 1-2.4 2.4-2.4 1.3 0 2.4 1.1 2.4 2.4 0 1.3-1.1 2.4-2.4 2.4z"/><path fill-rule="evenodd" class="l" d="m33.8 3.6v2.4h-2.4v-2.4z"/><path fill-rule="evenodd" class="l" d="m38.6 3.6v2.4h-2.4v-2.4z"/><path fill-rule="evenodd" class="l" d="m38.6 60.3v2.5h-7.2v-2.5z"/></svg>