<svg version="1.2" xmlns="http://www.w3.org/2000/svg" viewBox="0 0 62 71" width="62" height="71"><style>.a{fill:#111d33}.b{fill:#4c5c75}.c{fill:#f1f6fa}.d{fill:#fff}.e{fill:#9ea9c9}.f{fill:#c9cee2}.g{fill:#66a9c5}.h{fill:#376630}.i{fill:#78e75a}.j{fill:#57b3fe}.k{fill:#1d2943}.l{fill:#e93565}.m{fill:#f45170}.n{fill:#b28afd}.o{fill:#febc1f}.p{fill:#ffde9b}.q{fill:#72d561}.r{fill:#5ec363}.s{fill:#df3260}.t{fill:#81d672}</style><path class="a" d="m48.7 51.9c0 2.5-1.7 5.6-3.9 6.9l-19.5 11.2c-1.2 0.7-2.3 0.7-3 0.2q0.1 0.1 0.2 0.1l-2.8-1.6c-0.7-0.4-1.2-1.3-1.2-2.5l-0.1-46.7c0-2.5 1.8-5.6 3.9-6.8l19.5-11.3c1.1-0.6 2.1-0.7 2.8-0.3l2.8 1.6q0 0-0.1 0c0.8 0.4 1.3 1.3 1.3 2.6z"/><path class="a" d="m47.4 2.7c-0.7-0.4-1.7-0.3-2.8 0.3l-19.5 11.3c-2.2 1.3-3.9 4.3-3.9 6.8l0.1 46.7c0 1.2 0.5 2.1 1.2 2.5l-2.8-1.6c-0.7-0.4-1.2-1.3-1.2-2.6l-0.1-46.6c0-2.5 1.8-5.6 3.9-6.8l19.5-11.3c1.1-0.6 2.1-0.7 2.8-0.3z"/><path class="b" d="m44.6 3c2.2-1.2 4-0.2 4 2.3l0.1 46.6c0 2.5-1.8 5.6-3.9 6.9l-19.5 11.2c-2.2 1.3-4 0.3-4-2.2l-0.1-46.7c0-2.5 1.8-5.5 3.9-6.8z"/><path class="c" d="m34.9 9.9c0.2-0.1 0.4 0 0.4 0.3 0 0.2-0.2 0.5-0.4 0.7-0.2 0.1-0.4 0-0.4-0.3 0-0.2 0.1-0.6 0.4-0.7z"/><path class="d" d="m47.6 52.6c0 1.8-1.3 4-2.8 4.9l-19.5 11.3c-1.6 0.9-2.9 0.2-2.9-1.7l-0.1-46.6c0-1.8 1.3-4 2.9-4.9l7.8-4.6c0.2-0.1 0.4-0.1 0.5 0.1 0.4 0.7 1.3 0.1 1.5 0.1 0.5-0.4 1-1 1.3-1.8 0.1-0.2 0.2-0.5 0.4-0.6l7.9-4.5c1.6-0.9 2.9-0.2 2.9 1.6z"/><path class="e" d="m20.6 25.8q-0.1 0.4-0.3 0.5l-0.3 0.2q-0.2 0.1-0.5-0.1c-0.4-0.2-0.8-0.8-0.8-1.3q0-0.4 0.2-0.5l0.3-0.2q0.2-0.1 0.6 0.1c0.4 0.2 0.8 0.8 0.8 1.3z"/><path class="e" d="m18.7 22.3q0-0.4 0.2-0.5l0.3-0.2q0.3-0.1 0.6 0.1c0.4 0.2 0.8 0.8 0.8 1.3q0 0.4-0.3 0.5l-0.3 0.2q-0.2 0.1-0.5-0.1c-0.4-0.2-0.8-0.8-0.8-1.3z"/><path class="e" d="m19.5 21.8c0.4 0.3 0.8 0.9 0.8 1.4 0 0.5-0.4 0.7-0.8 0.4-0.4-0.2-0.8-0.8-0.8-1.3 0-0.5 0.4-0.7 0.8-0.5z"/><path class="f" d="m19.5 21.8c0.4 0.3 0.8 0.9 0.8 1.4q0 0.4-0.3 0.5l0.3-0.2q0.3-0.1 0.3-0.5c0-0.5-0.4-1.1-0.8-1.3q-0.3-0.2-0.6-0.1l-0.3 0.2q0.3-0.2 0.6 0z"/><path class="f" d="m19.8 24.5q-0.4-0.2-0.6-0.1l-0.3 0.2q0.3-0.2 0.6 0c0.4 0.3 0.8 0.9 0.8 1.4q0 0.4-0.3 0.5l0.3-0.2q0.2-0.1 0.3-0.5c0-0.5-0.4-1.1-0.8-1.3z"/><path class="e" d="m19.5 24.6c0.4 0.3 0.8 0.9 0.8 1.4 0 0.5-0.4 0.7-0.8 0.4-0.4-0.2-0.8-0.8-0.8-1.3 0-0.5 0.4-0.7 0.8-0.5z"/><path class="b" d="m46.2 6.3l0.5 0.3-0.2 0.3-0.5-0.3q-0.1 0.3-0.4 0.5c-0.4 0.2-0.8 0-0.8-0.5 0-0.5 0.4-1.1 0.8-1.3 0.6-0.4 1 0.2 0.6 1zm-0.2 0.1c0.3-0.6 0-1.1-0.4-0.8-0.3 0.2-0.5 0.5-0.5 0.9 0 0.3 0.2 0.4 0.5 0.3q0.2-0.2 0.4-0.4z"/><path class="b" d="m27.3 15.7v0.4l-3 1.8v-0.5z"/><path class="b" d="m27.3 17.6v0.4l-3 1.8v-0.5z"/><path class="b" d="m27.3 16.7v0.4l-3 1.7v-0.4z"/><path class="d" d="m43 2.4c-0.4-0.3-1.2-0.3-1.7 0-0.5 0.2-0.5 0.6-0.2 0.9q0.1-0.1 0.2-0.1c0.5-0.3 1.3-0.3 1.7 0q0.1 0 0.2 0.1c0.3-0.3 0.3-0.7-0.2-0.9z"/><path class="b" d="m41.3 3.2q-0.1 0-0.2 0.1 0.1 0.1 0.2 0.1c0.5 0.3 1.3 0.3 1.7 0q0.1 0 0.2-0.1-0.1-0.1-0.2-0.1c-0.4-0.3-1.2-0.3-1.7 0z"/><path class="g" d="m31.5 29.4q0 0 0 0z"/><path class="h" d="m31.4 25q0.1-0.1 0.1-0.1 0 0-0.1 0.1z"/><path class="i" d="m40.8 24.8c0 3.6-2.5 8.1-5.8 9.9-3.1 1.8-5.7 0.5-5.7-3.2 0-4.4 3.4-9.4 7-10.6q0.1 0 0.2 0c2.6-0.7 4.2 1.1 4.3 3.9z"/><path class="j" d="m40.1 23.2q0.1 0.2 0.1 0.4 0 0-0.1 0 0 0 0 0.1-0.3 0.1-0.7 0.2c0 0.1-0.1 0.2-0.2 0.2 0 0.1-0.1 0.2-0.1 0.2q-0.4 0.1-0.6 0.1c0-0.2 0.1-0.3 0-0.3q0 0-0.1 0-0.1 0.1-0.1 0.1-0.5 0.3-1 0.7c-0.1 0.2-0.3 0.4-0.3 0.6 0 0.1-0.1 0.2-0.1 0.3-0.3 0.2-0.4 0.5-0.4 0.7 0 0.2 0 0.4-0.1 0.7 0 0.1 0.1 0.3 0.2 0.3 0.2 0 0.3 0.1 0.4 0.2q0.1 0.1 0.1 0 0.1 0 0.1-0.1l0.1-0.1q0.1 0 0.1 0 0.3-0.2 0.5-0.4 0.2-0.1 0.2 0 0.1 0 0.1 0 0.1 0 0.1-0.1 0 0 0.1 0 0-0.1 0.1 0c0 0 0 0 0 0.1-0.1 0.2-0.1 0.4 0 0.5 0.2 0 0.2 0.3 0.3 0.5l-0.1 0.1c-0.1 0.3-0.1 0.5 0 0.6 0.1 0.2 0.2 0.3 0.2 0.6 0 0 0 0.1 0.1 0.1q-0.1 0.2-0.1 0.3-0.2 0.3-0.4 0.6v0.1q-0.4 0.6-0.7 1c-0.9 1.3-2 2.4-3.2 3.1q-1.1 0.6-2 0.7-0.1-0.1 0-0.2 0.1-0.2 0.2-0.4-0.1 0-0.1 0 0.1-0.2 0.2-0.4 0-0.1-0.1-0.2l0.2-0.1q0-0.2 0.2-0.2 0.3-0.2 0.2-0.5 0.1 0 0.1-0.1 0.2-0.1 0.3-0.4l0.1-0.1v-0.1c0.1-0.1 0.2-0.3 0.2-0.4 0-0.1 0-0.2 0-0.2q0.2-0.2 0.3-0.3c0.1-0.1 0.2-0.1 0.2-0.2q0.2-0.4 0.2-0.7 0-0.1 0-0.1 0.1-0.1 0.1-0.3 0.1-0.2 0.2-0.4c0.1-0.2 0-0.3-0.1-0.3q-0.4 0.1-0.9 0.2c0 0-0.1 0-0.1-0.1 0-0.1-0.1-0.1-0.2-0.2q-0.1 0-0.2 0-0.1 0.1-0.1 0.1-0.1 0-0.2 0c0-0.1-0.1-0.1-0.2-0.1q0 0 0-0.1 0 0-0.1 0.1-0.1 0-0.1 0.1-0.1 0-0.2 0-0.1 0.1-0.2 0.1c0 0-0.1 0.1-0.2 0.2v-0.2c-0.1 0.1-0.2 0.3-0.3 0.4 0 0 0 0.1-0.1 0.1q0 0-0.1 0.1-0.1 0-0.1 0.1-0.1 0-0.1 0c-0.1 0.1-0.1 0-0.2-0.1 0 0 0-0.1 0.1-0.2q0-0.2-0.2-0.1 0 0-0.1 0 0 0.1-0.1 0.1 0-0.1 0-0.3c0-0.1 0.1-0.2 0-0.2q0 0-0.1 0.1-0.1 0-0.1 0.2c-0.1 0.1-0.2 0.2-0.3 0.2q0 0.1 0 0.1c-0.2 0-0.3-0.1-0.2-0.3 0-0.2 0-0.4 0.2-0.6v-0.1q0.1 0 0.1 0 0.1-0.1 0.2-0.2 0.1-0.1 0.3-0.2 0 0 0.1 0 0.1 0 0.2 0 0 0.1 0.1 0.2l0.1-0.1q0-0.1-0.1-0.3c0-0.1 0-0.1 0.1-0.3q0.1-0.1 0.2-0.3 0.1-0.1 0.1-0.3c0.1-0.1 0.1-0.4 0.3-0.5q0.1 0 0.1 0c0-0.3 0.1-0.4 0.3-0.5 0 0 0 0.1 0.1 0 0.1 0 0.2-0.1 0.4-0.4 0 0-0.1 0-0.1 0q0 0 0 0c-0.1 0.1-0.2 0.1-0.2 0-0.1 0-0.1 0-0.2 0q0 0-0.1 0.2 0.1-0.3 0.2-0.4 0.1 0 0.2 0 0.1-0.1 0.3-0.3 0.1-0.1 0.1-0.2 0 0.2-0.1 0.4v0.1l0.4-0.3q-0.1 0-0.3-0.1 0.1-0.1 0.1-0.2 0 0-0.1 0-0.3-0.1-0.6-0.2-0.1 0.2-0.2 0.2-0.1 0.1-0.1-0.1-0.2 0-0.4 0.1 0 0-0.1 0.1c-0.1 0-0.2 0.3-0.1 0.4q0 0 0 0.1-0.1 0.1-0.2 0.2 0.1 0.1 0.1 0.2c0 0 0 0.1-0.1 0.1 0 0-0.1 0-0.1 0q-0.1-0.2-0.3-0.1-0.3 0.1-0.6 0.1-0.2 0 0-0.2 0.2-0.2 0.4-0.5 0 0 0.1-0.1 0 0.1 0 0.1 0.3-0.2 0.4-0.2l0.1-0.1q-0.2 0-0.5 0.1 0.2-0.2 0.4-0.3c0-0.1 0-0.1-0.1-0.2l0.5-0.2q-0.1 0.1-0.1 0.2 0.2-0.1 0.3-0.3 0 0.1 0 0.1-0.1 0.2-0.3 0.3 0 0.1-0.1 0.1 0.1 0.1 0.1 0.1 0.1-0.1 0.3-0.2 0.1 0 0.2 0 0.2-0.1 0.4-0.2l0.1-0.1q-0.1-0.1-0.2-0.1 0 0 0 0 0.1-0.1 0.1-0.1 0.1 0 0.1 0 0.1-0.1 0.2-0.2-0.2 0-0.4 0-0.1-0.1-0.1-0.1c-0.1 0-0.2 0.1-0.3 0.1q-0.1 0-0.3 0-0.2 0.1-0.4 0.2-0.1 0-0.2 0.2 0 0 0-0.1 0.1-0.1 0.1-0.1 0.1-0.1 0.1-0.1c0.7-1 1.5-1.9 2.4-2.6q0 0 0 0 0 0 0.1 0v-0.1q0.4-0.3 0.9-0.6 0 0 0.1 0c1.1-0.7 2.2-0.9 3.1-0.7q0.1 0 0.1 0 0.1 0 0.1 0.1 0.1 0 0.1 0 0.2 0.1 0.3 0.2h0.1q-0.1 0.1-0.2 0.3-0.2 0.2-0.4 0.5c-0.1 0.1-0.1 0.2-0.2 0.3 0 0.1 0.1 0.2 0.1 0.2q0.1 0 0.1 0 0.1-0.1 0.2-0.2 0 0 0 0 0.1 0.1 0.1 0.2 0.1-0.1 0.1-0.1c0.2-0.1 0.3-0.2 0.4-0.6q0 0-0.1-0.1 0.1-0.1 0.2-0.2 0.2 0.2 0.3 0.3 0 0-0.1 0.1-0.1 0.1-0.2 0.3-0.1 0.1-0.2 0.2-0.2 0.1-0.3 0.2-0.2 0.1-0.2-0.1c-0.2 0.1-0.2 0.1-0.1 0.3q-0.2 0.2-0.4 0.3 0 0.1-0.1 0.1 0 0.1-0.1 0c-0.1-0.1-0.2 0-0.3-0.3 0 0-0.1 0-0.1 0.1q-0.1 0-0.2 0.2 0 0 0 0.1c-0.1 0.1-0.2 0.2-0.2 0.3 0 0.1 0 0.1 0 0.2q0.1-0.1 0.3-0.3 0 0 0-0.2 0.1 0 0.2 0-0.1 0.1-0.2 0.3c0.2 0.1 0.4-0.2 0.6-0.2-0.2 0.2-0.3 0.3-0.5 0.5 0.1 0 0.1-0.1 0.1-0.1 0.1 0.1 0.1 0.1 0.1 0.2 0 0-0.1 0.2-0.1 0.2q-0.1 0-0.1 0-0.1 0.1-0.2 0.2-0.2 0.1-0.2 0.2 0 0.1 0 0.2c0 0.2 0 0.2 0.1 0.2q0.1 0 0.2 0 0.1-0.1 0.2-0.2 0.1-0.1 0.1-0.2 0.2-0.3 0.4-0.6c0 0 0.1-0.1 0.1-0.1q0 0 0 0 0.1-0.1 0.2-0.1 0-0.1 0.1-0.2 0.1 0 0.1 0.1 0.1 0 0.2 0 0.1 0 0.3 0 0 0 0-0.1-0.2-0.1-0.4-0.2l0.1-0.1c0.1 0 0.3 0 0.4 0.1 0.1 0.1 0.2 0.2 0.3 0.3 0.2-0.2 0.2-0.2 0.1-0.3q0.1-0.1 0.1-0.2c0.2 0.2 0.2 0.3 0.5 0.1zm-3.5-2q0.1-0.1 0.2-0.2-0.1 0-0.2 0.1-0.1 0-0.2 0.2-0.1 0.1-0.2 0.1-0.1 0.1-0.1-0.1c-0.1-0.1-0.1-0.2-0.3-0.1q-0.4 0.2-0.8 0.5-0.3 0.1-0.5 0.2 0 0.1 0 0.1c-0.2 0.1-0.3 0.2-0.4 0.4q-0.1 0-0.2 0c0 0.2-0.1 0.3-0.2 0.3q0 0.1-0.1 0.1-0.1 0.1-0.2 0.1-0.2 0.1-0.3 0.3c-0.1 0.1-0.3 0.2-0.4 0.5 0 0.1-0.3 0.3-0.4 0.4q0.1 0.1 0.2 0.1 0 0 0.1 0 0.2-0.2 0.3-0.3 0.1 0 0.1 0 0.4-0.3 0.6 0.1 0-0.1 0.1-0.2c0 0.1-0.1 0.3-0.1 0.3q0.1 0.1 0.1 0.2 0.1 0.1 0.1 0.2c0.2 0.1 0.4 0 0.6 0l0.1-0.1c0-0.2 0.1-0.3 0.1-0.4 0.1-0.2 0.2-0.3 0.4-0.4q0.1-0.1 0.2-0.2 0.1-0.1 0.2-0.2 0.3-0.2 0.6-0.6 0-0.1 0-0.2 0.1-0.1 0.1-0.1c0.1-0.1 0.3-0.4 0.2-0.4-0.1-0.1 0-0.2 0-0.3q0.2-0.2 0.3-0.4zm-0.3 1.9q0.2-0.1 0.4-0.4-0.1 0-0.2 0-0.2 0.1-0.4 0.2-0.1 0.1-0.1 0.1 0 0.1 0 0.1 0.2 0 0.3 0zm-4.4 6.2q0.1 0 0.2 0-0.3-0.1-0.5 0-0.1 0-0.1 0.1 0 0 0.1 0 0.1 0 0.1 0 0.1-0.1 0.2-0.1zm0.6-0.1q0 0 0.1 0h-0.1v-0.1h-0.1q-0.1 0.1-0.2 0.3 0.1-0.1 0.1-0.1h0.1q0 0 0.1-0.1z"/><path class="k" d="m29.5 23.7l5.5-0.6 5.4-5.9v4.8q-2.8 3.5-5.5 5.1-2.8 1.6-5.4 1.2z"/><path class="l" d="m28.2 27.9c0 0.3-0.9 0.9-1.1 0.7l0.2-2.2 0.2-0.1v-2.7l0.3-0.2v2.7l0.2-0.1z"/><path class="b" d="m34.9 15l9.2-1.1-3.7 3.8-5.4 5.7-5.5 0.6-3.7 0.5z"/><path class="c" d="m40.8 31.9c0.7-0.4 1.2-0.1 1.2 0.7 0 0.7-0.5 1.7-1.2 2.1l-12.4 7.2c0.3-1 0.5-2 0-2.9z"/><path class="m" d="m42.4 32.3c0 1.1-0.7 2.3-1.6 2.8l-12.8 7.4h-0.2l0.1-0.2c0.4-1 0.7-2.3 0-3.1l-0.1-0.2 0.2-0.2 12.8-7.4c0.9-0.5 1.6-0.1 1.6 0.9zm-1.6 2.4c0.7-0.4 1.2-1.4 1.2-2.1 0-0.8-0.6-1.1-1.2-0.7l-12.4 7.1c0.5 0.9 0.3 1.9 0 2.9z"/><path class="n" d="m42.4 37.6v0.3l-0.2 0.2-12.7 7.4c-1.5 0.8-2.2-0.9-1.2-2.6 0.3-0.5 0.7-0.9 1.1-1.2l12.8-7.4h0.2v0.3c-0.5 1-0.8 2.2 0 3zm-0.5 0.2c-0.6-0.8-0.4-1.9-0.1-2.8l-12.3 7.2c-0.4 0.2-0.7 0.5-0.9 0.9-0.8 1.4-0.2 2.5 0.9 1.9z"/><path class="c" d="m41.8 35c-0.3 0.9-0.5 2 0.1 2.8l-12.4 7.2c-1.1 0.6-1.7-0.6-0.9-1.9 0.2-0.4 0.5-0.7 0.9-0.9z"/><path class="o" d="m41.8 45.6c-0.7-0.5-1.7-0.4-2.8 0.2l-9.2 5.4c-1.1 0.6-2.1 1.7-2.8 3-0.7 1.2-1.2 2.6-1.2 3.8 0 1.3 0.5 2.1 1.2 2.5l1.1 0.7c-0.7-0.4-1.2-1.3-1.2-2.6 0-1.2 0.4-2.6 1.2-3.8 0.7-1.3 1.7-2.3 2.7-3l9.3-5.3c1.1-0.7 2.1-0.7 2.8-0.3z"/><path class="p" d="m44.1 48.7c0 1.3-0.5 2.7-1.2 3.9-0.7 1.2-1.7 2.3-2.8 2.9l-9.2 5.4c-2.2 1.3-4 0.3-4-2.3 0-1.2 0.4-2.6 1.2-3.8 0.7-1.3 1.7-2.3 2.7-3l9.3-5.3c2.2-1.3 4-0.3 4 2.2z"/><path  d="m29.8 57.7q0 0 0 0.1 0 0.1 0 0.1 0 0.1-0.1 0.1l-1 0.6q-0.1 0-0.1 0-0.1 0-0.1-0.1v-1.8q0 0 0.1-0.1 0-0.1 0.1-0.1l1-0.6q0 0 0.1 0 0 0 0 0.1 0 0 0 0.1-0.1 0.1-0.1 0.1l-0.9 0.5v0.6l0.8-0.4q0.1-0.1 0.1 0 0 0 0 0 0 0.1 0 0.2 0 0-0.1 0.1l-0.8 0.4v0.7l0.9-0.6q0.1 0 0.1 0z"/><path  d="m34 55.4q0 0 0 0.1-0.1 0.1-0.1 0.1l-1.1 0.6q0 0 0 0-0.1 0-0.1-0.1v-1.8q0-0.1 0.1-0.1 0-0.1 0-0.1l1.1-0.6q0-0.1 0.1 0 0 0 0 0.1 0 0 0 0.1-0.1 0-0.1 0.1l-0.9 0.5v0.6l0.8-0.5q0 0 0.1 0 0 0.1 0 0.1 0 0.1 0 0.1-0.1 0.1-0.1 0.1l-0.8 0.5v0.6l0.9-0.5q0 0 0.1 0 0 0 0 0.1z"/><path  d="m30.8 56.4q0 0.1 0 0.1 0 0.1 0 0.1 0 0.1-0.1 0.1l-0.5 0.3q0 0-0.1 0 0 0 0-0.1 0 0 0-0.1 0.1-0.1 0.1-0.1l0.5-0.3q0.1 0 0.1 0z"/><path  d="m32.4 56.2q0.1 0 0.1 0.1 0 0-0.1 0.1 0 0.1-0.1 0.1l-0.9 0.5q-0.1 0.1-0.1 0-0.1 0-0.1-0.1v-1.7q0-0.1 0.1-0.2 0 0 0.1-0.1 0 0 0.1 0 0 0 0 0.1v1.7l0.8-0.5q0.1 0 0.1 0z"/><path  d="m35.3 52.8q-0.1 0-0.1-0.1 0 0-0.1 0.1-0.1 0-0.1 0.1-0.1 0-0.1 0.1l-0.6 2.2h-0.1q0 0.1 0.1 0.1 0 0.1 0.1 0 0 0 0 0l0.1-0.1 0.2-0.6 0.8-0.5 0.2 0.4q0.1 0 0.1 0 0.1 0 0.1-0.1 0-0.1 0-0.1v-0.1zm-0.5 1.5l0.4-1.1 0.3 0.7z"/><path  d="m37.7 51.9q0-0.3-0.1-0.4-0.2 0-0.6 0.2l-0.6 0.3q0 0-0.1 0.1 0 0.1 0 0.1v1.9q0 0 0 0 0.1 0.1 0.1 0 0.1 0 0.1-0.1 0.1 0 0.1-0.1v-0.7l0.5-0.3q0.1-0.1 0.2 0 0.1 0 0.1 0.1 0.1 0.1 0.1 0.3v0.1q0 0.1 0 0.1 0 0 0.1 0 0-0.1 0.1-0.1 0-0.1 0-0.2v-0.1q0-0.2 0-0.4-0.1-0.1-0.3-0.1 0.2-0.2 0.2-0.3 0.1-0.2 0.1-0.4zm-1.1 1v-0.7l0.4-0.2q0.3-0.2 0.4-0.2 0.1 0.1 0.1 0.2 0 0.2-0.2 0.4-0.1 0.2-0.3 0.3z"/><path  d="m39.7 50.2v1.8q0 0.1 0 0.2-0.1 0.1-0.2 0.1 0 0.1-0.1 0.1v-0.1l-1-1v1.5q0 0.1 0 0.2-0.1 0-0.1 0.1-0.1 0-0.1 0-0.1 0-0.1-0.1v-1.8q0-0.1 0.1-0.2 0-0.1 0.1-0.1 0.1-0.1 0.2 0l1 1v-1.5q0-0.1 0-0.1 0-0.1 0.1-0.1 0-0.1 0.1-0.1 0 0.1 0 0.1z"/><path  d="m42.5 49.6v0.7q-0.1 0.1-0.1 0.1 0 0.1-0.1 0.2-0.2 0.3-0.6 0.5-0.2 0.1-0.4 0.1-0.2 0-0.4-0.2-0.1-0.2-0.1-0.5 0-0.3 0.1-0.6 0.2-0.3 0.4-0.6 0.2-0.3 0.4-0.4 0.2-0.1 0.4-0.1 0.1-0.1 0.3-0.1v0.1q0 0.1 0 0.1 0 0.1-0.1 0.1v0.1q-0.2-0.1-0.3 0-0.1 0-0.2 0.1-0.2 0.1-0.4 0.3-0.1 0.2-0.2 0.4-0.1 0.2-0.1 0.5 0 0.2 0.1 0.3 0.1 0.2 0.2 0.2 0.2 0 0.4-0.1 0.2-0.2 0.4-0.4v-0.5l-0.4 0.2q0 0-0.1 0 0 0 0-0.1 0 0 0-0.1 0.1 0 0.1-0.1l0.5-0.3q0.1 0 0.1 0 0 0 0.1 0.1z"/><path  d="m40.5 49.8v1.8q0 0.1-0.1 0.2 0 0-0.1 0.1 0 0-0.1 0 0 0 0-0.1v-1.8q0-0.1 0-0.2 0.1 0 0.1-0.1 0.1 0 0.1 0 0.1 0 0.1 0.1z"/><path class="q" d="m59.3 21.1c-1.4 2.4-3.2 4.3-5.1 5.3-1.3 0.8-2.6 1.1-3.8 1l-3.2 2.8-1.3-0.8 0.8-4.1c-1.7-2.2-1.4-6.7 1-10.8 2.1-3.5 6.7-7.9 10.1-5.9l1.4 0.8c2.8 1.6 2.9 6.9 0.1 11.7z"/><path class="r" d="m47.2 30.2l-1.3-0.8 0.8-4.1 1.4 0.8z"/><path class="i" d="m59.3 21.1c-1.4 2.4-3.2 4.3-5.1 5.3-1.3 0.8-2.6 1.1-3.8 1l-3.2 2.8 0.9-4.1c-1.7-2.2-1.4-6.7 1-10.8 2-3.5 6.7-7.8 10.1-5.9 2.8 1.6 2.8 6.9 0.1 11.7z"/><path class="d" d="m58.4 20.6c-1.2 2-2.7 3.5-4.2 4.4-5.3 3-7.8-2.9-4.2-9.2 1.7-2.9 5.5-6.5 8.4-4.8 2.2 1.3 2.2 5.6 0 9.6z"/><path class="b" d="m50.5 16.1c1.5-2.6 5-6.1 7.6-4.6 1.9 1.1 1.8 5.2-0.2 8.8-1.1 1.8-2.5 3.3-4 4.2-4.8 2.8-6.6-2.8-3.4-8.4zm0.3 0.1c-3 5.2-1.7 10.7 3 8 1.4-0.8 2.8-2.3 3.8-4.1 2-3.5 2.1-7.3 0.3-8.4-2.3-1.3-5.6 1.9-7.1 4.5z"/><path class="q" d="m48.1 26.1l-1.4-0.8c-1.7-2.2-1.4-6.7 1-10.8 2-3.5 6.7-7.9 10.2-5.9l1.3 0.8c-3.5-1.9-8.1 2.4-10.1 5.9-2.4 4.1-2.7 8.6-1 10.8z"/><path class="b" d="m54.2 18.5q-0.1-0.1-0.1-0.3l1.9-4.5c0-0.1 0.2-0.2 0.3-0.1 0.1 0 0.1 0.1 0.1 0.3l-1.6 3.9 3.1-1.8c0.1-0.1 0.3-0.1 0.3 0 0.1 0.2 0.1 0.3 0 0.3l-3.8 2.2q-0.1 0.1-0.2 0z"/><path class="s" d="m18.5 14c0 0.3-0.2 0.7-0.5 0.9l-1.5 0.9v3.5l-0.3-0.2q0 0-0.1 0c-0.7-0.3-2.1-0.9-3.2-1.3l-9.6 5.6c-0.2 0.1-0.4 0.1-0.5 0.1l-2.1-1.3q-0.2-0.1-0.2-0.3v-10.8c0-0.4 0.2-0.8 0.6-1l14.7-8.5q0.2-0.1 0.3 0l2.2 1.2q0.2 0.1 0.2 0.4z"/><path class="t" d="m14.2 18l2.2 1.2q0.1 0.1 0.1 0.1l-2.2-1.3q0 0-0.1 0z"/><path class="m" d="m18.3 2.8q-0.1-0.1-0.4 0.1l-14.7 8.5c-0.3 0.1-0.5 0.6-0.5 0.9v10.8q0 0.3 0.2 0.4l-2.2-1.3q-0.2-0.1-0.2-0.3v-10.8c0-0.4 0.2-0.8 0.6-1l14.7-8.5q0.2-0.1 0.4 0z"/><path class="s" d="m17.9 2.9c0.3-0.2 0.6-0.1 0.6 0.3v10.8c0 0.3-0.2 0.7-0.5 0.9l-1.5 0.9v3.5c0-0.1-2.2-1-3.6-1.5l-9.6 5.6c-0.4 0.2-0.6 0.1-0.6-0.3v-10.8c0-0.3 0.2-0.8 0.5-0.9z"/><path class="p" d="m16.2 6.4l0.4 0.7 0.8-0.3-0.6 1 0.2 0.8h-0.8l-0.7 0.9 0.1-1-0.6-0.4 0.9-0.6z"/><path class="p" d="m13.2 8.2l0.4 0.7 0.8-0.4-0.6 1 0.1 0.9h-0.7l-0.7 0.8 0.1-1-0.6-0.3 0.8-0.6z"/><path class="p" d="m10.1 10l0.4 0.6 0.8-0.3-0.6 1 0.2 0.9-0.8-0.1-0.7 0.9 0.2-1-0.6-0.3 0.8-0.7z"/><path class="d" d="m6.4 13c1.5-0.8 2.6-0.1 2.6 1.6 0.1 1.6-1.1 3.7-2.6 4.5-1.4 0.9-2.6 0.2-2.6-1.5 0-1.7 1.2-3.7 2.6-4.6z"/><path class="k" d="m5.7 15.3c0-0.5 0.3-1 0.7-1.3 0.4-0.2 0.8 0 0.8 0.5 0 0.4-0.4 1-0.8 1.2-0.4 0.3-0.7 0.1-0.7-0.4z"/><path class="k" d="m7.9 16.7c0 0.1-0.1 0.3-0.2 0.3l-2.6 1.5c-0.1 0.1-0.1 0-0.1-0.1 0.1-0.9 0.7-1.9 1.4-2.3 0.8-0.4 1.4-0.1 1.5 0.6z"/><path class="d" d="m16.9 10.9c0.4-0.2 0.6 0 0.6 0.4 0 0.3-0.2 0.8-0.6 1l-6.4 3.8c-0.4 0.2-0.7 0-0.7-0.4 0-0.4 0.3-0.9 0.6-1.1z"/></svg>