<?xml version="1.0" encoding="utf-8"?>
<!-- Generator: Adobe Illustrator 22.0.1, SVG Export Plug-In . SVG Version: 6.00 Build 0)  -->
<svg version="1.1" id="Layer_1" xmlns="http://www.w3.org/2000/svg" xmlns:xlink="http://www.w3.org/1999/xlink" x="0px" y="0px"
	 viewBox="0 0 300 50" style="enable-background:new 0 0 300 50;" xml:space="preserve">
<style type="text/css">
	.st0{fill:#004E94;}
</style>
<title>Artboard 1</title>
<path class="st0" d="M177.5,6.7l18.2-1.1l-2.1,7.8h14.7l-1.7,6.3h-14.9c0,0-5.1,19.3-5.3,19.8c-0.7,2.5,0.5,4.4,3.4,4.4h9.5
	c1.2-0.1,2.4-0.4,3.6-1l-2.1,7.1h-22.8c-2.2,0-11.5-1.9-8.7-12.9S177.5,6.7,177.5,6.7 M240.5,23.1c0.4-1.6-0.6-3.1-2.2-3.5
	c-0.2,0-0.4-0.1-0.6-0.1h-6c-2.4,0-2.8,1.5-3.3,3c-0.2,0.7-1.5,5.7-1.5,5.7h12.4C239.3,28.2,240,25.2,240.5,23.1 M247.5,13.4
	c0,0,11.7-0.4,10.3,10.5l-2.7,10.7h-30c0,0-1.2,4.1-1.4,4.6c-0.6,2.1-0.3,4.7,3.3,4.7H249c1.3-0.1,2.6-0.4,3.8-0.9l-3.3,7h-33.5
	c-4.6,0-12-2.6-9.8-11.7c2.7-10.9,4.2-16.5,4.2-16.5s1.6-8.4,10.1-8.4L247.5,13.4 M263.6,17.6c0,0-5.7,22-7.3,27.4
	c-0.6,1.8-1.5,3.5-2.7,5h20.9c-0.6-1.6-0.7-3.4-0.2-5c0.3-1.3,4.4-17.4,5.1-20.5c0.7-3,3.8-2.7,3.8-2.7h9.6c1.3,0,2.6,0.5,3.6,1.4
	l2.9-9.8h-12.6c-5.2,0-6.7,4.9-6.7,4.9v-4.9h-16.9C263.7,14.7,263.8,16.2,263.6,17.6 M121.2,15.5c0.2,0.2,11.3,19.2,11.3,19.2
	L111.4,50h11.6l13.1-9.4c0,0,3.2,5.3,3.8,6.5c0.4,0.9,0.7,1.9,1,2.9h22.6c-0.8-0.7-1.4-1.4-2-2.3c-0.3-0.5-10.5-18-10.5-18
	l22.8-16.3h-13c-0.1,1.4-3.4,3.5-3.4,3.5l-9.8,7.1c0,0-4.4-7.3-5.2-8.9c-0.3-0.5-0.4-1.1-0.4-1.7h-22.6
	C120.1,13.9,120.8,14.7,121.2,15.5 M90.5,41.3c0.9-3.2,2.6-9.7,2.6-9.7H82.3c-1.3-0.1-2.4,0.8-2.7,2.1c-0.7,2.4-1.8,7.1-1.8,7.1
	s-0.6,2.7,2.5,2.7h7.3C88.9,43.5,90,42.6,90.5,41.3 M113,23.7c-1.6,7.1-5.7,21.6-5.7,21.6c-0.4,1.6-0.1,3.2,0.8,4.6H90.4
	c0,0-0.5-2.2-0.8-3.8c0,0-1.6,3.8-5,3.8H70.3c-5.8,0-11.2-5.5-9.6-11.5c0.5-2.1,1.2-4.6,1.6-6c1.5-5.7,6.9-7.1,10.1-7.1h20.3
	c1.3,0,1.9-0.7,2.3-2c0.2-0.7,0.4-1.4,0.5-2.1c-0.1-1.1-1.1-1.9-2.2-1.8c0,0,0,0,0,0H69.8c-1.2,0-2.3,0.2-3.4,0.7l2.5-6.7h36
	C108.4,13.4,114.4,17.4,113,23.7 M45.3,11.5c0.8-2.9-1.6-3.4-2-3.4H32l-3.3,12.2h12c2.4,0,3-2.8,3-2.8S44.4,14.6,45.3,11.5
	 M39.8,30.7c0.5-2.3-1.8-2.6-2.4-2.6H26.5l-3.6,13.7h10.5c3.5,0,4.1-2.4,4.4-3.3C38.1,37.5,39.3,33,39.8,30.7 M54.7,0
	c5.7,0,9.5,4.3,8.6,9.2c0,0-2.1,7.9-2.6,9.6c-0.4,1.4-2.1,4.9-7.3,5.3c0,0,6.2,2.4,4.7,9c-1.2,4.8-2.6,10-3,11.3
	c-1.2,3.3-4.4,5.6-7.9,5.6H-0.5c1.1-1.2,2-2.5,2.7-4C2.7,44.2,13.6,4.6,13.7,4.3C14,2.9,13.9,1.4,13.5,0L54.7,0"/>
</svg>
