<?xml version="1.0" encoding="utf-8"?>
<!-- Generator: Adobe Illustrator 26.4.1, SVG Export Plug-In . SVG Version: 6.00 Build 0)  -->
<svg version="1.1" id="Layer_1" xmlns="http://www.w3.org/2000/svg" xmlns:xlink="http://www.w3.org/1999/xlink" x="0px" y="0px"
	 viewBox="0 0 109.9 27.7" style="enable-background:new 0 0 109.9 27.7;" xml:space="preserve">
<style type="text/css">
	.st0{fill:none;}
	.st1{fill:#501851;}
</style>
<rect x="19.3" class="st0" width="129.2" height="27.7"/>
<g transform="translate(31.963 0)">
	<path class="st1" d="M15.7,27.2c5.3,0,7.9-3.4,7.9-7.3c0.1-3.1-2-5.9-5.1-6.5c2.8-0.7,4.7-3.3,4.6-6.1c0-3.4-2.5-6.8-7.8-6.8H0
		v26.8h15.7C15.7,27.3,15.7,27.2,15.7,27.2z M6.9,6.2h6.7C14.8,6.1,15.9,7,16,8.3c0,0.1,0,0.1,0,0.2c0,1.3-1,2.3-2.2,2.3
		c-0.1,0-0.1,0-0.2,0H6.9V6.2z M6.9,16.5h6.9c1.4-0.1,2.5,0.9,2.6,2.3c0,0.1,0,0.2,0,0.2c0,1.3-1,2.4-2.3,2.5c-0.1,0-0.2,0-0.3,0
		H6.9V16.5z M33.8,27.2v-9.1h6.5c6,0,9.3-4,9.3-8.8c0-4.9-3.3-8.9-9.3-8.9H26.9v26.8H33.8z M42.6,9.3c0,1.6-1.3,3-2.9,3
		c-0.1,0-0.2,0-0.3,0h-5.6v-6h5.6C41,6.1,42.5,7.4,42.6,9C42.6,9.1,42.6,9.2,42.6,9.3 M66.1,27.7c5,0.2,9.7-2.6,11.9-7.2l-6-2.8
		c-1,2.4-3.4,3.9-5.9,3.9c-4.2,0-7.3-3.4-7.3-7.8S61.9,6,66.1,6C68.7,6,71,7.5,72,9.9l5.9-2.8C76.2,3.7,72.7,0,66.1,0
		c-8,0-14.3,5.6-14.3,13.9C51.8,22.1,58,27.7,66.1,27.7"/>
</g>
<g transform="translate(0 0.581)">
	<path class="st1" d="M8.1,13.3L0.5,26.4c0,0.1,0,0.2,0.1,0.2h0.1c1.2,0,4.2-0.1,7.8-0.1c2.5,0,4.7-1.6,5.6-3.9l0,0l5.7-9.4
		l-5.7-9.4l0,0c-0.9-2.2-3.2-3.7-5.6-3.7C4.9,0.1,1.9,0,0.7,0C0.6,0,0.5,0.1,0.5,0.2v0.1L8.1,13.3z"/>
</g>
</svg>
