<svg xmlns="http://www.w3.org/2000/svg" width="347.95" height="71.58" viewBox="0 0 347.95 71.58"><defs><style>.cls-1{fill:#aebd38;}.cls-2{fill:#055580;}.cls-3{fill:#7ba241;}.cls-4{fill:#024d27;}.cls-5{fill:#112a4e;}</style></defs><title>city-first-bank-logo</title><g id="Layer_2" data-name="Layer 2"><g id="Layer_1-2" data-name="Layer 1"><path class="cls-1" d="M17.72,35.53,8.86,44.33,27.41,62.77,36.27,54ZM8.86,26.72,0,35.53Z"/><path class="cls-2" d="M72,36.05l-8.86,8.81ZM35.73,0l8.86,8.81-8.86,8.81L54.28,36.05l8.86-8.81Z"/><path class="cls-1" d="M0,35.53H0l8.86,8.81L0,35.53M35.73,0,8.86,26.72l8.86,8.81,18-17.91L26.88,8.81Z"/><polygon class="cls-3" points="8.86 26.72 0 35.53 8.86 44.33 17.72 35.53 8.86 26.72"/><polygon class="cls-4" points="35.74 0 26.88 8.81 35.74 17.61 44.59 8.81 35.74 0"/><path class="cls-2" d="M54.28,36.05,36.27,54l8.86,8.8-8.86,8.81-8.86-8.81,8.86,8.81L63.14,44.86Zm8.86-8.81h0L72,36.05Z"/><polygon class="cls-4" points="36.27 53.97 27.41 62.77 36.27 71.58 45.12 62.77 36.27 53.97"/><polygon class="cls-5" points="63.14 27.25 54.28 36.05 63.14 44.86 72 36.05 63.14 27.25"/><path class="cls-1" d="M85.11,38c0-7,4.74-12.3,11.78-12.3a10.12,10.12,0,0,1,8.65,4.08L103.1,32a7,7,0,0,0-6-3.06c-5,0-8.16,3.84-8.16,9s3.13,9.09,8.16,9.09a7.14,7.14,0,0,0,6-3.06l2.44,2.24a10.12,10.12,0,0,1-8.65,4.08c-7,0-11.78-5.35-11.78-12.35"/><path class="cls-1" d="M110.68,26.27h3.67V49.75h-3.67ZM110,20.49a2.47,2.47,0,1,1,4.94,0,2.47,2.47,0,0,1-4.94,0"/><path class="cls-1" d="M124,44.84V29.48h-3.91V26.27H124V19.85h3.67v6.42h4.79v3.21h-4.79V44.06c0,1.75.78,3,2.4,3a3.55,3.55,0,0,0,2.49-1l1.08,2.72a6,6,0,0,1-4.4,1.51c-3.47,0-5.23-2-5.23-5.49"/><path class="cls-1" d="M136.89,55.63a5.63,5.63,0,0,0,2,.39c1.61,0,2.69-.53,3.52-2.48L144,50,134.1,26.27h4l7.87,19.25,7.82-19.25h4L145.93,54.51A7,7,0,0,1,139,59.28a12,12,0,0,1-2.69-.34Z"/><path class="cls-2" d="M179.48,26.27h6.21V49.75h-6.21ZM178.84,20a3.72,3.72,0,1,1,3.71,3.69A3.73,3.73,0,0,1,178.84,20m-14,29.7V31.66h-3.91V26.27h3.91V25c0-5.1,3.32-8.17,8-8.17a10.09,10.09,0,0,1,4.5,1l-1.27,4.47a3.5,3.5,0,0,0-2-.58c-1.76,0-2.93,1.17-2.93,3.31v1.26h4.79v5.39h-4.79V49.75Z"/><path class="cls-2" d="M193.07,49.75V26.27h6.21v3.21a10.17,10.17,0,0,1,7.53-3.79v6a8.3,8.3,0,0,0-1.71-.15c-2.05,0-4.79,1.17-5.82,2.67V49.75Z"/><path class="cls-2" d="M208.62,46.69l2.69-4.33a13.56,13.56,0,0,0,8.16,3.21c2.69,0,4-1.07,4-2.53,0-3.89-14-.73-14-10,0-3.94,3.47-7.39,9.68-7.39a15.15,15.15,0,0,1,9.53,3.21l-2.49,4.23a10,10,0,0,0-7-2.72c-2.25,0-3.72,1-3.72,2.33,0,3.5,14,.58,14,10.06,0,4.28-3.67,7.53-10.22,7.53a16,16,0,0,1-10.56-3.65"/><path class="cls-2" d="M235.22,43.91V31.67h-3.91v-5.4h3.91V19.85h6.26v6.42h4.79v5.4h-4.79v10.6c0,1.46.78,2.58,2.15,2.58a3.41,3.41,0,0,0,2.15-.68l1.32,4.67c-.93.83-2.59,1.51-5.18,1.51-4.35,0-6.7-2.24-6.7-6.42"/><path class="cls-1" d="M250.95,15.59h4V27.82c.78-.57,1.4-1,2-1.47,4.61-3.16,12.5-2.51,14.68,5a19.25,19.25,0,0,1-.17,11.9c-1.2,3.46-3.37,6.11-7.1,7.06a13,13,0,0,1-8.49-1.06l-.87-.47-.4,1h-3.68Zm16.21,15.63c-1.06-1.59-2.2-2.62-4.12-2.73A12.44,12.44,0,0,0,255.29,31a1.21,1.21,0,0,0-.34.85c0,4.3,0,8.6,0,12.89a.86.86,0,0,0,.69,1,30.15,30.15,0,0,0,4.51,1.09c3,.28,6.42-1.31,7.33-4.15C268.59,41,269.76,35.09,267.16,31.22Z"/><path class="cls-1" d="M291.51,33.59c.47-3.38-1.18-5.23-4.69-5.43a17.69,17.69,0,0,0-7.39,1.31l-1.24.5V25.72a25.35,25.35,0,0,1,9.19-1.06,15.73,15.73,0,0,1,3.69.73,6.55,6.55,0,0,1,4.49,6.55c.1,5.86,0,11.73,0,17.59a.89.89,0,0,1-.08.22h-3.9V47.17L290,48.39a9.59,9.59,0,0,1-8.32,1.88c-3.87-1-6.12-4.85-5.44-9.16a7.12,7.12,0,0,1,4.55-5.72A21,21,0,0,1,287.25,34Zm.1,3.19c-2.55.39-5,.68-7.32,1.16a6.64,6.64,0,0,0-2.54,1.28c-1.57,1.19-1.66,2.9-1.26,4.66a3.54,3.54,0,0,0,3.09,2.75c3.11.63,5.55-.71,7.79-2.62a.81.81,0,0,0,.23-.55C291.61,41.32,291.6,39.2,291.6,36.78Z"/><path class="cls-1" d="M331.92,35.54l3.45-3.67c1.87-2,3.76-4,5.61-6a1.67,1.67,0,0,1,1.41-.59c1.31,0,2.63,0,4.18,0L336.49,35.55l11.46,14.26c-1.81,0-3.44,0-5.07,0-.25,0-.53-.35-.72-.59q-4.05-5.19-8.08-10.4c-.2-.26-.41-.5-.65-.79-1.06.81-1.87,1.56-1.77,3.09.16,2.55,0,5.11,0,7.67v1h-3.93V15.6h3.9V35.46Z"/><path class="cls-1" d="M305.58,49.77h-3.93V25.34h3.9V28l1-.77a10.72,10.72,0,0,1,6.18-2.68c4.63-.24,7.79,2.82,8,7.94.16,4.15.07,8.3.09,12.45,0,1.56,0,3.12,0,4.76h-4v-1c0-4.39,0-8.79,0-13.18a23.2,23.2,0,0,0-.35-3.95c-.38-2.06-1.62-3-3.7-3.13-2.75-.2-4.84,1.18-6.83,2.78a1.4,1.4,0,0,0-.27,1q0,8.21,0,16.43C305.58,49,305.58,49.37,305.58,49.77Z"/></g></g></svg>