<?xml version="1.0" encoding="utf-8"?>
<!-- Generator: Adobe Illustrator 22.0.1, SVG Export Plug-In . SVG Version: 6.00 Build 0)  -->
<svg version="1.1" id="Ebene_1" xmlns="http://www.w3.org/2000/svg" xmlns:xlink="http://www.w3.org/1999/xlink" x="0px" y="0px"
	 viewBox="0 0 1032.4 150" style="enable-background:new 0 0 1032.4 150;" xml:space="preserve">
<style type="text/css">
	.st0{fill:#6E37FA;}
	.st1{fill:#F40953;}
	.st2{fill:#FF9408;}
	.st3{fill:#32BBB9;}
	.st4{fill:#002041;}
</style>
<g id="Layer_2_1_">
	<g id="Layer_1-2">
		<path class="st0" d="M186.1,26.1v63.6c0,2.1,1.8,3.8,3.8,3.8c0.6,0,1.3-0.2,1.9-0.5l55.1-31.8c1.9-1,2.5-3.4,1.4-5.2
			c-0.3-0.6-0.8-1-1.4-1.4l-55.1-31.8c-1.9-1-4.1-0.4-5.2,1.4C186.2,24.9,186.1,25.5,186.1,26.1z"/>
		<path class="st1" d="M62.7,122V58.4c0-2.1-1.7-3.8-3.8-3.8c-0.7,0-1.3,0.2-2,0.5l-55,31.8c-1.9,1-2.5,3.4-1.3,5.3
			c0.3,0.6,0.8,1,1.3,1.3l55.1,31.8c1.9,1,4.1,0.4,5.2-1.4C62.5,123.4,62.7,122.6,62.7,122z"/>
		<path class="st2" d="M93.1,79.7v63.6c0,2.1,1.8,3.8,3.8,3.8c0.6,0,1.3-0.2,1.9-0.5l55-31.8c1.9-1,2.5-3.4,1.3-5.2
			c-0.3-0.6-0.8-1-1.3-1.3l-55-31.8c-1.9-1-4.1-0.4-5.2,1.4C93.3,78.5,93.1,79.1,93.1,79.7z"/>
		<path class="st3" d="M156,68.5V5c0-2.1-1.8-3.8-3.8-3.8c-0.6,0-1.3,0.2-1.9,0.5L95.2,33.4c-1.9,1-2.5,3.4-1.3,5.2
			c0.3,0.6,0.8,1,1.3,1.3l55.1,31.8c1.9,1,4.1,0.4,5.2-1.3C155.9,69.9,156,69.3,156,68.5z"/>
		<path class="st4" d="M500.1,147.2h-16.4c-2.4,0-4.3-2-4.3-4.3l0,0V45.4c0-2.4,2-4.3,4.3-4.3l0,0h16.4c2.4,0,4.3,2,4.3,4.3l0,0V143
			C504.5,145.4,502.5,147.2,500.1,147.2z"/>
		<path class="st4" d="M578.9,28.7c35.9,0,56.3,25.5,56.3,61.1v2.9c0,2.4-2,4.3-4.3,4.3l0,0h-82.1c-1.2,0-2.2,0.9-2.2,2.2
			c0,0.1,0,0.2,0,0.4c3.3,18,18.4,27,34.4,27c11.4,0.1,22.4-4,30.9-11.5c1.8-1.5,4.5-1.3,6.1,0.5l0,0l9.6,11.5
			c1.4,1.8,1.3,4.3-0.3,5.9c-11.3,10.2-26,16.9-45.9,16.9c-37.1,0-60.4-24.6-60.4-60.2C520.8,55.8,543.2,28.7,578.9,28.7z M578.4,51
			c-17.3,0-27.8,9.1-31.4,24.5c-0.3,1.1,0.4,2.3,1.7,2.6c0.1,0,0.3,0.1,0.4,0.1h56.3c1.2,0,2.2-0.9,2.2-2.2c0-0.1,0-0.2,0-0.3
			C605.1,60.9,595.5,51,578.4,51z"/>
		<path class="st4" d="M855.4,28.7c35.9,0,56.3,25.5,56.3,61.1v2.9c0,2.4-2,4.3-4.3,4.3h-82.1c-1.1,0-2.2,1-2.1,2.2
			c0,0.1,0,0.2,0,0.3c3.3,18,18.4,27,34.4,27c11.4,0.1,22.3-4,30.9-11.5c1.8-1.5,4.5-1.3,6.1,0.5l0,0l9.6,11.5
			c1.4,1.8,1.3,4.3-0.4,5.9c-11.3,10.2-26,16.9-45.9,16.9c-37.1,0-60.4-24.6-60.4-60.2C797.3,55.8,819.8,28.7,855.4,28.7z M854.9,51
			c-17.3,0-27.8,9.1-31.4,24.5c-0.3,1.1,0.4,2.3,1.7,2.6c0.1,0,0.3,0.1,0.4,0.1h56.3c1.2,0,2.2-0.9,2.2-2.2c0-0.1,0-0.2,0-0.3
			C881.6,60.9,872,51,854.9,51z"/>
		<path class="st4" d="M672.8,147.2h-16.8c-2.4,0-4.3-2-4.3-4.3V5.6c0-2.4,2-4.3,4.3-4.3h16.8c2.4,0,4.3,2,4.3,4.3V143
			C677.1,145.4,675.1,147.2,672.8,147.2z"/>
		<path class="st4" d="M739.7,28.7c19.1,0,33.2,6.2,43.2,17.9c1.5,1.9,1.3,4.5-0.5,6.1l-11.8,9.9c-1.8,1.4-4.2,1.3-5.8-0.2
			c-6.6-6.6-15.5-10.6-26.9-10.6c-11.6,0-18.8,4.1-18.8,11.6c0,7.8,7.6,9.7,27.4,14.3c23.1,5.6,39.3,12.3,39.3,35.6
			c0,23.8-17.1,36.8-47,36.8c-20.1,0-39.7-7.8-49.8-20.6c-1.3-1.8-1.1-4.3,0.5-5.9l11.7-10.3c1.8-1.5,4.5-1.3,6.1,0.4
			c7.2,8.1,18.1,13.7,33.3,13.7c12.3,0,19.6-4.1,19.6-12.7s-7.1-10.3-25.6-14.6c-19.9-4.4-41-11.4-41-35.9
			C693.6,42.1,711.2,28.7,739.7,28.7z"/>
		<path class="st4" d="M932.3,31.5H948c2.4,0,4.3,2,4.3,4.3v6.8c0,1.1,0.9,2.2,2.2,2.2c0.6,0,1.2-0.3,1.7-0.7
			c8.7-10.2,20.5-15.3,34.4-15.3c26.6,0,41.9,17.3,41.9,47.5v66.8c0,2.4-2,4.3-4.3,4.3h-16.8c-2.4,0-4.3-2-4.3-4.3V80.6
			c0-18.3-8.8-28.2-25.2-28.2c-18.8,0-28.7,13.8-28.7,40.3v50.4c0,2.4-2,4.3-4.3,4.3h-16.4c-2.4,0-4.3-2-4.3-4.3V35.8
			C928.1,33.4,929.9,31.5,932.3,31.5z"/>
		<path class="st4" d="M476.3,15.6C476,7.2,482.6,0.2,490.9,0c0.3,0,0.7,0,1,0c9.1,0,15.6,6.6,15.6,15.6s-6.6,15.6-15.6,15.6
			S476.3,24.7,476.3,15.6z"/>
		<path class="st4" d="M315.8,1.2h17.5c2.5,0,4.9,1,6.5,2.9l86.8,99.1c0.8,0.9,2.2,1,3,0.2c0.5-0.4,0.7-1,0.7-1.7V5.6
			c0-2.4,2-4.2,4.2-4.3h17.8c2.4,0,4.3,2,4.3,4.3l0,0V143c0,2.4-2,4.3-4.3,4.3l0,0h-17.9c-2.5,0-4.9-1-6.5-3l-86.4-98.9
			c-0.8-0.9-2.2-1-3-0.2c-0.5,0.4-0.7,1-0.7,1.7V143c0,2.4-2,4.3-4.3,4.3l0,0h-17.8c-2.4,0-4.3-2-4.3-4.3V5.6
			C311.4,3.2,313.4,1.2,315.8,1.2z"/>
	</g>
</g>
</svg>
