<?xml version="1.0" encoding="utf-8"?>
<!-- Generator: Adobe Illustrator 26.4.1, SVG Export Plug-In . SVG Version: 6.00 Build 0)  -->
<svg version="1.1" id="Layer_1" xmlns="http://www.w3.org/2000/svg" xmlns:xlink="http://www.w3.org/1999/xlink" x="0px" y="0px"
	 viewBox="0 0 437 111.9" style="enable-background:new 0 0 437 111.9;" xml:space="preserve">
<style type="text/css">
	.st0{fill:#F58220;}
	.st1{fill:#0F2B4D;}
	.st2{fill:#1288C9;}
</style>
<g>
	<rect x="375" y="32.2" class="st0" width="8.7" height="47"/>
	<polygon class="st0" points="215.7,66.9 195.4,32.2 184.5,32.2 184.5,79.3 193.3,79.3 193.3,44.4 213.7,79.3 224.5,79.3 
		224.5,32.2 215.7,32.2 	"/>
	<polygon class="st0" points="243.8,32.2 235,32.2 235,79.3 264.8,79.3 264.8,70.7 243.8,70.7 	"/>
	<path class="st0" d="M152.4,31.4c-13.5,0-24.4,10.9-24.4,24.4c0,13.5,10.9,24.4,24.4,24.4c13.5,0,24.4-10.9,24.4-24.4
		S165.9,31.4,152.4,31.4z M152.4,71.5c-8.7,0-15.8-7.1-15.8-15.8S143.7,40,152.4,40c8.7,0,15.8,7.1,15.8,15.8
		C168.3,64.5,161.2,71.5,152.4,71.5L152.4,71.5z"/>
	<path class="st0" d="M291.8,31.4c-13.5,0-24.4,10.9-24.4,24.4c0,13.5,10.9,24.4,24.4,24.4c13.5,0,24.4-10.9,24.4-24.4
		C316.1,42.3,305.2,31.4,291.8,31.4z M291.8,71.5c-8.7,0-15.8-7.1-15.8-15.8s7.1-15.8,15.8-15.8c8.7,0,15.8,7.1,15.8,15.8
		C307.6,64.5,300.5,71.5,291.8,71.5L291.8,71.5z"/>
	<path class="st0" d="M367.3,51.9h-14.2l-6.7,8.2h12.4v6.7c-6.1,6.3-16.1,6.4-22.3,0.3S330,51,336.1,44.8s16.1-6.4,22.3-0.3
		c0.1,0.1,0.2,0.2,0.3,0.3l5.4-6.6c-9.8-9.3-25.2-8.9-34.5,0.9c-9.3,9.8-8.9,25.2,0.9,34.5s25.2,8.9,34.5-0.9
		c0.8-0.9,1.6-1.8,2.3-2.8V51.9z"/>
	<path class="st0" d="M437,66.9l-7.6-3.9c-4,7.8-13.5,10.8-21.3,6.8c-7.8-4-10.8-13.5-6.8-21.3c4-7.8,13.5-10.8,21.3-6.8
		c2.9,1.5,5.3,3.8,6.8,6.7l7.6-3.9c-6.2-12-20.9-16.7-32.9-10.5c-12,6.2-16.7,20.9-10.5,32.9c6.2,12,20.9,16.7,32.9,10.5
		C431,75.1,434.6,71.4,437,66.9L437,66.9z"/>
	<polygon class="st0" points="84.3,94.2 84.3,74.9 61.8,84.4 61.8,84.4 	"/>
	<polygon class="st1" points="84.3,94.2 42.2,75.8 42.2,27.9 19.6,37.7 0,46.2 0.1,93.9 42.8,111.9 	"/>
	<polygon class="st0" points="19.6,37.7 42.2,27.9 19.6,18.1 	"/>
	<polygon class="st0" points="42.2,27.9 42.2,75.8 61.8,84.4 61.8,36.5 	"/>
	<polygon class="st2" points="61.8,84.4 61.8,84.4 104,66.6 103.9,18.7 61.2,0 19.6,18.1 61.8,36.5 	"/>
</g>
</svg>
