<?xml version="1.0" encoding="utf-8"?>
<!-- Generator: Adobe Illustrator 22.0.1, SVG Export Plug-In . SVG Version: 6.00 Build 0)  -->
<svg version="1.1" id="Layer_1" xmlns="http://www.w3.org/2000/svg" xmlns:xlink="http://www.w3.org/1999/xlink" x="0px" y="0px"
	 viewBox="0 0 100 50" style="enable-background:new 0 0 100 50;" xml:space="preserve">
<style type="text/css">
	.st0{fill:#221F1F;}
	.st1{fill:#97999C;}
	.st2{fill:#0033A1;}
</style>
<title>Artboard 1</title>
<g>
	<path class="st0" d="M3.6,32.5h2.9c0.7,0,1.5,0.1,1.5,1.3s-0.9,1.3-1.7,1.3H3.6V32.5z M1,40.1h2.5v-3.3h3.9c2.1,0,3.1-1.2,3.1-3.2
		c0-1.3-0.6-2.8-3.3-2.8H1L1,40.1z"/>
	<path class="st0" d="M13.3,35.9L13.3,35.9c0.2-1,1.2-1.7,2.2-1.6c1.7,0,2.2,1.2,2.2,1.6l0,0H13.3z M17.5,38c-0.4,0.6-1.2,1-1.9,0.9
		c-1.6,0-2.3-1-2.3-1.7l0,0h6.7V37c0-2.6-1.5-4.2-4.5-4.2c-2.8,0-4.6,1.1-4.6,3.8c0,2.6,1.9,3.7,4.7,3.7c2.1,0,3.7-0.7,4.4-2.3
		L17.5,38z"/>
	<path class="st0" d="M20.9,33.1h2.2v1.4l0,0c0.6-1,1.6-1.6,2.8-1.6c0.3,0,0.6,0,0.9,0.1v2.2c-0.4-0.1-0.8-0.2-1.3-0.2
		c-1.6,0-2.3,0.8-2.3,2.2v3h-2.3V33.1z"/>
	<polygon class="st0" points="27.7,30.6 30,30.6 30,35.7 33,33.1 36.2,33.1 32.9,35.8 36.4,40.1 33.4,40.1 31.1,37.2 30,38.1 
		30,40.1 27.7,40.1 	"/>
	<path class="st0" d="M37.2,33.1h2.3v7h-2.3V33.1z M37.2,30.6h2.3v1.6h-2.3V30.6z"/>
	<path class="st0" d="M46.6,36.2c0-1-0.5-1.4-1.5-1.4c-1-0.1-1.9,0.6-2,1.6c0,0.1,0,0.3,0,0.4v3.4h-2.3v-7H43v1l0,0
		c0.7-0.8,1.8-1.2,2.9-1.2c1.2,0,3,0.5,3,2.5v4.7h-2.3L46.6,36.2z"/>
	<polygon class="st1" points="50.2,30.8 58.9,30.8 58.9,32.6 52.7,32.6 52.7,34.5 58.6,34.5 58.6,36.2 52.7,36.2 52.7,38.4 59,38.4 
		59,40.1 50.2,40.1 	"/>
	<rect x="60" y="30.6" class="st1" width="2.3" height="9.5"/>
	<path class="st1" d="M74.5,35.9c0-0.9-0.7-1.2-1.4-1.2c-0.9-0.1-1.6,0.5-1.7,1.4c0,0.1,0,0.1,0,0.2v3.8h-2.3v-4.2
		c0-0.9-0.7-1.2-1.4-1.2c-0.9-0.1-1.7,0.5-1.8,1.4c0,0.1,0,0.2,0,0.2v3.8h-2.3v-7h2.2v1l0,0c0.7-0.8,1.8-1.2,2.9-1.2
		c1-0.1,2,0.4,2.4,1.3c0.7-0.9,1.8-1.4,2.9-1.3c1.4,0,2.8,0.6,2.8,2.4v4.7h-2.3L74.5,35.9z"/>
	<path class="st1" d="M79.9,35.9L79.9,35.9c0.2-1,1.2-1.7,2.2-1.5c1.7,0,2.2,1.2,2.2,1.6l0,0L79.9,35.9z M84.1,38
		c-0.4,0.6-1.2,1-1.9,0.9c-1.6,0-2.2-1-2.2-1.7l0,0h6.7V37c0-2.6-1.5-4.2-4.5-4.2c-2.8,0-4.6,1.1-4.6,3.8c0,2.6,1.9,3.8,4.6,3.8
		c2.1,0,3.7-0.7,4.4-2.3L84.1,38z"/>
	<path class="st1" d="M87.5,33.1h2.2v1.4l0,0c0.6-1,1.6-1.6,2.8-1.6c0.3,0,0.6,0,0.9,0.1v2.2C93,35.1,92.6,35,92.1,35
		c-1.6,0-2.3,0.8-2.3,2.2v3h-2.3L87.5,33.1z"/>
	<path class="st2" d="M36.5-0.2v0.1c5.1,3.7,6.2,10.7,2.5,15.8c-0.7,1-1.6,1.8-2.5,2.5v0l15.6-7.8L36.5-0.2z"/>
	<polygon class="st2" points="26.7,26.8 18.2,26.8 21.6,-0.2 30.1,-0.2 	"/>
	<path class="st0" d="M94.6,30.6c0.5,0,0.9,0.4,0.9,1s-0.4,0.9-1,0.9c-0.5,0-0.9-0.4-0.9-0.9C93.6,31.1,94,30.6,94.6,30.6
		C94.6,30.6,94.6,30.6,94.6,30.6z M94.6,30.8c-0.4,0-0.7,0.4-0.7,0.8c0,0.4,0.3,0.6,0.7,0.7c0.4,0,0.7-0.3,0.7-0.7c0,0,0,0,0,0
		C95.3,31.2,95,30.8,94.6,30.8C94.6,30.8,94.6,30.8,94.6,30.8L94.6,30.8z M94.4,32.1h-0.2v-0.9c0.1,0,0.2,0,0.4,0
		c0.1,0,0.2,0,0.3,0.1c0.1,0.1,0.1,0.1,0.1,0.2c0,0.1-0.1,0.2-0.2,0.2l0,0c0.1,0,0.1,0.1,0.2,0.2c0,0.1,0,0.2,0.1,0.2h-0.2
		c0-0.1-0.1-0.1-0.1-0.2c0-0.1-0.1-0.1-0.2-0.1h-0.1L94.4,32.1z M94.4,31.5h0.1c0.1,0,0.2,0,0.2-0.1c0-0.1-0.1-0.1-0.2-0.1
		c0,0-0.1,0-0.1,0L94.4,31.5z"/>
	<path class="st2" d="M50.6,49.4c0.3-0.1,0.3-0.2,0.4-0.5s0.6-3.6,0.6-3.9c0-0.4,0-0.4-0.2-0.5c-0.2,0-0.3-0.1-0.5-0.1
		c0-0.1,0-0.2,0-0.2c0.2,0,0.6,0,1.1,0H54c0.3,0,0.6,0,0.9,0c0,0,0,0.1,0,0.1c-0.1,0.4-0.2,0.8-0.3,1.2c0,0.1-0.2,0.1-0.3,0
		c0-0.2,0-0.4,0-0.7c0-0.2-0.2-0.3-0.3-0.3c-0.3,0-1.2,0-1.4,0c-0.1,0-0.1,0.1-0.1,0.2c-0.1,0.3-0.3,1.6-0.3,2.1c0,0,0,0,0,0.1
		c0,0,0,0,0,0c0.2,0,1.1,0,1.4,0c0.2,0,0.4-0.1,0.4-0.3c0.1-0.1,0.1-0.2,0.1-0.4c0.1,0,0.2,0,0.3,0c-0.1,0.2-0.1,0.5-0.2,0.9
		c-0.1,0.3-0.1,0.6-0.1,0.9c0,0.1-0.2,0.1-0.3,0v-0.4c0-0.2-0.1-0.3-0.3-0.3c-0.3,0-1.1,0-1.4,0c0,0-0.1,0-0.1,0.1
		c-0.1,0.5-0.2,1.3-0.2,1.7c0,0.4,0,0.4,0.2,0.5l0.6,0.1c0,0.1,0,0.2,0,0.3c-0.3,0-0.8,0-1.3,0c-0.5,0-0.9,0-1.1,0
		c0-0.1,0-0.2,0-0.3C50.3,49.4,50.5,49.4,50.6,49.4"/>
	<path class="st2" d="M57.7,47.2c0,0.9-0.4,1.8-1.2,2.3c-0.3,0.2-0.6,0.3-1,0.3c-0.6,0-0.9-0.6-0.9-1.2c0-0.8,0.3-1.6,0.9-2.1
		c0.4-0.3,0.8-0.4,1.2-0.5C57.5,46,57.7,46.6,57.7,47.2 M56,49.4c0.6,0,1-1,1-2c0-0.5-0.1-1-0.6-1c-0.7,0-1,1.1-1,1.9
		C55.3,49.1,55.5,49.4,56,49.4"/>
	<path class="st2" d="M60.1,46.5c0.3-0.3,0.5-0.5,0.7-0.5c0.2,0,0.3,0.1,0.4,0.2v0.1c-0.1,0.2-0.2,0.4-0.4,0.6c0,0-0.1,0-0.1,0
		c-0.1-0.1-0.2-0.2-0.4-0.2c-0.1,0-0.4,0.3-0.8,1.1c-0.2,0.3-0.3,0.7-0.4,1c-0.1,0.2-0.1,0.4-0.1,0.7c-0.2,0.1-0.4,0.2-0.6,0.3
		c0,0-0.1-0.1-0.1-0.1c0-0.2,0.4-2,0.5-2.7c0-0.2,0-0.3-0.1-0.3c-0.2,0.1-0.4,0.2-0.5,0.3l0,0c0-0.1,0-0.2,0-0.2
		c0.3-0.4,0.7-0.6,1.1-0.8c0.1,0,0.2,0.2,0.1,0.7c0,0.2-0.1,0.4-0.1,0.6l0,0C59.7,47.1,59.9,46.8,60.1,46.5"/>
	<path class="st2" d="M64,48.7c0,0.4,0,0.4,0.2,0.4c0.2,0,0.7-0.4,0.8-0.6c0,0,0.1,0,0,0c0,0.1,0,0.2,0,0.3c-0.3,0.5-0.8,0.8-1.4,1
		c-0.2,0-0.3-0.2-0.3-0.6c0-0.4,0.3-1.8,0.5-2.6l0,0c-0.2,0-0.4,0-0.6,0c0,0,0,0,0-0.1c0.1-0.1,0.2-0.2,0.3-0.3h0.4c0,0,0.1,0,0.1,0
		c0.1-0.5,0.2-0.8,0.2-1c0.2-0.2,0.4-0.4,0.7-0.5c0,0,0.1,0.1,0.1,0.1c-0.1,0.2-0.2,0.3-0.2,0.5c-0.1,0.2-0.1,0.6-0.2,0.9v0.1
		c0.4,0,0.7,0,1.1-0.1c0,0.1,0,0.1-0.1,0.2c-0.1,0.1-0.3,0.2-0.5,0.2c-0.2,0-0.4,0.1-0.6,0.1c0,0,0,0-0.1,0.1
		C64.2,47.2,64.1,48.3,64,48.7"/>
	<path class="st2" d="M66.7,47.8c-0.2,0.3-0.4,0.7-0.4,1.1c-0.1,0.2-0.1,0.4,0,0.6c-0.2,0.1-0.4,0.3-0.6,0.3c0,0-0.1-0.1-0.1-0.1
		c0-0.2,0-0.3,0.1-0.5c0.2-1.4,0.9-4.3,0.9-4.8c0-0.1,0-0.2-0.1-0.2c-0.2,0-0.4,0.1-0.5,0.2c0-0.1,0-0.2,0.1-0.3
		c0.4-0.3,0.8-0.4,1.2-0.5c0.1,0,0.1,0.1,0.1,0.5c-0.2,0.9-0.6,2.8-0.7,3.5l0,0c0.7-0.9,1.5-1.6,2-1.6c0.3,0,0.3,0.4,0.2,1.1
		c-0.1,0.7-0.3,1.3-0.4,1.8c0,0.2,0,0.2,0.1,0.2c0.2-0.1,0.4-0.2,0.5-0.4c0,0,0,0,0,0.1c0,0.1,0,0.2,0,0.3c-0.3,0.4-0.7,0.7-1.1,0.8
		c-0.2,0-0.2-0.2-0.2-0.6c0.1-0.6,0.3-1.4,0.4-2.1c0.1-0.4,0.1-0.5-0.1-0.5S67.1,47,66.7,47.8"/>
	<path class="st2" d="M72.3,46.6c0,0.4-0.3,0.8-0.9,1c-0.3,0.2-0.7,0.3-1,0.4c0,0-0.1,0-0.1,0.1c0,0.1,0,0.1,0,0.2
		c0,0.6,0.2,0.9,0.7,0.9c0.5,0,0.9-0.3,1.2-0.6c0,0,0,0,0,0.1c0,0.1,0,0.2-0.1,0.3c-0.4,0.5-1,0.8-1.6,0.9c-0.6,0-0.9-0.6-0.9-1.2
		c0-0.7,0.3-1.5,0.8-2c0.4-0.3,0.8-0.5,1.3-0.6C72.1,46,72.3,46.2,72.3,46.6 M70.5,47.6L70.5,47.6c0.3-0.1,0.6-0.2,0.9-0.3
		c0.2-0.1,0.3-0.3,0.3-0.6c0-0.2-0.1-0.4-0.3-0.4c0,0,0,0-0.1,0C71,46.3,70.6,46.7,70.5,47.6"/>
	<path class="st2" d="M74.8,49.4c0.2-0.1,0.3-0.1,0.4-0.4s0.2-1.3,0.3-2c0.1-0.7,0.3-1.7,0.3-2c0-0.3,0-0.3-0.2-0.4
		c-0.2-0.1-0.3-0.1-0.5-0.1c0,0,0-0.2,0.1-0.3h1h1.2c0.7,0,1.4,0.3,1.4,1.2c0,0.7-0.5,1.2-1.2,1.3 M77.7,46.7
		c0.7,0.2,1.2,0.6,1.2,1.3c0,0.7-0.5,1.4-1.2,1.6c-0.4,0.1-0.9,0.2-1.3,0.2c-0.4,0-1.5-0.1-2.1,0c0,0,0-0.2,0-0.3
		c0.2,0,0.4,0,0.5-0.1 M78,48.1c0-0.7-0.5-1.2-1.5-1.2c-0.1,0-0.2,0-0.3,0c0,0-0.1,0-0.1,0.1c-0.1,0.5-0.3,1.7-0.3,2
		c0,0.1,0,0.2,0.1,0.2c0.2,0.1,0.5,0.2,0.7,0.2c0.7,0.1,1.3-0.4,1.4-1.1C78,48.3,78,48.2,78,48.1 M76.6,44.5c0,0-0.1,0.1-0.1,0.1
		c-0.1,0.4-0.2,1.3-0.3,1.9c0,0,0,0.1,0.1,0.1c0.1,0,0.2,0,0.3,0c1,0,1.5-0.5,1.5-1.1s-0.4-1-1.1-1L76.6,44.5"/>
	<path class="st2" d="M82.2,46.6c0,0.4-0.3,0.8-0.9,1c-0.3,0.2-0.7,0.3-1,0.4c0,0-0.1,0-0.1,0.1c0,0.1,0,0.1,0,0.2
		c0,0.6,0.2,0.9,0.7,0.9c0.5,0,0.9-0.3,1.2-0.6c0,0,0,0,0,0.1c0,0.1,0,0.2-0.1,0.3c-0.4,0.5-1,0.8-1.6,0.9c-0.6,0-0.9-0.6-0.9-1.2
		c0-0.7,0.3-1.5,0.8-2c0.4-0.3,0.8-0.5,1.3-0.6C82,46,82.2,46.2,82.2,46.6 M80.3,47.6L80.3,47.6c0.3-0.1,0.6-0.2,0.9-0.3
		c0.2-0.1,0.3-0.3,0.3-0.6c0-0.2-0.1-0.4-0.3-0.4c0,0,0,0-0.1,0C80.9,46.3,80.4,46.7,80.3,47.6"/>
	<path class="st2" d="M83.4,46.1C83.4,46.1,83.4,46.1,83.4,46.1c0.1-0.3,0.2-0.6,0.3-0.9c0.2-0.2,0.4-0.4,0.7-0.5
		c0,0,0.1,0.1,0.1,0.1c-0.1,0.1-0.2,0.3-0.2,0.5c-0.1,0.3-0.1,0.5-0.2,0.8v0.1h1.5c0.1,0,0.1,0,0.1-0.1c0.1-0.4,0.2-0.7,0.3-1.1
		c0.2-0.2,0.4-0.4,0.7-0.5c0,0,0.1,0.1,0.1,0.1c-0.1,0.1-0.2,0.3-0.2,0.5c-0.1,0.2-0.2,0.7-0.2,1v0.1c0.3,0,0.7,0,1-0.1
		c0,0.1,0,0.1,0,0.2c-0.1,0.1-0.3,0.2-0.5,0.2c-0.2,0-0.4,0.1-0.6,0.1c0,0-0.1,0-0.1,0.1c-0.1,0.6-0.3,1.7-0.4,2.1
		c0,0.4,0.1,0.4,0.2,0.4c0.3,0,0.7-0.4,0.8-0.6h0.1c0,0.1,0,0.2,0,0.3c-0.3,0.5-0.8,0.8-1.4,0.9c-0.2,0-0.3-0.2-0.3-0.6
		s0.3-1.9,0.4-2.7 M85.5,46.5H84c0,0-0.1,0-0.1,0.1c-0.1,0.6-0.3,1.7-0.4,2.1c0,0.4,0.1,0.4,0.2,0.4c0.3,0,0.6-0.3,0.8-0.6h0.1
		c0,0.1,0,0.2,0,0.3c-0.3,0.5-0.8,0.8-1.3,0.9c-0.2,0-0.3-0.2-0.3-0.6c0-0.4,0.3-1.9,0.4-2.7 M83.3,46.4c-0.2,0-0.4,0-0.6,0
		c0,0,0,0,0-0.1c0.1-0.1,0.2-0.2,0.3-0.3h0.4"/>
	<path class="st2" d="M89.9,46.6c0,0.4-0.3,0.8-0.9,1c-0.3,0.2-0.7,0.3-1,0.4c0,0-0.1,0-0.1,0.1c0,0.1,0,0.1,0,0.2
		c0,0.6,0.2,0.9,0.7,0.9c0.5,0,0.9-0.3,1.2-0.6c0,0,0,0,0,0.1c0,0.1,0,0.2-0.1,0.3c-0.4,0.5-1,0.8-1.6,0.9c-0.6,0-0.9-0.6-0.9-1.2
		c0-0.7,0.3-1.5,0.8-2c0.4-0.3,0.8-0.5,1.3-0.6C89.7,46,89.9,46.2,89.9,46.6 M88,47.6L88,47.6c0.3-0.1,0.6-0.2,0.9-0.3
		c0.2-0.1,0.3-0.3,0.3-0.6c0-0.2-0.1-0.4-0.3-0.4c0,0,0,0-0.1,0C88.6,46.3,88.1,46.7,88,47.6"/>
	<path class="st2" d="M92.1,46.5c0.3-0.3,0.5-0.5,0.7-0.5c0.2,0,0.3,0.1,0.4,0.2v0.1c-0.1,0.2-0.2,0.4-0.4,0.6c0,0-0.1,0-0.1,0
		c-0.1-0.1-0.2-0.2-0.4-0.2c-0.1,0-0.4,0.3-0.8,1.1c-0.1,0.3-0.3,0.7-0.4,1c-0.1,0.2-0.1,0.4-0.1,0.7c-0.2,0.1-0.4,0.2-0.6,0.3
		c0,0-0.1-0.1-0.1-0.1c0-0.2,0.4-2,0.5-2.7c0-0.2,0-0.3-0.1-0.3c-0.2,0.1-0.4,0.2-0.5,0.3l0,0c0-0.1,0-0.2,0-0.2
		c0.3-0.4,0.7-0.6,1.1-0.8c0.1,0,0.2,0.2,0.1,0.7c0,0.2-0.1,0.4-0.1,0.6l0,0C91.7,47.1,91.9,46.8,92.1,46.5"/>
</g>
</svg>
