<?xml version="1.0" encoding="utf-8"?>
<!-- Generator: Adobe Illustrator 26.4.1, SVG Export Plug-In . SVG Version: 6.00 Build 0)  -->
<svg version="1.1" id="Layer_1" xmlns="http://www.w3.org/2000/svg" xmlns:xlink="http://www.w3.org/1999/xlink" x="0px" y="0px"
	 viewBox="0 0 101.7 45" style="enable-background:new 0 0 101.7 45;" xml:space="preserve">
<style type="text/css">
	.st0{fill:#0059B3;}
	.st1{fill:none;stroke:#FFFFFF;stroke-width:0.9847;stroke-miterlimit:3.9387;}
	.st2{fill:#FFDF01;}
	.st3{fill:#FFFFFF;}
	.st4{fill:#005AB4;}
</style>
<path class="st0" d="M34.3,39.1c0,1.5-0.6,2.3-1.8,2.8c-4.5,1.8-9.8,2.7-15,2.7s-10.4-0.9-15-2.7c-1.2-0.5-1.8-1.3-1.8-2.8V0.5h33.5
	V39.1"/>
<path class="st1" d="M34.3,39.1c0,1.5-0.6,2.3-1.8,2.8c-4.5,1.8-9.8,2.7-15,2.7s-10.4-0.9-15-2.7c-1.2-0.5-1.8-1.3-1.8-2.8V0.5h33.5
	V39.1z"/>
<path class="st2" d="M9.8,24c-4.6-2.9-6.2-4.1-6.3-6.1c0-0.4,0.1-1.1,0.2-1.5l-0.4-0.3c-0.4,0.6-0.6,1.3-0.6,2c0,1.1,0.4,2,0.8,2.6
	c0.7,1,1.4,1.7,3.1,2.9c1.8,1.4,3.1,3,3.7,4.6h0.3v-1.9c2.5,1.4,4.6,2.7,5.7,5h0.3C16.1,28.9,14.7,27.1,9.8,24 M23.4,17.7
	c-1,0.5-1.7,1.1-2.4,2l2.1-0.1C23.2,18.6,23.3,18,23.4,17.7z M30.8,25.1c0.2-0.5,0.4-1.1,0.4-1.6l-3.1-0.2c-0.1,0.8-0.3,1.5-0.6,2.2
	C27.6,25.5,30.8,25.1,30.8,25.1z M27.6,17.5c0.2,0.6,0.4,1.2,0.5,1.7l1.8-0.1C29.3,18.4,28.5,17.9,27.6,17.5z M26.8,19.3
	c-0.2-0.7-0.5-1.5-0.9-2.2h-1c-0.3,0.7-0.5,1.5-0.7,2.3C24.2,19.4,26.8,19.3,26.8,19.3z M28.3,20.3c0.1,0.8,0.1,1.5,0.1,2.2l3-0.2
	c-0.1-0.7-0.3-1.3-0.6-1.9L28.3,20.3z M27.3,22.5c0-0.8-0.1-1.5-0.3-2.3l-3-0.1c-0.2,0.9-0.3,1.8-0.4,2.6
	C23.7,22.6,27.3,22.5,27.3,22.5z M27.7,16.1l0.4-0.5L27.6,15l0.1-0.2l1.5,0.8l-0.3,1c0.2,0.1,0.5,0.3,0.8,0.5l1-1.6l-2.5-1.3h-5.5
	l-4.5,2.7c0.9,0.6,1.6,1.2,2.2,1.9c1.2-1.8,3.3-2.9,5.4-2.9C26.2,15.9,27,16,27.7,16.1z M16.6,16.1l2.5-1.5
	c-0.5-0.3-1.1-0.4-1.7-0.4c-0.9,0-2.3,0.4-3,0.5C14.7,14.9,15.9,15.6,16.6,16.1z M17.2,10.4c-0.9-0.2-1.4-0.1-1.9,0.4
	c0.3,0.1,0.6,0.2,0.9,0.2C16.7,10.9,17,10.6,17.2,10.4z M31.1,31.4h-0.3c0-1.8-1.6-2.2-3.2-2.2h-5.2c0.2,0.9,0.2,1.9,0.1,2.8h-0.3
	c-0.5-3.8-2.7-5.8-5.7-7.9v1.8h-0.3c-0.8-1.9-2.6-3.5-4.3-4.7l-1.4-1v1.9h-0.3c-0.7-1.9-2.1-3.3-3.8-5c-2-1.8-2.9-2.9-3.2-4.1
	c-0.3-0.8-0.4-1.4-0.4-2.2c0-1.5,0.7-2.9,1.7-3.3v0.7c-0.5,0.6-0.7,1.4-0.7,2.2c0,0.7,0.2,1.6,0.5,2.3c1.2,2.2,4.9,4.8,7.4,6.4
	c7.6,5,9.1,5.9,10.3,8.7c0.1,0.3,0.3,0.7,0.4,1.2c1.1-0.2,5-0.8,5.8-0.9c0.1,0,0.4-0.1,0.6-0.1c0.7-0.4,1.2-1,1.7-1.7l-2.9-0.2
	c-0.1,0.3-0.3,0.6-0.4,0.8h-0.2c0.1-0.3,0.1-0.6,0.2-0.9l-0.8-0.1v-0.2l0.8-0.1c0.2-0.8,0.2-1.6,0.2-2.3l-3.6-0.2V24h-0.2
	c-0.1-0.4-0.1-0.7-0.2-1.1h-0.8v-0.2h0.8c-0.1-0.9-0.1-1.8-0.1-2.7L21,20l0.3,0.6c0.5,1.3,0.4,2.8,0.2,3.4h-0.3
	c0-0.8-0.3-1.8-0.6-2.4c-0.6-1.4-1.9-2.7-4.1-4v1.8h-0.3c-0.7-2.4-2.6-3.6-5.3-5c-2.3-1.2-3-2.6-2.9-4.7l0.8,0.5
	c0.2,2,1.8,3.2,3.3,3.2c1,0,1.9-0.1,2.8-0.3c1.3-0.3,2.4-0.5,3.3-0.1v-1.2h-0.8c-0.3,0.2-0.8,0.5-1.6,0.5c-0.9,0-2.6-0.5-2.6-2.4
	c0-1.7,1.4-1.9,2.5-1.9h2c0.3,0,0.4-0.1,0.6-0.2c0.1-0.1,0.2-0.3,0.2-0.4V5.3h-5.2v2.1l-2-0.8V6.1h1V5.3H8.9V3.6H7.7
	C7,3.6,6.3,4,6.2,4.9c0,0.9,0.3,1.6,1.2,1.6h0.2v1H7.4c-1.5,0-2.7-1.1-2.7-2.7s1.3-2.8,3-2.8h2.6v1.7h9.8v2.6c0,0.4,0,1-0.1,1.4
	c0,0.3-0.1,0.7-0.6,1.1c-0.3,0.2-0.8,0.3-1.5,0.3c-0.6,0-1.2,0-1.8-0.1c-1.1-0.1-1.5,0.4-1.5,0.8V10c0.5-0.4,1.3-0.7,2.1-0.4
	c1.5,0.5,1.9,0.5,2.7-0.1l0.1,0.2c-0.1,0.1-0.2,0.3-0.5,0.5h0.7v3.9l2.3-1.4h6.3l3.1,1.6c0.4,0.2,0.5,0.5,0.6,0.8
	c0,0.3,0,0.7-0.2,0.9c-0.1,0.2-0.8,1.4-1.2,2c1.2,1.3,1.8,2.9,1.8,4.5s-0.6,3.7-2.6,5.3c0.8,0.2,1.4,0.7,1.9,1.4L31.1,31.4"/>
<path class="st3" d="M17.7,39.8h-1.2v-3.4h1.2c1.6,0,2.2,0.5,2.2,1.7C19.8,39.2,19,39.8,17.7,39.8z M17.6,33c1,0,1.6,0.2,1.6,1.2
	c0,1.1-0.9,1.4-1.9,1.4h-0.9V33C16.5,33,17.6,33,17.6,33z M19.5,35.8c0.9-0.1,1.7-0.8,1.7-1.8c0-0.9-0.4-1.9-3.1-1.9h-4.4v0.1
	c0.1,0,0.4,0.2,0.5,0.3c0.3,0.3,0.4,0.7,0.4,1.3v6.7h3.6c2.1,0,3.4-0.8,3.4-2.6C21.8,36.5,20.7,35.9,19.5,35.8 M7,33h1.3
	c1.1,0,1.7,0.3,1.7,1.5c0,1-0.7,1.7-1.9,1.7h-1L7,33L7,33z M10.5,40.6h2.4l-3.1-3.9c1.2-0.3,2.2-1,2.2-2.3c0-1.5-0.9-2.2-3.1-2.2
	H4.2v0.1c0.2,0.1,0.4,0.2,0.5,0.3C4.9,32.9,5,33.4,5,34.1v6.5h2v-3.7h0.7L10.5,40.6 M29.6,33.4c0.5,0.3,0.7,0.7,0.7,0.7h0.1l0.4-1.4
	c0,0-0.8-0.5-2.6-0.5c-2.8,0-4.7,1.4-4.7,4.3c0,3.3,2.5,4.2,4.5,4.2c2,0,2.8-0.6,2.8-0.6v-1c0,0-0.7,0.7-2.2,0.7
	c-1.3,0-3.1-0.6-3.1-3.3c0-2.6,1.1-3.3,2.6-3.3C28.9,33,29.3,33.2,29.6,33.4"/>
<g>
	<path class="st4" d="M50.1,12.2C50,12,50,11.8,49.6,11.6c2.1,0,3.6-2.1,3.6-4.3c0-2.6-1.7-4.5-4.5-4.5h-5.8v15.5h3v-6.5
		c0.2,0,0.4,0.2,0.6,0.2c0.6,0.2,1.1,0.9,2.6,3.7c0.6,1.1,0.9,1.5,1.5,2.6v-0.2h3.4C53.9,18.2,51.1,13.3,50.1,12.2z M47.2,9.7h-0.9
		V5.4h1.1c0.7,0,1.3,0,1.7,0.2c0.7,0.2,1.1,0.9,1.1,2.1c0,0.6-0.2,1.1-0.6,1.5C49,9.6,48.5,9.7,47.2,9.7z"/>
	<path class="st4" d="M64.6,8.4c-0.9-1.1-2.2-1.7-3.9-1.7c-3.2,0-5.2,2.4-5.2,6c0,3.7,2.1,6,5.2,6c1.7,0,2.8-0.7,3.7-1.7
		c0.9-1.1,1.3-2.4,1.5-4.5C65.9,10.7,65.5,9.6,64.6,8.4z M60.6,16.5c-0.6,0-1.3-0.4-1.5-0.9c-0.2-0.6-0.4-1.5-0.4-2.8
		c0-1.1,0.2-2.1,0.4-2.6C59.3,9.4,59.9,9,60.6,9c0.6,0,0.9,0.2,1.3,0.6c0.4,0.6,0.6,1.5,0.6,3C62.5,15.4,61.9,16.5,60.6,16.5z"/>
	<path class="st4" d="M74.8,6.9H78l-4.1,11.6c-0.7,2.2-1.3,3.2-2.2,3.7c-0.7,0.6-1.7,0.9-2.8,1.1l-1.1-1.9c0.6-0.2,1.5-0.4,1.9-0.7
		c0.4-0.2,0.6-0.6,0.9-0.9c0.4-0.6,0.4-0.7,0.6-1.3h-0.7c-0.4-1.1-0.9-2.8-1.1-3.2l-2.8-8l3-0.4l2.1,6.7c0.2,0.7,0.6,2.2,0.6,2.4
		L74.8,6.9z"/>
	<path class="st4" d="M88.3,14.6v-6c-0.6-1.3-1.9-2.1-3.7-2.1c-1.1,0-2.1,0.2-3.2,0.7c-0.7,0.4-1.3,0.6-1.9,0.9l1.3,2.2
		c1.3-0.7,2.4-1.3,3.4-1.3c1.1,0,1.3,0.4,1.3,1.7v0.6h-0.7c-3.7,0-5.6,1.3-5.6,3.9c0,2.2,1.3,3.6,3.9,3.6c0.9,0,1.7-0.2,2.2-0.6
		c0.2-0.2,0.6-0.4,0.7-0.6c0.4,0.6,0.9,0.9,1.7,1.3l1.7-1.9C88.3,16.5,88.3,15.9,88.3,14.6z M85.1,15.9c-0.4,0.4-0.9,0.7-1.5,0.7
		c-0.7,0-1.3-0.6-1.3-1.5c0-1.3,0.7-1.7,2.8-1.7V15.9z"/>
	<path class="st4" d="M94.5,18.7c-1.3,0-2.2-0.6-2.6-1.5c-0.2-0.6-0.2-0.9-0.2-2.6V6c0-1.5,0-2.4-0.2-3.4l3-0.7
		c0.2,0.6,0.2,1.3,0.2,3v9c0,2.1,0,2.2,0.2,2.6c0.2,0.2,0.4,0.4,0.6,0.4h0.4l0.6,1.9L94.5,18.7L94.5,18.7z"/>
</g>
<g>
	<path class="st4" d="M50.7,34c0.7-0.2,1.1-0.4,1.5-0.7c0.7-0.7,1.1-1.5,1.1-2.6c0-1.1-0.4-2.1-1.3-2.8c-1.1-0.7-2.1-1.1-3.9-1.1
		h-5.2v15.5h6.9c2.6,0,3.9-2.1,4.1-4.3C53.9,35.9,52.6,34.6,50.7,34z M45.8,29.4h1.9c0.7,0,1.1,0,1.3,0.2c0.6,0.4,0.9,0.9,0.9,1.7
		c0,0.6-0.4,1.3-0.9,1.5c-0.2,0.2-0.6,0.2-1.3,0.2h-1.9V29.4z M49.6,39.5c-0.4,0.4-0.9,0.4-1.5,0.4H46v-4.3h1.9c0.6,0,0.7,0,1.1,0.2
		c0.7,0.2,1.1,0.9,1.3,1.9C50.3,38.3,50.1,39.1,49.6,39.5z"/>
	<path class="st4" d="M64.9,38.5v-6c-0.6-1.3-1.9-2.1-3.7-2.1c-1.1,0-2.1,0.2-3.2,0.7c-0.7,0.4-1.3,0.6-1.9,0.9l1.3,2.2
		c1.3-0.7,2.4-1.3,3.4-1.3c1.1,0,1.3,0.4,1.3,1.7v0.6h-0.7c-3.7,0-5.6,1.3-5.6,3.9c0,2.2,1.3,3.6,3.9,3.6c0.9,0,1.7-0.2,2.2-0.6
		c0.2-0.2,0.6-0.4,0.7-0.6c0.4,0.6,0.9,0.9,1.7,1.3l1.7-1.9C64.9,40.4,64.9,39.8,64.9,38.5z M61.7,39.8c-0.4,0.4-0.9,0.7-1.5,0.7
		c-0.7,0-1.3-0.6-1.3-1.5c0-1.3,0.7-1.7,2.8-1.7V39.8z"/>
	<path class="st4" d="M74.3,42.3v-7.5c0-1.3-0.2-1.7-0.9-1.7c-0.6,0-1.3,0.4-2.1,1.1v8h-3V34c0-0.9-0.2-1.9-0.4-2.6l2.6-0.7
		c0.2,0.6,0.4,0.9,0.4,1.5c0.4-0.4,0.7-0.6,1.3-0.9c0.6-0.4,1.3-0.6,2.1-0.6c1.3,0,2.4,0.7,2.8,1.7c0.2,0.4,0.2,0.9,0.2,1.7v8.4
		L74.3,42.3L74.3,42.3z"/>
	<path class="st4" d="M80.5,42.3V29.4c0-0.9,0-1.9-0.2-3l3-0.7c0.2,0.9,0.2,2.2,0.2,3.7v12.9H80.5L80.5,42.3z"/>
	<polygon class="st4" points="87.4,42.3 83.5,35.7 86.4,30.7 90,30.7 86.3,35.5 90.7,42.3 	"/>
</g>
</svg>
