<?xml version="1.0" encoding="UTF-8" standalone="no"?>
<svg
   width="300"
   height="102.85"
   viewBox="0 0 300 102.85"
   fill="none"
   version="1.1"
   id="svg17"
   sodipodi:docname="logo-white.svg"
   inkscape:version="1.3.2 (091e20e, 2023-11-25, custom)"
   xmlns:inkscape="http://www.inkscape.org/namespaces/inkscape"
   xmlns:sodipodi="http://sodipodi.sourceforge.net/DTD/sodipodi-0.dtd"
   xmlns="http://www.w3.org/2000/svg"
   xmlns:svg="http://www.w3.org/2000/svg">
  <defs
     id="defs17" />
  <sodipodi:namedview
     id="namedview17"
     pagecolor="#ffffff"
     bordercolor="#999999"
     borderopacity="1"
     inkscape:showpageshadow="2"
     inkscape:pageopacity="0"
     inkscape:pagecheckerboard="0"
     inkscape:deskcolor="#d1d1d1"
     inkscape:zoom="1.5518672"
     inkscape:cx="94.724599"
     inkscape:cy="39.951872"
     inkscape:window-width="1500"
     inkscape:window-height="912"
     inkscape:window-x="-8"
     inkscape:window-y="-8"
     inkscape:window-maximized="1"
     inkscape:current-layer="svg17" />
  <g
     id="g17"
     transform="matrix(1.2551724,0,0,1.2551724,1.7720594e-7,-0.01225754)">
    <path
       d="m 118.168,19.3495 h 15.682 v 5.2322 h -15.682 v 5.2426 h 15.682 v 10.4748 l -5.23,5.2322 H 112.948 V 40.2991 H 128.62 V 35.0565 H 112.948 V 24.5817 Z"
       fill="white"
       id="path1"
       style="fill:#0a6937;fill-opacity:1" />
    <path
       d="m 137.114,29.8243 v 15.707 h 10.452 l 5.22,-5.2322 H 142.335 V 29.8243 h 10.451 v 10.4748 5.2322 h 5.231 V 24.5817 h -15.682 z"
       fill="white"
       id="path2"
       style="fill:#0a6937;fill-opacity:1" />
    <path
       d="m 223.339,24.5817 -5.22,5.2323 v 15.707 h 10.451 l 5.221,-5.2322 H 223.339 V 29.814 h 10.452 v 15.707 h 5.22 V 24.5714 h -15.672 z"
       fill="white"
       id="path3"
       style="fill:#0a6937;fill-opacity:1" />
    <path
       d="m 201.129,24.5817 h -10.451 l -5.231,5.2426 v 15.707 h 10.452 l 5.23,-5.2322 H 190.678 V 29.8243 h 10.451 v 10.4748 5.2322 h 5.221 V 14.1069 h -5.221 z"
       fill="white"
       id="path4"
       style="fill:#0a6937;fill-opacity:1" />
    <path
       d="M 176.963,40.2991 H 166.512 V 24.5817 h -5.231 v 20.9496 h 15.682 l 5.22,-5.2322 V 24.5817 h -5.22 z"
       fill="white"
       id="path5"
       style="fill:#0a6937;fill-opacity:1" />
    <path
       d="m 214.845,14.1069 h -5.221 v 5.2322 h 5.221 z"
       fill="white"
       id="path6"
       style="fill:#0a6937;fill-opacity:1" />
    <path
       d="m 214.845,24.5817 h -5.221 v 20.9496 h 5.221 z"
       fill="white"
       id="path7"
       style="fill:#0a6937;fill-opacity:1" />
    <path
       d="m 38.1419,56.8421 -3.0272,1.9195 -2.7183,-3.0135 c 1.8328,-1.0216 3.6656,-2.0433 5.4778,-3.096 3.0376,-1.7544 6.0236,-3.6326 9.0715,-5.387 C 46.853,47.2135 46.7706,47.1619 46.678,47.1103 41.2619,44.0556 35.7325,41.0731 29.8119,39.0401 25.1783,37.2134 20.0917,36.8419 15.1493,36.6664 l 17.2162,19.0611 c -0.0824,0.0619 -0.6487,0.4851 -1.6063,1.0527 -5.6941,3.3849 -9.1538,3.8493 -13.7874,4.1899 4.2629,0.8875 6.0648,2.064 12.3046,0.6501 2.1932,-0.4953 5.7147,-2.7657 5.8383,-2.8483 L 49.6125,74.8195 48.6961,50.2579 c -3.5524,2.1362 -7.0636,4.3344 -10.5645,6.5635 z"
       fill="white"
       id="path8"
       style="fill:#0a6937;fill-opacity:1" />
    <path
       d="m 28.9881,36.8212 c 6.8474,1.4964 13.2314,4.5305 19.5021,7.5853 L 47.9136,28.8748 0.476413,19.3495 C 0.0954334,19.2772 -0.151689,19.721 0.10573,20.0099 L 15.1596,36.6871 c 4.6026,-0.8153 9.2568,-0.8566 13.8285,0.1445 z"
       fill="white"
       id="path9"
       style="fill:#0a6937;fill-opacity:1" />
    <path
       d="m 101.652,19.3495 -47.4265,9.5253 -0.5766,15.5317 c 6.2707,-3.0444 12.6547,-6.0785 19.502,-7.5853 4.5718,-1.001 9.2156,-0.9597 13.8286,-0.1444 L 102.033,19.9996 c 0.258,-0.2889 0,-0.7327 -0.37,-0.6605 z"
       fill="white"
       id="path10"
       style="fill:#0a6937;fill-opacity:1" />
    <path
       d="m 55.8421,25.8614 c 0,0 1.7195,-6.0785 0.0514,-12.2602 1.3901,1.1455 3.0479,2.7967 4.335,4.9949 1.8019,3.0754 2.3065,5.4283 2.3065,5.4283 0,0 0.7516,-3.612 -0.4222,-6.8628 -0.381,-1.0629 -1.3386,-3.8803 -3.2744,-5.7173 1.5136,0.7018 3.3156,1.7441 5.1381,3.3024 3.0993,2.6316 4.9424,4.9949 4.9424,4.9949 0,0 -0.5766,-4.0454 -2.8522,-6.935 -2.605,-3.32306 -6.1368,-4.63371 -8.6595,-5.19099 1.5754,-0.2064 3.4185,-0.22704 5.3955,0.23736 4.026,0.93913 6.7135,3.02373 6.7135,3.02373 0,0 -2.4095,-3.79773 -6.3634,-5.54181 C 60.2182,4.03457 57.3351,4.02425 55.0801,4.36481 55.2654,4.00361 55.492,3.67337 55.7906,3.40505 56.4805,2.76521 57.263,2.39369 57.263,2.39369 c 0,0 -1.6681,-0.42312 -3.1199,0.12384 C 53.3914,2.79617 52.8045,3.21929 52.3618,3.61145 52.3103,3.20897 52.2279,2.78585 52.1249,2.33177 51.9499,1.63001 51.1364,0.143926 51.0644,0.00976562 50.9923,0.133606 50.1686,1.63001 50.0038,2.33177 49.8905,2.78585 49.8185,3.20897 49.767,3.61145 49.3242,3.21929 48.7373,2.80649 47.9856,2.51753 46.5338,1.97057 44.8657,2.39369 44.8657,2.39369 c 0,0 0.7826,0.37152 1.4725,1.01136 0.2986,0.26832 0.5251,0.59856 0.7104,0.95976 -2.255,-0.34056 -5.138,-0.33024 -8.0726,0.97008 -3.954,1.74408 -6.3634,5.54181 -6.3634,5.54181 0,0 2.6874,-2.0846 6.7135,-3.02373 1.9872,-0.4644 3.8304,-0.44376 5.3955,-0.23736 -2.5227,0.54696 -6.0545,1.86793 -8.6596,5.19099 -2.2653,2.8896 -2.8522,6.935 -2.8522,6.935 0,0 1.8431,-2.3633 4.9424,-4.9949 1.8226,-1.548 3.6245,-2.5903 5.1381,-3.3024 -1.9255,1.837 -2.8831,4.6544 -3.2743,5.7173 -1.1739,3.2508 -0.4222,6.8628 -0.4222,6.8628 0,0 0.4942,-2.3633 2.3065,-5.4283 1.2871,-2.1878 2.9448,-3.8494 4.3349,-4.9949 -1.6681,6.1817 0.0515,12.2602 0.0515,12.2602 0,0 1.0399,-4.6853 2.6051,-8.6482 0.6692,-1.6925 1.4312,-2.9618 2.1623,-3.9216 0.731,0.9598 1.493,2.2291 2.1623,3.9216 1.5651,3.9732 2.6051,8.6482 2.6051,8.6482 z"
       fill="white"
       id="path11"
       style="fill:#0a6937;fill-opacity:1" />
    <path
       d="m 55.4508,47.1206 c -0.0927,0.0516 -0.1751,0.1032 -0.2677,0.1548 3.0478,1.7544 6.0339,3.6223 9.0714,5.3871 1.8122,1.0526 3.6451,2.0846 5.4779,3.096 L 67.014,58.7719 63.9868,56.8524 C 60.4859,54.6233 56.9747,52.4251 53.4223,50.2889 L 52.5059,74.8505 67.0037,58.8029 c 0.1236,0.0825 3.6348,2.3529 5.8383,2.8483 6.2398,1.4138 8.0418,0.2374 12.3046,-0.6502 C 80.5131,60.6605 77.0637,60.1858 71.3593,56.8111 70.4017,56.2435 69.8354,55.8204 69.753,55.7585 L 86.9692,36.6974 c -4.9425,0.1754 -10.0291,0.5367 -14.6626,2.3736 -5.9207,2.0331 -11.45,5.0155 -16.8661,8.0703 z"
       fill="white"
       id="path12"
       style="fill:#0a6937;fill-opacity:1" />
    <path
       d="m 122.524,75.1807 c -6.024,0 -9.576,-4.1486 -9.576,-11.1869 0,-7.0382 3.552,-11.1869 9.576,-11.1869 4.932,0 8.258,3.0961 8.989,8.2457 h -2.935 c -0.679,-3.5913 -2.903,-5.7069 -6.054,-5.7069 -4.026,0 -6.436,3.2095 -6.436,8.6585 0,5.4489 2.41,8.6585 6.436,8.6585 3.171,0 5.375,-2.1776 6.054,-5.8618 h 2.935 c -0.731,5.2425 -4.078,8.3901 -8.989,8.3901 z"
       fill="white"
       id="path13"
       style="fill:#0a6937;fill-opacity:1" />
    <path
       d="m 148.369,74.8918 h -2.935 v -4.8917 h -0.062 c 0,3.2405 -1.966,5.1806 -5.313,5.1806 -3.82,0 -6.075,-2.8277 -6.075,-7.6265 0,-4.7988 2.265,-7.6264 6.075,-7.6264 3.347,0 5.313,1.9401 5.313,5.1806 h 0.062 v -4.8917 h 2.935 z m -2.729,-7.3376 c 0,-3.1785 -1.586,-5.2425 -4.314,-5.2425 -2.729,0 -4.315,1.9401 -4.315,5.2425 0,3.3024 1.586,5.2426 4.315,5.2426 2.728,0 4.314,-2.064 4.314,-5.2426 z"
       fill="white"
       id="path14"
       style="fill:#0a6937;fill-opacity:1" />
    <path
       d="m 162.609,60.3715 -0.885,2.7348 c -0.556,-0.3199 -1.349,-0.5263 -2.111,-0.5263 -2.523,0 -3.995,1.9711 -3.995,5.3251 v 6.9763 h -2.935 V 60.2167 h 2.935 v 5.7379 h 0.061 c 0,-3.7977 1.73,-6.0372 4.675,-6.0372 0.824,0 1.678,0.1755 2.265,0.4438 z"
       fill="white"
       id="path15"
       style="fill:#0a6937;fill-opacity:1" />
    <path
       d="m 178.003,60.227 v 14.9537 c 0,4.2415 -2.616,6.77 -7.084,6.77 -3.934,0 -6.518,-2.0021 -6.899,-5.3561 l 2.79,-0.3819 c 0.206,2.1156 1.73,3.354 4.109,3.354 2.615,0 4.139,-1.5583 4.139,-4.2105 v -5.48 h -0.062 c 0,3.2405 -1.967,5.1807 -5.313,5.1807 -3.82,0 -6.075,-2.7967 -6.075,-7.5646 0,-4.7678 2.265,-7.5645 6.075,-7.5645 3.346,0 5.313,1.9401 5.313,5.1806 h 0.062 v -4.8917 h 2.934 z m -2.729,7.2756 c 0,-3.1476 -1.586,-5.1806 -4.314,-5.1806 -2.729,0 -4.315,1.9402 -4.315,5.1806 0,3.2405 1.586,5.1807 4.315,5.1807 2.728,0 4.314,-2.0331 4.314,-5.1807 z"
       fill="white"
       id="path16"
       style="fill:#0a6937;fill-opacity:1" />
    <path
       d="m 181.493,67.5542 c 0,-4.7988 2.729,-7.6264 7.311,-7.6264 4.582,0 7.311,2.8276 7.311,7.6264 0,4.7988 -2.698,7.6265 -7.311,7.6265 -4.613,0 -7.311,-2.8277 -7.311,-7.6265 z m 11.636,0 c 0,-3.292 -1.586,-5.2425 -4.315,-5.2425 -2.728,0 -4.314,1.9401 -4.314,5.2425 0,3.3024 1.586,5.2426 4.314,5.2426 2.729,0 4.315,-1.9402 4.315,-5.2426 z"
       fill="white"
       id="path17"
       style="fill:#0a6937;fill-opacity:1" />
  </g>
</svg>
