<?xml version="1.0" encoding="utf-8"?>
<!-- Generator: Adobe Illustrator 26.5.0, SVG Export Plug-In . SVG Version: 6.00 Build 0)  -->
<svg version="1.1" id="Icons" xmlns="http://www.w3.org/2000/svg" xmlns:xlink="http://www.w3.org/1999/xlink" x="0px" y="0px"
	 width="70px" height="70px" viewBox="0 0 70 70" style="enable-background:new 0 0 70 70;" xml:space="preserve">
<path d="M66.5,32.7v-2.5c2.5-0.6,4-3.2,3.4-5.7c-0.6-2.5-3.2-4-5.7-3.4s-4,3.2-3.4,5.7c0.4,1.6,1.7,2.9,3.4,3.4v2.5
	c0,0.6-0.5,1.2-1.2,1.2h-2.9c-0.3-1.3-0.8-2.6-1.4-3.9l0.6-17.7c0.1-1.6-1.2-2.9-2.7-2.9c-0.5,0-1.1,0.1-1.5,0.4L42,17.2
	c-0.8-0.2-1.6-0.3-2.4-0.5V7c0-0.6,0.5-1.2,1.2-1.2h2.5c0.6,2.5,3.2,4,5.7,3.4c2.5-0.6,4-3.2,3.4-5.7c-0.6-2.5-3.2-4-5.7-3.4
	c-1.6,0.4-2.9,1.7-3.4,3.4h-2.5c-1.9,0-3.5,1.6-3.5,3.5v9.4c-1.6-0.1-3.1-0.1-4.7,0V7c0-1.9-1.6-3.5-3.5-3.5h-2.5
	C26,1,23.5-0.5,21,0.1s-4,3.2-3.4,5.7c0.6,2.5,3.2,4,5.7,3.4c1.6-0.4,2.9-1.7,3.4-3.4h2.5c0.6,0,1.2,0.5,1.2,1.2v9.7
	c-0.8,0.1-1.6,0.3-2.4,0.5L15,9.7c-1.4-0.8-3.1-0.3-3.9,1c-0.3,0.5-0.4,1-0.4,1.5l0.6,17.7c-0.6,1.2-1.1,2.6-1.4,3.9H7
	c-0.6,0-1.2-0.5-1.2-1.2v-2.5c2.5-0.6,4-3.2,3.4-5.7c-0.6-2.5-3.2-4-5.7-3.4s-4,3.2-3.4,5.7c0.4,1.6,1.7,2.9,3.4,3.4v2.5
	c0,1.9,1.6,3.5,3.5,3.5h2.5c-0.2,1.5-0.2,3.1,0,4.7H7c-1.9,0-3.5,1.6-3.5,3.5v2.5c-2.5,0.6-4,3.2-3.4,5.7c0.6,2.5,3.2,4,5.7,3.4
	s4-3.2,3.4-5.7c-0.4-1.6-1.7-2.9-3.4-3.4v-2.5c0-0.6,0.5-1.2,1.2-1.2h2.9c2.2,8.7,10.3,15.5,20.4,17.1V63c0,0.6-0.5,1.2-1.2,1.2
	h-2.5c-0.6-2.5-3.2-4-5.7-3.4s-4,3.2-3.4,5.7c0.6,2.5,3.2,4,5.7,3.4c1.6-0.4,2.9-1.7,3.4-3.4h2.5c1.9,0,3.5-1.6,3.5-3.5v-2.4
	c0.8,0.1,1.5,0.1,2.3,0.1c0.8,0,1.6,0,2.3-0.1V63c0,1.9,1.6,3.5,3.5,3.5h2.5c0.6,2.5,3.2,4,5.7,3.4c2.5-0.6,4-3.2,3.4-5.7
	c-0.6-2.5-3.2-4-5.7-3.4c-1.6,0.4-2.9,1.7-3.4,3.4h-2.5c-0.6,0-1.2-0.5-1.2-1.2v-2.7c10.2-1.6,18.3-8.4,20.4-17.1H63
	c0.6,0,1.2,0.5,1.2,1.2v2.5c-2.5,0.6-4,3.2-3.4,5.7c0.6,2.5,3.2,4,5.7,3.4s4-3.2,3.4-5.7c-0.4-1.6-1.7-2.9-3.4-3.4v-2.5
	c0-1.9-1.6-3.5-3.5-3.5h-2.5c0.2-1.5,0.2-3.1,0-4.7H63C64.9,36.2,66.5,34.6,66.5,32.7z M63,25.7c0-1.3,1-2.3,2.3-2.3
	c1.3,0,2.3,1,2.3,2.3s-1,2.3-2.3,2.3C64,28,63,27,63,25.7z M47.8,2.3c1.3,0,2.3,1,2.3,2.3S49.1,7,47.8,7c-1.3,0-2.3-1-2.3-2.3
	S46.5,2.3,47.8,2.3z M22.2,7c-1.3,0-2.3-1-2.3-2.3s1-2.3,2.3-2.3s2.3,1,2.3,2.3S23.5,7,22.2,7z M2.3,25.7c0-1.3,1-2.3,2.3-2.3
	s2.3,1,2.3,2.3S6,28,4.7,28S2.3,27,2.3,25.7z M7,51.3c0,1.3-1,2.3-2.3,2.3s-2.3-1-2.3-2.3c0-1.3,1-2.3,2.3-2.3S7,50,7,51.3z
	 M22.2,67.7c-1.3,0-2.3-1-2.3-2.3c0-1.3,1-2.3,2.3-2.3s2.3,1,2.3,2.3C24.5,66.6,23.5,67.7,22.2,67.7z M47.8,63c1.3,0,2.3,1,2.3,2.3
	c0,1.3-1,2.3-2.3,2.3c-1.3,0-2.3-1-2.3-2.3C45.5,64,46.5,63,47.8,63z M35,58.3c-12.9,0-23.3-8.9-23.3-19.8c0-2.7,0.6-5.4,1.9-7.8
	c0.1-0.2,0.1-0.4,0.1-0.6l-0.6-18c0-0.2,0.1-0.4,0.2-0.5c0.1,0,0.2-0.1,0.3-0.1c0.1,0,0.2,0,0.3,0.1l13.3,7.7
	c0.3,0.2,0.6,0.2,0.9,0.1c4.5-1.2,9.3-1.2,13.8,0c0.3,0.1,0.6,0,0.9-0.1l13.4-7.7c0.2-0.1,0.4-0.1,0.5,0c0.2,0.1,0.3,0.3,0.2,0.5
	l-0.6,18c0,0.2,0,0.4,0.1,0.6c1.2,2.4,1.9,5.1,1.9,7.8C58.3,49.4,47.9,58.3,35,58.3z M67.7,51.3c0,1.3-1,2.3-2.3,2.3
	c-1.3,0-2.3-1-2.3-2.3c0-1.3,1-2.3,2.3-2.3C66.6,49,67.7,50,67.7,51.3z"/>
<path d="M31.5,32.7c0-3.2-2.6-5.8-5.8-5.8s-5.8,2.6-5.8,5.8c0,3.2,2.6,5.8,5.8,5.8C28.9,38.5,31.5,35.9,31.5,32.7z M22.2,32.7
	c0-1.9,1.6-3.5,3.5-3.5s3.5,1.6,3.5,3.5c0,1.9-1.6,3.5-3.5,3.5S22.2,34.6,22.2,32.7z"/>
<path d="M44.3,26.8c-3.2,0-5.8,2.6-5.8,5.8c0,3.2,2.6,5.8,5.8,5.8c3.2,0,5.8-2.6,5.8-5.8C50.1,29.4,47.5,26.8,44.3,26.8z M44.3,36.2
	c-1.9,0-3.5-1.6-3.5-3.5c0-1.9,1.6-3.5,3.5-3.5c1.9,0,3.5,1.6,3.5,3.5C47.8,34.6,46.2,36.2,44.3,36.2z"/>
<path d="M43.2,47.2c-0.6,0-1.2,0.5-1.2,1.2c0,1.6-1.3,2.9-2.9,2.9c-1.6,0-2.9-1.3-2.9-2.9v-2c0.2-0.1,0.3-0.2,0.5-0.3l3.3-2.9
	c0.8-0.7,1.1-1.9,0.7-3c-0.4-1-1.3-1.7-2.4-1.7h-6.5c-1.1,0-2,0.7-2.4,1.7c-0.4,1-0.1,2.2,0.7,3l3.3,2.9c0.2,0.1,0.3,0.2,0.5,0.3v2
	c0,1.6-1.3,2.9-2.9,2.9c-1.6,0-2.9-1.3-2.9-2.9c0-0.6-0.5-1.2-1.2-1.2s-1.2,0.5-1.2,1.2c0,2.9,2.4,5.2,5.3,5.2c1.6,0,3.1-0.7,4.1-2
	c1.8,2.3,5.1,2.6,7.4,0.8c1.2-1,1.9-2.5,2-4.1C44.3,47.8,43.8,47.2,43.2,47.2z M31.6,41.4c-0.1-0.1-0.1-0.3-0.1-0.4
	c0.1-0.2,0.2-0.2,0.2-0.2h6.5c0,0,0.1,0,0.2,0.2c0.1,0.1,0,0.3-0.1,0.4l-3.3,2.9c-0.1,0.1-0.2,0.1-0.3,0l0,0L31.6,41.4z"/>
<path d="M23.7,20.4c0-0.4-0.2-0.8-0.6-1l-4.5-2.6c-1-0.6-2.3-0.2-2.9,0.8c-0.2,0.3-0.3,0.7-0.3,1.1l0.2,5.7c0,0.6,0.6,1.1,1.2,1.1
	c0.3,0,0.6-0.1,0.8-0.3c1.6-1.5,3.5-2.8,5.4-3.8C23.5,21.3,23.7,20.9,23.7,20.4z M17.9,21.9L17.9,19l2.4,1.4
	C19.4,20.9,18.7,21.4,17.9,21.9z"/>
<path d="M53.5,16.9c-0.7-0.4-1.5-0.4-2.2,0l-4.5,2.6c-0.6,0.3-0.8,1-0.4,1.6c0.1,0.2,0.3,0.4,0.5,0.5c2,1,3.8,2.3,5.4,3.8
	c0.5,0.4,1.2,0.4,1.6,0c0.2-0.2,0.3-0.5,0.3-0.8l0.2-5.7C54.5,18,54.1,17.2,53.5,16.9z M52.1,21.9c-0.7-0.6-1.5-1.1-2.3-1.5l2.3-1.4
	L52.1,21.9z"/>
</svg>
