<?xml version="1.0" encoding="utf-8"?>
<!-- Generator: Adobe Illustrator 26.5.0, SVG Export Plug-In . SVG Version: 6.00 Build 0)  -->
<svg version="1.1" id="Outline" xmlns="http://www.w3.org/2000/svg" xmlns:xlink="http://www.w3.org/1999/xlink" x="0px" y="0px"
	 width="70px" height="70px" viewBox="0 0 70 70" style="enable-background:new 0 0 70 70;" xml:space="preserve">
<g>
	<path d="M64.2,27.2v-1.5c0-3.2-2.6-5.8-5.8-5.8H56v-7c0-0.6-0.5-1.2-1.2-1.2h-7.1c-0.1-0.8-0.2-1.6-0.4-2.3h2.8
		c0.3,0,0.6-0.1,0.8-0.3l3.2-3.2h3.2c0.5,1.4,1.8,2.3,3.3,2.3c1.9,0,3.5-1.6,3.5-3.5s-1.6-3.5-3.5-3.5c-1.5,0-2.8,1-3.3,2.3h-3.7
		c-0.3,0-0.6,0.1-0.8,0.3L49.7,7h-3.3c-0.5-0.9-1-1.7-1.7-2.5c-0.4-0.5-1.2-0.5-1.6-0.1C42.6,4.8,42.5,5.5,43,6
		c1.6,1.9,2.5,4.3,2.5,6.8c0,5.8-4.7,10.5-10.5,10.5s-10.5-4.7-10.5-10.5S29.2,2.3,35,2.3c1.6,0,3.2,0.4,4.6,1.1
		c0.6,0.3,1.3,0,1.6-0.5s0-1.3-0.5-1.6C38.9,0.5,37,0,35,0c-5,0-9.3,2.9-11.4,7h-2.1l-3.2-3.2c-0.2-0.2-0.5-0.3-0.8-0.3h-3.7
		c-0.5-1.4-1.8-2.3-3.3-2.3C8.6,1.2,7,2.7,7,4.7s1.6,3.5,3.5,3.5c1.5,0,2.8-1,3.3-2.3H17L20.2,9c0.2,0.2,0.5,0.3,0.8,0.3h1.7
		c-0.2,0.8-0.4,1.5-0.4,2.3H14c-0.6,0-1.2,0.5-1.2,1.2v7h-1.2c-3.2,0-5.8,2.6-5.8,5.8v1.5C2.4,28.2,0,31.3,0,35v7
		c0,0.6,0.5,1.2,1.2,1.2s1.2-0.5,1.2-1.2v-7c0-2.4,1.4-4.4,3.5-5.3v11.4l-3.4,3.4C0.8,46.1,0,48.2,0,50.3v18.5C0,69.5,0.5,70,1.2,70
		s1.2-0.5,1.2-1.2v-7.6c0.7,0.4,1.5,0.6,2.3,0.6h8.2c0.4,0,0.8,0,1.2-0.1v7.1c0,0.6,0.5,1.2,1.2,1.2s1.2-0.5,1.2-1.2v-7.9
		c2.1-1.2,3.5-3.5,3.5-6.1v-4.7h30.3v4.7c0,2.6,1.4,4.8,3.5,6.1v7.9c0,0.6,0.5,1.2,1.2,1.2c0.6,0,1.2-0.5,1.2-1.2v-7.1
		c0.4,0.1,0.8,0.1,1.2,0.1h3.5c0.6,0,1.2-0.5,1.2-1.2s-0.5-1.2-1.2-1.2h-2.3V56c0-2.2,1.3-4.3,3.3-5.3c0.3-0.2,0.6-0.5,0.6-0.9
		s-0.1-0.8-0.3-1l-6.4-6.4c-0.5-0.5-0.7-1.1-0.7-1.7c0-0.6,0.3-1.2,0.8-1.7c0.9-0.8,2.4-0.7,3.3,0.2l6.9,6.9
		c1.1,1.1,1.7,2.6,1.7,4.1v6.8c0,1.3-1,2.3-2.3,2.3c-0.6,0-1.2,0.5-1.2,1.2s0.5,1.2,1.2,1.2c0.9,0,1.6-0.2,2.3-0.6v7.6
		c0,0.6,0.5,1.2,1.2,1.2s1.2-0.5,1.2-1.2V35C70,31.3,67.6,28.2,64.2,27.2L64.2,27.2z M60.7,3.5c0.6,0,1.2,0.5,1.2,1.2
		s-0.5,1.2-1.2,1.2c-0.6,0-1.2-0.5-1.2-1.2S60,3.5,60.7,3.5z M10.5,5.8c-0.6,0-1.2-0.5-1.2-1.2s0.5-1.2,1.2-1.2s1.2,0.5,1.2,1.2
		S11.1,5.8,10.5,5.8z M15.2,14h7.1c0.2,2.1,0.9,4.1,2,5.8h-9.1L15.2,14z M11.7,22.2h1.2v1.4c-1.4,0.5-2.3,1.8-2.3,3.3
		c0,1.9,1.6,3.5,3.5,3.5s3.5-1.6,3.5-3.5c0-1.5-1-2.8-2.3-3.3v-1.4h9.3V24l-3.2,3.2C21.1,27.4,21,27.7,21,28v3.7
		c-1,0.3-1.7,1.1-2.1,2c-1.6-1.4-3.8-2.3-6.1-2.3c-1.7,0-3.3,0.4-4.7,1.3v-7.1C8.2,23.7,9.7,22.2,11.7,22.2L11.7,22.2z M14,25.7
		c0.6,0,1.2,0.5,1.2,1.2c0,0.6-0.5,1.2-1.2,1.2s-1.2-0.5-1.2-1.2C12.8,26.2,13.4,25.7,14,25.7z M21,35c0-0.6,0.5-1.2,1.2-1.2
		s1.2,0.5,1.2,1.2c0,0.6-0.5,1.2-1.2,1.2S21,35.6,21,35z M8.2,35.6c1.3-1.2,2.9-1.8,4.7-1.8c3.9,0,7,3.1,7,7s-3.1,7-7,7h-0.5
		l3.7-3.7c0.9-0.9,1.4-2.1,1.4-3.4c0-1.3-0.6-2.5-1.5-3.3c-1.8-1.7-4.7-1.5-6.6,0.3l-1.1,1.1L8.2,35.6z M2.3,57.2v-6.8
		c0-1.6,0.6-3,1.7-4.1l6.9-6.9c0.9-0.9,2.4-1,3.3-0.2c0.5,0.4,0.8,1,0.8,1.7c0,0.6-0.2,1.3-0.7,1.7L8,48.9c-0.3,0.3-0.4,0.7-0.3,1
		c0.1,0.4,0.3,0.7,0.6,0.9c2,1,3.3,3,3.3,5.3v3.5h-7C3.4,59.5,2.3,58.5,2.3,57.2L2.3,57.2z M17.5,54.8c0,2.2-1.5,4-3.5,4.5V56
		c0-2.2-0.9-4.3-2.5-5.8h6V54.8z M56,56v3.3c-2-0.5-3.5-2.3-3.5-4.5v-4.7h2.3c0.6,0,1.2-0.5,1.2-1.2s-0.5-1.2-1.2-1.2H19
		c1.9-1.7,3.2-4.2,3.2-7c0-0.8-0.1-1.6-0.3-2.4c0.1,0,0.2,0,0.3,0c1.9,0,3.5-1.6,3.5-3.5c0-1.5-1-2.8-2.3-3.3v-3.2l3.2-3.2
		c0.2-0.2,0.3-0.5,0.3-0.8v-1.8c2.2,1.8,5.1,2.9,8.2,2.9s5.9-1.1,8.2-2.9v1.8c0,0.3,0.1,0.6,0.3,0.8l3.2,3.2v3.2
		c-1.4,0.5-2.3,1.8-2.3,3.3c0,1.9,1.6,3.5,3.5,3.5c0,0,0,0,0,0c0,0.2,0,0.4,0,0.6c0,3.5,2.9,6.4,6.4,6.4c0.3,0,0.7,0,1-0.1l4.1,4.1
		C57.3,51,56,53.4,56,56z M47.8,33.8c0.6,0,1.2,0.5,1.2,1.2c0,0.6-0.5,1.2-1.2,1.2c-0.6,0-1.2-0.5-1.2-1.2S47.2,33.8,47.8,33.8z
		 M54.2,37.4c-1,0.9-1.5,2.1-1.5,3.3c0,0.8,0.2,1.6,0.6,2.3c-1.7-0.5-3-2-3-3.9c0-2.3,1.8-4.1,4.1-4.1c1.1,0,2.1,0.5,2.9,1.2
		C56.1,36.2,55,36.6,54.2,37.4L54.2,37.4z M60.4,37.4c-0.7-2.8-3.3-4.8-6.2-4.8c-1.2,0-2.3,0.3-3.2,0.9c-0.4-0.9-1.1-1.5-2-1.8V28
		c0-0.3-0.1-0.6-0.3-0.8L45.5,24v-3.8c1.3-1.8,2.1-3.9,2.3-6.2h5.9v5.8H49c-0.6,0-1.2,0.5-1.2,1.2s0.5,1.2,1.2,1.2h4.7v1.4
		c-1.4,0.5-2.3,1.8-2.3,3.3c0,1.9,1.6,3.5,3.5,3.5c1.9,0,3.5-1.6,3.5-3.5c0-1.5-1-2.8-2.3-3.3v-1.4h2.3c1.9,0,3.5,1.6,3.5,3.5v13.1
		l-1.1-1.1C60.6,37.6,60.5,37.5,60.4,37.4z M54.8,25.7c0.6,0,1.2,0.5,1.2,1.2c0,0.6-0.5,1.2-1.2,1.2c-0.6,0-1.2-0.5-1.2-1.2
		C53.7,26.2,54.2,25.7,54.8,25.7z M67.6,44.6l-3.4-3.4V29.7c2.1,0.9,3.5,3,3.5,5.3L67.6,44.6C67.6,44.6,67.6,44.6,67.6,44.6
		L67.6,44.6z"/>
	<path d="M34,5.2l-4.7,7c-0.3,0.4-0.3,0.9,0,1.3l4.7,7c0.2,0.3,0.6,0.5,1,0.5s0.8-0.2,1-0.5l4.7-7c0.3-0.4,0.3-0.9,0-1.3l-4.7-7
		C35.5,4.5,34.5,4.5,34,5.2L34,5.2z M35,7.9l2.8,4.2L35,12.8l-2.8-0.7L35,7.9z M35,17.7l-2-3l1.7,0.4c0.1,0,0.2,0,0.3,0
		c0.1,0,0.2,0,0.3,0l1.7-0.4L35,17.7z"/>
	<path d="M43.1,29.4c0.1-0.4-0.1-0.8-0.4-1.1c-0.3-0.3-0.7-0.4-1.1-0.3l-4.9,1.3c-1.2-0.3-2.4-0.3-3.6,0L28.3,28
		c-0.4-0.1-0.8,0-1.1,0.3c-0.3,0.3-0.4,0.7-0.4,1.1l0.8,4.4c-0.5,1.1-0.8,2.3-0.8,3.5c0,4.5,3.7,8.2,8.2,8.2s8.2-3.7,8.2-8.2
		c0-1.2-0.3-2.4-0.8-3.5L43.1,29.4z M35,43.2c-3.2,0-5.8-2.6-5.8-5.8c0-1,0.2-1.9,0.7-2.8C30,34.3,30,34,30,33.8l-0.5-3l3.4,0.9
		c0.2,0.1,0.4,0.1,0.6,0c1-0.3,2-0.3,3.1,0c0.2,0.1,0.4,0.1,0.6,0l3.4-0.9l-0.5,3c0,0.3,0,0.5,0.1,0.8c0.5,0.9,0.7,1.8,0.7,2.8
		C40.8,40.5,38.2,43.2,35,43.2z"/>
	<circle cx="37.3" cy="36.2" r="1.2"/>
	<circle cx="32.7" cy="36.2" r="1.2"/>
	<path d="M35.3,38.8c-0.2,0.2-0.4,0.2-0.7,0c-0.5-0.5-1.2-0.5-1.7,0c-0.5,0.5-0.5,1.2,0,1.6c0.5,0.5,1.2,0.8,2,0.8
		c0.8,0,1.5-0.3,2-0.8c0.5-0.5,0.5-1.2,0-1.6C36.5,38.4,35.8,38.4,35.3,38.8z"/>
</g>
</svg>
