<?xml version="1.0" encoding="utf-8"?>
<!-- Generator: Adobe Illustrator 26.5.0, SVG Export Plug-In . SVG Version: 6.00 Build 0)  -->
<svg version="1.1" id="Layer_1" xmlns="http://www.w3.org/2000/svg" xmlns:xlink="http://www.w3.org/1999/xlink" x="0px" y="0px"
	 width="70px" height="70px" viewBox="0 0 70 70" style="enable-background:new 0 0 70 70;" xml:space="preserve">
<path d="M46.5,24c-0.6-0.2-1.3-0.2-1.9,0l-2.1-3.7l-1.8,1l2.1,3.7c-0.5,0.5-0.8,1-1,1.7c-0.3,1-0.1,2,0.4,2.9l1.1,1.9
	c0.5,0.9,1.3,1.5,2.3,1.8c0.3,0.1,0.7,0.1,1,0.1c0.3,0,0.6,0,0.9-0.1L48,34c-1.2,1.2-1.5,3.1-0.6,4.6l1.1,1.9
	c0.5,0.9,1.3,1.5,2.3,1.8c0.3,0.1,0.7,0.1,1,0.1c0.3,0,0.6,0,0.9-0.1l2.1,3.7l1.8-1l-2.1-3.7c1.2-1.2,1.5-3.1,0.6-4.6L54,34.8
	c-0.9-1.5-2.6-2.2-4.3-1.8l-0.4-0.7c0.5-0.5,0.8-1,1-1.7c0.3-1,0.1-2-0.4-2.9l-1.1-1.9C48.4,24.9,47.5,24.2,46.5,24z M52.2,35.8
	l1.1,1.9c0.3,0.5,0.3,1.1,0.1,1.6l-0.6-1l-1.8,1l0.6,1c-0.1,0-0.2,0-0.3-0.1c-0.5-0.1-0.8-0.4-1.1-0.8l-1.1-1.9
	c-0.3-0.5-0.3-1.1-0.1-1.6l0.6,1.1l1.8-1l-0.6-1.1C51.4,35,51.9,35.3,52.2,35.8z M47.6,29.2l-1.8,1l0.6,1c-0.1,0-0.2,0-0.3-0.1
	c-0.5-0.1-0.8-0.4-1.1-0.8L44,28.6c-0.2-0.4-0.3-0.9-0.2-1.4c0-0.1,0.1-0.2,0.1-0.3l0.6,1.1l1.8-1l-0.6-1.1c0.6,0.1,1.1,0.4,1.4,0.9
	l1.1,1.9c0.2,0.4,0.3,0.9,0.2,1.4c0,0.1-0.1,0.2-0.1,0.3L47.6,29.2z"/>
<path d="M15.2,46l2.1-3.7c0.3,0.1,0.6,0.1,0.9,0.1c1.3,0,2.6-0.7,3.3-1.9l1.1-1.9c0.5-0.9,0.6-1.9,0.4-2.9c-0.2-0.6-0.5-1.2-1-1.7
	l0.4-0.7c0.3,0.1,0.6,0.1,0.9,0.1c1.3,0,2.6-0.7,3.3-1.9l1.1-1.9c0.9-1.5,0.6-3.4-0.6-4.6l2.1-3.7l-1.8-1L25.5,24
	c-1.6-0.4-3.4,0.3-4.3,1.8l-1.1,1.9c-0.9,1.5-0.6,3.4,0.6,4.6L20.3,33c-0.6-0.2-1.3-0.2-1.9,0c-1,0.3-1.8,0.9-2.3,1.8L15,36.6
	c-0.9,1.5-0.6,3.4,0.6,4.6L13.4,45L15.2,46z M21.7,30c-0.1-0.5-0.1-0.9,0.2-1.4l1.1-1.9c0.3-0.5,0.8-0.8,1.4-0.9L23.7,27l1.8,1
	l0.6-1.1c0.2,0.5,0.2,1.1-0.1,1.6L25,30.4c-0.3,0.5-0.8,0.8-1.4,0.9l0.6-1l-1.8-1l-0.6,1C21.8,30.2,21.8,30.1,21.7,30z M16.8,37.7
	l1.1-1.9c0.2-0.4,0.6-0.7,1.1-0.8c0.1,0,0.2,0,0.3-0.1L18.6,36l1.8,1l0.6-1.1c0.2,0.5,0.2,1.1-0.1,1.6l-1.1,1.9
	c-0.3,0.5-0.8,0.8-1.4,0.9l0.6-1l-1.8-1l-0.6,1C16.4,38.8,16.5,38.2,16.8,37.7z"/>
<path d="M45.3,56.8l4.3,0l0-2.1l-4.3,0c-0.5-1.6-1.9-2.8-3.7-2.8h0l-2.2,0c-1.8,0-3.2,1.2-3.7,2.8l-0.8,0c-0.2-0.6-0.5-1.2-1-1.7
	c-0.7-0.7-1.7-1.1-2.7-1.1h0l-2.2,0c-1,0-2,0.4-2.7,1.1c-0.5,0.5-0.8,1.1-1,1.7l-4.3,0l0,2.1l4.3,0c0.5,1.6,1.9,2.8,3.7,2.8h0l2.2,0
	c1,0,2-0.4,2.7-1.1c0.5-0.5,0.8-1.1,1-1.7l0.8,0c0.2,0.6,0.5,1.2,1,1.7c0.7,0.7,1.7,1.1,2.7,1.1h0l2.2,0c1,0,2-0.4,2.7-1.1
	C44.8,58,45.2,57.4,45.3,56.8z M32.5,57.1c-0.3,0.3-0.8,0.5-1.3,0.5l-2.2,0h0c-0.6,0-1.1-0.3-1.4-0.7l1.2,0l0-2.1l-1.2,0
	c0.1-0.1,0.1-0.2,0.2-0.2c0.3-0.3,0.8-0.5,1.3-0.5l2.2,0h0c0.5,0,0.9,0.2,1.3,0.5c0.1,0.1,0.1,0.1,0.2,0.2l-1.2,0l0,2.1l1.2,0
	C32.7,56.9,32.6,57,32.5,57.1z M41.6,57.6l-2.2,0h0c-0.5,0-0.9-0.2-1.3-0.5c-0.1-0.1-0.1-0.1-0.2-0.2l1.2,0l0-2.1l-1.2,0
	c0.3-0.5,0.9-0.8,1.4-0.8l2.2,0h0c0.6,0,1.1,0.3,1.4,0.7l-1.2,0l0,2.1l1.2,0C43,56.9,43,57,42.9,57.1C42.6,57.4,42.1,57.6,41.6,57.6
	z"/>
<path d="M36.1,28.9V17.6l9.8-5.7l-1-1.8L35,15.8l-9.8-5.7l-1,1.8l9.8,5.7v11.4H36.1z"/>
<path d="M65.7,46.1l-9.8,5.7L46,46.1l-1,1.8l9.9,5.7l0,11.4l2.1,0l0-11.4l9.8-5.7L65.7,46.1z"/>
<path d="M15.2,64.9V53.5l9.8-5.7L24,46l-9.8,5.7L4.3,46l-1,1.8l9.8,5.7v11.4H15.2z"/>
<path d="M23,10L35,3l12.1,7v12.8h2.1v-14L35,0.7L20.9,8.8v14H23V10z"/>
<path d="M35,33.3l5.7-3.3l-1-1.8L35,30.9l-4.6-2.7l-1,1.8L35,33.3z"/>
<path d="M14.1,66.8l-12.1-7V45.9l11.2-6.5l-1-1.8L0,44.7v16.3l14.1,8.2l13-7.5l-1-1.8L14.1,66.8z"/>
<path d="M28.3,50.6v-5.9l-5.5-3.2l-1,1.8l4.5,2.6v4.7H28.3z"/>
<path d="M70,44.8l-12.2-7l-1,1.8L67.9,46l0,13.9l-12.1,7l-11.8-6.8l-1,1.8l12.8,7.4L70,61.1L70,44.8z"/>
<path d="M47.3,41.6l-5.6,3.2l0,5.5l2.1,0l0-4.4l4.6-2.6L47.3,41.6z"/>
<path d="M28.6,10.7l-1-1.8l1.8-1l1,1.8L28.6,10.7z M40.8,10.3L35,7l-0.5,0.3l-1-1.8L35,4.6l6.8,3.9L40.8,10.3z M31.5,9l-1-1.8l1.8-1
	l1,1.8L31.5,9z"/>
<path d="M59.8,63.1l-1-1.8l5.7-3.3l0-0.6l2.1,0l0,1.8L59.8,63.1z M64.5,56l0-2.1l2.1,0l0,2.1L64.5,56z M64.5,52.6l0-2.1l2.1,0l0,2.1
	L64.5,52.6z"/>
<path d="M10.9,63.4l-7.5-4.3v-2.1h2.1v1l6.5,3.7L10.9,63.4z M3.4,55.6v-2.1h2.1v2.1L3.4,55.6z M5.5,52.1H3.4v-2.1h2.1V52.1z"/>
</svg>
