<?xml version="1.0" encoding="utf-8"?>
<!-- Generator: Adobe Illustrator 26.5.0, SVG Export Plug-In . SVG Version: 6.00 Build 0)  -->
<svg version="1.1" id="_x33_0" xmlns="http://www.w3.org/2000/svg" xmlns:xlink="http://www.w3.org/1999/xlink" x="0px" y="0px"
	 width="70px" height="70px" viewBox="0 0 70 70" style="enable-background:new 0 0 70 70;" xml:space="preserve">
<g>
	<path d="M18.1,49.5c-2.5,0-4.5,2-4.5,4.5s2,4.5,4.5,4.5s4.5-2,4.5-4.5S20.5,49.5,18.1,49.5z M18.1,56.2c-1.2,0-2.2-1-2.2-2.2
		c0-1.2,1-2.2,2.2-2.2s2.2,1,2.2,2.2C20.3,55.2,19.3,56.2,18.1,56.2z"/>
	<path d="M18.1,45.1c-4.9,0-8.9,4-8.9,8.9s4,8.9,8.9,8.9s8.9-4,8.9-8.9S23,45.1,18.1,45.1z M18.1,60.7c-3.7,0-6.7-3-6.7-6.7
		c0-3.7,3-6.7,6.7-6.7s6.7,3,6.7,6.7C24.8,57.7,21.8,60.7,18.1,60.7z"/>
	<path d="M72.4,50.6l-2.9-2.1V30.1l-3.4,1.1c-0.8,0.3-1.6,0.4-2.5,0.4c-1.7,0-3-1.4-3-3v-2.9c0-1.7,1.4-3,3-3c0.8,0,1.7,0.1,2.5,0.4
		l3.4,1.2V12.6c0-1.8-1.5-3.4-3.4-3.4h-8.5L58,8.1c0.2-0.6,0.3-1.2,0.3-1.9c0-3.3-2.7-5.9-5.9-5.9h-1.6c-3.3,0-5.9,2.7-5.9,5.9
		c0,0.6,0.1,1.3,0.3,1.9l0.4,1.1h-6.3c-0.9,0-1.6,0.3-2.2,0.9c-0.6-0.5-1.4-0.9-2.2-0.9h-8.5l0.4-1.1C26.9,7.5,27,6.9,27,6.3
		c0-3.3-2.7-5.9-5.9-5.9h-1.6c-3.3,0-5.9,2.7-5.9,5.9c0,0.6,0.1,1.3,0.3,1.9l0.4,1.1H8c-1.8,0-3.4,1.5-3.4,3.4v32.7l-0.8,0.8
		l1.5,1.5c0.5,0.5,0.3,1.1,0.2,1.2c-0.1,0.2-0.3,0.7-1,0.7H2.4v8.9h2.2c0.7,0,1,0.5,1,0.7c0.1,0.2,0.2,0.7-0.2,1.2l-1.5,1.5l6.3,6.3
		l1.5-1.5c0.5-0.5,1.1-0.3,1.2-0.2c0.2,0.1,0.7,0.3,0.7,1v2.2h8.9v-2.2c0-0.7,0.5-1,0.7-1c0.2-0.1,0.7-0.3,1.2,0.2l1.5,1.5l6.3-6.3
		l-1.5-1.5c-0.5-0.5-0.3-1.1-0.2-1.2c0.1-0.2,0.3-0.7,1-0.7h1h1.1h19v9.2L72.4,50.6z M39.3,11.5h9.4l-1.4-4.1
		c-0.1-0.4-0.2-0.8-0.2-1.2c0-2,1.7-3.7,3.7-3.7h1.6c2,0,3.7,1.7,3.7,3.7c0,0.4-0.1,0.8-0.2,1.2l-1.4,4.1h11.6
		c0.6,0,1.1,0.5,1.1,1.1v8.5L66.8,21c-1-0.3-2.1-0.5-3.2-0.5c-2.9,0-5.3,2.4-5.3,5.3v2.9c0,2.9,2.4,5.3,5.3,5.3
		c1.1,0,2.2-0.2,3.2-0.5l0.5-0.2v13.6L52.7,36.1v8.9H38.2V33.2l0.5,0.2c1,0.3,2.1,0.5,3.2,0.5c2.9,0,5.3-2.4,5.3-5.3v-2.9
		c0-1.4-0.5-2.7-1.5-3.7c-1-1-2.3-1.5-3.7-1.5c0,0,0,0,0,0c-1.1,0-2.2,0.2-3.2,0.5l-0.5,0.2v-8.5C38.2,12,38.7,11.5,39.3,11.5
		L39.3,11.5z M6.9,12.6c0-0.6,0.5-1.1,1.1-1.1h9.4L16,7.4c-0.1-0.4-0.2-0.8-0.2-1.2c0-2,1.7-3.7,3.7-3.7h1.6c2,0,3.7,1.7,3.7,3.7
		c0,0.4-0.1,0.8-0.2,1.2l-1.4,4.1h11.6c0.6,0,1.1,0.5,1.1,1.1v11.6l3.4-1.1c0.8-0.3,1.6-0.4,2.5-0.4h0c0.8,0,1.6,0.3,2.1,0.9
		c0.6,0.6,0.9,1.3,0.9,2.1v2.9c0,1.7-1.4,3-3,3c-0.8,0-1.7-0.1-2.5-0.4L36,30.1v15h-4.7L26,39.8l-1.5,1.5c-0.5,0.5-1.1,0.3-1.2,0.2
		c-0.2-0.1-0.7-0.3-0.7-1v-2.2h-8.9v2.2c0,0.7-0.5,1-0.7,1c-0.2,0.1-0.7,0.2-1.2-0.2l-1.5-1.5l-3.3,3.3L6.9,12.6z M31.5,56.2
		c-1.3,0-2.5,0.8-3,2.1c-0.5,1.3-0.3,2.6,0.7,3.6L26,65.1c-1-0.9-2.3-1.2-3.6-0.7c-1.3,0.5-2,1.7-2.1,3h-4.5c0-1.3-0.8-2.5-2.1-3
		c-1.3-0.5-2.6-0.3-3.6,0.7L7,61.9c0.9-1,1.2-2.3,0.7-3.6c-0.5-1.3-1.7-2-3-2.1v-4.5c1.3,0,2.5-0.8,3-2.1c0.5-1.3,0.3-2.6-0.7-3.6
		l3.2-3.2c1,0.9,2.3,1.2,3.6,0.7c1.3-0.5,2-1.7,2.1-3h4.5c0,1.3,0.8,2.5,2.1,3c1.3,0.5,2.6,0.3,3.6-0.7l3.2,3.2
		c-0.9,1-1.2,2.3-0.7,3.6c0.5,1.3,1.7,2,3,2.1V56.2z M33.7,56.2v-6.7h-2.2c-0.7,0-1-0.5-1-0.7c-0.1-0.2-0.2-0.7,0.2-1.2l0.3-0.3H55
		v-6.7l13.9,10.2L55,62.7v-6.5L33.7,56.2z"/>
	<path d="M15.8,26.1c0-1.8-1.5-3.4-3.4-3.4s-3.4,1.5-3.4,3.4c0,1.8,1.5,3.4,3.4,3.4S15.8,27.9,15.8,26.1z M11.4,26.1
		c0-0.6,0.5-1.1,1.1-1.1s1.1,0.5,1.1,1.1c0,0.6-0.5,1.1-1.1,1.1S11.4,26.7,11.4,26.1z"/>
	<path d="M21.4,29.4c1.8,0,3.4-1.5,3.4-3.4c0-1.8-1.5-3.4-3.4-3.4c-1.8,0-3.4,1.5-3.4,3.4C18.1,27.9,19.6,29.4,21.4,29.4z
		 M21.4,24.9c0.6,0,1.1,0.5,1.1,1.1c0,0.6-0.5,1.1-1.1,1.1c-0.6,0-1.1-0.5-1.1-1.1C20.3,25.4,20.8,24.9,21.4,24.9z"/>
	<path d="M30.4,29.4c1.8,0,3.4-1.5,3.4-3.4c0-1.8-1.5-3.4-3.4-3.4c-1.8,0-3.4,1.5-3.4,3.4C27,27.9,28.5,29.4,30.4,29.4z M30.4,24.9
		c0.6,0,1.1,0.5,1.1,1.1c0,0.6-0.5,1.1-1.1,1.1c-0.6,0-1.1-0.5-1.1-1.1C29.2,25.4,29.7,24.9,30.4,24.9z"/>
</g>
</svg>
