<?xml version="1.0" encoding="utf-8"?>
<!-- Generator: Adobe Illustrator 26.5.0, SVG Export Plug-In . SVG Version: 6.00 Build 0)  -->
<svg version="1.1" id="Capa_1" xmlns="http://www.w3.org/2000/svg" xmlns:xlink="http://www.w3.org/1999/xlink" x="0px" y="0px"
	 width="70px" height="70px" viewBox="0 0 70 70" style="enable-background:new 0 0 70 70;" xml:space="preserve">
<g>
	<g id="Layer_21_x2C__money_x2C__box_x2C__wallet">
		<g>
			<path d="M68.5,0H1.5C0.7,0,0,0.7,0,1.5v20.4v8.7v37.9C0,69.3,0.7,70,1.5,70h67.1c0.8,0,1.5-0.7,1.5-1.5V30.6v-8.7V1.5
				C70,0.7,69.3,0,68.5,0L68.5,0z M2.9,23.3h64.2v5.8H2.9V23.3z M67.1,2.9v17.5H2.9V2.9H67.1z M2.9,67.1v-35h64.2v35H2.9z"/>
			<path d="M8.8,16h52.5c0.8,0,1.5-0.7,1.5-1.5V8.8c0-0.8-0.7-1.5-1.5-1.5H8.8c-0.8,0-1.5,0.7-1.5,1.5v5.8C7.3,15.4,7.9,16,8.8,16z
				 M10.2,10.2h49.6v2.9H10.2L10.2,10.2z"/>
			<path d="M62.7,35H7.3c-0.8,0-1.5,0.7-1.5,1.5v26.2c0,0.8,0.7,1.5,1.5,1.5h23.3h11.7h20.4c0.8,0,1.5-0.7,1.5-1.5V36.5
				C64.2,35.7,63.5,35,62.7,35L62.7,35z M17.5,58.3c0-1.6,1.3-2.9,2.9-2.9s2.9,1.3,2.9,2.9s-1.3,2.9-2.9,2.9
				C18.8,61.2,17.5,59.9,17.5,58.3z M32.1,61.2V46.7h8.7v14.6H32.1z M61.3,61.2H43.8v-16c0-0.8-0.7-1.5-1.5-1.5H30.6
				c-0.8,0-1.5,0.7-1.5,1.5v16h-3.7c0.5-0.9,0.8-1.9,0.8-2.9c0-3.2-2.6-5.8-5.8-5.8s-5.8,2.6-5.8,5.8c0,1.1,0.3,2.1,0.8,2.9H8.8
				V37.9h52.5V61.2z"/>
			<path d="M52.5,55.4c3.2,0,5.8-2.6,5.8-5.8c0-3.2-2.6-5.8-5.8-5.8s-5.8,2.6-5.8,5.8C46.7,52.8,49.3,55.4,52.5,55.4z M52.5,46.7
				c1.6,0,2.9,1.3,2.9,2.9c0,1.6-1.3,2.9-2.9,2.9s-2.9-1.3-2.9-2.9C49.6,48,50.9,46.7,52.5,46.7z"/>
		</g>
	</g>
</g>
</svg>
