<?xml version="1.0" encoding="utf-8"?>
<!-- Generator: Adobe Illustrator 26.5.0, SVG Export Plug-In . SVG Version: 6.00 Build 0)  -->
<svg version="1.1" id="_x33_0" xmlns="http://www.w3.org/2000/svg" xmlns:xlink="http://www.w3.org/1999/xlink" x="0px" y="0px"
	 width="70px" height="70px" viewBox="0 0 70 70" style="enable-background:new 0 0 70 70;" xml:space="preserve">
<g>
	<path d="M35,57.1c1.9,0,3.4-1.5,3.4-3.4c0-1.9-1.5-3.4-3.4-3.4c-1.9,0-3.4,1.5-3.4,3.4C31.6,55.6,33.1,57.1,35,57.1z M35,52.6
		c0.6,0,1.1,0.5,1.1,1.1c0,0.6-0.5,1.1-1.1,1.1c-0.6,0-1.1-0.5-1.1-1.1C33.9,53.1,34.4,52.6,35,52.6z"/>
	<path d="M63,29.1v-0.3V28v-6.7h1.1c3.1,0,5.6-2.5,5.6-5.6v-3.4h-3.4c-1.3,0-2.4,0.4-3.4,1.2V9.4L63.4,9c1.2-1.2,1.9-2.9,1.9-4.6
		S64.6,1,63.4-0.2l-1.5-1.5l-1.5,1.5c-1.2,1.2-1.9,2.9-1.9,4.6s0.7,3.4,1.9,4.6l0.3,0.3v13.1c-1.4-1.5-3.4-2.4-5.6-2.4h-3.4v1.1
		c0,4.3,3.5,7.9,7.9,7.9h1.1c-0.1,4.3-1.8,8.4-4.8,11.4c-2.8-5.5-7.7-9.8-14-11.8l-1.5-0.5l-0.8-4.7L54.4,7.9l-6.5-9.1H22.1
		l-6.5,9.1l14.7,15.6l-0.8,4.7L28,28.7c-6.2,1.9-11.2,6.3-14,11.8c-3-3.1-4.7-7.1-4.8-11.4h1.1c4.3,0,7.9-3.5,7.9-7.9v-1.1h-3.4
		c-2.2,0-4.2,0.9-5.6,2.4V9.4L9.5,9c1.2-1.2,1.9-2.9,1.9-4.6S10.8,1,9.5-0.2L8.1-1.7L6.6-0.2C5.4,1,4.7,2.7,4.7,4.4S5.4,7.8,6.6,9
		L7,9.4v4.1c-0.9-0.7-2.1-1.2-3.4-1.2H0.2v3.4c0,3.1,2.5,5.6,5.6,5.6H7V28v0.8v0.3h0c0,1.1,0.1,2.1,0.3,3.2
		c-1.1-0.6-2.4-0.9-3.7-0.9H0.2v1.1c0,4.3,3.5,7.9,7.9,7.9h2.8c0.6,0.9,1.4,1.6,2.2,2.4c-1,2.7-1.6,5.5-1.6,8.5v1.5H0.2v2.2h11.2V56
		c0,3.1,2.5,5.6,5.6,5.6h3.4v2.2c0,2.5,2,4.5,4.5,4.5h20.2c2.5,0,4.5-2,4.5-4.5v-2.2h3.4c3.1,0,5.6-2.5,5.6-5.6v-1.1h11.2v-2.2H58.6
		v-1.5c0-3-0.6-5.9-1.6-8.5c0.8-0.7,1.5-1.5,2.2-2.4h2.8c4.3,0,7.9-3.5,7.9-7.9v-1.1h-3.4c-1.3,0-2.6,0.3-3.7,0.9
		C62.9,31.2,63,30.2,63,29.1L63,29.1z M61.9,1.5C62.6,2.3,63,3.3,63,4.4s-0.4,2.1-1.1,2.9c-0.7-0.8-1.1-1.8-1.1-2.9
		S61.2,2.3,61.9,1.5z M66.4,14.5h1.1v1.1c0,1.9-1.5,3.4-3.4,3.4H63v-1.1C63,16,64.5,14.5,66.4,14.5z M59.7,26.8
		c-2.7,0-5-1.9-5.5-4.5h1c2.7,0,5,1.9,5.5,4.5H59.7z M14.8,22.4h1c-0.5,2.6-2.8,4.5-5.5,4.5h-1C9.8,24.3,12.1,22.4,14.8,22.4z
		 M8.1,1.5c0.7,0.8,1.1,1.8,1.1,2.9S8.8,6.5,8.1,7.3C7.4,6.5,7,5.5,7,4.4S7.4,2.3,8.1,1.5z M5.8,19c-1.9,0-3.4-1.5-3.4-3.4v-1.1h1.1
		C5.5,14.5,7,16,7,17.9V19H5.8z M8.1,38.1c-2.7,0-5-1.9-5.5-4.5h1c2.7,0,5,1.9,5.5,4.5H8.1z M41.2,30.8l-1.3,4.4l-3.1-1.9l3-3
		L41.2,30.8z M47.3,45.9v15.7H22.7V45.9H47.3z M33.2,43.7l1.5-4.5h0.6l1.5,4.5H33.2z M35.5,36.9h-1l-0.8-1.2l1.4-0.8l1.4,0.8
		L35.5,36.9z M40.1,8.9L35,23.5L29.9,8.9H40.1z M30.7,6.7l4.3-5l4.3,5H30.7z M42.5,8.9h7.8L37.8,22.2L42.5,8.9z M43.9,6.7l3.4-4.8
		l3.4,4.8H43.9z M41.6,6l-4.2-4.9h7.7L41.6,6z M28.4,6l-3.5-4.9h7.7L28.4,6z M26.1,6.7h-6.9l3.4-4.8L26.1,6.7z M27.5,8.9l4.7,13.3
		L19.7,8.9L27.5,8.9z M35,28.5l2.8-2.9l0.5,3.2L35,32l-3.3-3.3l0.5-3.2L35,28.5z M30.2,30.4l3,3l-3.1,1.9l-1.3-4.4L30.2,30.4z
		 M17.1,59.4c-1.9,0-3.4-1.5-3.4-3.4v-4.8c0-8.7,5.1-16.3,13-19.6l2,7.1l3-1.8l0.9,1.4l-1.8,5.4h-5.9v-4.5h-2.2v4.5
		c-1.2,0-2.2,1-2.2,2.2v6.7h-4.5v2.2h4.5v4.5H17.1z M45.1,66.1H24.9c-1.2,0-2.2-1-2.2-2.2h24.7C47.3,65.1,46.3,66.1,45.1,66.1z
		 M56.3,56c0,1.9-1.5,3.4-3.4,3.4h-3.4v-4.5h4.5v-2.2h-4.5v-6.7c0-1.2-1-2.2-2.2-2.2v-4.5h-2.2v4.5h-5.9l-1.8-5.4l0.9-1.4l3,1.8
		l2-7.1c7.9,3.3,13,10.9,13,19.6L56.3,56z M67.4,33.6c-0.5,2.6-2.8,4.5-5.5,4.5h-1c0.5-2.6,2.8-4.5,5.5-4.5H67.4z"/>
</g>
</svg>
