<?xml version="1.0" encoding="utf-8"?>
<!-- Generator: Adobe Illustrator 26.5.0, SVG Export Plug-In . SVG Version: 6.00 Build 0)  -->
<svg version="1.1" id="Layer_1" xmlns="http://www.w3.org/2000/svg" xmlns:xlink="http://www.w3.org/1999/xlink" x="0px" y="0px"
	 width="70px" height="70px" viewBox="0 0 70 70" style="enable-background:new 0 0 70 70;" xml:space="preserve">
<g id="_x31_8552_-_App_Development">
	<g>
		<g>
			<path d="M5.2,60.3c-0.6,0-1.1-0.5-1.1-1.1V23.3c0-0.6,0.5-1.1,1.1-1.1h13.8c0.6,0,1.1,0.5,1.1,1.1s-0.5,1.1-1.1,1.1H6.3v34.8
				C6.3,59.9,5.8,60.3,5.2,60.3L5.2,60.3z"/>
		</g>
		<g>
			<path d="M64.8,60.3c-0.6,0-1.1-0.5-1.1-1.1V24.4h-7.2c-0.6,0-1.1-0.5-1.1-1.1s0.5-1.1,1.1-1.1h8.3c0.6,0,1.1,0.5,1.1,1.1v35.9
				C65.8,59.9,65.4,60.3,64.8,60.3L64.8,60.3z"/>
		</g>
		<g>
			<path d="M59.2,70H10.8C4.8,70,0,65.2,0,59.3c0-0.6,0.5-1.1,1.1-1.1h23.5c0.4,0,0.7,0.2,0.9,0.5l2.4,3.7H42l2.4-3.7
				c0.2-0.3,0.5-0.5,0.9-0.5h23.5c0.6,0,1.1,0.5,1.1,1.1C70,65.2,65.2,70,59.2,70L59.2,70z M2.3,60.3c0.5,4.2,4.2,7.5,8.5,7.5h48.4
				c4.4,0,8-3.3,8.5-7.5H46L43.5,64c-0.2,0.3-0.5,0.5-0.9,0.5H27.4c-0.4,0-0.7-0.2-0.9-0.5L24,60.3L2.3,60.3z"/>
		</g>
		<g>
			<path d="M46.1,54.8H23.9c-3.3,0-5.9-2.7-5.9-5.9V6c0-3.3,2.7-5.9,5.9-5.9h22.1C49.3,0.1,52,2.8,52,6v8c0,0.6-0.5,1.1-1.1,1.1
				s-1.1-0.5-1.1-1.1V6c0-2.1-1.7-3.7-3.8-3.7H23.9c-2.1,0-3.8,1.7-3.8,3.7v42.8c0,2.1,1.7,3.7,3.8,3.7h22.1c2.1,0,3.8-1.7,3.8-3.7
				V35.4c0-0.6,0.5-1.1,1.1-1.1s1.1,0.5,1.1,1.1v13.5C52,52.2,49.3,54.8,46.1,54.8z"/>
		</g>
		<g>
			<path d="M39.8,7.8h-9.7c-0.6,0-1.1-0.5-1.1-1.1s0.5-1.1,1.1-1.1h9.7c0.6,0,1.1,0.5,1.1,1.1S40.4,7.8,39.8,7.8z"/>
		</g>
		<g>
			<path d="M38.5,49.3h-6.9c-0.6,0-1.1-0.5-1.1-1.1s0.5-1.1,1.1-1.1h6.9c0.6,0,1.1,0.5,1.1,1.1S39.1,49.3,38.5,49.3z"/>
		</g>
		<g>
			<path d="M44,29.9c-2.9,0-5.2-2.4-5.2-5.2s2.4-5.2,5.2-5.2s5.2,2.4,5.2,5.2S46.9,29.9,44,29.9z M44,21.6c-1.7,0-3.1,1.4-3.1,3.1
				s1.4,3.1,3.1,3.1s3.1-1.4,3.1-3.1C47.1,23,45.7,21.6,44,21.6z"/>
		</g>
		<g>
			<path d="M46.8,38.2h-5.5c-0.6,0-1.1-0.5-1.1-1.1v-2.4c-0.2-0.1-0.4-0.1-0.5-0.2l-1.7,1.7c-0.4,0.4-1.1,0.4-1.5,0l-3.9-3.9
				c-0.2-0.2-0.3-0.5-0.3-0.8s0.1-0.6,0.3-0.8l1.7-1.7c-0.1-0.2-0.1-0.3-0.2-0.5h-2.4c-0.6,0-1.1-0.5-1.1-1.1v-5.5
				c0-0.6,0.5-1.1,1.1-1.1h2.4c0.1-0.2,0.1-0.4,0.2-0.5l-1.7-1.7c-0.2-0.2-0.3-0.5-0.3-0.8c0-0.3,0.1-0.6,0.3-0.8l3.9-3.9
				c0.4-0.4,1.1-0.4,1.5,0l1.7,1.7c0.2-0.1,0.3-0.1,0.5-0.2v-2.4c0-0.6,0.5-1.1,1.1-1.1h5.5c0.6,0,1.1,0.5,1.1,1.1v2.4
				c0.2,0.1,0.4,0.1,0.5,0.2l1.7-1.7c0.4-0.4,1.1-0.4,1.5,0l3.9,3.9c0.2,0.2,0.3,0.5,0.3,0.8s-0.1,0.6-0.3,0.8l-1.7,1.7
				c0.1,0.2,0.1,0.3,0.2,0.5h2.4c0.6,0,1.1,0.5,1.1,1.1v5.5c0,0.6-0.5,1.1-1.1,1.1h-2.4c-0.1,0.2-0.1,0.4-0.2,0.5l1.7,1.7
				c0.2,0.2,0.3,0.5,0.3,0.8s-0.1,0.6-0.3,0.8l-3.9,3.9c-0.4,0.4-1.1,0.4-1.5,0l-1.7-1.7c-0.2,0.1-0.3,0.1-0.5,0.2v2.4
				C47.9,37.7,47.4,38.2,46.8,38.2L46.8,38.2z M42.3,36h3.3V34c0-0.5,0.3-0.9,0.8-1c0.6-0.2,1.1-0.4,1.6-0.7c0.4-0.2,1-0.2,1.3,0.2
				l1.5,1.5l2.4-2.4l-1.5-1.5c-0.3-0.3-0.4-0.9-0.2-1.3c0.3-0.5,0.5-1.1,0.7-1.6c0.1-0.5,0.6-0.8,1-0.8h2.1V23h-2.1
				c-0.5,0-0.9-0.3-1-0.8c-0.2-0.6-0.4-1.1-0.7-1.6c-0.2-0.4-0.2-1,0.2-1.3l1.5-1.5l-2.4-2.4L49.4,17c-0.3,0.3-0.9,0.4-1.3,0.2
				c-0.5-0.3-1.1-0.5-1.6-0.7c-0.5-0.1-0.8-0.6-0.8-1v-2.1h-3.3v2.1c0,0.5-0.3,0.9-0.8,1c-0.6,0.2-1.1,0.4-1.6,0.7
				c-0.4,0.2-1,0.2-1.3-0.2l-1.5-1.5l-2.4,2.4l1.5,1.5c0.3,0.3,0.4,0.9,0.2,1.3c-0.3,0.5-0.5,1.1-0.7,1.6c-0.1,0.5-0.6,0.8-1,0.8
				h-2.1v3.3h2.1c0.5,0,0.9,0.3,1,0.8c0.2,0.6,0.4,1.1,0.7,1.6c0.2,0.4,0.2,1-0.2,1.3l-1.5,1.5l2.4,2.4l1.5-1.5
				c0.3-0.3,0.9-0.4,1.3-0.2c0.5,0.3,1.1,0.5,1.6,0.7c0.5,0.1,0.8,0.6,0.8,1V36z"/>
		</g>
		<g>
			<path d="M30.2,43.8h-5.5c-0.6,0-1.1-0.5-1.1-1.1v-5.5c0-0.6,0.5-1.1,1.1-1.1h5.5c0.6,0,1.1,0.5,1.1,1.1v5.5
				C31.2,43.3,30.8,43.8,30.2,43.8z M25.7,41.6h3.3v-3.3h-3.3V41.6z"/>
		</g>
		<g>
			<path d="M24.6,18.9c-0.6,0-1.1-0.5-1.1-1.1v-5.5c0-0.6,0.5-1.1,1.1-1.1h5.5c0.6,0,1.1,0.5,1.1,1.1c0,0.6-0.5,1.1-1.1,1.1h-4.4
				v4.4C25.7,18.4,25.2,18.9,24.6,18.9z"/>
		</g>
		<g>
			<path d="M13.5,29.9h-2.8c-0.6,0-1.1-0.5-1.1-1.1s0.5-1.1,1.1-1.1h2.8c0.6,0,1.1,0.5,1.1,1.1S14.2,29.9,13.5,29.9z"/>
		</g>
		<g>
			<path d="M13.5,38.2h-2.8c-0.6,0-1.1-0.5-1.1-1.1s0.5-1.1,1.1-1.1h2.8c0.6,0,1.1,0.5,1.1,1.1S14.2,38.2,13.5,38.2z"/>
		</g>
		<g>
			<path d="M13.5,46.5h-2.8c-0.6,0-1.1-0.5-1.1-1.1s0.5-1.1,1.1-1.1h2.8c0.6,0,1.1,0.5,1.1,1.1S14.2,46.5,13.5,46.5z"/>
		</g>
		<g>
			<path d="M13.5,54.8h-2.8c-0.6,0-1.1-0.5-1.1-1.1s0.5-1.1,1.1-1.1h2.8c0.6,0,1.1,0.5,1.1,1.1S14.2,54.8,13.5,54.8z"/>
		</g>
		<g>
			<path d="M59.2,38.2h-2.8c-0.6,0-1.1-0.5-1.1-1.1s0.5-1.1,1.1-1.1h2.8c0.6,0,1.1,0.5,1.1,1.1S59.8,38.2,59.2,38.2z"/>
		</g>
		<g>
			<path d="M59.2,46.5h-2.8c-0.6,0-1.1-0.5-1.1-1.1s0.5-1.1,1.1-1.1h2.8c0.6,0,1.1,0.5,1.1,1.1S59.8,46.5,59.2,46.5z"/>
		</g>
		<g>
			<path d="M59.2,54.8h-2.8c-0.6,0-1.1-0.5-1.1-1.1s0.5-1.1,1.1-1.1h2.8c0.6,0,1.1,0.5,1.1,1.1S59.8,54.8,59.2,54.8z"/>
		</g>
	</g>
</g>
<g id="Layer_1_00000119811456443285579030000007205278234737478030_">
</g>
</svg>
