<?xml version="1.0" encoding="utf-8"?>
<!-- Generator: Adobe Illustrator 26.5.0, SVG Export Plug-In . SVG Version: 6.00 Build 0)  -->
<svg version="1.1" id="Layer_1" xmlns="http://www.w3.org/2000/svg" xmlns:xlink="http://www.w3.org/1999/xlink" x="0px" y="0px"
	 width="70px" height="70px" viewBox="0 0 70 70" style="enable-background:new 0 0 70 70;" xml:space="preserve">
<path d="M23.7,37.9c0-0.6-0.5-1-1-1H8.1c-0.6,0-1,0.5-1,1c0,0.6,0.5,1,1,1h14.6C23.2,38.9,23.7,38.5,23.7,37.9z"/>
<path d="M54.9,38.9c0.6,0,1-0.5,1-1c0-0.6-0.5-1-1-1h-9.7c-0.6,0-1,0.5-1,1c0,0.6,0.5,1,1,1H54.9z"/>
<path d="M35.4,38.9c0.6,0,1-0.5,1-1c0-0.6-0.5-1-1-1h-7.7c-0.6,0-1,0.5-1,1c0,0.6,0.5,1,1,1H35.4z"/>
<path d="M50,45.2c0-0.6-0.5-1-1-1H34.4c-0.6,0-1,0.5-1,1c0,0.6,0.5,1,1,1H49C49.5,46.3,50,45.8,50,45.2z"/>
<path d="M30.4,45.2c0-0.6-0.5-1-1-1h-7.7c-0.6,0-1,0.5-1,1c0,0.6,0.5,1,1,1h7.7C30,46.3,30.4,45.8,30.4,45.2z"/>
<path d="M25,53.8h14.6c0.6,0,1-0.5,1-1c0-0.6-0.5-1-1-1H25c-0.6,0-1,0.5-1,1C24,53.3,24.4,53.8,25,53.8z"/>
<path d="M8.1,53.8h7.7c0.6,0,1-0.5,1-1c0-0.6-0.5-1-1-1H8.1c-0.6,0-1,0.5-1,1C7,53.3,7.5,53.8,8.1,53.8z"/>
<path d="M69,51.8h-2.6c-0.6,0-1,0.5-1,1c0,0.6,0.5,1,1,1H69c0.6,0,1-0.5,1-1C70,52.2,69.5,51.8,69,51.8z"/>
<path d="M61.6,51.8h-2.2v-2.6h7.6c1.6,0,3-1.3,3-3V11.3c0-1.6-1.3-3-3-3H13.5c-1.6,0-3,1.3-3,3v10.2H2.9c-1.6,0-2.9,1.3-2.9,2.9
	v34.9c0,1.6,1.3,2.9,2.9,2.9h53.5c1.6,0,2.9-1.3,2.9-2.9v-1.8c0-0.6-0.5-1-1-1s-1,0.5-1,1v1.8c0,0.5-0.4,0.9-0.9,0.9H2.9
	c-0.5,0-0.9-0.4-0.9-0.9V32.8h55.3v19h-7.2c-0.6,0-1,0.5-1,1c0,0.6,0.5,1,1,1h11.5c0.6,0,1-0.5,1-1C62.6,52.2,62.1,51.8,61.6,51.8z
	 M12.6,11.3c0-0.5,0.4-0.9,0.9-0.9h53.4c0.5,0,0.9,0.4,0.9,0.9v6.2H16.4c-0.6,0-1,0.5-1,1c0,0.6,0.5,1,1,1h51.4v26.6
	c0,0.5-0.4,0.9-0.9,0.9h-7.6V24.5c0-1.6-1.3-2.9-2.9-2.9H12.6V11.3z M2.1,30.7v-6.3c0-0.5,0.4-0.9,0.9-0.9h53.5
	c0.5,0,0.9,0.4,0.9,0.9v6.3H2.1z"/>
<path d="M19.7,13.9c0-1.7-1.3-3-3-3s-3,1.3-3,3s1.3,3,3,3S19.7,15.6,19.7,13.9z M15.8,13.9c0-0.5,0.4-1,1-1c0.5,0,1,0.4,1,1
	c0,0.5-0.4,1-1,1C16.2,14.9,15.8,14.5,15.8,13.9z"/>
<path d="M24,16.9c1.7,0,3-1.3,3-3s-1.3-3-3-3s-3,1.3-3,3S22.3,16.9,24,16.9z M24,13c0.5,0,1,0.4,1,1s-0.4,1-1,1c-0.5,0-1-0.4-1-1
	S23.4,13,24,13z"/>
<path d="M31.2,16.9c1.7,0,3-1.3,3-3s-1.3-3-3-3s-3,1.3-3,3S29.5,16.9,31.2,16.9z M31.2,13c0.5,0,1,0.4,1,1s-0.4,1-1,1
	c-0.5,0-1-0.4-1-1S30.6,13,31.2,13z"/>
<path d="M6.2,24.1c-1.7,0-3,1.3-3,3s1.3,3,3,3s3-1.3,3-3S7.9,24.1,6.2,24.1z M6.2,28.1c-0.5,0-1-0.4-1-1c0-0.5,0.4-1,1-1s1,0.4,1,1
	C7.2,27.6,6.7,28.1,6.2,28.1z"/>
<path d="M13.4,24.1c-1.7,0-3,1.3-3,3s1.3,3,3,3s3-1.3,3-3S15.1,24.1,13.4,24.1z M13.4,28.1c-0.5,0-1-0.4-1-1c0-0.5,0.4-1,1-1
	c0.5,0,1,0.4,1,1C14.4,27.6,14,28.1,13.4,28.1z"/>
<path d="M20.6,24.1c-1.7,0-3,1.3-3,3s1.3,3,3,3c1.7,0,3-1.3,3-3S22.3,24.1,20.6,24.1z M20.6,28.1c-0.5,0-1-0.4-1-1c0-0.5,0.4-1,1-1
	c0.5,0,1,0.4,1,1C21.6,27.6,21.2,28.1,20.6,28.1z"/>
<path d="M10.8,42.2c-0.4-0.4-1-0.4-1.4,0L7,44.5c-0.4,0.4-0.4,1,0,1.4l2.3,2.3c0.2,0.2,0.5,0.3,0.7,0.3c0.3,0,0.5-0.1,0.7-0.3
	c0.4-0.4,0.4-1,0-1.4l-1.6-1.6l1.6-1.6C11.2,43.2,11.2,42.6,10.8,42.2z"/>
<path d="M17.3,44.5l-2.3-2.3c-0.4-0.4-1-0.4-1.4,0s-0.4,1,0,1.4l1.6,1.6l-1.6,1.6c-0.4,0.4-0.4,1,0,1.4c0.2,0.2,0.5,0.3,0.7,0.3
	c0.3,0,0.5-0.1,0.7-0.3l2.3-2.3C17.7,45.6,17.7,44.9,17.3,44.5z"/>
<path d="M22.6,49.7c-0.4-0.4-1-0.4-1.4,0l-2.3,2.3c-0.4,0.4-0.4,1,0,1.4l2.3,2.3c0.2,0.2,0.5,0.3,0.7,0.3c0.3,0,0.5-0.1,0.7-0.3
	c0.4-0.4,0.4-1,0-1.4L21,52.8l1.6-1.6C23,50.8,23,50.1,22.6,49.7z"/>
<path d="M42.2,55.8c0.2,0.2,0.5,0.3,0.7,0.3c0.3,0,0.5-0.1,0.7-0.3l2.3-2.3c0.4-0.4,0.4-1,0-1.4l-2.3-2.3c-0.4-0.4-1-0.4-1.4,0
	c-0.4,0.4-0.4,1,0,1.4l1.6,1.6l-1.6,1.6C41.8,54.8,41.8,55.4,42.2,55.8z"/>
<path d="M39.3,40.5l3.1-3.1c0.4-0.4,0.4-1,0-1.4c-0.4-0.4-1-0.4-1.4,0L37.8,39c-0.4,0.4-0.4,1,0,1.4c0.2,0.2,0.5,0.3,0.7,0.3
	C38.8,40.8,39.1,40.7,39.3,40.5z"/>
</svg>
