<?xml version="1.0" encoding="utf-8"?>
<!-- Generator: Adobe Illustrator 26.5.0, SVG Export Plug-In . SVG Version: 6.00 Build 0)  -->
<svg version="1.1" id="Capa_1" xmlns="http://www.w3.org/2000/svg" xmlns:xlink="http://www.w3.org/1999/xlink" x="0px" y="0px"
	 width="70px" height="70px" viewBox="0 0 70 70" style="enable-background:new 0 0 70 70;" xml:space="preserve">
<g>
	<g>
		<path d="M50.2,35C41.8,35,35,41.8,35,50.2s6.8,15.2,15.2,15.2s15.2-6.8,15.2-15.2C65.3,41.8,58.5,35,50.2,35z M50.2,63
			c-7.1,0-12.8-5.7-12.8-12.8s5.7-12.8,12.8-12.8S63,43.1,63,50.2C63,57.3,57.3,63,50.2,63z"/>
	</g>
</g>
<g>
	<g>
		<path d="M57.2,45.5c0-1.9-1.6-3.5-3.5-3.5h-1.2v-2.3h-2.3V42H49l0-2.3l-2.3,0l0,2.3h-3.5v2.3h2.3V56h-2.3v2.3h3.5l0,2.3l2.3,0
			l0-2.3h1.2v2.3h2.3v-2.3h1.2c1.9,0,3.5-1.6,3.5-3.5v-2.3c0-0.9-0.3-1.7-0.9-2.3c0.6-0.6,0.9-1.5,0.9-2.3V45.5z M54.8,54.8
			c0,0.6-0.5,1.2-1.2,1.2h-5.8v-4.7h5.8c0.6,0,1.2,0.5,1.2,1.2V54.8z M54.8,47.8c0,0.6-0.5,1.2-1.2,1.2h-5.8v-4.7h5.8
			c0.6,0,1.2,0.5,1.2,1.2V47.8z"/>
	</g>
</g>
<g>
	<g>
		<path d="M50.2,30.3c-11,0-19.8,8.9-19.8,19.8S39.2,70,50.2,70S70,61.1,70,50.2C70,39.2,61.1,30.3,50.2,30.3z M50.2,67.7
			c-9.7,0-17.5-7.8-17.5-17.5s7.8-17.5,17.5-17.5s17.5,7.8,17.5,17.5C67.7,59.8,59.8,67.7,50.2,67.7z"/>
	</g>
</g>
<g>
	<g>
		<path d="M19.8,4.7c-8.4,0-15.2,6.8-15.2,15.2S11.5,35,19.8,35C28.2,35,35,28.2,35,19.8C35,11.5,28.2,4.7,19.8,4.7z M19.8,32.7
			C12.7,32.7,7,26.9,7,19.8C7,12.7,12.7,7,19.8,7s12.8,5.7,12.8,12.8S26.9,32.7,19.8,32.7z"/>
	</g>
</g>
<g>
	<g>
		<path d="M19.8,0C8.9,0,0,8.9,0,19.8s8.9,19.8,19.8,19.8c10.9,0,19.8-8.9,19.8-19.8C39.7,8.9,30.8,0,19.8,0z M19.8,37.3
			c-9.7,0-17.5-7.8-17.5-17.5c0-9.7,7.8-17.5,17.5-17.5s17.5,7.8,17.5,17.5S29.5,37.3,19.8,37.3z"/>
	</g>
</g>
<g>
	<g>
		<path d="M19.8,18.7c-1.9,0-3.5-1.1-3.5-2.3s1.6-2.3,3.5-2.3c1.9,0,3.5,1.1,3.5,2.3c0,0.6,0.5,1.2,1.2,1.2s1.2-0.5,1.2-1.2
			c0-2.3-2-4.1-4.7-4.6V9.3h-2.3v2.4C16,12.2,14,14.1,14,16.3c0,2.6,2.6,4.7,5.8,4.7c1.9,0,3.5,1.1,3.5,2.3c0,1.3-1.6,2.3-3.5,2.3
			s-3.5-1.1-3.5-2.3c0-0.6-0.5-1.2-1.2-1.2c-0.6,0-1.2,0.5-1.2,1.2c0,2.3,2,4.1,4.7,4.6v2.4H21v-2.4c2.7-0.4,4.7-2.3,4.7-4.6
			C25.7,20.8,23,18.7,19.8,18.7z"/>
	</g>
</g>
<g>
	<g>
		<path d="M50.2,11.7h-5.4l3-3l-1.6-1.6l-5.8,5.8l5.8,5.8l1.6-1.6l-3-3h5.4c5.8,0,10.5,4.7,10.5,10.5v5.8H63v-5.8
			C63,17.4,57.3,11.7,50.2,11.7z"/>
	</g>
</g>
<g>
	<g>
		<path d="M22.7,51.4L21.1,53l3,3h-4.2C14,56,9.3,51.3,9.3,45.5v-5.8H7v5.8c0,7.1,5.7,12.8,12.8,12.8H24l-3,3l1.6,1.6l5.8-5.8
			L22.7,51.4z"/>
	</g>
</g>
</svg>
