<?xml version="1.0" encoding="utf-8"?>
<!-- Generator: Adobe Illustrator 26.5.0, SVG Export Plug-In . SVG Version: 6.00 Build 0)  -->
<svg version="1.1" id="Capa_1" xmlns="http://www.w3.org/2000/svg" xmlns:xlink="http://www.w3.org/1999/xlink" x="0px" y="0px"
	 width="70px" height="70px" viewBox="0 0 70 70" style="enable-background:new 0 0 70 70;" xml:space="preserve">
<g>
	<g>
		<path d="M68.6,64.5H44.2c-0.8,0-1.4,0.6-1.4,1.4c0,0.8,0.6,1.4,1.4,1.4h24.5c0.8,0,1.4-0.6,1.4-1.4C70,65.1,69.4,64.5,68.6,64.5z"
			/>
	</g>
</g>
<g>
	<g>
		<path d="M25.7,64.5H1.4c-0.8,0-1.4,0.6-1.4,1.4c0,0.8,0.6,1.4,1.4,1.4h24.3c0.8,0,1.4-0.6,1.4-1.4C27.1,65.1,26.5,64.5,25.7,64.5z
			"/>
	</g>
</g>
<g>
	<g>
		<path d="M35.5,28H24.9c-0.8,0-1.4,0.6-1.4,1.4c0,0.8,0.6,1.4,1.4,1.4h10.6c0.8,0,1.4-0.6,1.4-1.4S36.3,28,35.5,28z"/>
	</g>
</g>
<g>
	<g>
		<path d="M46.2,28.4c-0.3-0.3-0.6-0.4-1-0.4c-0.4,0-0.7,0.1-1,0.4c-0.3,0.3-0.4,0.6-0.4,1c0,0.4,0.1,0.7,0.4,1
			c0.3,0.3,0.6,0.4,1,0.4c0.4,0,0.7-0.1,1-0.4c0.3-0.3,0.4-0.6,0.4-1C46.6,29,46.4,28.6,46.2,28.4z"/>
	</g>
</g>
<g>
	<g>
		<path d="M41.4,28.4c-0.3-0.3-0.6-0.4-1-0.4c-0.4,0-0.7,0.1-1,0.4c-0.3,0.3-0.4,0.6-0.4,1c0,0.4,0.1,0.7,0.4,1
			c0.3,0.3,0.6,0.4,1,0.4s0.7-0.1,1-0.4c0.3-0.3,0.4-0.6,0.4-1C41.8,29,41.7,28.6,41.4,28.4z"/>
	</g>
</g>
<g>
	<g>
		<path d="M35.5,38.9H24.9c-0.8,0-1.4,0.6-1.4,1.4c0,0.8,0.6,1.4,1.4,1.4h10.6c0.8,0,1.4-0.6,1.4-1.4C36.9,39.5,36.3,38.9,35.5,38.9
			z"/>
	</g>
</g>
<g>
	<g>
		<path d="M46.2,39.3c-0.3-0.3-0.6-0.4-1-0.4c-0.4,0-0.7,0.1-1,0.4c-0.3,0.3-0.4,0.6-0.4,1c0,0.4,0.1,0.7,0.4,1
			c0.3,0.3,0.6,0.4,1,0.4c0.4,0,0.7-0.1,1-0.4s0.4-0.6,0.4-1C46.6,39.9,46.4,39.6,46.2,39.3z"/>
	</g>
</g>
<g>
	<g>
		<path d="M41.4,39.3c-0.3-0.3-0.6-0.4-1-0.4c-0.4,0-0.7,0.1-1,0.4c-0.3,0.3-0.4,0.6-0.4,1c0,0.4,0.1,0.7,0.4,1
			c0.3,0.3,0.6,0.4,1,0.4c0.4,0,0.7-0.1,1-0.4c0.3-0.3,0.4-0.6,0.4-1C41.8,39.9,41.7,39.6,41.4,39.3z"/>
	</g>
</g>
<g>
	<g>
		<path d="M35.5,49.8H24.9c-0.8,0-1.4,0.6-1.4,1.4s0.6,1.4,1.4,1.4h10.6c0.8,0,1.4-0.6,1.4-1.4S36.3,49.8,35.5,49.8z"/>
	</g>
</g>
<g>
	<g>
		<path d="M46.2,50.2c-0.3-0.3-0.6-0.4-1-0.4c-0.4,0-0.7,0.1-1,0.4c-0.3,0.3-0.4,0.6-0.4,1s0.1,0.7,0.4,1c0.3,0.3,0.6,0.4,1,0.4
			c0.4,0,0.7-0.1,1-0.4s0.4-0.6,0.4-1S46.4,50.5,46.2,50.2z"/>
	</g>
</g>
<g>
	<g>
		<path d="M41.4,50.2c-0.3-0.3-0.6-0.4-1-0.4c-0.4,0-0.7,0.1-1,0.4s-0.4,0.6-0.4,1s0.1,0.7,0.4,1c0.3,0.3,0.6,0.4,1,0.4
			c0.4,0,0.7-0.1,1-0.4c0.3-0.3,0.4-0.6,0.4-1S41.7,50.5,41.4,50.2z"/>
	</g>
</g>
<g>
	<g>
		<path d="M52.8,40.5c0-2.2-1.1-4.2-2.7-5.5c1.7-1.2,2.7-3.2,2.7-5.5c0-3.8-3.1-6.8-6.8-6.8H24.1c-3.8,0-6.8,3.1-6.8,6.8
			c0,2.2,1.1,4.2,2.7,5.5c-1.7,1.2-2.7,3.2-2.7,5.5c0,2.2,1.1,4.2,2.7,5.5c-1.7,1.2-2.7,3.2-2.7,5.5c0,3.8,3.1,6.8,6.8,6.8h9.6V62
			c-1.6,0.6-2.7,2.1-2.7,3.9c0,2.3,1.8,4.1,4.1,4.1c2.3,0,4.1-1.8,4.1-4.1c0-1.8-1.1-3.3-2.7-3.9v-3.8H46c3.8,0,6.8-3.1,6.8-6.8
			c0-2.2-1.1-4.2-2.7-5.5C51.7,44.7,52.8,42.7,52.8,40.5z M20,29.5c0-2.3,1.8-4.1,4.1-4.1H46c2.3,0,4.1,1.8,4.1,4.1
			s-1.8,4.1-4.1,4.1H24.1C21.8,33.6,20,31.8,20,29.5z M35,67.3c-0.8,0-1.4-0.6-1.4-1.4c0-0.8,0.6-1.4,1.4-1.4s1.4,0.6,1.4,1.4
			S35.8,67.3,35,67.3z M50.1,51.4c0,2.3-1.8,4.1-4.1,4.1H24.1c-2.3,0-4.1-1.8-4.1-4.1c0-2.3,1.8-4.1,4.1-4.1H46
			C48.2,47.3,50.1,49.1,50.1,51.4z M46,44.6H24.1c-2.3,0-4.1-1.8-4.1-4.1c0-2.3,1.8-4.1,4.1-4.1H46c2.3,0,4.1,1.8,4.1,4.1
			C50.1,42.7,48.2,44.6,46,44.6z"/>
	</g>
</g>
<g>
	<g>
		<path d="M67.1,21.2c-1.8-2.5-4.2-4.5-7-5.8C56.7,6.2,47.8,0,37.9,0c-5.8,0-11.3,2.1-15.6,5.9c-3.9,3.5-6.6,8.1-7.6,13.3
			c-0.2,0-0.4,0-0.6,0C6.3,19.1,0,25.5,0,33.2c0,3.4,1.2,6.6,3.4,9.2c2.2,2.5,5.2,4.2,8.5,4.7c0.1,0,0.1,0,0.2,0
			c0.7,0,1.2-0.5,1.3-1.2c0.1-0.7-0.4-1.4-1.1-1.6c-5.6-0.9-9.6-5.6-9.6-11.2c0-6.3,5.1-11.3,11.3-11.3c0.5,0,1.1,0,1.6,0.1
			c0.4,0.1,0.7,0,1-0.3c0.3-0.2,0.5-0.5,0.5-0.9C18.6,10.5,27.5,2.7,37.9,2.7c8.9,0,16.9,5.7,19.8,14.1c0.1,0.4,0.4,0.7,0.8,0.8
			c5.3,2.1,8.8,7.2,8.8,12.9c0,6.6-4.7,12.3-11.1,13.7c-0.7,0.2-1.2,0.9-1.1,1.6c0.2,0.7,0.9,1.2,1.6,1.1C64.4,45.4,70,38.5,70,30.6
			C70,27.2,69,24,67.1,21.2z"/>
	</g>
</g>
</svg>
