<?xml version="1.0" encoding="utf-8"?>
<!-- Generator: Adobe Illustrator 26.5.0, SVG Export Plug-In . SVG Version: 6.00 Build 0)  -->
<svg version="1.1" id="Layer_1" xmlns="http://www.w3.org/2000/svg" xmlns:xlink="http://www.w3.org/1999/xlink" x="0px" y="0px"
	 width="80px" height="80px" viewBox="0 0 80 80" style="enable-background:new 0 0 80 80;" xml:space="preserve">
<style type="text/css">
	.st0{fill:#FBBD80;}
	.st1{fill-rule:evenodd;clip-rule:evenodd;fill:#968C96;}
	.st2{fill:#EAF6FF;}
	.st3{fill-rule:evenodd;clip-rule:evenodd;fill:#214C5F;}
	.st4{fill-rule:evenodd;clip-rule:evenodd;fill:#FEDA43;}
	.st5{fill-rule:evenodd;clip-rule:evenodd;fill:#295D76;}
	.st6{fill:#FFBA57;}
	.st7{fill-rule:evenodd;clip-rule:evenodd;fill:#BEC7CF;}
	.st8{fill-rule:evenodd;clip-rule:evenodd;fill:#EAF6FF;}
	.st9{fill-rule:evenodd;clip-rule:evenodd;fill:#60B7FF;}
	.st10{fill-rule:evenodd;clip-rule:evenodd;fill:#ABB3BA;}
	.st11{fill-rule:evenodd;clip-rule:evenodd;fill:#D3DDE6;}
	.st12{fill-rule:evenodd;clip-rule:evenodd;fill:#E5C43C;}
	.st13{fill-rule:evenodd;clip-rule:evenodd;fill:#25546A;}
	.st14{fill-rule:evenodd;clip-rule:evenodd;fill:#1E4456;}
	.st15{fill-rule:evenodd;clip-rule:evenodd;fill:#E2AA73;}
	.st16{fill-rule:evenodd;clip-rule:evenodd;fill:#877E87;}
	.st17{fill-rule:evenodd;clip-rule:evenodd;fill:#56A5E6;}
</style>
<path class="st0" d="M29.7,61.4c-0.4-0.4-0.4-1.1,0-1.6c0.4-0.4,1.1-0.4,1.6,0l0,0l8.1,8c0.1,0.1,0.3,0.3,0.4,0.4
	c0.7,0.6,1.6,0.8,2.5,0.8c0.9-0.1,1.8-0.5,2.4-1.2c0.1-0.1,0.3-0.3,0.4-0.5c0.8-1,1.1-2.3,1-3.6c-0.1-1.3-0.6-2.5-1.5-3.4L31.2,46.9
	c-0.9-0.9-2-1.6-3.3-1.9c-1.2-0.3-2.5-0.4-3.9-0.2L1.6,46.9v20.4h17c0.4,0,0.7,0.2,0.9,0.5l8.5,9.5c1,1.1,2.2,1.9,3.4,2.4
	c1.3,0.4,2.6,0.5,4,0.2l34-7.3c0.2-0.1,0.6-0.1,1-0.2c1.9-0.4,4.1-0.8,4.1-3.5c0-0.8-0.3-1.7-0.8-2.3c-0.5-0.5-1.1-0.9-1.8-0.9h0
	l-24,1.3c-0.2,0.6-0.5,1.1-0.9,1.6c-0.2,0.2-0.4,0.5-0.6,0.7c-1,1.1-2.4,1.7-3.8,1.8c-1.4,0.1-2.9-0.3-4-1.2
	c-0.2-0.2-0.4-0.4-0.6-0.6L29.7,61.4z"/>
<path class="st1" d="M2.2,39.7h8c1,0,1.8,0.8,1.8,1.8v30.8c0,1-0.8,1.8-1.8,1.8h-8c-1,0-1.8-0.8-1.8-1.8V41.5
	C0.5,40.5,1.3,39.7,2.2,39.7L2.2,39.7z"/>
<path class="st2" d="M5.1,45.2c0-0.6,0.5-1.1,1.1-1.1s1.1,0.5,1.1,1.1v0.1c0,0.6-0.5,1.1-1.1,1.1S5.1,45.9,5.1,45.2L5.1,45.2z"/>
<path class="st3" d="M54.9,49.5h6.4v5.4c0,1-0.8,1.8-1.8,1.8h-2.9c-1,0-1.8-0.8-1.8-1.8V49.5z"/>
<path class="st4" d="M52.7,48.6c0-9.3-10.2-11.3-10.2-22.6c0-8.6,7-15.7,15.7-15.7s15.7,7,15.7,15.7c0,11.3-10.2,13.2-10.2,22.6v2.2
	c0,1.2-1,2.2-2.2,2.2h-6.4c-1.2,0-2.2-1-2.2-2.2L52.7,48.6z"/>
<path class="st5" d="M52.7,48.6c0-1-0.1-1.9-0.3-2.8h11.6c-0.2,0.9-0.4,1.9-0.3,2.8v2.2c0,1.2-1,2.2-2.2,2.2h-6.4
	c-1.2,0-2.2-1-2.2-2.2L52.7,48.6z"/>
<path class="st3" d="M61.3,53.1h-6.4c-1.2,0-2.2-1-2.2-2.2v-1.4h10.9v1.4C63.6,52.1,62.6,53.1,61.3,53.1L61.3,53.1z"/>
<path class="st6" d="M68.9,3.7c0.3-0.5,1-0.7,1.5-0.4c0.5,0.3,0.7,1,0.4,1.5c0,0,0,0,0,0l-2.1,3.6c-0.3,0.5-1,0.7-1.5,0.4
	c-0.5-0.3-0.7-1-0.4-1.5L68.9,3.7z M57,1.1C57,0.5,57.5,0,58.1,0c0.6,0,1.1,0.5,1.1,1.1v4.2c0,0.6-0.5,1.1-1.1,1.1
	c-0.6,0-1.1-0.5-1.1-1.1V1.1z M45.4,4.8c-0.3-0.5-0.1-1.2,0.4-1.5s1.2-0.1,1.5,0.4l0,0l2.1,3.6c0.3,0.5,0.1,1.2-0.4,1.5
	c-0.5,0.3-1.2,0.1-1.5-0.4L45.4,4.8z M37.2,13.8c-0.5-0.3-0.7-1-0.4-1.5c0.3-0.5,1-0.7,1.5-0.4l3.4,2c0.5,0.3,0.7,1,0.4,1.5
	c-0.3,0.5-1,0.7-1.5,0.4c0,0,0,0,0,0L37.2,13.8z M77.9,11.9c0.5-0.3,1.2-0.1,1.5,0.4c0.3,0.5,0.1,1.2-0.4,1.5c0,0,0,0,0,0l-3.4,2
	c-0.5,0.3-1.2,0.1-1.5-0.4c-0.3-0.5-0.1-1.2,0.4-1.5c0,0,0,0,0,0L77.9,11.9z"/>
<g>
	<path class="st7" d="M33,22.6l-2.8,0.8c-0.2,0.7-0.5,1.4-0.8,2l1.5,2.6c-1,1.4-2.2,2.6-3.5,3.5l-2.6-1.5c-0.6,0.3-1.3,0.6-2,0.8
		l-0.8,2.8c-1.6,0.3-3.3,0.3-5,0l-0.8-2.8c-0.7-0.2-1.4-0.5-2-0.8l-2.6,1.5C10.2,30.6,9,29.4,8,28l1.5-2.6c-0.3-0.6-0.6-1.3-0.8-2
		l-2.8-0.8c-0.3-1.6-0.3-3.3,0-5l2.8-0.8c0.2-0.7,0.5-1.4,0.8-2L8,12.3c1-1.4,2.2-2.6,3.5-3.5l2.6,1.4c0.6-0.3,1.3-0.6,2-0.8
		l0.8-2.8c1.6-0.3,3.3-0.3,5,0l0.8,2.8c0.7,0.2,1.4,0.5,2,0.8l2.6-1.4c1.4,1,2.6,2.2,3.5,3.5l-1.5,2.6c0.3,0.6,0.6,1.3,0.8,2
		l2.8,0.8C33.3,19.3,33.3,21,33,22.6L33,22.6z"/>
	<path class="st8" d="M25.6,20.2c0,3.4-2.8,6.2-6.1,6.2c-3.4,0-6.2-2.8-6.2-6.1c0-3.4,2.8-6.2,6.1-6.2C22.8,14,25.6,16.8,25.6,20.2
		C25.6,20.2,25.6,20.2,25.6,20.2L25.6,20.2z"/>
	<path class="st9" d="M51.3,20.8H56v-1.5c0-1.2,1-2.1,2.2-2.2c1.2,0,2.1,1,2.2,2.2v1.5h4.6c0.4,0,0.8,0.3,0.8,0.8v2.3h1.5
		c1.2,0,2.1,1,2.2,2.2c0,1.2-1,2.1-2.2,2.2h-1.5v2.3c0,0.4-0.3,0.8-0.8,0.8h-4.6v-1.5c0-1.2-1-2.1-2.2-2.1c-1.2,0-2.1,1-2.2,2.1v1.5
		h-4.6c-0.4,0-0.8-0.3-0.8-0.8v-2.3h-1.5c-1.2,0-2.2-1-2.2-2.2c0-1.2,1-2.2,2.2-2.2h1.5v-2.3C50.6,21.1,50.9,20.8,51.3,20.8
		C51.3,20.8,51.3,20.8,51.3,20.8L51.3,20.8z"/>
	<path class="st10" d="M22.7,30.1c-0.6,0.3-1.3,0.6-2,0.8l-0.8,2.8c-0.5,0.1-1,0.2-1.5,0.2c0.3,0,0.7,0,1,0c0.8,0,1.7-0.1,2.5-0.2
		l0.8-2.8c0.3-0.1,0.6-0.2,0.9-0.3L22.7,30.1z M20.7,9.4c0.7,0.2,1.4,0.5,2,0.8l0.9-0.5c-0.3-0.1-0.6-0.2-0.9-0.3l-0.8-2.8
		c-0.8-0.1-1.7-0.2-2.5-0.2c-0.3,0-0.7,0-1,0c0.5,0,1,0.1,1.5,0.2L20.7,9.4z M26.1,9.4c1,0.8,1.9,1.8,2.7,2.9l-1.5,2.6
		c0.3,0.6,0.6,1.3,0.8,2l2.8,0.8c0.3,1.7,0.3,3.3,0,5l-2.8,0.8c-0.2,0.7-0.5,1.4-0.8,2l1.5,2.6c-0.8,1.1-1.7,2.1-2.7,2.9l1.1,0.6
		c1.4-1,2.6-2.2,3.5-3.5l-1.5-2.6c0.3-0.6,0.6-1.3,0.8-2l2.8-0.8c0.3-1.6,0.3-3.3,0-5l-2.8-0.8c-0.2-0.7-0.5-1.4-0.8-2l1.5-2.6
		c-1-1.4-2.2-2.6-3.5-3.5L26.1,9.4z"/>
	<path class="st11" d="M20,14c-3.4,0.3-5.9,3.3-5.6,6.7c0.3,3,2.6,5.3,5.6,5.6c-0.2,0-0.4,0-0.6,0c-3.4,0-6.2-2.7-6.2-6.1
		c0-3.4,2.7-6.2,6.1-6.2c0,0,0,0,0.1,0C19.6,14,19.8,14,20,14L20,14z"/>
	<path class="st12" d="M71.5,26.1c0,10-8.1,12.7-9.9,19.7h2.2c1.8-7.1,9.9-9.7,9.9-19.7c0-8.6-7-15.7-15.7-15.7c0,0,0,0,0,0
		c-0.4,0-0.7,0-1.1,0C65.2,11.1,71.5,17.9,71.5,26.1L71.5,26.1z"/>
	<path class="st13" d="M63.9,45.8h-2.2c-0.2,0.9-0.3,1.9-0.3,2.8v0.8h2.2v-0.8C63.6,47.7,63.7,46.7,63.9,45.8z"/>
	<path class="st14" d="M63.6,49.5h-2.2v3.7c1.2,0,2.2-1,2.2-2.2L63.6,49.5z"/>
	<path class="st15" d="M71.8,65.7l-24,1.3c-0.2,0.5-0.5,1-0.8,1.5l23.7-1.3h0c0.7,0,1.4,0.3,1.8,0.9c0.5,0.6,0.8,1.5,0.8,2.3
		c0,0.4,0,0.7-0.1,1.1c0.8-0.5,1.3-1.3,1.3-2.6c0-0.8-0.3-1.7-0.8-2.3C73.2,66.1,72.5,65.7,71.8,65.7L71.8,65.7z M26.8,46.5
		c1.2,0.3,2.4,1,3.3,1.9l13.5,13.3c0.9,0.9,1.4,2.1,1.5,3.4c0.1,1-0.1,1.9-0.5,2.8c0.1-0.1,0.2-0.2,0.3-0.2c0.1-0.1,0.3-0.3,0.4-0.5
		c0.8-1,1.1-2.3,1-3.6c-0.1-1.3-0.6-2.5-1.5-3.4L31.2,46.9c-0.9-0.9-2-1.6-3.3-1.9c-1.2-0.3-2.5-0.4-3.9-0.2l-12,1.1v1.4l10.8-1
		C24.2,46.1,25.5,46.2,26.8,46.5L26.8,46.5z"/>
	<path class="st16" d="M9.2,39.7V74h1.1c1,0,1.8-0.8,1.8-1.8V41.5c0-1-0.8-1.8-1.8-1.8L9.2,39.7z"/>
	<path class="st17" d="M56.9,27.6c-1.2,0-2.1,1-2.2,2.1v1.5H56v-1.5c0-1,0.6-1.8,1.6-2.1C57.3,27.6,57.1,27.6,56.9,27.6z M60.3,20.8
		v-1.5c0-1.2-1-2.1-2.2-2.2c-0.2,0-0.4,0-0.6,0.1c0.9,0.3,1.6,1.1,1.6,2.1v1.5H60.3z M65.6,23.8v-2.3c0-0.4-0.3-0.8-0.8-0.8h-1.2
		c0.4,0,0.8,0.3,0.8,0.8v2.3L65.6,23.8z M68.1,26c0,1.2-1,2.1-2.2,2.2h1.2c1.2,0,2.2-1,2.2-2.2c0-1.2-1-2.2-2.2-2.2c0,0,0,0,0,0H66
		C67.2,23.8,68.1,24.8,68.1,26L68.1,26z M64.5,28.1v2.3c0,0.4-0.3,0.8-0.8,0.8h1.2c0.4,0,0.8-0.3,0.8-0.8v-2.3L64.5,28.1z"/>
</g>
</svg>
