<?xml version="1.0" encoding="utf-8"?>
<!-- Generator: Adobe Illustrator 26.5.0, SVG Export Plug-In . SVG Version: 6.00 Build 0)  -->
<svg version="1.1" id="Layer_1" xmlns="http://www.w3.org/2000/svg" xmlns:xlink="http://www.w3.org/1999/xlink" x="0px" y="0px"
	 width="80px" height="80px" viewBox="0 0 80 80" style="enable-background:new 0 0 80 80;" xml:space="preserve">
<style type="text/css">
	.st0{fill:#FF933B;}
	.st1{fill:#F27D27;}
	.st2{fill:#FECCC1;}
	.st3{fill:#F9B3A7;}
	.st4{fill:#636363;}
	.st5{fill:#494949;}
	.st6{fill:#DDF5FF;}
	.st7{fill:#8DB0FF;}
	.st8{fill:#669AF7;}
	.st9{fill:#FFD664;}
	.st10{fill:#F9C646;}
</style>
<path class="st0" d="M52.5,80H1.6C0.7,80,0,79.3,0,78.4v-6.8c0-0.9,0.7-1.6,1.6-1.6h50.9V80z"/>
<path class="st1" d="M48.9,69.9c-0.7,1.6-1.1,3.4-1.1,5.3v0.1c0,0.7-0.6,1.3-1.3,1.3H0v1.8C0,79.3,0.7,80,1.6,80h50.9V69.9H48.9z"/>
<path class="st2" d="M72.4,55.8c0-3.8-3.1-6.8-6.8-6.8c-3.8,0-6.8,3.1-6.8,6.8V59c0,3.8,3.1,6.8,6.8,6.8c3.8,0,6.8-3.1,6.8-6.8V55.8
	z"/>
<path class="st3" d="M65.5,48.9c-0.5,0-0.9,0-1.4,0.1c3.1,0.6,5.4,3.4,5.4,6.7V59c0,3.3-2.3,6-5.4,6.7c0.4,0.1,0.9,0.1,1.4,0.1
	c3.8,0,6.8-3.1,6.8-6.8v-3.3C72.4,52,69.3,48.9,65.5,48.9z"/>
<path class="st4" d="M80,78.4v-3.1c0-4.2-2.6-7.9-6.6-9.2L70,64.8c-1.1-0.4-2.3-0.6-3.4-0.6h-2c-1.2,0-2.3,0.2-3.4,0.6L57.6,66
	c-3.9,1.4-6.6,5.1-6.6,9.2V80h27.3C79.3,80,80,79.3,80,78.4z"/>
<path class="st5" d="M73.4,66l-0.9-0.3c2.4,1.8,3.9,4.7,3.9,7.8V80h2c0.9,0,1.6-0.7,1.6-1.6v-3.1C80,71.1,77.4,67.4,73.4,66z"/>
<path class="st4" d="M35.2,55.9l-2.4-0.8v0l-5.5,9.6l-5.5-9.6l0,0l-2.4,0.8c-3.9,1.4-6.6,5.1-6.6,9.2v4.8h28.9v-4.8
	C41.8,61,39.2,57.3,35.2,55.9z"/>
<path class="st5" d="M35.2,55.9l-0.9-0.3c2.4,1.8,3.9,4.7,3.9,7.8v6.5h3.6v-4.8C41.8,61,39.2,57.3,35.2,55.9z"/>
<path class="st6" d="M21.8,55.1l5.5,9.6l5.5-9.6v0l-2.8-1h-5.5L21.8,55.1L21.8,55.1z"/>
<path class="st2" d="M34.1,45.7c0-3.8-3.1-6.8-6.8-6.8c-3.8,0-6.8,3.1-6.8,6.8v3.3c0,3.8,3.1,6.8,6.8,6.8c3.8,0,6.8-3.1,6.8-6.8
	V45.7z"/>
<path class="st3" d="M27.3,38.9c-0.5,0-0.9,0-1.4,0.1c3.1,0.6,5.4,3.4,5.4,6.7v3.3c0,3.3-2.3,6.1-5.4,6.7c0.4,0.1,0.9,0.1,1.4,0.1
	c3.8,0,6.8-3.1,6.8-6.8v-3.3C34.1,41.9,31.1,38.9,27.3,38.9z"/>
<path class="st7" d="M41.3,0H6.5C2.9,0,0,2.9,0,6.5v16.9c0,3.6,2.9,6.5,6.5,6.5h3.6l5.9,5.9c0.8,0.8,2.2,0.2,2.2-0.9v-5h23.1
	c3.6,0,6.5-2.9,6.5-6.5V6.5C47.8,2.9,44.9,0,41.3,0z"/>
<path class="st7" d="M41.3,0H6.5C2.9,0,0,2.9,0,6.5v16.9c0,3.6,2.9,6.5,6.5,6.5h3.6l5.9,5.9c0.8,0.8,2.2,0.2,2.2-0.9v-5h23.1
	c3.6,0,6.5-2.9,6.5-6.5V6.5C47.8,2.9,44.9,0,41.3,0z"/>
<path class="st8" d="M6.5,26.7c-3.6,0-6.5-2.9-6.5-6.5v3.3c0,3.6,2.9,6.5,6.5,6.5h3.6l5.9,5.9c0.8,0.8,2.2,0.2,2.2-0.9v-0.1L11,27.6
	c-0.6-0.6-1.4-1-2.3-1H6.5z"/>
<path class="st8" d="M41.3,0h-4.1c2.3,0,4.3,1.2,5.5,3c0.7,1.1-0.1,2.5-1.4,2.5h-2.7c-5.4,0-9.8,4.4-9.8,9.8V25
	c0,0.9-0.7,1.6-1.6,1.6h-5.9c-1.8,0-3.3,1.5-3.3,3.3h23.1c3.6,0,6.5-2.9,6.5-6.5V6.5C47.8,2.9,44.9,0,41.3,0z"/>
<path class="st9" d="M38.7,8.8h34.8c3.6,0,6.5,2.9,6.5,6.5v16.9c0,3.6-2.9,6.5-6.5,6.5H56.7v5c0,1.2-1.4,1.7-2.2,0.9l-5.9-5.9h-9.9
	c-3.6,0-6.5-2.9-6.5-6.5V15.3C32.2,11.7,35.1,8.8,38.7,8.8z"/>
<g>
	<path class="st10" d="M38.7,35.1c-3.6,0-6.5-2.9-6.5-6.5v3.6c0,3.6,2.9,6.5,6.5,6.5h9.9l5.9,5.9c0.8,0.8,2.2,0.2,2.2-0.9v-0.4
		l-7.2-7.2c-0.6-0.6-1.4-1-2.3-1H38.7z"/>
	<path class="st10" d="M73.5,8.8h-4.1c3.6,0,6.5,2.9,6.5,6.5v16.6c0,1.8-1.5,3.3-3.3,3.3H60c-1.8,0-3.3,1.5-3.3,3.3v0.3h16.7
		c3.6,0,6.5-2.9,6.5-6.5V15.3C80,11.7,77.1,8.8,73.5,8.8z"/>
</g>
</svg>
