<?xml version="1.0" encoding="utf-8"?>
<!-- Generator: Adobe Illustrator 26.5.0, SVG Export Plug-In . SVG Version: 6.00 Build 0)  -->
<svg version="1.1" id="Capa_1" xmlns="http://www.w3.org/2000/svg" xmlns:xlink="http://www.w3.org/1999/xlink" x="0px" y="0px"
	 width="80px" height="80px" viewBox="0 0 80 80" style="enable-background:new 0 0 80 80;" xml:space="preserve">
<style type="text/css">
	.st0{fill:#FFAF10;}
	.st1{fill:#445EA0;}
	.st2{fill:#2E4C89;}
	.st3{fill:#293D7C;}
	.st4{fill:#1A2B63;}
	.st5{fill:#EEF6FF;}
	.st6{fill:#FF9518;}
	.st7{fill:#C3DDF4;}
	.st8{fill:#EF8318;}
	.st9{fill:#69CDFF;}
	.st10{fill:#5DC1D8;}
	.st11{fill:#28A5A5;}
	.st12{fill:#52BBEF;}
	.st13{fill:#1E99D6;}
</style>
<circle class="st0" cx="40" cy="40" r="38.3"/>
<rect x="27.3" y="59.3" class="st1" width="16.9" height="7.2"/>
<rect x="27.3" y="59.3" class="st2" width="3.1" height="7.2"/>
<path class="st3" d="M52.1,70.3c0,0.4-0.4,0.8-0.8,0.8H20.2c-0.4,0-0.8-0.4-0.8-0.8v-3.1c0-0.4,0.4-0.8,0.8-0.8h31.1
	c0.4,0,0.8,0.4,0.8,0.8V70.3z"/>
<path class="st4" d="M22.5,70.3v-3.1c0-0.4,0.4-0.8,0.8-0.8h-3.1c-0.4,0-0.8,0.4-0.8,0.8v3.1c0,0.4,0.4,0.8,0.8,0.8h3.1
	C22.8,71.1,22.5,70.7,22.5,70.3z"/>
<path class="st3" d="M0,57.9c0,0.9,0.7,1.6,1.6,1.6h46.9V49H0V57.9z"/>
<path class="st4" d="M3.1,57.9V49H0v8.9c0,0.9,0.7,1.6,1.6,1.6h3.1C3.8,59.5,3.1,58.8,3.1,57.9z"/>
<path class="st1" d="M48.5,44.8c0-0.3,0.3-0.6,0.6-0.6h22.4V10.4c0-0.9-0.8-1.7-1.7-1.7h-68C0.8,8.7,0,9.4,0,10.4v38.8h48.5V44.8z"
	/>
<path class="st5" d="M48.5,44.8c0-0.3,0.3-0.6,0.6-0.6H68V12.9c0-0.4-0.4-0.8-0.8-0.8h-63c-0.4,0-0.8,0.4-0.8,0.8V45
	c0,0.4,0.4,0.8,0.8,0.8h44.2L48.5,44.8L48.5,44.8z"/>
<circle class="st1" cx="35.7" cy="54.4" r="2.2"/>
<path class="st0" d="M65.1,32.2c0,0.4-0.4,0.8-0.8,0.8H39.5c-0.4,0-0.8-0.4-0.8-0.8V20.9c0-0.4,0.4-0.8,0.8-0.8h24.8
	c0.4,0,0.8,0.4,0.8,0.8L65.1,32.2L65.1,32.2z"/>
<path class="st6" d="M41.8,32.2V20.9c0-0.4,0.4-0.8,0.8-0.8h-3.1c-0.4,0-0.8,0.4-0.8,0.8v11.4c0,0.4,0.4,0.8,0.8,0.8h3.1
	C42.2,33,41.8,32.7,41.8,32.2z"/>
<g>
	<path class="st7" d="M46.8,37.5H40c-0.6,0-1.2-0.5-1.2-1.2c0-0.6,0.5-1.2,1.2-1.2h6.7c0.6,0,1.2,0.5,1.2,1.2
		C47.9,37,47.4,37.5,46.8,37.5z"/>
	<path class="st7" d="M46.8,41.1H40c-0.6,0-1.2-0.5-1.2-1.2c0-0.6,0.5-1.2,1.2-1.2h6.7c0.6,0,1.2,0.5,1.2,1.2
		C47.9,40.6,47.4,41.1,46.8,41.1z"/>
	<path class="st7" d="M54.9,37.5h-5c-0.6,0-1.2-0.5-1.2-1.2c0-0.6,0.5-1.2,1.2-1.2h5c0.6,0,1.2,0.5,1.2,1.2
		C56.1,37,55.5,37.5,54.9,37.5z"/>
	<path class="st7" d="M54.9,41.1h-5c-0.6,0-1.2-0.5-1.2-1.2c0-0.6,0.5-1.2,1.2-1.2h5c0.6,0,1.2,0.5,1.2,1.2
		C56.1,40.6,55.5,41.1,54.9,41.1z"/>
	<path class="st7" d="M64.3,37.5H58c-0.6,0-1.2-0.5-1.2-1.2c0-0.6,0.5-1.2,1.2-1.2h6.4c0.6,0,1.2,0.5,1.2,1.2
		C65.5,37,65,37.5,64.3,37.5z"/>
	<path class="st7" d="M64.3,41.1H58c-0.6,0-1.2-0.5-1.2-1.2c0-0.6,0.5-1.2,1.2-1.2h6.4c0.6,0,1.2,0.5,1.2,1.2
		C65.5,40.6,65,41.1,64.3,41.1z"/>
</g>
<g>
	<path class="st8" d="M56.2,17.4c0,0.4-0.4,0.8-0.8,0.8h-1.7c-0.4,0-0.8-0.4-0.8-0.8v-1.7c0-0.4,0.4-0.8,0.8-0.8h1.7
		c0.4,0,0.8,0.4,0.8,0.8V17.4z"/>
	<path class="st8" d="M60.5,17.4c0,0.4-0.4,0.8-0.8,0.8H58c-0.4,0-0.8-0.4-0.8-0.8v-1.7c0-0.4,0.4-0.8,0.8-0.8h1.7
		c0.4,0,0.8,0.4,0.8,0.8V17.4z"/>
	<path class="st8" d="M64.9,17.4c0,0.4-0.4,0.8-0.8,0.8h-1.7c-0.4,0-0.8-0.4-0.8-0.8v-1.7c0-0.4,0.4-0.8,0.8-0.8h1.7
		c0.4,0,0.8,0.4,0.8,0.8V17.4z"/>
</g>
<g>
	<path class="st9" d="M29.8,40.2h-1.4c-0.6,0-1.2-0.5-1.2-1.2c0-0.6,0.5-1.2,1.2-1.2h1.4c0.6,0,1.2,0.5,1.2,1.2
		C31,39.6,30.5,40.2,29.8,40.2z"/>
	<path class="st9" d="M24.5,40.2h-1.4c-0.6,0-1.2-0.5-1.2-1.2c0-0.6,0.5-1.2,1.2-1.2h1.4c0.6,0,1.2,0.5,1.2,1.2
		C25.7,39.6,25.2,40.2,24.5,40.2z"/>
	<path class="st9" d="M19.2,40.2h-1.4c-0.6,0-1.2-0.5-1.2-1.2c0-0.6,0.5-1.2,1.2-1.2h1.4c0.6,0,1.2,0.5,1.2,1.2
		C20.4,39.6,19.8,40.2,19.2,40.2z"/>
	<path class="st9" d="M13.9,40.2h-1.4c-0.6,0-1.2-0.5-1.2-1.2c0-0.6,0.5-1.2,1.2-1.2h1.4c0.6,0,1.2,0.5,1.2,1.2
		C15.1,39.6,14.5,40.2,13.9,40.2z"/>
	<path class="st9" d="M34.4,35.3c-0.6,0-1.2-0.5-1.2-1.2v-1.4c0-0.6,0.5-1.2,1.2-1.2c0.6,0,1.2,0.5,1.2,1.2v1.4
		C35.6,34.8,35,35.3,34.4,35.3z"/>
	<path class="st9" d="M34.4,30c-0.6,0-1.2-0.5-1.2-1.2v-1.4c0-0.6,0.5-1.2,1.2-1.2c0.6,0,1.2,0.5,1.2,1.2v1.4
		C35.6,29.5,35,30,34.4,30z"/>
	<path class="st9" d="M34.4,24.7c-0.6,0-1.2-0.5-1.2-1.2v-1.4c0-0.6,0.5-1.2,1.2-1.2c0.6,0,1.2,0.5,1.2,1.2v1.4
		C35.6,24.2,35,24.7,34.4,24.7z"/>
	<path class="st9" d="M7.8,35.3c-0.6,0-1.2-0.5-1.2-1.2v-1.4c0-0.6,0.5-1.2,1.2-1.2S9,32.1,9,32.8v1.4C9,34.8,8.5,35.3,7.8,35.3z"/>
	<path class="st9" d="M7.8,30c-0.6,0-1.2-0.5-1.2-1.2v-1.4c0-0.6,0.5-1.2,1.2-1.2S9,26.8,9,27.4v1.4C9,29.5,8.5,30,7.8,30z"/>
	<path class="st9" d="M7.8,24.7c-0.6,0-1.2-0.5-1.2-1.2v-1.4c0-0.6,0.5-1.2,1.2-1.2S9,21.5,9,22.1v1.4C9,24.2,8.5,24.7,7.8,24.7z"/>
	<path class="st9" d="M29.8,18.9h-1.4c-0.6,0-1.2-0.5-1.2-1.2c0-0.6,0.5-1.2,1.2-1.2h1.4c0.6,0,1.2,0.5,1.2,1.2
		C31,18.4,30.5,18.9,29.8,18.9z"/>
	<path class="st9" d="M24.5,18.9h-1.4c-0.6,0-1.2-0.5-1.2-1.2c0-0.6,0.5-1.2,1.2-1.2h1.4c0.6,0,1.2,0.5,1.2,1.2
		C25.7,18.4,25.2,18.9,24.5,18.9z"/>
	<path class="st9" d="M19.2,18.9h-1.4c-0.6,0-1.2-0.5-1.2-1.2c0-0.6,0.5-1.2,1.2-1.2h1.4c0.6,0,1.2,0.5,1.2,1.2
		C20.4,18.4,19.8,18.9,19.2,18.9z"/>
	<path class="st9" d="M13.9,18.9h-1.4c-0.6,0-1.2-0.5-1.2-1.2c0-0.6,0.5-1.2,1.2-1.2h1.4c0.6,0,1.2,0.5,1.2,1.2
		C15.1,18.4,14.5,18.9,13.9,18.9z"/>
</g>
<path class="st10" d="M31.3,35.1c0,0.4-0.4,0.8-0.8,0.8H11.7c-0.4,0-0.8-0.4-0.8-0.8V21.6c0-0.4,0.4-0.8,0.8-0.8h18.8
	c0.4,0,0.8,0.4,0.8,0.8V35.1z"/>
<path class="st11" d="M14.1,35.1V21.6c0-0.4,0.4-0.8,0.8-0.8h-3.1c-0.4,0-0.8,0.4-0.8,0.8v13.4c0,0.4,0.4,0.8,0.8,0.8h3.1
	C14.4,35.9,14.1,35.5,14.1,35.1z"/>
<g>
	<path class="st12" d="M36.6,18.9c0,0.4-0.4,0.8-0.8,0.8h-3.3c-0.4,0-0.8-0.4-0.8-0.8v-3.3c0-0.4,0.4-0.8,0.8-0.8h3.3
		c0.4,0,0.8,0.4,0.8,0.8V18.9z"/>
	<path class="st12" d="M10.6,19.2c0,0.4-0.4,0.8-0.8,0.8H6.6c-0.4,0-0.8-0.4-0.8-0.8v-3.3c0-0.4,0.4-0.8,0.8-0.8h3.3
		c0.4,0,0.8,0.4,0.8,0.8V19.2z"/>
	<path class="st12" d="M36.6,40.8c0,0.4-0.4,0.8-0.8,0.8h-3.3c-0.4,0-0.8-0.4-0.8-0.8v-3.3c0-0.4,0.4-0.8,0.8-0.8h3.3
		c0.4,0,0.8,0.4,0.8,0.8V40.8z"/>
	<path class="st12" d="M10.6,40.8c0,0.4-0.4,0.8-0.8,0.8H6.6c-0.4,0-0.8-0.4-0.8-0.8v-3.3c0-0.4,0.4-0.8,0.8-0.8h3.3
		c0.4,0,0.8,0.4,0.8,0.8V40.8z"/>
</g>
<g>
	<path class="st13" d="M33.5,18.9v-3.3c0-0.4,0.4-0.8,0.8-0.8h-1.7c-0.4,0-0.8,0.4-0.8,0.8v3.3c0,0.4,0.4,0.8,0.8,0.8h1.7
		C33.8,19.7,33.5,19.3,33.5,18.9z"/>
	<path class="st13" d="M7.5,19.2v-3.3c0-0.4,0.4-0.8,0.8-0.8H6.6c-0.4,0-0.8,0.4-0.8,0.8v3.3c0,0.4,0.4,0.8,0.8,0.8h1.7
		C7.9,20,7.5,19.6,7.5,19.2z"/>
	<path class="st13" d="M33.5,40.8v-3.3c0-0.4,0.4-0.8,0.8-0.8h-1.7c-0.4,0-0.8,0.4-0.8,0.8v3.3c0,0.4,0.4,0.8,0.8,0.8h1.7
		C33.8,41.5,33.5,41.2,33.5,40.8z"/>
	<path class="st13" d="M7.5,40.8v-3.3c0-0.4,0.4-0.8,0.8-0.8H6.6c-0.4,0-0.8,0.4-0.8,0.8v3.3c0,0.4,0.4,0.8,0.8,0.8h1.7
		C7.9,41.5,7.5,41.2,7.5,40.8z"/>
</g>
<path class="st10" d="M68,57.3c0-0.1,0-0.1,0-0.1c0,0,0,0,0,0C68.1,57.2,68.1,57.2,68,57.3l6.7,2.3V44.8c0-0.4-0.4-0.8-0.8-0.8H49.1
	c-0.4,0-0.8,0.4-0.8,0.8v17.9c0,0.4,0.4,0.8,0.8,0.8h21.2L68,57.3z"/>
<path class="st11" d="M51.4,62.8V44.8c0-0.4,0.4-0.8,0.8-0.8h-3.1c-0.4,0-0.8,0.4-0.8,0.8v17.9c0,0.4,0.4,0.8,0.8,0.8h3.1
	C51.8,63.6,51.4,63.2,51.4,62.8z"/>
<path class="st3" d="M68.2,57.1c-0.3-0.1-0.4,0-0.3,0.3L72,68.6c0.1,0.3,0.3,0.3,0.5,0.1l2.2-2.2c0.2-0.2,0.5-0.2,0.7,0L78,69
	c0.2,0.2,0.5,0.2,0.7,0l1.2-1.2c0.2-0.2,0.2-0.5,0-0.7l-2.5-2.5c-0.2-0.2-0.2-0.5,0-0.7l2.2-2.2c0.2-0.2,0.1-0.4-0.1-0.5L68.2,57.1z
	"/>
</svg>
