<?xml version="1.0" encoding="utf-8"?>
<!-- Generator: Adobe Illustrator 26.5.0, SVG Export Plug-In . SVG Version: 6.00 Build 0)  -->
<svg version="1.1" id="Layer_1" xmlns="http://www.w3.org/2000/svg" xmlns:xlink="http://www.w3.org/1999/xlink" x="0px" y="0px"
	 width="80px" height="80px" viewBox="0 0 80 80" style="enable-background:new 0 0 80 80;" xml:space="preserve">
<style type="text/css">
	.st0{fill:#7CB5E8;}
	.st1{opacity:0.3;}
	.st2{fill:#FFFFFF;}
	.st3{opacity:0.5;}
	.st4{fill:#E2E2E2;}
	.st5{fill:#4E6575;}
	.st6{fill:#5E7588;}
	.st7{fill:#FFAB03;}
	.st8{fill:#EF4A51;}
	.st9{fill:#8ABA55;}
</style>
<g>
	<g>
		<path class="st0" d="M46.7,28c2.7,2.2,4.3,5.7,3.8,9.5c-0.6,4.8-4.5,8.6-9.2,9.1c-6.4,0.7-11.8-4.3-11.8-10.5
			c0-3.3,1.5-6.3,3.9-8.2H13.2c-2.8,0-5.1,2.3-5.1,5.1v30.6h63.7V33.2c0-2.8-2.3-5.1-5.1-5.1L46.7,28L46.7,28z"/>
	</g>
	<g class="st1">
		<path class="st2" d="M66.8,28H46.7c2.7,2.2,4.3,5.7,3.8,9.5c-0.3,2.5-1.6,4.8-3.4,6.5c2.5,5,7.6,8.4,13.5,8.4h11.3V33.1
			C71.9,30.3,69.6,28,66.8,28L66.8,28z"/>
	</g>
	<g class="st3">
		<path class="st2" d="M62.6,32.1h5.7v2c0,2,1.6,3.5,3.5,3.5v-4.5c0-2.8-2.3-5.1-5.1-5.1h-8.2C58.6,30.3,60.4,32.1,62.6,32.1z"/>
	</g>
	<g>
		<path class="st4" d="M66.8,71.4H13.2c-2.8,0-5.1-2.3-5.1-5.1v-2.5h63.7v2.5C71.9,69.1,69.6,71.4,66.8,71.4z"/>
	</g>
	<g class="st3">
		<path class="st2" d="M46.4,67.6h25.5v-3.8H41.5C42,65.9,44,67.6,46.4,67.6z"/>
	</g>
	<g>
		<path class="st5" d="M54.2,32.8c-0.4-1.8-1.2-3.5-2.2-4.9l2.4-3.1l-3.4-3.4l-3.2,2.5c-1.4-0.9-3-1.6-4.8-1.9l-0.5-4.1h-4.9
			L37,21.9c-1.7,0.4-3.3,1-4.8,1.9l-3.2-2.5l-3.4,3.4l2.4,3.1c-1,1.5-1.8,3.1-2.2,4.9l-3.6,0.5v4.9l3.4,0.4c0.3,2,1,3.8,2.1,5.5
			l-2,2.6l3.4,3.4l2.4-1.9c1.7,1.2,3.6,2,5.6,2.4l0.4,3h4.9l0.4-3c2.1-0.4,4-1.2,5.6-2.4l2.4,1.9l3.4-3.4l-2-2.6
			c1-1.6,1.7-3.5,2.1-5.5l3.4-0.4v-4.9L54.2,32.8z M40,43.8c-4.2,0-7.6-3.4-7.6-7.6s3.4-7.6,7.6-7.6s7.6,3.4,7.6,7.6
			S44.2,43.8,40,43.8z"/>
	</g>
	<g>
		<path class="st5" d="M28.5,71.4h22.9V79H28.5V71.4z"/>
	</g>
	<g class="st1">
		<path class="st4" d="M42.5,76.1h8.9v-4.7h-14C37.7,74,39.9,76.1,42.5,76.1z"/>
	</g>
	<g class="st1">
		<path class="st4" d="M52,27.9l2.4-3.1l-3.4-3.4l-3.2,2.5c-1.4-0.9-3-1.6-4.8-1.9l-0.5-4.1h-4.9l-0.5,4.1c-1.7,0.4-3.3,1-4.8,1.9
			l-3.1-2.4c-0.2,1.1-0.3,2.2-0.3,3.4c0,4,1.4,7.7,3.6,10.6c0.4-3.8,3.6-6.8,7.5-6.8c4.2,0,7.6,3.4,7.6,7.6c0,2.4-1.1,4.6-2.9,6
			c0.5,0.1,1.1,0.1,1.7,0.1c2.7,0,5.3-0.6,7.6-1.7c0.2-0.6,0.4-1.3,0.5-2l3.2-0.4c0.1-0.1,0.2-0.1,0.2-0.2v-4.7l-3.7-0.5
			C53.7,31,53,29.3,52,27.9L52,27.9z"/>
	</g>
	<g>
		<path class="st5" d="M56.6,80H23.4c-0.5,0-1-0.4-1-1c0-0.5,0.4-1,1-1h33.1c0.5,0,1,0.4,1,1C57.5,79.6,57.1,80,56.6,80z"/>
	</g>
	<g>
		<path class="st6" d="M40,15c-0.5,0-1-0.4-1-1V7.8c0-0.5,0.4-1,1-1s1,0.4,1,1V14C41,14.6,40.5,15,40,15z"/>
	</g>
	<g>
		<path class="st6" d="M54.1,20.1c-0.5,0-1-0.4-1-1v-8.9c0-0.5,0.4-1,1-1h6.3c0.5,0,1,0.4,1,1c0,0.5-0.4,1-1,1H55v8
			C55,19.7,54.6,20.1,54.1,20.1z"/>
	</g>
	<g>
		<path class="st6" d="M64.2,36.7h-2.5c-0.5,0-1-0.4-1-1c0-0.5,0.4-1,1-1h1.6V20.4c0-0.5,0.4-1,1-1h5.1c0.5,0,1,0.4,1,1
			c0,0.5-0.4,1-1,1h-4.1v14.3C65.2,36.2,64.7,36.7,64.2,36.7z"/>
	</g>
	<g>
		<path class="st6" d="M25.9,20.1c-0.5,0-1-0.4-1-1v-8h-5.4c-0.5,0-1-0.4-1-1c0-0.5,0.4-1,1-1h6.3c0.5,0,1,0.4,1,1v8.9
			C26.9,19.7,26.5,20.1,25.9,20.1z"/>
	</g>
	<g>
		<path class="st6" d="M18.3,36.7h-2.5c-0.5,0-1-0.4-1-1V21.4h-4.1c-0.5,0-1-0.4-1-1c0-0.5,0.4-1,1-1h5.1c0.5,0,1,0.4,1,1v14.3h1.6
			c0.5,0,1,0.4,1,1C19.3,36.2,18.9,36.7,18.3,36.7z"/>
	</g>
	<g>
		<circle class="st7" cx="73.1" cy="20.4" r="3.8"/>
	</g>
	<g>
		<circle class="st8" cx="64.2" cy="10.2" r="3.8"/>
	</g>
	<g>
		<circle class="st7" cx="6.9" cy="20.4" r="3.8"/>
	</g>
	<g>
		<circle class="st8" cx="15.8" cy="10.2" r="3.8"/>
	</g>
	<g>
		<circle class="st9" cx="40" cy="3.8" r="3.8"/>
	</g>
	<g class="st1">
		<path class="st2" d="M73.1,16.6c-0.8,0-1.5,0.2-2.1,0.6c-0.1,0.4-0.2,0.7-0.2,1.1c0,2.1,1.7,3.8,3.8,3.8c0.8,0,1.5-0.2,2.1-0.6
			c0.1-0.4,0.2-0.7,0.2-1.1C77,18.3,75.3,16.6,73.1,16.6z"/>
	</g>
	<g class="st1">
		<path class="st4" d="M64.2,6.4c-0.8,0-1.5,0.2-2.1,0.6c-0.1,0.4-0.2,0.7-0.2,1.1c0,2.1,1.7,3.8,3.8,3.8c0.8,0,1.5-0.2,2.1-0.6
			C68,11,68,10.6,68,10.2C68,8.1,66.3,6.4,64.2,6.4z"/>
	</g>
	<g class="st1">
		<path class="st2" d="M6.9,16.6c-0.8,0-1.5,0.2-2.1,0.6c-0.1,0.4-0.2,0.7-0.2,1.1c0,2.1,1.7,3.8,3.8,3.8c0.8,0,1.5-0.2,2.1-0.6
			c0.1-0.4,0.2-0.7,0.2-1.1C10.7,18.3,9,16.6,6.9,16.6z"/>
	</g>
	<g class="st1">
		<path class="st4" d="M15.8,6.4c-0.8,0-1.5,0.2-2.1,0.6c-0.1,0.4-0.2,0.7-0.2,1.1c0,2.1,1.7,3.8,3.8,3.8c0.8,0,1.5-0.2,2.1-0.6
			c0.1-0.4,0.2-0.7,0.2-1.1C19.6,8.1,17.9,6.4,15.8,6.4z"/>
	</g>
	<g class="st1">
		<path class="st2" d="M40,0c-0.8,0-1.5,0.2-2.1,0.6c-0.1,0.4-0.2,0.7-0.2,1.1c0,2.1,1.7,3.8,3.8,3.8c0.8,0,1.5-0.2,2.1-0.6
			c0.1-0.4,0.2-0.7,0.2-1.1C43.8,1.7,42.1,0,40,0L40,0z"/>
	</g>
</g>
</svg>
