<?xml version="1.0" encoding="utf-8"?>
<!-- Generator: Adobe Illustrator 26.5.0, SVG Export Plug-In . SVG Version: 6.00 Build 0)  -->
<svg version="1.1" id="Layer_3" xmlns="http://www.w3.org/2000/svg" xmlns:xlink="http://www.w3.org/1999/xlink" x="0px" y="0px"
	 width="80px" height="80px" viewBox="0 0 80 80" style="enable-background:new 0 0 80 80;" xml:space="preserve">
<style type="text/css">
	.st0{fill:#8892A0;}
	.st1{fill:#C7E2FC;}
	.st2{fill:#EBF7FE;}
	.st3{fill:#4D5D7A;}
	.st4{fill:#C66B60;}
	.st5{fill:#78B75B;}
	.st6{fill:#FFFFFF;}
</style>
<g>
	<path class="st0" d="M5.3,25.3h69.3V72H5.3V25.3z"/>
	<path class="st1" d="M9.3,29.3h61.3V68H9.3V29.3z"/>
	<path class="st2" d="M9.3,29.3v26.1c5.9,3.7,13,5.9,20.7,5.9c19.3,0,35.3-14,37.7-32H9.3z"/>
	<path class="st3" d="M80,72H0v5.3C0,78.8,1.2,80,2.7,80h74.7c1.5,0,2.7-1.2,2.7-2.7V72z"/>
	<path class="st4" d="M14.7,44h18.7v18.7H14.7V44z"/>
	<path class="st5" d="M14.7,20h18.7v18.7H14.7V20z"/>
	<g>
		<path class="st6" d="M22.7,36C22.7,36,22.7,36,22.7,36c0.5,0,0.9-0.3,1.1-0.6l6.7-10.7l-2.3-1.4l-5.6,9l-2.8-3.8l-2.1,1.6l4,5.3
			C21.9,35.8,22.2,36,22.7,36L22.7,36z"/>
		<path class="st6" d="M28.4,47.1L24,51.4l-4.4-4.4l-1.9,1.9l4.4,4.4l-4.4,4.4l1.9,1.9l4.4-4.4l4.4,4.4l1.9-1.9l-4.4-4.4l4.4-4.4
			L28.4,47.1z"/>
	</g>
	<g>
		<path class="st0" d="M65.3,42.7c0-4.4-3.6-8-8-8s-8,3.6-8,8s3.6,8,8,8S65.3,47.1,65.3,42.7z M53.3,42.7c0-2.2,1.8-4,4-4s4,1.8,4,4
			s-1.8,4-4,4S53.3,44.9,53.3,42.7z"/>
	</g>
	<path class="st3" d="M60,29.3h5.3v-3c1.3-0.3,2.6-0.8,3.7-1.5l2.1,2.1l3.8-3.8L72.8,21c0.7-1.1,1.2-2.4,1.5-3.7h3V12h-3
		c-0.3-1.3-0.8-2.6-1.5-3.7l2.1-2.1l-3.8-3.8L69,4.5c-1.1-0.7-2.4-1.2-3.7-1.5V0H60v3c-1.3,0.3-2.6,0.8-3.7,1.5l-2.1-2.1l-3.8,3.8
		l2.1,2.1c-0.7,1.1-1.2,2.4-1.5,3.7h-3v5.3h3c0.3,1.3,0.8,2.6,1.5,3.7l-2.1,2.1l3.8,3.8l2.1-2.1c1.1,0.7,2.4,1.2,3.7,1.5V29.3z
		 M54.7,14.7c0-4.4,3.6-8,8-8s8,3.6,8,8s-3.6,8-8,8S54.7,19.1,54.7,14.7z"/>
	<g>
		<path class="st0" d="M46.7,41.3h2.7V44h-2.7V41.3z"/>
	</g>
	<g>
		<path class="st0" d="M65.3,41.3H68V44h-2.7V41.3z"/>
	</g>
	<g>
		<path class="st0" d="M56,50.7h2.7v2.7H56V50.7z"/>
	</g>
	<g>
		<path class="st0" d="M56,32h2.7v2.7H56V32z"/>
	</g>
	<g>
		<path class="st0" d="M61.7,48.9l1.9-1.9l2.2,2.2l-1.9,1.9L61.7,48.9z"/>
	</g>
	<g>
		<path class="st0" d="M48.8,36.1l1.9-1.9l2.2,2.2L51,38.3L48.8,36.1z"/>
	</g>
	<g>
		<path class="st0" d="M61.7,36.4l2.2-2.2l1.9,1.9l-2.2,2.2L61.7,36.4z"/>
	</g>
	<g>
		<path class="st0" d="M48.8,49.3l2.2-2.2l1.9,1.9l-2.2,2.2L48.8,49.3z"/>
	</g>
	<g>
		<g>
			<path class="st3" d="M48,42.7c0-5.1,4.2-9.3,9.3-9.3s9.3,4.2,9.3,9.3S62.5,52,57.3,52S48,47.8,48,42.7z M64,42.7
				c0-3.7-3-6.7-6.7-6.7c-3.7,0-6.7,3-6.7,6.7c0,3.7,3,6.7,6.7,6.7C61,49.3,64,46.3,64,42.7z"/>
		</g>
	</g>
</g>
</svg>
