<?xml version="1.0" encoding="utf-8"?>
<!-- Generator: Adobe Illustrator 26.5.0, SVG Export Plug-In . SVG Version: 6.00 Build 0)  -->
<svg version="1.1" id="Capa_1" xmlns="http://www.w3.org/2000/svg" xmlns:xlink="http://www.w3.org/1999/xlink" x="0px" y="0px"
	 width="32px" height="32px" viewBox="0 0 32 32" style="enable-background:new 0 0 32 32;" xml:space="preserve">
<style type="text/css">
	.st0{fill:#FFAF10;}
	.st1{fill:#445EA0;}
	.st2{fill:#2E4C89;}
	.st3{fill:#293D7C;}
	.st4{fill:#1A2B63;}
	.st5{fill:#EEF6FF;}
	.st6{fill:#FF9518;}
	.st7{fill:#C3DDF4;}
	.st8{fill:#EF8318;}
	.st9{fill:#69CDFF;}
	.st10{fill:#5DC1D8;}
	.st11{fill:#28A5A5;}
	.st12{fill:#52BBEF;}
	.st13{fill:#1E99D6;}
</style>
<circle class="st0" cx="16" cy="16" r="15.3"/>
<rect x="10.9" y="23.7" class="st1" width="6.8" height="2.9"/>
<rect x="10.9" y="23.7" class="st2" width="1.2" height="2.9"/>
<path class="st3" d="M20.8,28.1c0,0.2-0.1,0.3-0.3,0.3H8.1c-0.2,0-0.3-0.1-0.3-0.3v-1.2c0-0.2,0.1-0.3,0.3-0.3h12.4
	c0.2,0,0.3,0.1,0.3,0.3V28.1z"/>
<path class="st4" d="M9,28.1v-1.2c0-0.2,0.1-0.3,0.3-0.3H8.1c-0.2,0-0.3,0.1-0.3,0.3v1.2c0,0.2,0.1,0.3,0.3,0.3h1.2
	C9.1,28.4,9,28.3,9,28.1z"/>
<path class="st3" d="M0,23.2c0,0.3,0.3,0.6,0.6,0.6h18.8v-4.2H0V23.2z"/>
<path class="st4" d="M1.2,23.2v-3.6H0v3.6c0,0.3,0.3,0.6,0.6,0.6h1.2C1.5,23.8,1.2,23.5,1.2,23.2z"/>
<path class="st1" d="M19.4,17.9c0-0.1,0.1-0.2,0.2-0.2h8.9V4.2c0-0.4-0.3-0.7-0.7-0.7H0.7C0.3,3.5,0,3.8,0,4.2v15.5h19.4V17.9z"/>
<path class="st5" d="M19.4,17.9c0-0.1,0.1-0.2,0.2-0.2h7.6V5.2c0-0.2-0.1-0.3-0.3-0.3H1.7C1.5,4.8,1.4,5,1.4,5.2V18
	c0,0.2,0.1,0.3,0.3,0.3h17.7L19.4,17.9L19.4,17.9z"/>
<circle class="st1" cx="14.3" cy="21.8" r="0.9"/>
<path class="st0" d="M26,12.9c0,0.2-0.1,0.3-0.3,0.3h-9.9c-0.2,0-0.3-0.1-0.3-0.3V8.4c0-0.2,0.1-0.3,0.3-0.3h9.9
	C25.9,8,26,8.2,26,8.4L26,12.9L26,12.9z"/>
<path class="st6" d="M16.7,12.9V8.4C16.7,8.2,16.9,8,17,8h-1.2c-0.2,0-0.3,0.1-0.3,0.3v4.5c0,0.2,0.1,0.3,0.3,0.3H17
	C16.9,13.2,16.7,13.1,16.7,12.9z"/>
<g>
	<path class="st7" d="M18.7,15H16c-0.3,0-0.5-0.2-0.5-0.5c0-0.3,0.2-0.5,0.5-0.5h2.7c0.3,0,0.5,0.2,0.5,0.5C19.2,14.8,19,15,18.7,15
		z"/>
	<path class="st7" d="M18.7,16.4H16c-0.3,0-0.5-0.2-0.5-0.5s0.2-0.5,0.5-0.5h2.7c0.3,0,0.5,0.2,0.5,0.5S19,16.4,18.7,16.4z"/>
	<path class="st7" d="M22,15h-2c-0.3,0-0.5-0.2-0.5-0.5c0-0.3,0.2-0.5,0.5-0.5h2c0.3,0,0.5,0.2,0.5,0.5C22.4,14.8,22.2,15,22,15z"/>
	<path class="st7" d="M22,16.4h-2c-0.3,0-0.5-0.2-0.5-0.5s0.2-0.5,0.5-0.5h2c0.3,0,0.5,0.2,0.5,0.5S22.2,16.4,22,16.4z"/>
	<path class="st7" d="M25.7,15h-2.6c-0.3,0-0.5-0.2-0.5-0.5c0-0.3,0.2-0.5,0.5-0.5h2.6c0.3,0,0.5,0.2,0.5,0.5
		C26.2,14.8,26,15,25.7,15z"/>
	<path class="st7" d="M25.7,16.4h-2.6c-0.3,0-0.5-0.2-0.5-0.5s0.2-0.5,0.5-0.5h2.6c0.3,0,0.5,0.2,0.5,0.5S26,16.4,25.7,16.4z"/>
</g>
<g>
	<path class="st8" d="M22.5,6.9c0,0.2-0.1,0.3-0.3,0.3h-0.7c-0.2,0-0.3-0.1-0.3-0.3V6.3c0-0.2,0.1-0.3,0.3-0.3h0.7
		c0.2,0,0.3,0.1,0.3,0.3V6.9z"/>
	<path class="st8" d="M24.2,6.9c0,0.2-0.1,0.3-0.3,0.3h-0.7c-0.2,0-0.3-0.1-0.3-0.3V6.3c0-0.2,0.1-0.3,0.3-0.3h0.7
		c0.2,0,0.3,0.1,0.3,0.3V6.9z"/>
	<path class="st8" d="M26,6.9c0,0.2-0.1,0.3-0.3,0.3H25c-0.2,0-0.3-0.1-0.3-0.3V6.3c0-0.2,0.1-0.3,0.3-0.3h0.7
		c0.2,0,0.3,0.1,0.3,0.3V6.9z"/>
</g>
<g>
	<path class="st9" d="M11.9,16.1h-0.6c-0.3,0-0.5-0.2-0.5-0.5s0.2-0.5,0.5-0.5h0.6c0.3,0,0.5,0.2,0.5,0.5
		C12.4,15.9,12.2,16.1,11.9,16.1z"/>
	<path class="st9" d="M9.8,16.1H9.2c-0.3,0-0.5-0.2-0.5-0.5s0.2-0.5,0.5-0.5h0.6c0.3,0,0.5,0.2,0.5,0.5
		C10.3,15.9,10.1,16.1,9.8,16.1z"/>
	<path class="st9" d="M7.7,16.1H7.1c-0.3,0-0.5-0.2-0.5-0.5s0.2-0.5,0.5-0.5h0.6c0.3,0,0.5,0.2,0.5,0.5C8.1,15.9,7.9,16.1,7.7,16.1z
		"/>
	<path class="st9" d="M5.6,16.1H5c-0.3,0-0.5-0.2-0.5-0.5s0.2-0.5,0.5-0.5h0.6c0.3,0,0.5,0.2,0.5,0.5C6,15.9,5.8,16.1,5.6,16.1z"/>
	<path class="st9" d="M13.8,14.1c-0.3,0-0.5-0.2-0.5-0.5v-0.6c0-0.3,0.2-0.5,0.5-0.5c0.3,0,0.5,0.2,0.5,0.5v0.6
		C14.2,13.9,14,14.1,13.8,14.1z"/>
	<path class="st9" d="M13.8,12c-0.3,0-0.5-0.2-0.5-0.5V11c0-0.3,0.2-0.5,0.5-0.5c0.3,0,0.5,0.2,0.5,0.5v0.6C14.2,11.8,14,12,13.8,12
		z"/>
	<path class="st9" d="M13.8,9.9c-0.3,0-0.5-0.2-0.5-0.5V8.9c0-0.3,0.2-0.5,0.5-0.5c0.3,0,0.5,0.2,0.5,0.5v0.6
		C14.2,9.7,14,9.9,13.8,9.9z"/>
	<path class="st9" d="M3.1,14.1c-0.3,0-0.5-0.2-0.5-0.5v-0.6c0-0.3,0.2-0.5,0.5-0.5s0.5,0.2,0.5,0.5v0.6C3.6,13.9,3.4,14.1,3.1,14.1
		z"/>
	<path class="st9" d="M3.1,12c-0.3,0-0.5-0.2-0.5-0.5V11c0-0.3,0.2-0.5,0.5-0.5s0.5,0.2,0.5,0.5v0.6C3.6,11.8,3.4,12,3.1,12z"/>
	<path class="st9" d="M3.1,9.9c-0.3,0-0.5-0.2-0.5-0.5V8.9c0-0.3,0.2-0.5,0.5-0.5s0.5,0.2,0.5,0.5v0.6C3.6,9.7,3.4,9.9,3.1,9.9z"/>
	<path class="st9" d="M11.9,7.6h-0.6c-0.3,0-0.5-0.2-0.5-0.5s0.2-0.5,0.5-0.5h0.6c0.3,0,0.5,0.2,0.5,0.5S12.2,7.6,11.9,7.6z"/>
	<path class="st9" d="M9.8,7.6H9.2C9,7.6,8.8,7.4,8.8,7.1S9,6.6,9.2,6.6h0.6c0.3,0,0.5,0.2,0.5,0.5S10.1,7.6,9.8,7.6z"/>
	<path class="st9" d="M7.7,7.6H7.1c-0.3,0-0.5-0.2-0.5-0.5s0.2-0.5,0.5-0.5h0.6c0.3,0,0.5,0.2,0.5,0.5S7.9,7.6,7.7,7.6z"/>
	<path class="st9" d="M5.6,7.6H5c-0.3,0-0.5-0.2-0.5-0.5S4.7,6.6,5,6.6h0.6C5.8,6.6,6,6.8,6,7.1S5.8,7.6,5.6,7.6z"/>
</g>
<path class="st10" d="M12.5,14c0,0.2-0.1,0.3-0.3,0.3H4.7c-0.2,0-0.3-0.1-0.3-0.3V8.7c0-0.2,0.1-0.3,0.3-0.3h7.5
	c0.2,0,0.3,0.1,0.3,0.3V14z"/>
<path class="st11" d="M5.6,14V8.7c0-0.2,0.1-0.3,0.3-0.3H4.7c-0.2,0-0.3,0.1-0.3,0.3V14c0,0.2,0.1,0.3,0.3,0.3h1.2
	C5.8,14.3,5.6,14.2,5.6,14z"/>
<g>
	<path class="st12" d="M14.6,7.6c0,0.2-0.1,0.3-0.3,0.3H13c-0.2,0-0.3-0.1-0.3-0.3V6.3c0-0.2,0.1-0.3,0.3-0.3h1.3
		c0.2,0,0.3,0.1,0.3,0.3V7.6z"/>
	<path class="st12" d="M4.3,7.7C4.3,7.9,4.1,8,3.9,8H2.6C2.5,8,2.3,7.9,2.3,7.7V6.4c0-0.2,0.1-0.3,0.3-0.3h1.3
		c0.2,0,0.3,0.1,0.3,0.3V7.7z"/>
	<path class="st12" d="M14.6,16.3c0,0.2-0.1,0.3-0.3,0.3H13c-0.2,0-0.3-0.1-0.3-0.3V15c0-0.2,0.1-0.3,0.3-0.3h1.3
		c0.2,0,0.3,0.1,0.3,0.3V16.3z"/>
	<path class="st12" d="M4.3,16.3c0,0.2-0.1,0.3-0.3,0.3H2.6c-0.2,0-0.3-0.1-0.3-0.3V15c0-0.2,0.1-0.3,0.3-0.3h1.3
		c0.2,0,0.3,0.1,0.3,0.3V16.3z"/>
</g>
<g>
	<path class="st13" d="M13.4,7.6V6.3c0-0.2,0.1-0.3,0.3-0.3H13c-0.2,0-0.3,0.1-0.3,0.3v1.3c0,0.2,0.1,0.3,0.3,0.3h0.7
		C13.5,7.9,13.4,7.7,13.4,7.6z"/>
	<path class="st13" d="M3,7.7V6.4c0-0.2,0.1-0.3,0.3-0.3H2.6c-0.2,0-0.3,0.1-0.3,0.3v1.3C2.3,7.9,2.5,8,2.6,8h0.7C3.2,8,3,7.9,3,7.7
		z"/>
	<path class="st13" d="M13.4,16.3V15c0-0.2,0.1-0.3,0.3-0.3H13c-0.2,0-0.3,0.1-0.3,0.3v1.3c0,0.2,0.1,0.3,0.3,0.3h0.7
		C13.5,16.6,13.4,16.5,13.4,16.3z"/>
	<path class="st13" d="M3,16.3V15c0-0.2,0.1-0.3,0.3-0.3H2.6c-0.2,0-0.3,0.1-0.3,0.3v1.3c0,0.2,0.1,0.3,0.3,0.3h0.7
		C3.2,16.6,3,16.5,3,16.3z"/>
</g>
<path class="st10" d="M27.2,22.9C27.2,22.9,27.2,22.9,27.2,22.9C27.2,22.9,27.2,22.9,27.2,22.9C27.2,22.9,27.2,22.9,27.2,22.9
	l2.7,0.9v-5.9c0-0.2-0.1-0.3-0.3-0.3h-9.9c-0.2,0-0.3,0.1-0.3,0.3v7.2c0,0.2,0.1,0.3,0.3,0.3h8.5L27.2,22.9z"/>
<path class="st11" d="M20.6,25.1v-7.2c0-0.2,0.1-0.3,0.3-0.3h-1.2c-0.2,0-0.3,0.1-0.3,0.3v7.2c0,0.2,0.1,0.3,0.3,0.3h1.2
	C20.7,25.4,20.6,25.3,20.6,25.1z"/>
<path class="st3" d="M27.3,22.8c-0.1,0-0.2,0-0.1,0.1l1.6,4.5c0,0.1,0.1,0.1,0.2,0l0.9-0.9c0.1-0.1,0.2-0.1,0.3,0l1,1
	c0.1,0.1,0.2,0.1,0.3,0l0.5-0.5c0.1-0.1,0.1-0.2,0-0.3l-1-1c-0.1-0.1-0.1-0.2,0-0.3l0.9-0.9c0.1-0.1,0.1-0.2,0-0.2L27.3,22.8z"/>
</svg>
