<?xml version="1.0" encoding="utf-8"?>
<!-- Generator: Adobe Illustrator 26.5.0, SVG Export Plug-In . SVG Version: 6.00 Build 0)  -->
<svg version="1.1"
	 id="Layer_1" image-rendering="optimizeQuality" text-rendering="geometricPrecision" shape-rendering="geometricPrecision"
	 xmlns="http://www.w3.org/2000/svg" xmlns:xlink="http://www.w3.org/1999/xlink" x="0px" y="0px" width="32px" height="32px"
	 viewBox="0 0 32 32" style="enable-background:new 0 0 32 32;" xml:space="preserve">
<style type="text/css">
	.st0{fill-rule:evenodd;clip-rule:evenodd;fill:#D0C5F3;}
	.st1{fill-rule:evenodd;clip-rule:evenodd;fill:#2E5C8A;}
	.st2{fill-rule:evenodd;clip-rule:evenodd;fill:#FF3131;}
	.st3{fill-rule:evenodd;clip-rule:evenodd;fill:#FFE4AF;}
	.st4{fill-rule:evenodd;clip-rule:evenodd;fill:#F1F1F1;}
	.st5{fill-rule:evenodd;clip-rule:evenodd;fill:#333333;}
	.st6{fill-rule:evenodd;clip-rule:evenodd;fill:#336699;}
	.st7{fill-rule:evenodd;clip-rule:evenodd;fill:#29537C;}
	.st8{fill-rule:evenodd;clip-rule:evenodd;fill:#E6E6E6;}
	.st9{fill-rule:evenodd;clip-rule:evenodd;fill:#7959DE;}
	.st10{fill-rule:evenodd;clip-rule:evenodd;fill:#6248B4;}
	.st11{fill-rule:evenodd;clip-rule:evenodd;fill:#FFFFFF;}
</style>
<g id="Layer_x0020_1">
	<g id="_521800968">
		<path class="st0" d="M2.8,9.4v17h26.4v-17C24.7,9.4,7.3,9.4,2.8,9.4z"/>
		<path class="st1" d="M29.8,27.5H2.2c-0.3,0-0.5-0.2-0.5-0.5V8.9c0-0.3,0.2-0.5,0.5-0.5H5c0.3,0,0.5,0.2,0.5,0.5
			c0,0.3-0.2,0.5-0.5,0.5H2.8v17h26.4v-17H27c-0.3,0-0.5-0.2-0.5-0.5c0-0.3,0.2-0.5,0.5-0.5h2.7c0.3,0,0.5,0.2,0.5,0.5v18.1
			C30.3,27.2,30.1,27.5,29.8,27.5z"/>
		<path class="st2" d="M27,5.2H5c-0.3,0-0.5-0.2-0.5-0.5V0.8c0-0.3,0.2-0.5,0.5-0.5H27c0.3,0,0.5,0.2,0.5,0.5v3.8
			C27.6,4.9,27.3,5.2,27,5.2z"/>
		<path class="st3" d="M27,17.5c-7.4,0-14.7,0-22.1,0c-0.3,0-0.5-0.2-0.5-0.5V4.6h23.2V17C27.6,17.3,27.3,17.5,27,17.5z"/>
		<g>
			<path class="st4" d="M8,3H6.8C6.5,3,6.2,2.8,6.2,2.5c0-0.3,0.2-0.5,0.5-0.5H8c0.3,0,0.5,0.2,0.5,0.5C8.5,2.8,8.3,3,8,3z"/>
			<path class="st4" d="M11,3H9.8C9.5,3,9.2,2.8,9.2,2.5c0-0.3,0.2-0.5,0.5-0.5H11c0.3,0,0.5,0.2,0.5,0.5C11.5,2.8,11.3,3,11,3z"/>
			<path class="st4" d="M13.9,3h-1.2c-0.3,0-0.5-0.2-0.5-0.5c0-0.3,0.2-0.5,0.5-0.5h1.2c0.3,0,0.5,0.2,0.5,0.5
				C14.5,2.8,14.2,3,13.9,3z"/>
		</g>
		<g>
			<path class="st5" d="M9.1,11.2c-0.1,0-0.3-0.1-0.4-0.2L7,9.3C6.7,9.1,6.7,8.7,7,8.5l1.8-1.8c0.2-0.2,0.6-0.2,0.8,0
				c0.2,0.2,0.2,0.6,0,0.8L8.1,8.9l1.4,1.4c0.2,0.2,0.2,0.6,0,0.8C9.4,11.2,9.2,11.2,9.1,11.2z"/>
			<path class="st5" d="M10.6,12c0,0-0.1,0-0.1,0c-0.3-0.1-0.5-0.4-0.4-0.7l1.4-5c0.1-0.3,0.4-0.5,0.7-0.4c0.3,0.1,0.5,0.4,0.4,0.7
				l-1.4,5C11,11.8,10.8,12,10.6,12z"/>
			<path class="st5" d="M13.4,11.2c-0.1,0-0.3-0.1-0.4-0.2c-0.2-0.2-0.2-0.6,0-0.8l1.4-1.4l-1.4-1.4c-0.2-0.2-0.2-0.6,0-0.8
				s0.6-0.2,0.8,0l1.8,1.8c0.2,0.2,0.2,0.6,0,0.8l-1.8,1.8C13.7,11.2,13.6,11.2,13.4,11.2z"/>
			<path class="st5" d="M22.1,6.9h-4.3c-0.3,0-0.5-0.2-0.5-0.5c0-0.3,0.2-0.5,0.5-0.5h4.3c0.3,0,0.5,0.2,0.5,0.5
				C22.7,6.7,22.4,6.9,22.1,6.9z"/>
			<path class="st5" d="M24.7,8.9h-6.9c-0.3,0-0.5-0.2-0.5-0.5c0-0.3,0.2-0.5,0.5-0.5h6.9c0.3,0,0.5,0.2,0.5,0.5
				C25.2,8.7,25,8.9,24.7,8.9z"/>
			<path class="st5" d="M24.7,10.9h-6.9c-0.3,0-0.5-0.2-0.5-0.5c0-0.3,0.2-0.5,0.5-0.5h6.9c0.3,0,0.5,0.2,0.5,0.5
				C25.2,10.7,25,10.9,24.7,10.9z"/>
		</g>
		<g>
			<path class="st6" d="M31.5,31.7H0.5c-0.3,0-0.5-0.2-0.5-0.5v-4.2c0-0.3,0.2-0.5,0.5-0.5h10.1l0.6,2.1c0.1,0.2,0.3,0.4,0.5,0.4
				h8.4c0.2,0,0.5-0.2,0.5-0.4l0.6-2.1h10.1c0.3,0,0.5,0.2,0.5,0.5v4.2C32,31.5,31.8,31.7,31.5,31.7z"/>
			<path class="st7" d="M10,26.4h0.6l0.6,2.1c0.1,0.2,0.3,0.4,0.5,0.4h8.4c0.2,0,0.5-0.2,0.5-0.4l0.6-2.1H22c0,0.1,0,0.1,0,0.2
				l-0.6,2.1c-0.1,0.5-0.6,0.8-1.1,0.8h-8.4c-0.5,0-1-0.3-1.1-0.8l-0.6-2.1C10,26.5,10,26.4,10,26.4z"/>
			<path class="st8" d="M10.6,26.4h10.7l-0.6,2.1c-0.1,0.2-0.3,0.4-0.5,0.4h-8.4c-0.2,0-0.5-0.2-0.5-0.4L10.6,26.4z"/>
		</g>
		<g>
			<path class="st9" d="M17.2,25.3h-2.4c-0.3,0-0.6-0.2-0.6-0.5l-0.4-2.2l-2.1,0.7c-0.3,0.1-0.6,0-0.8-0.3l-1.2-2.1
				c-0.2-0.3-0.1-0.6,0.1-0.8l1.7-1.4l-1.7-1.4c-0.2-0.2-0.3-0.5-0.1-0.8l1.2-2.1c0.2-0.3,0.5-0.4,0.8-0.3l2.1,0.7l0.4-2.2
				c0.1-0.3,0.3-0.5,0.6-0.5h2.4c0.3,0,0.6,0.2,0.6,0.5l0.4,2.2l2.1-0.7c0.3-0.1,0.6,0,0.8,0.3l1.2,2.1c0.2,0.3,0.1,0.6-0.1,0.8
				l-1.7,1.4l1.7,1.4c0.2,0.2,0.3,0.5,0.1,0.8L21.1,23c-0.2,0.3-0.5,0.4-0.8,0.3l-2.1-0.7l-0.4,2.2C17.8,25.1,17.5,25.3,17.2,25.3z"
				/>
			<g>
				<path class="st10" d="M16,21.6c-1.6,0-3-1.3-3-3c0-1.6,1.3-3,3-3s3,1.3,3,3C19,20.3,17.6,21.6,16,21.6z"/>
				<path class="st11" d="M16,21c-1.3,0-2.3-1-2.3-2.3c0-1.3,1-2.3,2.3-2.3c1.3,0,2.3,1,2.3,2.3C18.3,19.9,17.3,21,16,21z"/>
			</g>
		</g>
	</g>
</g>
</svg>
