<?xml version="1.0" encoding="utf-8"?>
<!-- Generator: Adobe Illustrator 26.5.0, SVG Export Plug-In . SVG Version: 6.00 Build 0)  -->
<svg version="1.1" id="Layer_1" xmlns="http://www.w3.org/2000/svg" xmlns:xlink="http://www.w3.org/1999/xlink" x="0px" y="0px"
	 width="32px" height="32px" viewBox="0 0 32 32" style="enable-background:new 0 0 32 32;" xml:space="preserve">
<style type="text/css">
	.st0{fill:#00325A;}
	.st1{fill:#F0C8A0;}
	.st2{fill:#F0F0F0;}
	.st3{fill:#D2AA82;}
	.st4{fill:#FAB400;}
	.st5{fill:#0A5078;}
	.st6{fill:#C80A50;}
	.st7{fill:#DC9600;}
	.st8{fill:#00A0C8;}
</style>
<g id="Icons">
	<g>
		<g>
			<g>
				<g>
					<path class="st0" d="M5.8,22.9H1.2c-0.6,0-1.1,0.5-1.1,1.1v6.9c0,0.6,0.5,1.1,1.1,1.1h4.6c0.6,0,1.1-0.5,1.1-1.1V24
						C6.9,23.4,6.4,22.9,5.8,22.9z"/>
				</g>
				<g>
					<path class="st1" d="M26.9,22.3c-0.5,0-0.9,0.2-1.2,0.5l-4.6,4.6h-2.1c0.9,0,1.7-0.8,1.7-1.7S19.9,24,18.9,24h-2.9l-0.9-0.9
						c-0.9-0.9-2-1.3-3.2-1.3h-0.8c-1.2,0-2.4,0.5-3.2,1.3L6.9,24v6.9h14.9c0.5,0,0.9-0.2,1.2-0.5l5.1-5.1c0.3-0.3,0.5-0.7,0.5-1.2
						C28.7,23.1,27.9,22.3,26.9,22.3L26.9,22.3z"/>
				</g>
				<g>
					<circle class="st2" cx="3.5" cy="29.1" r="1.1"/>
				</g>
			</g>
			<g>
				<path class="st3" d="M14.1,27.4c-0.2,0-0.3,0.1-0.3,0.3s0.1,0.3,0.3,0.3h4.9c0.6,0,1.1-0.2,1.5-0.6H14.1z"/>
			</g>
		</g>
		<g>
			<g>
				<path class="st4" d="M24.1,8c0-4.5-3.8-8.2-8.4-8c-3.9,0.2-7.2,3.3-7.6,7.3c-0.3,3.1,1.2,5.8,3.5,7.4c0.6,0.4,1,1.1,1,1.9v0.6
					h6.9v-0.6c0-0.8,0.4-1.5,1-1.9C22.7,13.2,24.1,10.8,24.1,8L24.1,8z"/>
			</g>
			<g>
				<circle class="st5" cx="16.1" cy="20.6" r="1.7"/>
			</g>
			<g>
				<path class="st6" d="M19.5,17.1h-6.9v2.3c0,0.6,0.5,1.1,1.1,1.1h4.6c0.6,0,1.1-0.5,1.1-1.1V17.1z"/>
			</g>
		</g>
		<g>
			<g>
				<path class="st7" d="M20.5,12.2c0.2-0.2,0.2-0.6,0-0.8l-0.2-0.2c-0.2-0.2-0.2-0.4-0.1-0.7c0.1-0.1,0.1-0.3,0.2-0.4
					c0.1-0.2,0.3-0.4,0.5-0.4h0.3c0.3,0,0.6-0.3,0.6-0.6V8c0-0.3-0.3-0.6-0.6-0.6h-0.3c-0.3,0-0.5-0.2-0.5-0.4
					c0-0.1-0.1-0.3-0.2-0.4c-0.1-0.2-0.1-0.5,0.1-0.7l0.2-0.2c0.2-0.2,0.2-0.6,0-0.8l-0.8-0.8c-0.2-0.2-0.6-0.2-0.8,0l-0.2,0.2
					c-0.2,0.2-0.4,0.2-0.7,0.1c-0.1-0.1-0.3-0.1-0.4-0.2c-0.2-0.1-0.4-0.3-0.4-0.5V3.4c0-0.3-0.3-0.6-0.6-0.6h-1.1
					c-0.3,0-0.6,0.3-0.6,0.6v0.3c0,0.3-0.2,0.5-0.4,0.5c-0.1,0-0.3,0.1-0.4,0.2c-0.2,0.1-0.5,0.1-0.7-0.1l-0.2-0.2
					c-0.2-0.2-0.6-0.2-0.8,0l-0.8,0.8c-0.2,0.2-0.2,0.6,0,0.8L11.9,6C12,6.1,12.1,6.4,12,6.6c-0.1,0.1-0.1,0.3-0.2,0.4
					c-0.1,0.2-0.3,0.4-0.5,0.4h-0.3c-0.3,0-0.6,0.3-0.6,0.6v1.1c0,0.3,0.3,0.6,0.6,0.6h0.3c0.3,0,0.5,0.2,0.5,0.4
					c0,0.1,0.1,0.3,0.2,0.4c0.1,0.2,0.1,0.5-0.1,0.7l-0.2,0.2c-0.2,0.2-0.2,0.6,0,0.8l0.8,0.8c0.2,0.2,0.6,0.2,0.8,0l0.2-0.2
					c0.2-0.2,0.4-0.2,0.7-0.1c0.1,0.1,0.3,0.1,0.4,0.2c0.2,0.1,0.4,0.3,0.4,0.5v0.3c0,0.3,0.3,0.6,0.6,0.6h1.1
					c0.3,0,0.6-0.3,0.6-0.6v-0.3c0-0.3,0.2-0.5,0.4-0.5c0.1,0,0.3-0.1,0.4-0.2c0.2-0.1,0.5-0.1,0.7,0.1l0.2,0.2
					c0.2,0.2,0.6,0.2,0.8,0L20.5,12.2z M16.1,10.9c-1.3,0-2.3-1-2.3-2.3s1-2.3,2.3-2.3s2.3,1,2.3,2.3S17.3,10.9,16.1,10.9z"/>
			</g>
			<g>
				<path class="st7" d="M24.1,7.9l-0.4,0.2c-0.3,0.1-0.4,0.5-0.3,0.7l0.1,0.3c0.1,0.2,0,0.5-0.2,0.7c-0.1,0.1-0.2,0.2-0.3,0.3
					c-0.2,0.2-0.4,0.3-0.7,0.2l-0.3-0.1c-0.3-0.1-0.6,0-0.7,0.3l-0.4,1.1c-0.1,0.3,0,0.6,0.3,0.7l0.3,0.1c0.2,0.1,0.4,0.3,0.4,0.6
					c0,0.1,0,0.3,0,0.4c0,0.1,0,0.2,0,0.3C23.2,12.2,24.1,10.2,24.1,7.9C24.1,8,24.1,7.9,24.1,7.9z"/>
			</g>
			<g>
				<path class="st7" d="M10.4,13.4c0-0.1,0-0.3,0-0.4c0-0.3,0.1-0.5,0.3-0.6l0.3-0.1c0.3-0.1,0.4-0.5,0.3-0.7l-0.4-1.1
					c-0.1-0.3-0.5-0.4-0.7-0.3l-0.3,0.1c-0.2,0.1-0.5,0-0.7-0.2C9.1,10,9,9.9,8.9,9.8C8.7,9.6,8.6,9.3,8.7,9.1l0.1-0.3
					c0.1-0.3,0-0.6-0.3-0.7L8.1,7.9c0,2.2,0.9,4.3,2.3,5.7C10.4,13.5,10.4,13.5,10.4,13.4L10.4,13.4z"/>
			</g>
		</g>
		<g>
			<path class="st5" d="M10.9,6.9h0.3c0.3,0,0.5-0.2,0.5-0.4c0-0.1,0.1-0.3,0.2-0.4c0.1-0.2,0.1-0.5-0.1-0.7l-0.2-0.2
				c-0.2-0.2-0.2-0.6,0-0.8l0.8-0.8c0.2-0.2,0.6-0.2,0.8,0l0.2,0.2c0.2,0.2,0.4,0.2,0.7,0.1c0.1-0.1,0.3-0.1,0.4-0.2
				c0.2-0.1,0.4-0.3,0.4-0.5V2.9c0-0.3,0.3-0.6,0.6-0.6h1.1c0.3,0,0.6,0.3,0.6,0.6v0.3c0,0.3,0.2,0.5,0.4,0.5c0.1,0,0.3,0.1,0.4,0.2
				c0.2,0.1,0.5,0.1,0.7-0.1l0.2-0.2c0.2-0.2,0.6-0.2,0.8,0l0.8,0.8c0.2,0.2,0.2,0.6,0,0.8l-0.2,0.2c-0.2,0.2-0.2,0.4-0.1,0.7
				c0.1,0.1,0.1,0.3,0.2,0.4c0.1,0.2,0.3,0.4,0.5,0.4h0.3c0.3,0,0.6,0.3,0.6,0.6v1.1c0,0.3-0.3,0.6-0.6,0.6h-0.3
				c-0.3,0-0.5,0.2-0.5,0.4c0,0.1-0.1,0.3-0.2,0.4c-0.1,0.2-0.1,0.5,0.1,0.7l0.2,0.2c0.2,0.2,0.2,0.6,0,0.8l-0.8,0.8
				c-0.2,0.2-0.6,0.2-0.8,0l-0.2-0.2c-0.2-0.2-0.4-0.2-0.7-0.1c-0.1,0.1-0.3,0.1-0.4,0.2c-0.2,0.1-0.4,0.3-0.4,0.5v0.3
				c0,0.3-0.3,0.6-0.6,0.6h-1.1c-0.3,0-0.6-0.3-0.6-0.6v-0.3c0-0.3-0.2-0.5-0.4-0.5c-0.1,0-0.3-0.1-0.4-0.2
				c-0.2-0.1-0.5-0.1-0.7,0.1l-0.2,0.2c-0.2,0.2-0.6,0.2-0.8,0l-0.8-0.8c-0.2-0.2-0.2-0.6,0-0.8l0.2-0.2c0.2-0.2,0.2-0.4,0.1-0.7
				c-0.1-0.1-0.1-0.3-0.2-0.4c-0.1-0.2-0.3-0.4-0.5-0.4h-0.3c-0.3,0-0.6-0.3-0.6-0.6V7.4C10.4,7.1,10.6,6.9,10.9,6.9z M16.1,10.3
				c1.3,0,2.3-1,2.3-2.3s-1-2.3-2.3-2.3s-2.3,1-2.3,2.3S14.8,10.3,16.1,10.3z"/>
		</g>
		<g>
			<path class="st6" d="M1.5,9.5l0.3,0.1c0.2,0.1,0.5,0,0.7-0.2c0.1-0.1,0.2-0.2,0.3-0.3C2.9,9,3,8.8,2.9,8.5L2.8,8.3
				C2.7,8,2.8,7.6,3.1,7.5l1.1-0.4c0.3-0.1,0.6,0,0.7,0.3L5,7.7C5.1,7.9,5.3,8,5.6,8C5.7,8,5.9,8,6,8c0.3,0,0.5-0.1,0.6-0.3l0.1-0.3
				C6.8,7.1,7.2,7,7.5,7.1l1.1,0.4C8.8,7.6,8.9,8,8.8,8.3L8.7,8.5C8.6,8.8,8.7,9,8.9,9.2C9,9.3,9.1,9.4,9.2,9.5
				c0.2,0.2,0.4,0.3,0.7,0.2l0.3-0.1c0.3-0.1,0.6,0,0.7,0.3l0.4,1.1c0.1,0.3,0,0.6-0.3,0.7l-0.3,0.1c-0.2,0.1-0.4,0.3-0.4,0.6
				c0,0.1,0,0.3,0,0.4c0,0.3,0.1,0.5,0.3,0.6l0.3,0.1c0.3,0.1,0.4,0.5,0.3,0.7l-0.4,1.1c-0.1,0.3-0.5,0.4-0.7,0.3l-0.3-0.1
				c-0.2-0.1-0.5,0-0.7,0.2C9.1,15.8,9,15.9,8.9,16c-0.2,0.2-0.3,0.4-0.2,0.7l0.1,0.3c0.1,0.3,0,0.6-0.3,0.7l-1.1,0.4
				c-0.3,0.1-0.6,0-0.7-0.3l-0.1-0.3c-0.1-0.2-0.3-0.4-0.6-0.4c-0.1,0-0.3,0-0.4,0c-0.3,0-0.5,0.1-0.6,0.3l-0.1,0.3
				c-0.1,0.3-0.5,0.4-0.7,0.3l-1.1-0.4c-0.3-0.1-0.4-0.5-0.3-0.7l0.1-0.3c0.1-0.2,0-0.5-0.2-0.7c-0.1-0.1-0.2-0.2-0.3-0.3
				c-0.2-0.2-0.4-0.3-0.7-0.2l-0.3,0.1c-0.3,0.1-0.6,0-0.7-0.3l-0.4-1.1c-0.1-0.3,0-0.6,0.3-0.7l0.3-0.1c0.2-0.1,0.4-0.3,0.4-0.6
				c0-0.1,0-0.3,0-0.4c0-0.3-0.1-0.5-0.4-0.6l-0.3-0.1c-0.3-0.1-0.4-0.5-0.3-0.7l0.4-1.1C0.9,9.6,1.2,9.4,1.5,9.5L1.5,9.5z
				 M4.9,14.7c1.2,0.5,2.5-0.1,3-1.2s-0.1-2.5-1.2-3s-2.5,0.1-3,1.2C3.2,12.9,3.8,14.2,4.9,14.7L4.9,14.7z"/>
		</g>
		<g>
			<path class="st8" d="M22.1,9.5l0.3,0.1c0.2,0.1,0.5,0,0.7-0.2c0.1-0.1,0.2-0.2,0.3-0.3c0.2-0.2,0.3-0.4,0.2-0.7l-0.1-0.3
				c-0.1-0.3,0-0.6,0.3-0.7l1.1-0.4c0.3-0.1,0.6,0,0.7,0.3l0.1,0.3C25.7,7.9,25.9,8,26.2,8c0.1,0,0.3,0,0.4,0c0.3,0,0.5-0.1,0.6-0.3
				l0.1-0.3C27.4,7.1,27.7,7,28,7.1l1.1,0.4c0.3,0.1,0.4,0.5,0.3,0.7l-0.1,0.3c-0.1,0.2,0,0.5,0.2,0.7c0.1,0.1,0.2,0.2,0.3,0.3
				c0.2,0.2,0.4,0.3,0.7,0.2l0.3-0.1c0.3-0.1,0.6,0,0.7,0.3l0.4,1.1c0.1,0.3,0,0.6-0.3,0.7l-0.3,0.1c-0.2,0.1-0.4,0.3-0.4,0.6
				c0,0.1,0,0.3,0,0.4c0,0.3,0.1,0.5,0.3,0.6l0.3,0.1c0.3,0.1,0.4,0.5,0.3,0.7l-0.4,1.1c-0.1,0.3-0.5,0.4-0.7,0.3l-0.3-0.1
				c-0.2-0.1-0.5,0-0.7,0.2c-0.1,0.1-0.2,0.2-0.3,0.3c-0.2,0.2-0.3,0.4-0.2,0.7l0.1,0.3c0.1,0.3,0,0.6-0.3,0.7L28,18.1
				c-0.3,0.1-0.6,0-0.7-0.3l-0.1-0.3c-0.1-0.2-0.3-0.4-0.6-0.4c-0.1,0-0.3,0-0.4,0c-0.3,0-0.5,0.1-0.6,0.3l-0.1,0.3
				c-0.1,0.3-0.5,0.4-0.7,0.3l-1.1-0.4c-0.3-0.1-0.4-0.5-0.3-0.7l0.1-0.3c0.1-0.2,0-0.5-0.2-0.7c-0.1-0.1-0.2-0.2-0.3-0.3
				c-0.2-0.2-0.4-0.3-0.7-0.2l-0.3,0.1c-0.3,0.1-0.6,0-0.7-0.3l-0.4-1.1c-0.1-0.3,0-0.6,0.3-0.7l0.3-0.1c0.2-0.1,0.4-0.3,0.4-0.6
				c0-0.1,0-0.3,0-0.4c0-0.3-0.1-0.5-0.3-0.6l-0.3-0.1c-0.3-0.1-0.4-0.5-0.3-0.7l0.4-1.1C21.4,9.6,21.8,9.4,22.1,9.5L22.1,9.5z
				 M25.5,14.7c1.2,0.5,2.5-0.1,3-1.2s-0.1-2.5-1.2-3s-2.5,0.1-3,1.2C23.8,12.9,24.3,14.2,25.5,14.7L25.5,14.7z"/>
		</g>
	</g>
</g>
</svg>
