<?xml version="1.0" encoding="utf-8"?>
<!-- Generator: Adobe Illustrator 26.5.0, SVG Export Plug-In . SVG Version: 6.00 Build 0)  -->
<svg version="1.1" id="Capa_1" xmlns="http://www.w3.org/2000/svg" xmlns:xlink="http://www.w3.org/1999/xlink" x="0px" y="0px"
	 width="45px" height="45px" viewBox="0 0 45 45" style="enable-background:new 0 0 45 45;" xml:space="preserve">
<style type="text/css">
	.st0{fill:#4DCFE0;}
	.st1{fill:#D4E1F4;}
</style>
<path class="st0" d="M42.65,29.28c-0.55-2.08-2.08-4.36-4.22-6.72c2.15-2.35,3.67-4.71,4.22-6.72c0.42-1.73,0.28-3.25-0.42-4.5l0,0
	c-1.8-3.12-6.37-3.53-11.77-2.42C28.8,3.67,26.17,0,22.5,0c-3.32,0-6.16,3.39-7.96,8.86c-0.62-0.14-1.25-0.28-1.87-0.35
	c-4.92-0.69-8.45,0.28-9.83,2.77c-0.69,1.25-0.83,2.77-0.42,4.5c0.55,2.08,2.08,4.36,4.22,6.72c-2.15,2.35-3.67,4.71-4.22,6.72
	c-0.48,1.73-0.35,3.32,0.35,4.57c1.18,1.94,3.53,2.91,6.92,2.91c0.9,0,1.87-0.07,2.98-0.28c0.62-0.07,1.25-0.21,1.87-0.35
	C16.27,41.61,19.18,45,22.5,45c3.67,0,6.3-3.67,7.96-8.86c1.73,0.42,3.39,0.62,4.92,0.62c3.12,0,5.61-0.9,6.85-2.98l0,0
	C42.93,32.54,43.07,30.95,42.65,29.28z M35.38,11.28c2.15,0,3.67,0.55,4.29,1.52c0.28,0.55,0.35,1.32,0.07,2.22
	c-0.42,1.45-1.52,3.32-3.39,5.47c-1.25-1.18-2.7-2.28-4.22-3.39c-0.21-1.8-0.48-3.6-0.83-5.26C32.82,11.42,34.2,11.28,35.38,11.28z
	 M25.97,28.38c-1.18,0.62-2.35,1.25-3.46,1.8c-1.18-0.55-2.28-1.18-3.46-1.8c-1.18-0.62-2.22-1.32-3.32-2.08
	c-0.07-1.25-0.14-2.56-0.14-3.88c0-1.32,0.07-2.63,0.14-3.88c1.04-0.69,2.08-1.32,3.32-2.08c1.18-0.62,2.28-1.25,3.46-1.8
	c1.18,0.55,2.28,1.18,3.46,1.8c1.18,0.62,2.22,1.32,3.32,2.08c0.07,1.25,0.14,2.56,0.14,3.88s-0.07,2.63-0.14,3.88
	C28.25,27.07,27.14,27.76,25.97,28.38z M28.8,30.18c-0.14,0.83-0.28,1.52-0.42,2.28c-0.76-0.28-1.52-0.48-2.22-0.83
	c0.42-0.28,0.9-0.48,1.32-0.76C27.9,30.74,28.32,30.46,28.8,30.18z M18.9,31.78c-0.76,0.28-1.52,0.55-2.22,0.76
	c-0.14-0.76-0.28-1.52-0.42-2.28c0.42,0.28,0.9,0.55,1.32,0.83C18,31.29,18.49,31.5,18.9,31.78z M12.6,24.09
	c-0.62-0.55-1.25-1.04-1.87-1.52c0.55-0.48,1.18-1.04,1.87-1.52c0,0.48,0,1.04,0,1.52C12.6,23.05,12.6,23.61,12.6,24.09z
	 M16.2,14.82c0.14-0.83,0.28-1.52,0.42-2.28c0.76,0.21,1.45,0.48,2.22,0.76c-0.42,0.28-0.9,0.48-1.32,0.76
	C17.1,14.26,16.69,14.61,16.2,14.82z M26.1,13.29c0.76-0.28,1.52-0.55,2.22-0.83c0.14,0.76,0.28,1.52,0.42,2.28
	c-0.42-0.28-0.9-0.55-1.32-0.83C27,13.78,26.52,13.57,26.1,13.29z M32.33,20.98c0.62,0.55,1.25,1.04,1.87,1.52
	c-0.55,0.48-1.18,1.04-1.87,1.52c0-0.55,0.07-1.04,0.07-1.52S32.4,21.46,32.33,20.98z M17.93,8.24c1.32-3.32,2.98-5.26,4.57-5.26
	c1.59,0,3.25,1.94,4.57,5.19c0.21,0.42,0.35,0.97,0.55,1.45c-1.66,0.48-3.32,1.18-5.05,1.87c-1.73-0.76-3.46-1.38-5.12-1.87
	C17.59,9.14,17.73,8.72,17.93,8.24z M5.4,12.81c0.55-0.97,2.08-1.52,4.22-1.52c1.18,0,2.63,0.14,4.15,0.48
	c-0.35,1.66-0.62,3.39-0.83,5.26c-1.52,1.11-2.98,2.22-4.22,3.39c-1.87-2.08-2.98-3.95-3.39-5.47C4.99,14.05,5.06,13.36,5.4,12.81z
	 M5.4,32.26c-0.28-0.55-0.35-1.32-0.07-2.22c0.42-1.45,1.52-3.32,3.39-5.47c1.25,1.18,2.7,2.28,4.22,3.39
	c0.21,1.87,0.42,3.6,0.83,5.26C9.42,34.13,6.3,33.78,5.4,32.26z M27.07,36.83c-1.32,3.25-2.98,5.19-4.57,5.19
	c-1.59,0-3.25-1.94-4.57-5.26c-0.21-0.42-0.35-0.97-0.48-1.45c1.66-0.48,3.32-1.18,5.12-1.87c1.73,0.76,3.39,1.38,5.05,1.87
	C27.42,35.93,27.28,36.35,27.07,36.83z M39.6,32.26c-0.9,1.52-4.02,1.94-8.38,1.04c0.42-1.73,0.62-3.46,0.83-5.26
	c1.52-1.11,2.98-2.22,4.22-3.39c1.87,2.08,2.98,3.95,3.39,5.47C39.95,30.95,39.95,31.71,39.6,32.26z"/>
<path class="st1" d="M22.5,18c-2.49,0-4.5,2.01-4.5,4.5s2.01,4.5,4.5,4.5s4.5-2.01,4.5-4.5S25,18,22.5,18z"/>
</svg>
