<?xml version="1.0" encoding="utf-8"?>
<!-- Generator: Adobe Illustrator 26.5.0, SVG Export Plug-In . SVG Version: 6.00 Build 0)  -->
<svg version="1.1" id="Layer_1" xmlns="http://www.w3.org/2000/svg" xmlns:xlink="http://www.w3.org/1999/xlink" x="0px" y="0px"
	 width="45px" height="45px" viewBox="0 0 45 45" style="enable-background:new 0 0 45 45;" xml:space="preserve">
<style type="text/css">
	.st0{fill:#563D7C;}
	.st1{fill:#FFFFFF;}
</style>
<path class="st0" d="M0,39.2C0,42.4,2.6,45,5.8,45h33.4c3.2,0,5.8-2.6,5.8-5.8V5.8C45,2.6,42.4,0,39.2,0H5.8C2.6,0,0,2.6,0,5.8V39.2
	L0,39.2z"/>
<path class="st1" d="M18.7,19.9v-6.4h5.6c0.5,0,1,0,1.5,0.1c0.5,0.1,0.9,0.2,1.3,0.5c0.4,0.2,0.7,0.5,0.9,1c0.2,0.4,0.3,0.9,0.3,1.6
	c0,1.1-0.3,2-1,2.5c-0.7,0.5-1.6,0.8-2.6,0.8L18.7,19.9L18.7,19.9z M12.7,8.9v27.2h13.2c1.2,0,2.4-0.2,3.6-0.5
	c1.2-0.3,2.2-0.8,3.1-1.4c0.9-0.6,1.6-1.5,2.2-2.5c0.5-1,0.8-2.2,0.8-3.6c0-1.7-0.4-3.2-1.2-4.4c-0.8-1.2-2.1-2.1-3.8-2.5
	c1.2-0.6,2.1-1.3,2.8-2.3c0.6-0.9,0.9-2.1,0.9-3.4c0-1.3-0.2-2.3-0.6-3.2c-0.4-0.9-1-1.6-1.8-2.1C31,9.8,30.1,9.4,29,9.2
	C28,9,26.8,8.9,25.5,8.9L12.7,8.9L12.7,8.9z M18.7,31.5V24h6.5c1.3,0,2.3,0.3,3.1,0.9c0.8,0.6,1.2,1.6,1.2,3c0,0.7-0.1,1.3-0.4,1.8
	c-0.2,0.5-0.6,0.8-1,1.1c-0.4,0.3-0.9,0.5-1.4,0.6c-0.5,0.1-1.1,0.2-1.7,0.2H18.7L18.7,31.5z"/>
</svg>
