<?xml version="1.0" encoding="utf-8"?>
<!-- Generator: Adobe Illustrator 26.5.0, SVG Export Plug-In . SVG Version: 6.00 Build 0)  -->
<svg version="1.1" id="Layer_1" xmlns="http://www.w3.org/2000/svg" xmlns:xlink="http://www.w3.org/1999/xlink" x="0px" y="0px"
	 width="64px" height="64px" viewBox="0 0 64 64" style="enable-background:new 0 0 64 64;" xml:space="preserve">
<style type="text/css">
	.st0{fill:#0089D6;}
</style>
<path class="st0" d="M29.6,56.4c8.3-1.7,15-3.1,15.1-3.1h0.1L37,42.7c-4.2-5.8-7.8-10.7-7.8-10.7s8-25.5,8.1-25.6
	c0,0,5.5,10.8,13.2,26.3l13.3,26.5l0.1,0.2H39.4H14.6L29.6,56.4z"/>
<path class="st0" d="M-0.1,53.2c0,0,3.6-7.3,8.2-16.3l8.2-16.3l9.5-9.2c5.2-5,9.5-9.2,9.6-9.2c0,0.2-0.1,0.3-0.2,0.4L24.8,28.2
	L14.6,53.2H7.3C3.3,53.3-0.1,53.2-0.1,53.2z"/>
</svg>
