<?xml version="1.0" encoding="utf-8"?>
<!-- Generator: Adobe Illustrator 26.5.0, SVG Export Plug-In . SVG Version: 6.00 Build 0)  -->
<svg version="1.1" id="Layer_1" xmlns="http://www.w3.org/2000/svg" xmlns:xlink="http://www.w3.org/1999/xlink" x="0px" y="0px"
	 width="64px" height="64px" viewBox="0 0 64 64" style="enable-background:new 0 0 64 64;" xml:space="preserve">
<style type="text/css">
	.st0{fill:#EA4335;}
	.st1{fill:#4285F4;}
	.st2{fill:#34A853;}
	.st3{fill:#FBBC05;}
</style>
<g>
	<path class="st0" d="M42.6,20.4l5.6-5.6l0.4-2.3c-10.1-9.2-26.3-8.2-35.4,2.2c-2.5,2.9-4.4,6.5-5.4,10.2l2-0.3l11.1-1.8l0.9-0.9
		c5-5.4,13.3-6.2,19-1.5L42.6,20.4z"/>
	<path class="st1" d="M56.1,24.7c-1.3-4.7-3.9-8.9-7.6-12.2l-7.8,7.8c3.3,2.7,5.2,6.8,5.1,11v1.4c3.8,0,7,3.1,7,7s-3.1,6.9-7,6.9
		H31.9L30.5,48v8.3l1.4,1.3h13.9c10,0.1,18.1-7.9,18.2-17.9C64.1,33.7,61.1,28,56.1,24.7"/>
	<path class="st2" d="M18,57.6h13.9V46.5H18c-1,0-1.9-0.2-2.9-0.6l-2,0.6L7.5,52l-0.5,1.9C10.2,56.3,14,57.6,18,57.6"/>
	<path class="st3" d="M18,21.5c-10,0.1-18,8.2-18,18.2c0,5.6,2.6,10.8,7.1,14.2l8.1-8.1c-3.5-1.6-5.1-5.7-3.5-9.2
		c1.6-3.5,5.7-5.1,9.2-3.5c1.5,0.7,2.8,1.9,3.5,3.5l8.1-8.1C28.9,24.1,23.6,21.5,18,21.5"/>
</g>
</svg>
