<?xml version="1.0" encoding="utf-8"?>
<!-- Generator: Adobe Illustrator 26.5.0, SVG Export Plug-In . SVG Version: 6.00 Build 0)  -->
<svg version="1.1" id="Layer_1" xmlns="http://www.w3.org/2000/svg" xmlns:xlink="http://www.w3.org/1999/xlink" x="0px" y="0px"
	 width="64px" height="64px" viewBox="0 0 64 64" style="enable-background:new 0 0 64 64;" xml:space="preserve">
<style type="text/css">
	.st0{fill:#252F3E;}
	.st1{fill-rule:evenodd;clip-rule:evenodd;fill:#FF9900;}
</style>
<g>
	<path class="st0" d="M18,26.8c0,0.8,0.1,1.4,0.2,1.9c0.2,0.5,0.4,1,0.7,1.6c0.1,0.2,0.2,0.3,0.2,0.5c0,0.2-0.1,0.4-0.4,0.6
		l-1.4,0.9c-0.2,0.1-0.4,0.2-0.6,0.2c-0.2,0-0.4-0.1-0.6-0.3c-0.3-0.3-0.6-0.7-0.8-1c-0.2-0.4-0.4-0.8-0.7-1.3c-1.7,2-3.7,3-6.3,3
		c-1.8,0-3.3-0.5-4.2-1.6c-1.1-1-1.6-2.4-1.6-4.1c0-1.8,0.6-3.3,2-4.4c1.4-1,3.1-1.5,5.3-1.5c0.7,0,1.5,0.1,2.3,0.2s1.6,0.3,2.5,0.5
		v-1.6c0-1.6-0.3-2.8-1-3.4c-0.7-0.7-1.9-1-3.4-1c-0.8,0-1.5,0.1-2.3,0.3c-0.8,0.2-1.6,0.4-2.3,0.7C5.3,17,5,17,4.8,17.1
		c-0.2,0-0.3,0.1-0.3,0.1C4.2,17.2,4,17,4,16.5v-1.1c0-0.3,0-0.6,0.2-0.8c0.1-0.2,0.3-0.3,0.6-0.5c0.8-0.4,1.7-0.7,2.7-1
		c1.1-0.3,2.2-0.4,3.3-0.4c2.6,0,4.4,0.6,5.6,1.8s1.8,2.9,1.8,5.2L18,26.8L18,26.8z M9.3,30c0.7,0,1.4-0.1,2.2-0.4
		c0.8-0.3,1.5-0.7,2.1-1.4c0.3-0.4,0.6-0.9,0.7-1.4s0.2-1.1,0.2-1.9v-0.9c-0.6-0.2-1.3-0.3-2-0.4c-0.7-0.1-1.4-0.1-2-0.1
		c-1.4,0-2.5,0.3-3.2,0.9c-0.7,0.6-1.1,1.4-1.1,2.5c0,1,0.3,1.8,0.8,2.3C7.7,29.7,8.4,30,9.3,30z M26.5,32.3c-0.4,0-0.6-0.1-0.8-0.2
		c-0.2-0.1-0.3-0.4-0.5-0.8l-5-16.6c-0.1-0.4-0.2-0.7-0.2-0.9c0-0.3,0.2-0.5,0.5-0.5h2.2c0.4,0,0.7,0.1,0.8,0.2
		c0.2,0.1,0.3,0.4,0.4,0.8l3.6,14.2l3.3-14.1c0.1-0.4,0.2-0.7,0.4-0.8c0.2-0.1,0.5-0.2,0.9-0.2h1.7c0.4,0,0.7,0.1,0.9,0.2
		s0.3,0.4,0.4,0.8l3.3,14.3L42,14.5c0.1-0.4,0.3-0.7,0.4-0.8c0.2-0.1,0.5-0.2,0.8-0.2h2c0.3,0,0.5,0.2,0.5,0.5c0,0.1,0,0.2,0,0.3
		c0,0.1-0.1,0.3-0.2,0.5l-5.1,16.5c-0.1,0.4-0.3,0.7-0.5,0.8c-0.2,0.1-0.5,0.2-0.8,0.2h-1.7c-0.4,0-0.7-0.1-0.9-0.2
		c-0.2-0.2-0.3-0.4-0.4-0.9l-3.3-13.7l-3.3,13.8c-0.1,0.4-0.2,0.7-0.4,0.9c-0.2,0.2-0.5,0.2-0.9,0.2C28.3,32.3,26.5,32.3,26.5,32.3z
		 M53.9,32.9c-1.1,0-2.2-0.1-3.3-0.4c-1.1-0.3-1.9-0.5-2.5-0.9c-0.3-0.2-0.6-0.4-0.7-0.6c-0.1-0.2-0.1-0.4-0.1-0.6v-1.1
		c0-0.5,0.2-0.7,0.5-0.7c0.1,0,0.3,0,0.4,0.1c0.1,0,0.3,0.1,0.5,0.2c0.7,0.3,1.5,0.6,2.4,0.8c0.9,0.2,1.7,0.3,2.6,0.3
		c1.4,0,2.4-0.2,3.2-0.7c0.7-0.5,1.1-1.2,1.1-2.1c0-0.6-0.2-1.1-0.6-1.5c-0.4-0.4-1.2-0.8-2.2-1.2l-3.1-1c-1.6-0.5-2.7-1.2-3.4-2.2
		c-0.7-1-1.1-2-1.1-3.1c0-0.9,0.2-1.7,0.6-2.4c0.4-0.7,0.9-1.3,1.6-1.8c0.6-0.5,1.4-0.9,2.2-1.1c0.9-0.3,1.8-0.4,2.7-0.4
		c0.5,0,1,0,1.4,0.1c0.5,0.1,1,0.2,1.4,0.2c0.4,0.1,0.8,0.2,1.2,0.3c0.4,0.1,0.7,0.3,0.9,0.4c0.3,0.2,0.5,0.3,0.6,0.5
		c0.1,0.2,0.2,0.4,0.2,0.7v1c0,0.5-0.2,0.7-0.5,0.7c-0.2,0-0.5-0.1-0.8-0.3c-1.2-0.6-2.6-0.8-4.1-0.8c-1.2,0-2.2,0.2-2.9,0.6
		c-0.7,0.4-1,1-1,1.9c0,0.6,0.2,1.1,0.6,1.5s1.2,0.8,2.4,1.2l3.1,1c1.6,0.5,2.7,1.2,3.3,2.1c0.7,0.9,1,1.9,1,3
		c0,0.9-0.2,1.8-0.6,2.5c-0.4,0.7-0.9,1.4-1.6,1.9c-0.7,0.5-1.5,0.9-2.4,1.2C55.9,32.7,55,32.9,53.9,32.9z"/>
	<g>
		<path class="st1" d="M57.9,43.2c-7,5.2-17.1,7.9-25.9,7.9c-12.3,0-23.3-4.5-31.7-12c-0.7-0.6-0.1-1.4,0.7-1
			c9.1,5.2,20.2,8.4,31.7,8.4c7.8,0,16.4-1.6,24.1-4.9C58,41.1,59,42.3,57.9,43.2z"/>
		<path class="st1" d="M60.8,39.9c-0.9-1.2-5.9-0.6-8.2-0.3c-0.7,0.1-0.8-0.5-0.2-1c4-2.9,10.5-2,11.3-1.1c0.8,1-0.2,7.6-3.9,10.7
			c-0.6,0.5-1.1,0.2-0.9-0.4C59.8,45.8,61.7,41.1,60.8,39.9z"/>
	</g>
</g>
</svg>
