<?xml version="1.0" encoding="utf-8"?>
<!-- Generator: Adobe Illustrator 26.5.0, SVG Export Plug-In . SVG Version: 6.00 Build 0)  -->
<svg version="1.1" id="Layer_1" xmlns="http://www.w3.org/2000/svg" xmlns:xlink="http://www.w3.org/1999/xlink" x="0px" y="0px"
	 width="70px" height="70px" viewBox="0 0 70 70" style="enable-background:new 0 0 70 70;" xml:space="preserve">
<g id="Report-Papers-Business-Graph-Financial">
	<path d="M52.2,5c-0.2-0.2-0.5-0.3-0.8-0.3H18.7c-2.7,0-5,1.8-5.6,4.4l2.3,0.6C15.7,8.1,17.1,7,18.7,7h31.5v5.8
		c0,1.9,1.6,3.5,3.5,3.5h5.8v47.8c0,1.9-1.6,3.5-3.5,3.5H18.7c-1.9,0-3.5-1.6-3.5-3.5V37.3h-2.3v26.8c0,3.2,2.6,5.8,5.8,5.8H56
		c3.2,0,5.8-2.6,5.8-5.8v-49c0-0.3-0.1-0.6-0.3-0.8L52.2,5z M52.5,12.8V8.6l5.4,5.4h-4.2C53,14,52.5,13.5,52.5,12.8z"/>
	<path d="M60.7,0H23.3c-1.4,0-2.8,0.5-3.9,1.5L21,3.2c0.6-0.6,1.5-0.9,2.3-0.9h37.3c1.9,0,3.5,1.6,3.5,3.5v53.7
		c0,0.9-0.3,1.7-0.9,2.3l1.7,1.5c0.9-1.1,1.5-2.4,1.5-3.9V5.8C66.5,2.6,63.9,0,60.7,0L60.7,0z"/>
	<path d="M16.3,30.3v-1.2c1.9,0,3.5-1.6,3.5-3.5s-1.6-3.5-3.5-3.5H14c-0.6,0-1.2-0.5-1.2-1.2s0.5-1.2,1.2-1.2h2.3
		c0.6,0,1.2,0.5,1.2,1.2h2.3c0-1.9-1.6-3.5-3.5-3.5v-1.2H14v1.2c-1.9,0-3.5,1.6-3.5,3.5s1.6,3.5,3.5,3.5h2.3c0.6,0,1.2,0.5,1.2,1.2
		c0,0.6-0.5,1.2-1.2,1.2H14c-0.6,0-1.2-0.5-1.2-1.2h-2.3c0,1.9,1.6,3.5,3.5,3.5v1.2H16.3z"/>
	<path d="M26.8,23.3c0-6.4-5.2-11.7-11.7-11.7S3.5,16.9,3.5,23.3S8.7,35,15.2,35C21.6,35,26.8,29.8,26.8,23.3z M5.8,23.3
		c0-5.2,4.2-9.3,9.3-9.3s9.3,4.2,9.3,9.3s-4.2,9.3-9.3,9.3C10,32.7,5.8,28.5,5.8,23.3z"/>
	<path d="M30.3,16.3h14v2.3h-14V16.3z"/>
	<path d="M30.3,11.7h2.3V14h-2.3V11.7z"/>
	<path d="M35,11.7h9.3V14H35V11.7z"/>
	<path d="M25.7,33.8c-0.6,0-1.2,0.5-1.2,1.2v5.8h-2.3v2.3h30.3v-2.3h-2.3V25.7c0-0.6-0.5-1.2-1.2-1.2h-4.7c-0.6,0-1.2,0.5-1.2,1.2
		v15.2h-2.3V30.3c0-0.6-0.5-1.2-1.2-1.2H35c-0.6,0-1.2,0.5-1.2,1.2v10.5h-2.3V35c0-0.6-0.5-1.2-1.2-1.2H25.7z M45.5,26.8h2.3v14
		h-2.3V26.8z M36.2,31.5h2.3v9.3h-2.3V31.5z M26.8,40.8v-4.7h2.3v4.7H26.8z"/>
	<path d="M23.3,47.8c-0.6,0-1.2,0.5-1.2,1.2v11.7c0,0.6,0.5,1.2,1.2,1.2H35c0.6,0,1.2-0.5,1.2-1.2V49c0-0.6-0.5-1.2-1.2-1.2H23.3z
		 M33.8,59.5h-9.3v-9.3h9.3V59.5z"/>
	<path d="M40.8,47.8h14v2.3h-14V47.8z"/>
	<path d="M40.8,57.2h14v2.3h-14V57.2z"/>
	<path d="M40.8,52.5h14v2.3h-14V52.5z"/>
</g>
</svg>
