<svg width="40" height="41" viewBox="0 0 40 41" fill="none" xmlns="http://www.w3.org/2000/svg">
									<path d="M38.625 20.3677C38.625 10.0977 30.2687 1.74268 20 1.74268C16.3975 1.74268 12.8963 2.77768 9.875 4.73643C9.35375 5.07393 9.20625 5.77143 9.54375 6.29268C9.88125 6.81393 10.5775 6.96143 11.1 6.62393C12.4313 5.76018 13.87 5.10143 15.3725 4.65893C13.9788 6.62643 12.8875 9.48518 12.2462 12.9439C11.875 12.8914 11.5025 12.8552 11.13 12.7952C10.5138 12.6914 9.93875 13.1114 9.83875 13.7252C9.73875 14.3389 10.155 14.9164 10.7688 15.0164C11.1487 15.0789 11.5312 15.1252 11.9125 15.1789C11.7125 16.8164 11.6 18.5502 11.6 20.3677C11.6 22.1827 11.7125 23.9139 11.9113 25.5489C9.58625 25.8839 7.2975 26.3852 5.04375 27.0064C4.13875 24.9752 3.625 22.7327 3.625 20.3677C3.625 19.2027 3.7425 18.0577 3.975 16.9639C4.105 16.3564 3.71625 15.7589 3.10875 15.6302C2.5 15.5014 1.9025 15.8889 1.77375 16.4964C1.51 17.7427 1.375 19.0452 1.375 20.3677C1.375 30.6377 9.73 38.9927 20 38.9927C20.1237 38.9927 20.2525 38.9852 20.3837 38.9727C30.475 38.7664 38.625 30.5077 38.625 20.3677ZM33.865 11.6977C31.8512 12.2327 29.8025 12.6502 27.7288 12.9464C27.0813 9.50142 25.9912 6.63143 24.6 4.66268C28.4813 5.80018 31.76 8.34143 33.865 11.6977ZM20 3.99268C22.1262 3.99268 24.42 7.51892 25.505 13.2202C21.875 13.5864 18.1887 13.5989 14.5025 13.2302C15.595 7.56768 17.8825 3.99268 20 3.99268ZM6.14 29.0477C8.14625 28.5152 10.1787 28.0714 12.2425 27.7752C12.8812 31.2339 13.97 34.0927 15.3625 36.0639C11.5012 34.9202 8.24 32.3877 6.14 29.0477ZM24.6287 36.0664C25.0637 35.4427 25.495 34.7002 25.91 33.8027C26.17 33.2389 25.925 32.5702 25.3612 32.3102C24.7912 32.0489 24.1287 32.2964 23.8675 32.8589C22.7262 35.3264 21.3162 36.7427 20 36.7427C17.885 36.7427 15.6 33.1764 14.5075 27.5277C16.2662 27.3502 18.0337 27.2252 19.8162 27.2177C20.4375 27.2152 20.9387 26.7102 20.9363 26.0889C20.9338 25.4689 20.4312 24.9689 19.8112 24.9689C19.81 24.9689 19.8087 24.9689 19.8075 24.9689C17.9075 24.9764 16.0237 25.1114 14.15 25.3052C13.96 23.7689 13.85 22.1177 13.85 20.3677C13.85 18.6252 13.9587 16.9827 14.1488 15.4527C16.1025 15.6539 18.06 15.7677 20 15.7677C21.9613 15.7677 23.9112 15.6639 25.8462 15.4639C26.0075 16.7839 26.1137 18.1852 26.1375 19.6727C26.1475 20.2939 26.6475 20.7964 27.28 20.7802C27.9012 20.7702 28.3975 20.2589 28.3862 19.6377C28.3612 18.0889 28.2487 16.6077 28.0737 15.1927C30.4037 14.8577 32.7025 14.3689 34.9625 13.7452C35.8638 15.7727 36.375 18.0102 36.375 20.3689C36.375 22.7252 35.865 24.9627 34.9637 26.9889C34.6287 26.8977 34.285 26.8064 33.9275 26.7164C33.3237 26.5614 32.7125 26.9264 32.56 27.5289C32.4062 28.1314 32.7712 28.7439 33.3725 28.8964C33.545 28.9402 33.705 28.9839 33.8713 29.0277C31.7712 32.3802 28.5025 34.9214 24.6287 36.0664Z" fill="black" />
									<path d="M5.10625 13.8453C7.16375 13.8453 8.8375 12.1715 8.8375 10.114C8.8375 8.05653 7.16375 6.38403 5.10625 6.38403C3.04875 6.38403 1.375 8.05653 1.375 10.114C1.375 12.1715 3.04875 13.8453 5.10625 13.8453ZM5.10625 8.63278C5.9225 8.63278 6.5875 9.29778 6.5875 10.114C6.5875 10.9303 5.9225 11.5953 5.10625 11.5953C4.29 11.5953 3.625 10.9315 3.625 10.114C3.625 9.29653 4.29 8.63278 5.10625 8.63278Z" fill="black" />
									<path d="M26.7738 22.884C24.7163 22.884 23.0425 24.5578 23.0425 26.6153C23.0425 28.6728 24.7175 30.3465 26.7738 30.3465C28.83 30.3465 30.505 28.6728 30.505 26.6153C30.505 24.5578 28.83 22.884 26.7738 22.884ZM26.7738 28.0965C25.9575 28.0965 25.2925 27.4315 25.2925 26.6153C25.2925 25.799 25.9563 25.134 26.7738 25.134C27.5913 25.134 28.255 25.799 28.255 26.6153C28.255 27.4315 27.59 28.0965 26.7738 28.0965Z" fill="black" />
								</svg>