<svg width="40" height="41" viewBox="0 0 40 41" fill="none" xmlns="http://www.w3.org/2000/svg">
									<g clip-path="url(#clip0_91_47)">
										<path d="M20.7812 32.1262C20.7812 32.5577 20.4315 32.9075 20 32.9075C19.5685 32.9075 19.2188 32.5577 19.2188 32.1262C19.2188 31.6947 19.5685 31.345 20 31.345C20.4315 31.345 20.7812 31.6947 20.7812 32.1262Z" fill="black" />
										<path d="M37.4219 25.095C37.4219 22.5101 35.3192 20.4075 32.7344 20.4075C30.1495 20.4075 28.0469 22.5101 28.0469 25.095C28.0469 27.6798 30.1495 29.7825 32.7344 29.7825C35.3192 29.7825 37.4219 27.6798 37.4219 25.095ZM32.7344 28.22C31.0114 28.22 29.6094 26.818 29.6094 25.095C29.6094 23.3719 31.0114 21.97 32.7344 21.97C34.4574 21.97 35.8594 23.3719 35.8594 25.095C35.8594 26.818 34.4574 28.22 32.7344 28.22Z" fill="black" />
										<path d="M32.7344 29.7825C30.7657 29.7825 28.8025 30.5997 27.4652 31.9248C25.705 29.6116 22.9907 28.22 20 28.22C17.1359 28.22 14.3607 29.5267 12.5351 31.9248C11.1975 30.6 9.23462 29.7825 7.26562 29.7825C3.32733 29.7825 0 33.0024 0 36.8137V38.3762C0 38.8077 0.349731 39.1575 0.78125 39.1575H39.2188C39.6503 39.1575 40 38.8077 40 38.3762V36.8137C40 33.0024 36.6727 29.7825 32.7344 29.7825ZM1.5625 36.8137C1.5625 33.8492 4.17419 31.345 7.26562 31.345C8.95721 31.345 10.6348 32.0945 11.6733 33.2859C10.9866 34.6122 10.625 36.0905 10.625 37.595H1.5625V36.8137ZM20 29.7825C24.3472 29.7825 27.8125 33.3097 27.8125 37.595H12.1875C12.1875 33.2526 15.7236 29.7825 20 29.7825ZM38.4375 37.595H29.375C29.375 36.0905 29.0134 34.6122 28.3267 33.2859C29.3652 32.0945 31.0428 31.345 32.7344 31.345C35.8258 31.345 38.4375 33.8492 38.4375 36.8137V37.595Z" fill="black" />
										<path d="M11.9531 25.095C11.9531 22.5101 9.85046 20.4075 7.26562 20.4075C4.68079 20.4075 2.57812 22.5101 2.57812 25.095C2.57812 27.6798 4.68079 29.7825 7.26562 29.7825C9.85046 29.7825 11.9531 27.6798 11.9531 25.095ZM7.26562 28.22C5.5426 28.22 4.14062 26.818 4.14062 25.095C4.14062 23.3719 5.5426 21.97 7.26562 21.97C8.98865 21.97 10.3906 23.3719 10.3906 25.095C10.3906 26.818 8.98865 28.22 7.26562 28.22Z" fill="black" />
										<path d="M26.25 21.97C26.25 18.5236 23.4464 15.72 20 15.72C16.5536 15.72 13.75 18.5236 13.75 21.97C13.75 25.4163 16.5536 28.22 20 28.22C23.4464 28.22 26.25 25.4163 26.25 21.97ZM20 26.6575C17.4152 26.6575 15.3125 24.5548 15.3125 21.97C15.3125 19.3851 17.4152 17.2825 20 17.2825C22.5848 17.2825 24.6875 19.3851 24.6875 21.97C24.6875 24.5548 22.5848 26.6575 20 26.6575Z" fill="black" />
										<path d="M26.1828 6.20123C26.091 5.91833 25.8465 5.71234 25.552 5.66962L22.1823 5.18042L20.6735 2.0957C20.5426 1.82745 20.2704 1.65747 19.9719 1.65747C19.6734 1.65747 19.4012 1.82745 19.27 2.0954L17.7615 5.18042L14.3918 5.66931C14.0973 5.71204 13.8528 5.91833 13.761 6.20123C13.6691 6.48413 13.7457 6.79449 13.9587 7.00201L16.3989 9.38025L15.823 12.7387C15.7727 13.0317 15.8932 13.328 16.134 13.5026C16.3733 13.6765 16.6919 13.7012 16.9568 13.5621L19.9719 11.9767L22.9883 13.5621C23.2513 13.7006 23.5702 13.6774 23.811 13.5026C24.0515 13.3277 24.172 13.0317 24.1217 12.7384L23.5452 9.38025L25.9851 7.00201C26.1981 6.79449 26.2747 6.48413 26.1828 6.20123ZM22.16 8.54803C21.976 8.72748 21.8918 8.98627 21.9354 9.23956L22.3135 11.4426L20.3354 10.4026C20.1077 10.283 19.8358 10.283 19.6081 10.4026L17.6306 11.4426L18.0084 9.23956C18.0517 8.98596 17.9675 8.72748 17.7835 8.54803L16.1831 6.98828L18.3941 6.66724C18.6499 6.63031 18.8705 6.46918 18.9837 6.23724L19.9719 4.21698L20.9598 6.23724C21.0733 6.46948 21.2939 6.63031 21.5494 6.66724L23.7607 6.98828L22.16 8.54803Z" fill="black" />
										<path d="M37.8601 12.0566C37.7682 11.7737 37.5238 11.5677 37.2293 11.525L34.9463 11.1933L33.9255 9.12421C33.7939 8.85748 33.5226 8.68872 33.2251 8.68872C33.2251 8.68872 33.2251 8.68872 33.2248 8.68872C32.9275 8.68872 32.6559 8.85748 32.5244 9.12421L31.503 11.1933L29.2196 11.525C28.9255 11.5677 28.681 11.7737 28.5892 12.0566C28.497 12.3395 28.5736 12.6499 28.7866 12.8574L30.4385 14.4684L30.0485 16.742C29.9985 17.035 30.1187 17.331 30.3595 17.5059C30.6 17.6807 30.9189 17.7039 31.1819 17.5657L33.2248 16.4924L35.267 17.5657C35.5301 17.7039 35.8493 17.6807 36.0898 17.5059C36.3302 17.3313 36.4505 17.035 36.4004 16.742L36.0104 14.4684L37.6626 12.8574C37.8757 12.6499 37.9519 12.3395 37.8601 12.0566ZM34.6258 13.6365C34.4415 13.816 34.3576 14.0745 34.4012 14.3278L34.5929 15.4459L33.5885 14.9183C33.3609 14.7986 33.089 14.7986 32.8616 14.9183L31.8564 15.4462L32.0483 14.3278C32.0917 14.0745 32.0077 13.816 31.8237 13.6365L31.0107 12.8437L32.1341 12.6807C32.3886 12.6438 32.6086 12.4839 32.7225 12.2535L33.2248 11.2357L33.7268 12.2532C33.8406 12.4839 34.0607 12.6438 34.3152 12.6807L35.4385 12.8437L34.6258 13.6365Z" fill="black" />
										<path d="M11.2976 12.0566C11.2057 11.7737 10.9613 11.5677 10.6668 11.525L8.38377 11.1933L7.36296 9.12421C7.23143 8.85748 6.96013 8.68872 6.66258 8.68872C6.36503 8.68872 6.09343 8.85748 5.9619 9.12421L4.94047 11.1933L2.65715 11.525C2.36296 11.5677 2.11851 11.7737 2.02665 12.0566C1.93449 12.3395 2.01109 12.6499 2.2241 12.8574L3.87602 14.4684L3.48631 16.742C3.43596 17.035 3.5565 17.331 3.79698 17.5059C4.03746 17.6807 4.35637 17.7039 4.61973 17.5657L6.66227 16.4924L8.70451 17.5657C8.9694 17.7048 9.28801 17.6798 9.52726 17.5059C9.76774 17.3313 9.88829 17.035 9.83793 16.742L9.44792 14.4684L11.1001 12.8574C11.3132 12.6499 11.3894 12.3395 11.2976 12.0566ZM8.06303 13.6365C7.87901 13.816 7.79509 14.0745 7.83842 14.3278L8.03038 15.4459L7.02574 14.9183C6.79838 14.7986 6.52647 14.7986 6.29912 14.9183L5.29356 15.4462L5.48552 14.3278C5.52916 14.0745 5.44493 13.816 5.26091 13.6365L4.44792 12.8437L5.57158 12.6807C5.82579 12.6438 6.04582 12.4839 6.15965 12.2535L6.66197 11.2357L7.16398 12.2532C7.27781 12.4839 7.49785 12.6438 7.75236 12.6807L8.87571 12.8437L8.06303 13.6365Z" fill="black" />
										<path d="M23.4235 32.368C23.0628 32.1309 22.5785 32.2313 22.3416 32.592C22.1045 32.9524 22.2049 33.4367 22.5656 33.6739C23.288 34.1484 23.8654 34.81 24.2353 35.587C24.4202 35.9761 24.8859 36.1424 25.2762 35.9566C25.6659 35.7713 25.8313 35.305 25.6461 34.9156C25.1535 33.8805 24.3848 32.9994 23.4235 32.368Z" fill="black" />
									</g>
									<defs>
										<clipPath id="clip0_91_47">
											<rect width="40" height="40" fill="white" transform="translate(0 0.407471)" />
										</clipPath>
									</defs>
								</svg>