<svg id="Capa_1" enable-background="new 0 0 512 512" height="41" viewBox="0 0 512 512" width="41" xmlns="http://www.w3.org/2000/svg">
									<path d="m91.988 104.805c-12.359-.421-11.666 15.27-23.633 20.673-6.611 2.984-14.385.042-17.37-6.565-2.986-6.607.318-13.679 6.564-17.371 11.37-6.724 26.926-4.147 34.439 3.263zm-35.38-4.874c7.232-.538 11.862-6.824 12.119-14.072.468-13.205-9.233-25.635-19.336-28.686 6.281 10.65-7.832 17.546-6.854 30.639.54 7.232 6.839 12.658 14.071 12.119zm-16.543 40.174c-5.292 4.96-6.979 12.579-2.63 18.382 4.346 5.807 12.578 6.983 18.381 2.634 10.508-7.877 6.426-23.043 18.578-25.314-8.943-5.605-24.684-4.74-34.329 4.298zm-1.268-1.367c6.944-2.101 10.095-9.238 8.771-16.372-2.411-12.988-14.582-23.013-25.108-23.796 8.445 9.031-3.829 18.827-.033 31.396 2.103 6.94 9.43 10.869 16.37 8.772zm23.877 34.41c-9.498-4.59-25.058-2.011-33.648 8.022-4.716 5.512-5.564 13.271-.606 18.563 4.956 5.296 13.266 5.568 18.561.608 9.583-8.98 3.863-23.606 15.693-27.193zm-52.289-.123c2.848 6.671 10.559 9.772 17.229 6.929 6.676-2.847 9.031-10.284 6.927-17.229-3.817-12.65-17.012-21.285-27.557-20.913 9.384 8.051-1.75 19.132 3.401 31.213zm-2.72 44.654c3.554 6.321 11.562 8.563 17.884 5.004 6.317-3.555 7.844-11.21 4.999-17.883-5.176-12.158-19.236-19.294-29.68-17.772 10.203 6.982.355 19.209 6.797 30.651zm26.023 48.096c-2.66 6.748-.931 14.358 5.486 17.741 6.42 3.387 14.356.93 17.743-5.484 6.123-11.612-4.059-23.572 5.951-30.828-10.47-1.238-24.334 6.279-29.18 18.571zm-20.279-1.619c4.861 5.382 13.172 5.793 18.551.923 5.377-4.866 5.168-12.664.918-18.546-.771-1.065-1.635-2.047-2.543-2.978 5.39 3.22 12.466 2.204 16.687-2.723 8.544-9.975 1.259-23.886 12.63-28.745-9.944-3.528-25.124.737-32.571 11.65-3.619 5.307-4.018 12.03-.243 16.777-8.14-5.993-19.14-7.717-26.837-4.749 11.496 4.554 4.597 18.66 13.408 28.391zm59.728 48.273c3.334-12.701-9.289-22.039-1.186-31.374-10.487 1.168-22.28 11.632-24.22 24.701-1.062 7.176 2.352 14.196 9.367 16.04 7.013 1.84 14.196-2.35 16.039-9.367zm-45.523-3.652c5.961 4.136 14.144 2.658 18.28-3.303s2.162-13.511-3.311-18.274c-9.958-8.678-25.726-8.967-34.456-3.04 12.231 1.827 8.7 17.131 19.487 24.617zm41.251 33.543c.773 7.21 5.835 13.158 13.086 13.176 7.254.031 13.152-5.83 13.179-13.078.048-13.133-14.519-19.015-9.01-30.079-9.86 3.76-18.658 16.848-17.255 29.981zm-18.715 7.973c6.804 2.504 14.351-.977 16.862-7.783 2.512-6.808-1.294-13.624-7.776-16.864-11.822-5.904-27.159-2.228-34.125 5.702 12.295-1.304 12.716 14.401 25.039 18.945zm42.368 26.296c2.509-6.807-1.287-13.621-7.777-16.864-11.822-5.898-27.154-2.229-34.119 5.698 12.293-1.297 12.719 14.4 25.037 18.945 6.799 2.507 14.353-.975 16.859-7.779zm52.132 34.502c6.989-1.954 11.072-9.198 9.119-16.182-3.531-12.648-19.146-14.335-16.859-26.486-8.465 6.305-13.363 21.294-8.434 33.55 2.707 6.731 9.194 11.068 16.174 9.118zm-17.911-8.431c.566-7.227-4.946-12.76-12.073-14.105-.528-.102-1.063-.158-1.598-.226 4.451-2.09 7.55-6.591 7.57-11.837.046-13.13-14.517-19.009-9.015-30.076-9.856 3.76-18.652 16.848-17.255 29.981.613 5.717 3.929 10.627 8.893 12.433-8.871 1.979-16.671 7.778-19.875 14.502 11.472-4.604 16.157 10.392 29.248 11.41 7.231.558 13.552-4.852 14.105-12.082zm38.86 19.379c4.396 5.771 11.8 8.241 18.02 4.507 6.217-3.732 8.235-11.797 4.502-18.013-6.759-11.264-22.261-8.756-23.272-21.078-6.495 8.32-7.251 24.072.75 34.584zm-1.494 1.124c-1.37-7.122-8.149-10.985-15.377-10.4-13.17 1.066-24.392 12.144-26.25 22.53 9.849-7.475 18.336 5.744 31.229 3.256 7.118-1.378 11.777-8.267 10.398-15.386zm24.086 5.558c-13.17 1.068-24.393 12.147-26.248 22.534 9.847-7.47 18.334 5.738 31.229 3.257 7.119-1.379 11.776-8.268 10.402-15.387-1.376-7.123-8.158-10.986-15.383-10.404zm231.822-323.916c12.357-.421 11.666 15.27 23.633 20.673 6.609 2.984 14.385.042 17.369-6.565 2.986-6.607-.318-13.679-6.566-17.371-11.369-6.724-26.924-4.147-34.436 3.263zm49.45-16.993c.98-13.093-13.135-19.987-6.854-30.639-10.104 3.051-19.805 15.48-19.336 28.686.256 7.248 4.887 13.534 12.119 14.072 7.233.539 13.532-4.887 14.071-12.119zm-31.858 47.993c12.154 2.271 8.07 17.438 18.58 25.314 5.801 4.351 14.033 3.173 18.379-2.634 4.352-5.803 2.664-13.422-2.629-18.382-9.644-9.036-25.386-9.901-34.33-4.298zm51.969-5.838c3.795-12.569-8.479-22.365-.035-31.396-10.523.782-22.695 10.809-25.107 23.796-1.322 7.134 1.826 14.271 8.771 16.372 6.939 2.096 14.267-1.833 16.371-8.772zm-24.551 70.374c5.293 4.96 13.602 4.688 18.559-.608 4.957-5.292 4.109-13.051-.605-18.563-8.594-10.033-24.15-12.612-33.65-8.022 11.829 3.587 6.108 18.213 15.696 27.193zm39.992-58.529c-10.543-.372-23.738 8.264-27.555 20.912-2.105 6.944.25 14.383 6.928 17.229 6.67 2.845 14.381-.258 17.227-6.929 5.152-12.08-5.982-23.161 3.4-31.212zm6.118 45.215c-10.443-1.521-24.506 5.614-29.68 17.772-2.846 6.673-1.318 14.328 4.998 17.883 6.322 3.56 14.33 1.317 17.885-5.004 6.441-11.441-3.407-23.668 6.797-30.651zm-62.002 60.175c10.012 7.256-.172 19.216 5.951 30.828 3.387 6.414 11.324 8.871 17.744 5.484 6.416-3.383 8.148-10.993 5.488-17.741-4.849-12.29-18.713-19.807-29.183-18.571zm62.869-11.433c-7.695-2.968-18.695-1.244-26.836 4.749 3.775-4.747 3.375-11.472-.244-16.777-7.447-10.913-22.627-15.18-32.57-11.65 11.371 4.859 4.086 18.771 12.629 28.745 4.223 4.927 11.299 5.941 16.688 2.723-.908.931-1.771 1.911-2.543 2.978-4.248 5.882-4.459 13.68.92 18.547 5.377 4.869 13.688 4.459 18.551-.924 8.807-9.735 1.907-23.841 13.405-28.391zm-57.1 86.027c7.018-1.844 10.428-8.864 9.367-16.04-1.939-13.069-13.732-23.533-24.219-24.701 8.104 9.335-4.521 18.673-1.188 31.374 1.847 7.017 9.03 11.207 16.04 9.367zm48.971-37.637c-8.729-5.927-24.496-5.638-34.455 3.04-5.473 4.765-7.445 12.313-3.309 18.274 4.135 5.961 12.318 7.438 18.279 3.303 10.786-7.485 7.256-22.789 19.485-24.617zm-77.99 28.179c5.508 11.064-9.057 16.946-9.01 30.079.027 7.247 5.924 13.109 13.178 13.078 7.252-.018 12.314-5.966 13.088-13.176 1.4-13.132-7.397-26.22-17.256-29.981zm61.009 19.01c-6.967-7.93-22.303-11.606-34.125-5.702-6.484 3.24-10.289 10.058-7.777 16.864 2.514 6.808 10.061 10.287 16.863 7.783 12.321-4.544 12.744-20.249 25.039-18.945zm-50.546 53.02c12.318-4.545 12.744-20.242 25.035-18.945-6.963-7.928-22.295-11.598-34.119-5.698-6.488 3.243-10.285 10.059-7.775 16.864 2.503 6.804 10.056 10.286 16.859 7.779zm-52.819 17.605c4.93-12.256.029-27.245-8.436-33.55 2.285 12.151-13.328 13.838-16.857 26.486-1.955 6.982 2.129 14.228 9.117 16.182 6.981 1.95 13.469-2.387 16.176-9.118zm15.84 12.769c13.092-1.02 17.777-16.014 29.248-11.41-3.205-6.724-11.004-12.521-19.875-14.502 4.963-1.806 8.279-6.716 8.893-12.433 1.398-13.135-7.398-26.223-17.256-29.981 5.504 11.067-9.059 16.946-9.012 30.076.02 5.246 3.119 9.747 7.568 11.837-.533.066-1.066.124-1.6.226-7.127 1.347-12.639 6.88-12.07 14.105.553 7.23 6.875 12.64 14.104 12.082zm-52.211-27.287c-1.014 12.322-16.516 9.814-23.273 21.078-3.732 6.216-1.715 14.279 4.502 18.013 6.219 3.734 13.625 1.264 18.02-4.507 8.001-10.512 7.243-26.264.751-34.584zm11.139 51.094c12.893 2.488 21.381-10.729 31.229-3.256-1.859-10.388-13.08-21.464-26.248-22.53-7.229-.585-14.008 3.278-15.377 10.4-1.38 7.119 3.277 14.008 10.396 15.386zm-49.866.576c-1.375 7.119 3.281 14.008 10.402 15.387 12.893 2.481 21.381-10.727 31.229-3.257-1.857-10.387-13.08-21.466-26.25-22.534-7.224-.582-14.007 3.281-15.381 10.404zm64.075-335.535h-48.627l-16.217 119.906h-3.455l-23.766-119.906h-48.704l-23.676 119.906h-3.502l-16.176-119.906h-48.883l19.068 119.906h-19.068v28.488h23.601l2.598 16.34h-26.197v28.487h30.729l6.327 39.782h50.464l7.891-39.782h42.498l7.92 39.782h50.467l6.268-39.782h30.443v-28.487h-25.953l2.572-16.34h23.381v-28.487h-18.891zm-116.388 86.303 6.691 33.604h-13.356zm15.616 78.431h-31.17l3.238-16.34h24.68z" />
								</svg>