<svg width="64" height="64" viewBox="0 0 64 64" fill="none" xmlns="http://www.w3.org/2000/svg">
<circle cx="32.106" cy="32.0801" r="30.7231" fill="white" stroke="#E8DBDB"/>
<g clip-path="url(#clip0_1932_260)">
<circle cx="32.1099" cy="30.646" r="30.7231" fill="white" stroke="#E8DBDB"/>
<g clip-path="url(#clip1_1932_260)">
<path d="M45.4131 19.7863H34.9131V19.0863C34.9131 18.6996 34.5998 18.3862 34.2131 18.3862H30.0131C29.6266 18.3862 29.313 18.6996 29.313 19.0863V19.7863H18.8133C18.4267 19.7863 18.1133 20.0997 18.1133 20.4863V34.4863C18.1133 34.8729 18.4267 35.1863 18.8133 35.1863H29.3133V42.8863C29.3133 43.273 29.6266 43.5863 30.0133 43.5863H34.2133C34.5998 43.5863 34.9134 43.273 34.9134 42.8863V35.1863H45.4133C45.8 35.1863 46.1133 34.8729 46.1133 34.4863V20.4863C46.1131 20.0997 45.7997 19.7863 45.4131 19.7863ZM26.5133 27.4863C26.5133 27.873 26.1999 28.1863 25.8133 28.1863H25.5458L26.4392 29.9733C26.6122 30.3189 26.4721 30.7396 26.1262 30.9124C25.7804 31.0854 25.36 30.9453 25.1869 30.5994L23.9804 28.1863H23.7132V30.2865C23.7132 30.6729 23.3998 30.9863 23.0131 30.9863C22.6265 30.9863 22.3131 30.6729 22.3131 30.2865V24.6864C22.3131 24.2997 22.6265 23.9863 23.0131 23.9863H25.8131C26.1997 23.9863 26.5131 24.2997 26.5131 24.6864V27.4863H26.5133ZM30.7131 26.7863C31.0998 26.7863 31.4132 27.0997 31.4132 27.4863C31.4132 27.873 31.0998 28.1863 30.7131 28.1863H29.3133V29.5864H30.7131C31.0998 29.5864 31.4132 29.8998 31.4132 30.2865C31.4132 30.6729 31.0998 30.9863 30.7131 30.9863H28.6132C28.2266 30.9863 27.9132 30.6729 27.9132 30.2865V24.6864C27.9132 24.2997 28.2266 23.9863 28.6132 23.9863H30.7131C31.0998 23.9863 31.4132 24.2997 31.4132 24.6864C31.4132 25.073 31.0998 25.3864 30.7131 25.3864H29.3133V26.7863H30.7131ZM36.6631 30.2862C36.6631 30.611 36.4401 30.8929 36.1242 30.9677C36.0714 30.9801 36.0174 30.9863 35.9631 30.9863C35.698 30.9863 35.4555 30.8365 35.337 30.5994L33.8632 27.6517V30.2862C33.8632 30.6729 33.5498 30.9863 33.1632 30.9863C32.7765 30.9863 32.4631 30.6729 32.4631 30.2862V24.6864C32.4631 24.2997 32.7763 23.9863 33.1629 23.9861C33.4283 23.9861 33.6705 24.1359 33.7893 24.3732L35.2631 27.3208V24.6862C35.2631 24.2995 35.5764 23.9861 35.9631 23.9861C36.3498 23.9861 36.6631 24.2995 36.6631 24.6862V30.2862ZM41.2133 25.3862H40.5132V30.2862C40.5132 30.6729 40.1999 30.9863 39.8132 30.9863C39.4265 30.9863 39.1132 30.6729 39.1132 30.2862V25.3862H38.4131C38.0265 25.3862 37.7131 25.0728 37.7131 24.6862C37.7131 24.2995 38.0265 23.9861 38.4131 23.9861H41.2131C41.5997 23.9861 41.9131 24.2995 41.9131 24.6862C41.9131 25.0728 41.5997 25.3862 41.2133 25.3862Z" fill="#227E13"/>
<path d="M23.7148 25.3862H25.1149V26.7863H23.7148V25.3862Z" fill="#227E13"/>
</g>
</g>
<defs>
<clipPath id="clip0_1932_260">
<rect width="28" height="28" fill="white" transform="translate(18.1133 14.4473)"/>
</clipPath>
<clipPath id="clip1_1932_260">
<rect width="28" height="25.4829" fill="white" transform="translate(18.1133 16.9644)"/>
</clipPath>
</defs>
</svg>
