<svg width="63" height="64" viewBox="0 0 63 64" fill="none" xmlns="http://www.w3.org/2000/svg">
<circle cx="31.5044" cy="32.0493" r="30.7231" fill="white" stroke="#E8DBDB"/>
<path fill-rule="evenodd" clip-rule="evenodd" d="M20.5078 23.0493C20.5078 22.7841 20.6132 22.5297 20.8007 22.3422C20.9882 22.1547 21.2426 22.0493 21.5078 22.0493H32.5078C32.773 22.0493 33.0274 22.1547 33.2149 22.3422C33.4025 22.5297 33.5078 22.7841 33.5078 23.0493V28.0493H37.5078C38.1644 28.0493 38.8146 28.1786 39.4212 28.4299C40.0279 28.6812 40.5791 29.0495 41.0433 29.5138C41.5076 29.9781 41.8759 30.5293 42.1272 31.1359C42.3785 31.7425 42.5078 32.3927 42.5078 33.0493V37.0493C42.5081 37.6931 42.3012 38.3199 41.9178 38.8371C41.5345 39.3543 40.9949 39.7344 40.3788 39.9213C40.1954 40.5263 39.8256 41.0579 39.3221 41.4402C38.8186 41.8225 38.2072 42.036 37.5752 42.0502C36.9432 42.0644 36.3228 41.8786 35.8027 41.5193C35.2825 41.1599 34.8892 40.6455 34.6788 40.0493H28.3378C28.1274 40.6455 27.7341 41.1599 27.214 41.5193C26.6938 41.8786 26.0735 42.0644 25.4414 42.0502C24.8094 42.036 24.198 41.8225 23.6945 41.4402C23.1911 41.0579 22.8212 40.5263 22.6378 39.9213C22.0216 39.7346 21.4818 39.3545 21.0982 38.8373C20.7146 38.3201 20.5076 37.6932 20.5078 37.0493V33.0493H26.5078C26.773 33.0493 27.0274 32.944 27.2149 32.7564C27.4025 32.5689 27.5078 32.3145 27.5078 32.0493C27.5078 31.7841 27.4025 31.5297 27.2149 31.3422C27.0274 31.1547 26.773 31.0493 26.5078 31.0493H20.5078V29.0493H24.5078C24.773 29.0493 25.0274 28.944 25.2149 28.7564C25.4025 28.5689 25.5078 28.3145 25.5078 28.0493C25.5078 27.7841 25.4025 27.5297 25.2149 27.3422C25.0274 27.1547 24.773 27.0493 24.5078 27.0493H20.5078V23.0493ZM33.5078 38.0493H34.6788C34.8765 37.4898 35.2357 37.0014 35.711 36.646C36.1863 36.2907 36.7563 36.0843 37.3489 36.0529C37.9415 36.0215 38.5301 36.1666 39.0403 36.4698C39.5504 36.7731 39.9592 37.2208 40.2148 37.7563C40.4024 37.5688 40.5078 37.3145 40.5078 37.0493V33.0493C40.5078 32.2537 40.1917 31.4906 39.6291 30.928C39.0665 30.3654 38.3035 30.0493 37.5078 30.0493H33.5078V38.0493ZM26.5078 39.0493C26.5078 38.7841 26.4025 38.5297 26.2149 38.3422C26.0274 38.1547 25.773 38.0493 25.5078 38.0493C25.2426 38.0493 24.9882 38.1547 24.8007 38.3422C24.6132 38.5297 24.5078 38.7841 24.5078 39.0493C24.5078 39.3145 24.6132 39.5689 24.8007 39.7564C24.9882 39.944 25.2426 40.0493 25.5078 40.0493C25.773 40.0493 26.0274 39.944 26.2149 39.7564C26.4025 39.5689 26.5078 39.3145 26.5078 39.0493ZM36.8008 38.3423C36.6133 38.5298 36.5079 38.7841 36.5078 39.0493C36.5078 39.2807 36.5879 39.5049 36.7347 39.6838C36.8814 39.8626 37.0856 39.9851 37.3125 40.0303C37.5394 40.0755 37.775 40.0406 37.979 39.9315C38.1831 39.8225 38.343 39.6461 38.4316 39.4324C38.5202 39.2187 38.5319 38.9808 38.4648 38.7594C38.3977 38.538 38.2559 38.3467 38.0635 38.2182C37.8712 38.0896 37.6402 38.0317 37.41 38.0543C37.1797 38.077 36.9644 38.1787 36.8008 38.3423Z" fill="#7964FC"/>
</svg>
