<svg width="63" height="64" viewBox="0 0 63 64" fill="none" xmlns="http://www.w3.org/2000/svg">
<circle cx="31.5981" cy="31.8384" r="30.7231" fill="white" stroke="#E8DBDB"/>
<path d="M25.0299 14.7671C25.8035 14.7671 26.5454 15.0744 27.0923 15.6214C27.6393 16.1683 27.9466 16.9102 27.9466 17.6838C27.9466 18.4573 27.6393 19.1992 27.0923 19.7462C26.5454 20.2931 25.8035 20.6004 25.0299 20.6004C24.2564 20.6004 23.5145 20.2931 22.9676 19.7462C22.4206 19.1992 22.1133 18.4573 22.1133 17.6838C22.1133 16.9102 22.4206 16.1683 22.9676 15.6214C23.5145 15.0744 24.2564 14.7671 25.0299 14.7671ZM22.8424 22.0588H27.2174C27.991 22.0588 28.7329 22.366 29.2798 22.913C29.8268 23.46 30.1341 24.2019 30.1341 24.9754V32.9963H27.9466V43.9338H22.1133V32.9963H19.9258V24.9754C19.9258 24.2019 20.2331 23.46 20.7801 22.913C21.327 22.366 22.0689 22.0588 22.8424 22.0588ZM38.1549 14.7671C38.9285 14.7671 39.6704 15.0744 40.2173 15.6214C40.7643 16.1683 41.0716 16.9102 41.0716 17.6838C41.0716 18.4573 40.7643 19.1992 40.2173 19.7462C39.6704 20.2931 38.9285 20.6004 38.1549 20.6004C37.3814 20.6004 36.6395 20.2931 36.0926 19.7462C35.5456 19.1992 35.2383 18.4573 35.2383 17.6838C35.2383 16.9102 35.5456 16.1683 36.0926 15.6214C36.6395 15.0744 37.3814 14.7671 38.1549 14.7671ZM35.9674 22.0588H40.3424C41.116 22.0588 41.8579 22.366 42.4048 22.913C42.9518 23.46 43.2591 24.2019 43.2591 24.9754V32.9963H41.0716V43.9338H35.2383V32.9963H33.0508V24.9754C33.0508 24.2019 33.3581 23.46 33.9051 22.913C34.452 22.366 35.1939 22.0588 35.9674 22.0588Z" fill="#30790E"/>
</svg>
