<svg width="63" height="64" viewBox="0 0 63 64" fill="none" xmlns="http://www.w3.org/2000/svg">
<circle cx="31.3638" cy="32.0493" r="30.7231" fill="white" stroke="#E8DBDB"/>
<path d="M42.9519 30.161L38.5335 22.7169C38.3577 22.3898 37.9332 22.2398 37.5697 22.2398H33.6005V18.8798C33.6005 18.2638 33.0965 17.7598 32.4805 17.7598H29.6805C29.0645 17.7598 28.5605 18.2638 28.5605 18.8798V22.2398H25.2229C24.8589 22.2398 24.4165 22.3898 24.2406 22.7169L19.8049 30.2198C19.0763 30.2198 18.4805 30.7725 18.4805 31.5201V38.3179C18.4805 39.0655 19.0763 39.5998 19.8049 39.5998H21.2805V41.7166C21.2805 42.8388 22.0241 43.5198 23.1167 43.5198H23.7792C24.8717 43.5198 25.7605 42.8388 25.7605 41.7166V39.5998H36.9605V41.7166C36.9605 42.8388 37.9203 43.5198 39.0129 43.5198H39.6759C40.7685 43.5198 41.4405 42.8388 41.4405 41.7166V39.5998H42.9877C43.7157 39.5998 44.2405 39.0655 44.2405 38.3179V31.5201C44.2405 30.7725 43.6805 30.161 42.9519 30.161ZM22.1233 35.5986C21.2088 35.5986 20.4668 34.8381 20.4668 33.8995C20.4668 32.9604 21.2082 32.1999 22.1233 32.1999C23.0383 32.1999 23.7792 32.9604 23.7792 33.8995C23.7792 34.8381 23.0383 35.5986 22.1233 35.5986ZM23.1167 30.0798L26.1317 24.8286C26.2953 24.4938 26.727 24.4798 27.091 24.4798H35.7016C36.0656 24.4798 36.4973 24.4938 36.6603 24.8286L39.6759 30.0798H23.1167ZM40.6688 35.5986C39.7549 35.5986 39.0129 34.8381 39.0129 33.8995C39.0129 32.9604 39.7549 32.1999 40.6688 32.1999C41.5833 32.1999 42.3253 32.9604 42.3253 33.8995C42.3253 34.8381 41.5833 35.5986 40.6688 35.5986Z" fill="#EF6262"/>
</svg>
