<svg width="63" height="63" viewBox="0 0 63 63" fill="none" xmlns="http://www.w3.org/2000/svg">
<circle cx="31.3638" cy="31.3145" r="30.7231" fill="white" stroke="#E8DBDB"/>
<path d="M18.8594 18.8145H30.1094V30.0645H18.8594V18.8145ZM32.6094 24.4395C32.6094 23.7008 32.7549 22.9693 33.0376 22.2869C33.3202 21.6044 33.7346 20.9843 34.2569 20.462C34.7792 19.9396 35.3993 19.5253 36.0818 19.2426C36.7642 18.9599 37.4957 18.8145 38.2344 18.8145C38.9731 18.8145 39.7045 18.9599 40.387 19.2426C41.0694 19.5253 41.6895 19.9396 42.2118 20.462C42.7342 20.9843 43.1485 21.6044 43.4312 22.2869C43.7139 22.9693 43.8594 23.7008 43.8594 24.4395C43.8594 25.9313 43.2667 27.362 42.2118 28.4169C41.157 29.4718 39.7262 30.0645 38.2344 30.0645C36.7425 30.0645 35.3118 29.4718 34.2569 28.4169C33.202 27.362 32.6094 25.9313 32.6094 24.4395ZM18.8594 32.5645H30.1094V43.8145H18.8594V32.5645ZM32.6094 32.5645H43.8594V43.8145H32.6094V32.5645Z" fill="#A40F5F"/>
</svg>
