<svg width="63" height="63" viewBox="0 0 63 63" fill="none" xmlns="http://www.w3.org/2000/svg">
<circle cx="31.5044" cy="31.5293" r="30.7231" fill="white" stroke="#E8DBDB"/>
<g clip-path="url(#clip0_1929_201)">
<path d="M33.3093 17.1388C32.7657 16.8119 32.1434 16.6392 31.5091 16.6392C30.8748 16.6392 30.2525 16.8119 29.7089 17.1388L18.6758 23.7561V37.5228L29.7089 44.1424C30.2523 44.4699 30.8747 44.643 31.5091 44.643C32.1435 44.643 32.7659 44.4699 33.3093 44.1424L44.3424 37.5228V23.7561L33.3093 17.1388ZM27.7816 29.4728H35.2424L31.5091 35.4379L27.7816 29.4728ZM31.5686 20.3156L35.3591 27.1394H27.6836L31.5686 20.3156ZM37.6143 26.3939L34.3219 20.4673L40.9078 24.4188L37.6143 26.3939ZM25.4203 26.4044L22.1104 24.4211L28.8514 20.3728L25.4203 26.4044ZM24.2034 28.3948L21.0091 33.0789V26.4791L24.2034 28.3948ZM25.6314 30.4364L29.1839 36.1228L22.1968 35.4788L25.6314 30.4364ZM37.3996 30.4154L40.9311 35.4741L33.8424 36.1029L37.3996 30.4154ZM38.8241 28.3901L42.0091 26.4791V32.9459L38.8241 28.3901ZM23.9864 37.9894L30.3424 38.5728V41.8009L23.9864 37.9894ZM32.6758 41.7998V38.5483L39.0329 37.9848L32.6758 41.7998Z" fill="#B30FA2"/>
</g>
<defs>
<clipPath id="clip0_1929_201">
<rect width="28" height="28" fill="white" transform="translate(17.5078 16.6396)"/>
</clipPath>
</defs>
</svg>
