<svg width="63" height="63" viewBox="0 0 63 63" fill="none" xmlns="http://www.w3.org/2000/svg">
<circle cx="31.5044" cy="31.3145" r="30.7231" fill="white" stroke="#E8DBDB"/>
<path d="M25.0425 42.5764C25.3487 42.1511 25.6383 41.7478 25.9848 41.3536C21.8122 42.4004 18.9375 44.5913 18.9375 47.1268C18.9375 47.2221 18.9418 47.3162 18.9503 47.4091C19.3586 47.249 19.7918 47.0522 20.2502 46.8188C23.0075 45.4108 24.0892 43.9038 25.0425 42.5764ZM29.3893 47.2386C30.2235 46.0763 30.9458 45.0734 32.9827 44.0339C35.0195 42.9926 36.224 43.0109 37.6173 43.0329C38.5523 43.0494 39.5607 43.0641 40.789 42.7909C39.2893 41.9531 36.829 41.3206 34.651 40.9814L31.3345 43.3978L29.8257 41.9274C28.2545 43.0274 27.4497 44.1458 26.7182 45.1633C25.884 46.3256 25.1635 47.3266 23.1248 48.3679C21.6967 49.0976 20.6792 49.3066 19.7148 49.3579C20.4757 50.4048 21.7535 51.3251 23.3888 52.0309C23.7702 51.8782 24.1723 51.6942 24.5952 51.4791C27.3543 50.0711 28.4342 48.5659 29.3912 47.2386M42.0173 44.2283C40.4242 44.2026 38.6183 44.1733 35.861 45.5831C33.1037 46.9911 32.022 48.4981 31.0687 49.8254C30.2327 50.9859 29.5122 51.9888 27.4753 53.0301L27.204 53.1658C28.9359 53.4822 30.6974 53.6058 32.4565 53.5343C32.9662 52.9733 33.364 52.4214 33.7398 51.9008C34.5722 50.7384 35.2945 49.7338 37.3332 48.6943C39.3682 47.6529 40.5727 47.6731 41.966 47.6951C42.6077 47.7061 43.286 47.7171 44.0432 47.6346C44.0701 47.4672 44.0835 47.2985 44.0835 47.1286C44.0835 46.0873 43.5995 45.1064 42.7397 44.2356C42.5026 44.2356 42.2618 44.2332 42.0173 44.2283ZM36.5503 53.0136C39.8448 52.2766 42.3987 50.8374 43.4968 49.0683C42.5545 49.2461 41.4838 49.5908 40.2078 50.2416C38.4295 51.1509 37.3478 52.0988 36.5503 53.0136Z" fill="white"/>
<path d="M31.5095 16.8857L17.3672 31.5524L31.5095 45.1722L45.6519 31.5506L31.5095 16.8857Z" fill="url(#paint0_linear_1929_202)"/>
<path d="M31.5095 31.5524H17.3672L31.5095 16.8857V31.5524Z" fill="url(#paint1_linear_1929_202)"/>
<defs>
<linearGradient id="paint0_linear_1929_202" x1="38.3259" y1="26.5859" x2="21.6095" y2="39.2121" gradientUnits="userSpaceOnUse">
<stop offset="0.09" stop-color="#FF6D41"/>
<stop offset="0.5" stop-color="#FA297F"/>
<stop offset="1" stop-color="#FA297F"/>
</linearGradient>
<linearGradient id="paint1_linear_1929_202" x1="34.6904" y1="20.8604" x2="21.23" y2="34.0366" gradientUnits="userSpaceOnUse">
<stop stop-color="#652CB4"/>
<stop offset="0.07" stop-color="#652CB4" stop-opacity="0.82"/>
<stop offset="0.19" stop-color="#652CB4" stop-opacity="0.53"/>
<stop offset="0.3" stop-color="#652CB4" stop-opacity="0.3"/>
<stop offset="0.4" stop-color="#652CB4" stop-opacity="0.14"/>
<stop offset="0.49" stop-color="#652CB4" stop-opacity="0.04"/>
<stop offset="0.55" stop-color="#652CB4" stop-opacity="0"/>
</linearGradient>
</defs>
</svg>
