<svg width="63" height="63" viewBox="0 0 63 63" fill="none" xmlns="http://www.w3.org/2000/svg">
<circle cx="31.3638" cy="31.4502" r="30.7231" fill="white" stroke="#E8DBDB"/>
<path d="M43.6277 38.2939L40.961 35.6272C40.4277 35.0939 39.6277 35.0939 39.0944 35.6272C38.561 36.1605 38.561 36.9605 39.0944 37.4939L39.4944 37.8939H36.0277C35.2277 37.8939 34.6944 38.4272 34.6944 39.2272C34.6944 40.0272 35.2277 40.5605 36.0277 40.5605H39.4944L39.0944 40.9605C38.8277 41.2272 38.6944 41.4939 38.6944 41.8939C38.6944 42.6939 39.2277 43.2272 40.0277 43.2272C40.4277 43.2272 40.6944 43.0939 40.961 42.8272L43.6277 40.1605C43.761 40.0272 43.8944 39.8939 43.8944 39.7605C43.8944 39.6272 44.0277 39.4939 44.0277 39.2272C44.0277 39.0939 44.0277 38.8272 43.8944 38.6939C43.8944 38.5605 43.761 38.4272 43.6277 38.2939ZM26.6944 37.8939H23.2277L23.6277 37.4939C24.161 36.9605 24.161 36.1605 23.6277 35.6272C23.0944 35.0939 22.2944 35.0939 21.761 35.6272L19.0944 38.2939C18.961 38.4272 18.8277 38.5605 18.8277 38.6939C18.8277 38.8272 18.6944 38.9605 18.6944 39.2272C18.6944 39.3605 18.6944 39.6272 18.8277 39.7605C18.961 39.8939 18.961 40.0272 19.0944 40.1605L21.761 42.8272C22.0277 43.0939 22.2944 43.2272 22.6944 43.2272C23.0944 43.2272 23.361 43.0939 23.6277 42.8272C24.161 42.2939 24.161 41.4939 23.6277 40.9605L23.2277 40.5605H26.6944C27.4944 40.5605 28.0277 40.0272 28.0277 39.2272C28.0277 38.4272 27.4944 37.8939 26.6944 37.8939ZM39.361 27.4939C41.2277 27.4939 42.8277 25.8939 42.8277 24.0272C42.8277 22.1605 41.2277 20.5605 39.361 20.5605C37.4944 20.5605 35.8944 22.1605 35.8944 24.0272C35.8944 25.8939 37.4944 27.4939 39.361 27.4939ZM45.6277 32.4272C42.8277 28.9605 37.761 28.4272 34.2944 31.2272C33.8944 31.6272 33.361 32.0272 33.0944 32.4272C32.561 33.2272 32.561 34.2939 33.361 34.8272C33.6277 35.0939 34.0277 35.2272 34.4277 35.2272H36.961C37.0944 34.8272 37.361 34.5605 37.6277 34.1605C38.961 32.8272 41.0944 32.8272 42.2944 34.1605L43.361 35.2272H44.161C45.0944 35.2272 45.8944 34.4272 45.8944 33.4939C46.0277 33.0939 45.8944 32.6939 45.6277 32.4272ZM18.2944 31.0939C17.8944 31.4939 17.361 31.8939 17.0944 32.2939C16.561 33.0939 16.561 34.1605 17.361 34.6939C17.6277 35.0939 18.0277 35.2272 18.4277 35.2272H19.361L20.4277 34.1605C21.761 32.8272 23.8944 32.8272 25.0944 34.1605C25.361 34.4272 25.6277 34.8272 25.761 35.2272H28.2944C29.2277 35.2272 30.0277 34.4272 30.0277 33.4939C30.0277 33.0939 29.8944 32.6939 29.6277 32.4272C26.8277 28.9605 21.761 28.4272 18.2944 31.0939ZM23.361 27.4939C25.2277 27.4939 26.8277 25.8939 26.8277 24.0272C26.8277 22.1605 25.2277 20.5605 23.361 20.5605C21.4944 20.5605 19.8944 22.1605 19.8944 24.0272C19.8944 25.8939 21.4944 27.4939 23.361 27.4939Z" fill="#0F338E"/>
</svg>
