<svg width="63" height="64" viewBox="0 0 63 64" fill="none" xmlns="http://www.w3.org/2000/svg">
<circle cx="31.5513" cy="32.0493" r="30.7231" fill="white" stroke="#E8DBDB"/>
<g clip-path="url(#clip0_1929_204)">
<path d="M28.332 32.9829V29.6359L31.132 26.8359L33.932 29.6359V32.9829H28.332Z" fill="#1D1ACD"/>
<path fill-rule="evenodd" clip-rule="evenodd" d="M19 30.1826C19.0002 28.2268 19.4733 26.3001 20.3788 24.5665C21.2843 22.833 22.5954 21.344 24.2005 20.2265C25.8056 19.109 27.657 18.3961 29.597 18.1484C31.5371 17.9008 33.5082 18.1258 35.3426 18.8043C37.1769 19.4828 38.82 20.5946 40.1319 22.0451C41.4439 23.4956 42.3857 25.2418 42.8772 27.1348C43.3688 29.0278 43.3954 31.0115 42.9549 32.9171C42.5143 34.8226 41.6197 36.5934 40.3472 38.0786L46.7275 44.4551L45.4077 45.7748L39.0275 39.3964C37.2655 40.906 35.1076 41.8787 32.8097 42.1993C30.5117 42.5198 28.17 42.1748 26.0622 41.2051C23.9543 40.2353 22.1688 38.6816 20.9171 36.7279C19.6654 34.7743 19.0001 32.5028 19 30.1826ZM35.5275 28.5884L31.7941 24.8551C31.7074 24.7682 31.6044 24.6992 31.491 24.6522C31.3777 24.6051 31.2561 24.5809 31.1333 24.5809C31.0106 24.5809 30.889 24.6051 30.7756 24.6522C30.6622 24.6992 30.5592 24.7682 30.4725 24.8551L26.7392 28.5884C26.6526 28.6753 26.5839 28.7783 26.5372 28.8917C26.4904 29.0051 26.4664 29.1266 26.4667 29.2492V33.9159C26.4667 34.1634 26.565 34.4008 26.74 34.5759C26.9151 34.7509 27.1525 34.8492 27.4 34.8492H34.8667C35.1142 34.8492 35.3516 34.7509 35.5266 34.5759C35.7017 34.4008 35.8 34.1634 35.8 33.9159V29.2492C35.8002 29.1266 35.7763 29.0051 35.7295 28.8917C35.6827 28.7783 35.6141 28.6753 35.5275 28.5884Z" fill="#1D1ACD"/>
</g>
<defs>
<clipPath id="clip0_1929_204">
<rect width="28" height="28" fill="white" transform="translate(19 18.0493)"/>
</clipPath>
</defs>
</svg>
