<svg width="63" height="64" viewBox="0 0 63 64" fill="none" xmlns="http://www.w3.org/2000/svg">
<circle cx="31.5513" cy="31.8384" r="30.7231" fill="white" stroke="#E8DBDB"/>
<path d="M43.8411 19.4018H39.4523V18.0822C39.4523 17.7081 39.149 17.4048 38.7749 17.4048C38.4008 17.4048 38.0974 17.7081 38.0974 18.0822V19.4018H35.7814V18.719C35.7814 18.2025 35.3613 17.7824 34.8447 17.7824H34.6357V16.3171C34.6357 15.943 34.3324 15.6396 33.9583 15.6396C33.5841 15.6396 33.2808 15.943 33.2808 16.3171V17.7824H33.0733C32.5569 17.7824 32.1367 18.2025 32.1367 18.719V19.4018H29.8207V18.6982C29.8207 18.3241 29.5174 18.0208 29.1432 18.0208C28.7691 18.0208 28.4658 18.3241 28.4658 18.6982V19.4018H19.2603C18.3177 19.4018 17.5508 20.1687 17.5508 21.1114V37.1807C17.5508 38.1233 18.3177 38.8902 19.2603 38.8902H28.3954C28.2062 40.3551 27.4049 41.3225 26.4326 42.2848H24.749C24.3749 42.2848 24.0716 42.5881 24.0716 42.9622C24.0716 43.3363 24.3749 43.6396 24.749 43.6396H38.3524C38.7265 43.6396 39.0298 43.3363 39.0298 42.9622C39.0298 42.5881 38.7265 42.2848 38.3524 42.2848H36.6687C35.6965 41.3225 34.8951 40.3551 34.7059 38.8902H43.841C44.7837 38.8902 45.5506 38.1233 45.5506 37.1807V21.1114C45.5506 20.1687 44.7837 19.4018 43.841 19.4018H43.8411ZM19.2603 20.7566H28.4658V20.9332H28.2567C27.7402 20.9332 27.32 21.3534 27.32 21.8698V26.6176C27.32 27.1341 27.7401 27.5543 28.2567 27.5543H28.4658V30.6229C28.4658 30.997 28.769 31.3003 29.1432 31.3003C29.5173 31.3003 29.8206 30.997 29.8206 30.6229V27.5543H30.0281C30.5445 27.5543 30.9648 27.1341 30.9648 26.6176V21.8698C30.9648 21.3534 30.5446 20.9332 30.0281 20.9332H29.8206V20.7566H32.1366V25.7648C32.1366 26.2812 32.5568 26.7014 33.0733 26.7014H33.2808V28.3187C33.2808 28.6928 33.584 28.9961 33.9582 28.9961C34.3324 28.9961 34.6356 28.6928 34.6356 28.3187V26.7014H34.8447C35.3611 26.7014 35.7814 26.2812 35.7814 25.7648V20.7566H38.0974V21.8741H37.8899C37.3735 21.8741 36.9532 22.2943 36.9532 22.8107V27.5569C36.9532 28.0734 37.3734 28.4936 37.8899 28.4936H38.0974V31.1318C38.0974 31.5059 38.4007 31.8092 38.7748 31.8092C39.1489 31.8092 39.4522 31.5059 39.4522 31.1318V28.4936H39.6613C40.1777 28.4936 40.598 28.0734 40.598 27.5569V22.8107C40.598 22.2943 40.1778 21.8741 39.6613 21.8741H39.4522V20.7566H43.841C44.0366 20.7566 44.1958 20.9158 44.1958 21.1114V34.2117H18.9056V21.1114C18.9056 20.9191 19.068 20.7566 19.2603 20.7566ZM22.5034 28.6179V23.8717C22.5034 23.3553 22.9235 22.9351 23.4401 22.9351H23.6492V21.9035C23.6492 21.5294 23.9525 21.2261 24.3266 21.2261C24.7007 21.2261 25.004 21.5294 25.004 21.9035V22.9351H25.2115C25.7279 22.9351 26.1482 23.3553 26.1482 23.8717V28.6179C26.1482 29.1344 25.728 29.5546 25.2115 29.5546H25.004V31.3719C25.004 31.746 24.7007 32.0493 24.3266 32.0493C23.9525 32.0493 23.6492 31.746 23.6492 31.3719V29.5546H23.4401C22.9236 29.5546 22.5034 29.1344 22.5034 28.6179Z" fill="#9414A9"/>
</svg>
